G75*
%MOIN*%
%OFA0B0*%
%FSLAX24Y24*%
%IPPOS*%
%LPD*%
%AMOC8*
5,1,8,0,0,1.08239X$1,22.5*
%
%ADD10C,0.0120*%
%ADD11C,0.0300*%
%ADD12C,0.0180*%
%ADD13C,0.0240*%
%ADD14C,0.0110*%
%ADD15C,0.0705*%
%ADD16C,0.0480*%
%ADD17R,0.0689X0.0689*%
%ADD18C,0.0600*%
%ADD19C,0.0000*%
%ADD20OC8,0.0480*%
%ADD21OC8,0.0500*%
%ADD22C,0.0500*%
%ADD23C,0.0480*%
%ADD24C,0.0669*%
%ADD25R,0.0591X0.0591*%
%ADD26C,0.0500*%
%ADD27R,0.0356X0.0356*%
%ADD28C,0.0320*%
%ADD29C,0.0160*%
%ADD30C,0.2756*%
D10*
X013160Y000220D02*
X013160Y031716D01*
X052530Y031716D01*
X052530Y000220D01*
X013160Y000220D01*
X026160Y008220D02*
X026410Y007970D01*
X028410Y007970D01*
X028660Y008220D01*
X028660Y009220D01*
X028910Y009470D01*
X032410Y009470D01*
X033410Y008470D01*
X039160Y008470D01*
X040160Y009470D01*
X040660Y009470D01*
X040660Y010470D02*
X040160Y010470D01*
X038410Y008720D01*
X033660Y008720D01*
X032660Y009720D01*
X028660Y009720D01*
X028160Y009220D01*
X028160Y008720D01*
X026160Y008720D02*
X026160Y008220D01*
X033660Y003470D02*
X033660Y000970D01*
X037660Y009470D02*
X038410Y009470D01*
X038660Y009720D01*
X038660Y011720D01*
X038410Y011970D01*
X035660Y011970D01*
X035160Y012470D01*
X035160Y018095D01*
X034285Y018970D01*
X031410Y018970D01*
X030660Y019720D01*
X030660Y021970D01*
X030160Y022470D01*
X023410Y022470D01*
X022910Y022970D01*
X022910Y024220D01*
X022910Y025220D01*
X022910Y029220D02*
X022910Y030970D01*
X029160Y030970D02*
X029160Y029220D01*
X035160Y028970D02*
X035410Y029220D01*
X041160Y026470D02*
X042160Y026470D01*
X042160Y026220D01*
X041910Y023720D02*
X041660Y023470D01*
X041660Y022220D01*
X041410Y021970D01*
X040160Y021970D01*
X039660Y022470D01*
X037660Y022470D01*
X036910Y022720D02*
X036910Y019220D01*
X037160Y018970D01*
X038160Y018970D01*
X038410Y018720D01*
X038410Y017720D01*
X038160Y017470D01*
X037660Y017470D01*
X036910Y018220D02*
X036910Y016220D01*
X036660Y015970D01*
X035910Y015970D01*
X035660Y015720D01*
X035660Y012970D01*
X034660Y012470D02*
X034660Y016470D01*
X034160Y016970D01*
X035660Y018595D02*
X035660Y019220D01*
X035410Y019470D01*
X031410Y019470D01*
X031160Y019720D01*
X031160Y020220D01*
X035410Y024220D02*
X036910Y022720D01*
X037660Y021470D02*
X039410Y021470D01*
X039660Y021220D01*
X039660Y016220D01*
X039910Y015970D01*
X039160Y015720D02*
X038660Y015220D01*
X038660Y014720D01*
X039410Y013970D01*
X039410Y011720D01*
X040160Y010970D01*
X042410Y010970D01*
X043160Y010220D01*
X043660Y010220D01*
X040660Y011470D02*
X040410Y011470D01*
X039660Y012220D01*
X039660Y014470D01*
X040160Y014970D01*
X046910Y014970D01*
X047410Y015470D01*
X047410Y019220D01*
X047910Y019720D01*
X047910Y020220D01*
X048660Y019970D02*
X047910Y019220D01*
X047910Y014970D01*
X047410Y014470D01*
X041910Y014470D01*
X041410Y013970D01*
X040160Y013970D01*
X039910Y013720D01*
X039910Y012720D01*
X040160Y012470D01*
X040660Y012470D01*
X040660Y013470D02*
X041660Y013470D01*
X042160Y013970D01*
X047910Y013970D01*
X048410Y014470D01*
X048410Y019220D01*
X049160Y019970D01*
X049160Y021720D01*
X049410Y021970D01*
X051160Y021970D01*
X051660Y022470D01*
X051660Y023970D01*
X051410Y024220D01*
X050910Y024220D01*
X050910Y023220D02*
X050910Y022720D01*
X050660Y022470D01*
X049410Y022470D01*
X048660Y021720D01*
X048660Y019970D01*
X046160Y023720D02*
X041910Y023720D01*
X039160Y020470D02*
X037660Y020470D01*
X037660Y019470D02*
X038910Y019470D01*
X039160Y019220D01*
X039160Y015720D01*
X039410Y015220D02*
X039160Y014970D01*
X039410Y015220D02*
X039410Y020220D01*
X039160Y020470D01*
X037660Y018470D02*
X037160Y018470D01*
X036910Y018220D01*
X034660Y012470D02*
X035660Y011470D01*
X037660Y011470D01*
X049410Y007220D02*
X049535Y007345D01*
X046660Y001970D02*
X046660Y000970D01*
X046160Y023720D02*
X048410Y025970D01*
X050660Y025970D01*
X050910Y025720D01*
X050910Y025220D01*
D11*
X032262Y018320D02*
X032262Y017469D01*
X031978Y017186D01*
X031411Y017186D01*
X031128Y017469D01*
X031128Y018320D01*
X030560Y018320D02*
X032262Y018320D01*
X031695Y016478D02*
X030560Y015911D01*
X031695Y015344D01*
X032262Y014637D02*
X030560Y014637D01*
X031128Y014637D02*
X031128Y013786D01*
X031411Y013503D01*
X031978Y013503D01*
X032262Y013786D01*
X032262Y014637D01*
D12*
X025811Y007956D02*
X025130Y006935D01*
X024706Y006935D02*
X024706Y007616D01*
X024365Y007956D01*
X024025Y007616D01*
X024025Y006935D01*
X023601Y007105D02*
X023601Y007275D01*
X023431Y007445D01*
X023090Y007445D01*
X022920Y007616D01*
X022920Y007786D01*
X023090Y007956D01*
X023431Y007956D01*
X023601Y007786D01*
X024025Y007445D02*
X024706Y007445D01*
X025130Y007956D02*
X025811Y006935D01*
X026589Y006626D02*
X026589Y006456D01*
X026589Y006116D02*
X026419Y006116D01*
X026589Y006116D02*
X026589Y005435D01*
X026419Y005435D02*
X026759Y005435D01*
X027156Y005605D02*
X027156Y005945D01*
X027326Y006116D01*
X027836Y006116D01*
X027836Y005265D01*
X027666Y005095D01*
X027496Y005095D01*
X027326Y005435D02*
X027836Y005435D01*
X027326Y005435D02*
X027156Y005605D01*
X025995Y005605D02*
X025825Y005775D01*
X025484Y005775D01*
X025314Y005945D01*
X025484Y006116D01*
X025995Y006116D01*
X025995Y005605D02*
X025825Y005435D01*
X025314Y005435D01*
X024890Y005605D02*
X024720Y005775D01*
X024379Y005775D01*
X024209Y005945D01*
X024379Y006116D01*
X024890Y006116D01*
X024890Y005605D02*
X024720Y005435D01*
X024209Y005435D01*
X023813Y005435D02*
X023473Y005435D01*
X023643Y005435D02*
X023643Y006116D01*
X023473Y006116D01*
X023643Y006456D02*
X023643Y006626D01*
X023431Y006935D02*
X023090Y006935D01*
X022920Y007105D01*
X022496Y007105D02*
X022496Y007445D01*
X022326Y007616D01*
X021985Y007616D01*
X021815Y007445D01*
X021815Y007105D01*
X021985Y006935D01*
X022326Y006935D01*
X022496Y007105D01*
X021943Y006456D02*
X021943Y005435D01*
X021603Y005775D01*
X021263Y005435D01*
X021263Y006456D01*
X021221Y006935D02*
X020710Y006935D01*
X020710Y007956D01*
X020710Y007616D02*
X021221Y007616D01*
X021391Y007445D01*
X021391Y007105D01*
X021221Y006935D01*
X020286Y007105D02*
X020286Y007445D01*
X020116Y007616D01*
X019775Y007616D01*
X019605Y007445D01*
X019605Y007105D01*
X019775Y006935D01*
X020116Y006935D01*
X020286Y007105D01*
X019181Y006935D02*
X018841Y007275D01*
X019011Y007275D02*
X018500Y007275D01*
X018500Y006935D02*
X018500Y007956D01*
X019011Y007956D01*
X019181Y007786D01*
X019181Y007445D01*
X019011Y007275D01*
X019011Y006456D02*
X019181Y006286D01*
X019181Y005945D01*
X019011Y005775D01*
X018500Y005775D01*
X018500Y005435D02*
X018500Y006456D01*
X019011Y006456D01*
X019605Y005605D02*
X019775Y005605D01*
X019775Y005435D01*
X019605Y005435D01*
X019605Y005605D01*
X019775Y004956D02*
X020116Y004956D01*
X020286Y004786D01*
X019605Y004105D01*
X019775Y003935D01*
X020116Y003935D01*
X020286Y004105D01*
X020286Y004786D01*
X019775Y004956D02*
X019605Y004786D01*
X019605Y004105D01*
X019181Y003935D02*
X018500Y003935D01*
X018841Y003935D02*
X018841Y004956D01*
X018500Y004616D01*
X020710Y004105D02*
X020710Y003935D01*
X020880Y003935D01*
X020880Y004105D01*
X020710Y004105D01*
X021263Y004105D02*
X021263Y004786D01*
X021433Y004956D01*
X021773Y004956D01*
X021943Y004786D01*
X021263Y004105D01*
X021433Y003935D01*
X021773Y003935D01*
X021943Y004105D01*
X021943Y004786D01*
X022368Y004616D02*
X022708Y004956D01*
X022708Y003935D01*
X022368Y003935D02*
X023048Y003935D01*
X023473Y003935D02*
X023473Y004105D01*
X023643Y004105D01*
X023643Y003935D01*
X023473Y003935D01*
X024025Y003935D02*
X024706Y003935D01*
X024365Y003935D02*
X024365Y004956D01*
X024025Y004616D01*
X025130Y004956D02*
X025811Y004956D01*
X025811Y004786D01*
X025130Y004105D01*
X025130Y003935D01*
X022878Y005435D02*
X022538Y005435D01*
X022368Y005605D01*
X022368Y005945D01*
X022538Y006116D01*
X022878Y006116D01*
X023048Y005945D01*
X023048Y005775D01*
X022368Y005775D01*
X023431Y006935D02*
X023601Y007105D01*
D13*
X024480Y008535D02*
X021340Y008535D01*
X021547Y008965D01*
X021547Y008965D01*
X021623Y009470D01*
X021547Y009975D01*
X021325Y010435D01*
X020978Y010809D01*
X020536Y011064D01*
X020038Y011178D01*
X019529Y011140D01*
X019054Y010953D01*
X018655Y010635D01*
X018655Y010635D01*
X018655Y010635D01*
X018368Y010213D01*
X018217Y009725D01*
X018217Y009215D01*
X018368Y008727D01*
X018498Y008535D01*
X018198Y008535D01*
X018036Y008468D01*
X017912Y008344D01*
X017845Y008183D01*
X017845Y003619D01*
X017745Y003861D01*
X017551Y004055D01*
X016801Y004805D01*
X016548Y004910D01*
X016350Y004910D01*
X016350Y005599D01*
X016378Y005626D01*
X016445Y005788D01*
X016445Y006652D01*
X016417Y006720D01*
X016445Y006788D01*
X016445Y007652D01*
X016417Y007720D01*
X016445Y007788D01*
X016445Y008652D01*
X016378Y008814D01*
X016254Y008938D01*
X016225Y008950D01*
X016225Y009220D01*
X016225Y009593D01*
X016210Y009649D01*
X016181Y009700D01*
X016160Y009720D01*
X016181Y009740D01*
X016210Y009791D01*
X016225Y009847D01*
X016225Y010220D01*
X016225Y010593D01*
X016210Y010649D01*
X016181Y010700D01*
X016140Y010741D01*
X016090Y010769D01*
X016034Y010784D01*
X015660Y010784D01*
X015390Y010784D01*
X015378Y010814D01*
X015254Y010938D01*
X015092Y011004D01*
X014852Y011004D01*
X014600Y011256D01*
X014600Y011440D01*
X014685Y011355D01*
X014867Y011280D01*
X015261Y011280D01*
X015279Y011287D01*
X015297Y011280D01*
X015494Y011280D01*
X015592Y011321D01*
X015690Y011280D01*
X015887Y011280D01*
X015914Y011291D01*
X015941Y011280D01*
X016532Y011280D01*
X016714Y011355D01*
X016853Y011495D01*
X016928Y011677D01*
X016928Y011873D01*
X016853Y012055D01*
X016731Y012177D01*
X016731Y012180D01*
X016808Y012180D01*
X017080Y012293D01*
X017288Y012501D01*
X017400Y012773D01*
X017400Y012812D01*
X017405Y012805D01*
X017804Y012487D01*
X017804Y012487D01*
X018279Y012300D01*
X018788Y012262D01*
X018788Y012262D01*
X019286Y012376D01*
X019728Y012631D01*
X019728Y012631D01*
X020075Y013005D01*
X020297Y013465D01*
X020373Y013970D01*
X020297Y014475D01*
X020075Y014935D01*
X019728Y015309D01*
X019286Y015564D01*
X018788Y015678D01*
X018293Y015640D01*
X018590Y015938D01*
X018590Y016502D01*
X018372Y016720D01*
X018590Y016938D01*
X018590Y017502D01*
X018372Y017720D01*
X018590Y017938D01*
X018590Y018502D01*
X018192Y018900D01*
X017629Y018900D01*
X017232Y018503D01*
X017154Y018535D01*
X016870Y018535D01*
X016928Y018677D01*
X016928Y018873D01*
X016888Y018972D01*
X016928Y019070D01*
X016928Y019230D01*
X017080Y019293D01*
X017288Y019501D01*
X017399Y019770D01*
X017629Y019540D01*
X018192Y019540D01*
X018590Y019938D01*
X018590Y020502D01*
X018192Y020900D01*
X017629Y020900D01*
X017399Y020670D01*
X017288Y020939D01*
X017080Y021147D01*
X016889Y021226D01*
X016928Y021320D01*
X016928Y021516D01*
X016928Y021616D01*
X016853Y021797D01*
X016648Y022003D01*
X016662Y022008D01*
X016761Y021968D01*
X016956Y021968D01*
X017056Y021968D01*
X017230Y022040D01*
X017230Y021938D01*
X017629Y021540D01*
X018192Y021540D01*
X018590Y021938D01*
X018590Y022502D01*
X018372Y022720D01*
X018590Y022938D01*
X018590Y023502D01*
X018372Y023720D01*
X018590Y023938D01*
X018590Y024502D01*
X018372Y024720D01*
X018590Y024938D01*
X018590Y025502D01*
X018513Y025579D01*
X018704Y025579D01*
X018881Y025653D01*
X018991Y025543D01*
X019263Y025430D01*
X019558Y025430D01*
X019830Y025543D01*
X020038Y025751D01*
X020054Y025791D01*
X020072Y025773D01*
X020138Y025725D01*
X020211Y025688D01*
X020289Y025663D01*
X020369Y025650D01*
X020410Y025650D01*
X020410Y026470D01*
X020410Y027290D01*
X020369Y027290D01*
X020289Y027277D01*
X020211Y027252D01*
X020138Y027215D01*
X020072Y027167D01*
X020054Y027149D01*
X020038Y027189D01*
X019830Y027397D01*
X019558Y027510D01*
X019263Y027510D01*
X018991Y027397D01*
X018783Y027189D01*
X018761Y027136D01*
X018704Y027160D01*
X018212Y027160D01*
X018135Y027128D01*
X018059Y027160D01*
X017469Y027160D01*
X017287Y027085D01*
X017148Y026945D01*
X017072Y026763D01*
X017072Y026567D01*
X017148Y026385D01*
X017269Y026263D01*
X017269Y025976D01*
X017331Y025827D01*
X017344Y025794D01*
X017344Y025794D01*
X017434Y025705D01*
X017230Y025502D01*
X017230Y025254D01*
X017154Y025285D01*
X016367Y025285D01*
X016185Y025210D01*
X016046Y025070D01*
X016037Y025050D01*
X015796Y025150D01*
X015525Y025150D01*
X015350Y025078D01*
X015350Y025107D01*
X015245Y025361D01*
X015051Y025555D01*
X014995Y025578D01*
X017593Y028177D01*
X017703Y027911D01*
X017911Y027703D01*
X018183Y027590D01*
X019078Y027590D01*
X019350Y027703D01*
X019558Y027911D01*
X019670Y028183D01*
X019670Y028477D01*
X019558Y028749D01*
X019350Y028957D01*
X019078Y029070D01*
X018183Y029070D01*
X018100Y029036D01*
X018100Y029644D01*
X018131Y029628D01*
X018209Y029603D01*
X018289Y029590D01*
X018630Y029590D01*
X018630Y030110D01*
X018630Y030110D01*
X018630Y029590D01*
X018971Y029590D01*
X019052Y029603D01*
X019130Y029628D01*
X019203Y029665D01*
X019269Y029713D01*
X019327Y029771D01*
X019375Y029837D01*
X019412Y029910D01*
X019438Y029988D01*
X019450Y030069D01*
X019450Y030110D01*
X019450Y030151D01*
X019438Y030232D01*
X019422Y030280D01*
X020399Y030280D01*
X020383Y030232D01*
X020370Y030151D01*
X020370Y030110D01*
X021190Y030110D01*
X020370Y030110D01*
X020370Y030069D01*
X020383Y029988D01*
X020408Y029910D01*
X020446Y029837D01*
X020494Y029771D01*
X020552Y029713D01*
X020618Y029665D01*
X020691Y029628D01*
X020769Y029603D01*
X020849Y029590D01*
X021190Y029590D01*
X021190Y030110D01*
X021190Y030110D01*
X021190Y030110D01*
X021190Y029590D01*
X021531Y029590D01*
X021612Y029603D01*
X021690Y029628D01*
X021763Y029665D01*
X021829Y029713D01*
X021887Y029771D01*
X021935Y029837D01*
X021972Y029910D01*
X021998Y029988D01*
X022010Y030069D01*
X022010Y030110D01*
X022010Y030151D01*
X021998Y030232D01*
X021982Y030280D01*
X022410Y030280D01*
X022410Y029682D01*
X022230Y029502D01*
X022230Y028938D01*
X022629Y028540D01*
X023192Y028540D01*
X023590Y028938D01*
X023590Y029502D01*
X023410Y029682D01*
X023410Y030280D01*
X024089Y030280D01*
X024073Y030232D01*
X024060Y030151D01*
X024060Y030110D01*
X024060Y030069D01*
X024073Y029988D01*
X024098Y029910D01*
X024136Y029837D01*
X024184Y029771D01*
X024242Y029713D01*
X024308Y029665D01*
X024381Y029628D01*
X024459Y029603D01*
X024539Y029590D01*
X024880Y029590D01*
X024880Y030110D01*
X024060Y030110D01*
X024880Y030110D01*
X024880Y030110D01*
X024880Y030110D01*
X024880Y029590D01*
X025221Y029590D01*
X025302Y029603D01*
X025380Y029628D01*
X025453Y029665D01*
X025519Y029713D01*
X025577Y029771D01*
X025625Y029837D01*
X025662Y029910D01*
X025688Y029988D01*
X025700Y030069D01*
X025700Y030110D01*
X025700Y030151D01*
X025688Y030232D01*
X025672Y030280D01*
X026649Y030280D01*
X026633Y030232D01*
X026620Y030151D01*
X026620Y030110D01*
X026620Y030069D01*
X026633Y029988D01*
X026658Y029910D01*
X026696Y029837D01*
X026744Y029771D01*
X026802Y029713D01*
X026868Y029665D01*
X026941Y029628D01*
X027019Y029603D01*
X027099Y029590D01*
X027440Y029590D01*
X027440Y030110D01*
X026620Y030110D01*
X027440Y030110D01*
X027440Y030110D01*
X027440Y030110D01*
X027440Y029590D01*
X027781Y029590D01*
X027862Y029603D01*
X027940Y029628D01*
X028013Y029665D01*
X028079Y029713D01*
X028137Y029771D01*
X028185Y029837D01*
X028222Y029910D01*
X028248Y029988D01*
X028260Y030069D01*
X028260Y030110D01*
X028260Y030151D01*
X028248Y030232D01*
X028232Y030280D01*
X028660Y030280D01*
X028660Y029682D01*
X028480Y029502D01*
X028480Y028938D01*
X028879Y028540D01*
X029442Y028540D01*
X029560Y028658D01*
X029560Y026601D01*
X029652Y026380D01*
X029820Y026211D01*
X030132Y025900D01*
X030129Y025900D01*
X029785Y025557D01*
X029442Y025900D01*
X028879Y025900D01*
X028660Y025682D01*
X028442Y025900D01*
X027879Y025900D01*
X027480Y025502D01*
X027480Y024938D01*
X027854Y024564D01*
X027700Y024411D01*
X027700Y024220D01*
X028160Y024220D01*
X027700Y024220D01*
X027700Y024029D01*
X027734Y023996D01*
X027660Y023922D01*
X027546Y024036D01*
X027296Y024140D01*
X027025Y024140D01*
X026775Y024036D01*
X026660Y023922D01*
X026546Y024036D01*
X026296Y024140D01*
X026025Y024140D01*
X025775Y024036D01*
X025660Y023922D01*
X025546Y024036D01*
X025296Y024140D01*
X025025Y024140D01*
X024775Y024036D01*
X024584Y023845D01*
X024480Y023595D01*
X024480Y022970D01*
X023617Y022970D01*
X023410Y023177D01*
X023410Y023758D01*
X023566Y023914D01*
X023720Y023760D01*
X023910Y023760D01*
X023910Y024220D01*
X023910Y024220D01*
X023910Y023760D01*
X024101Y023760D01*
X024370Y024029D01*
X024370Y024220D01*
X024370Y024411D01*
X024241Y024540D01*
X024442Y024540D01*
X024840Y024938D01*
X024840Y025502D01*
X024763Y025579D01*
X024954Y025579D01*
X025131Y025653D01*
X025241Y025543D01*
X025513Y025430D01*
X025808Y025430D01*
X026080Y025543D01*
X026288Y025751D01*
X026304Y025791D01*
X026322Y025773D01*
X026388Y025725D01*
X026461Y025688D01*
X026539Y025663D01*
X026619Y025650D01*
X026660Y025650D01*
X026660Y026470D01*
X026660Y027290D01*
X026619Y027290D01*
X026539Y027277D01*
X026461Y027252D01*
X026388Y027215D01*
X026322Y027167D01*
X026304Y027149D01*
X026288Y027189D01*
X026080Y027397D01*
X025808Y027510D01*
X025513Y027510D01*
X025241Y027397D01*
X025033Y027189D01*
X025011Y027136D01*
X024954Y027160D01*
X024462Y027160D01*
X024385Y027128D01*
X024309Y027160D01*
X023719Y027160D01*
X023537Y027085D01*
X023398Y026945D01*
X023322Y026763D01*
X023322Y026567D01*
X023363Y026468D01*
X023322Y026370D01*
X023322Y026174D01*
X023322Y026074D01*
X023398Y025893D01*
X023634Y025656D01*
X023535Y025557D01*
X023192Y025900D01*
X022629Y025900D01*
X022410Y025682D01*
X022192Y025900D01*
X021629Y025900D01*
X021230Y025502D01*
X021230Y024938D01*
X021449Y024720D01*
X021230Y024502D01*
X021230Y023938D01*
X021449Y023720D01*
X021230Y023502D01*
X021230Y022938D01*
X021449Y022720D01*
X021230Y022502D01*
X021230Y021938D01*
X021629Y021540D01*
X022192Y021540D01*
X022590Y021938D01*
X022590Y022502D01*
X022372Y022720D01*
X022443Y022791D01*
X022486Y022687D01*
X022627Y022546D01*
X022627Y022546D01*
X022986Y022187D01*
X023127Y022046D01*
X023311Y021970D01*
X029953Y021970D01*
X030160Y021763D01*
X030160Y021140D01*
X030025Y021140D01*
X029775Y021036D01*
X029660Y020922D01*
X029546Y021036D01*
X029296Y021140D01*
X029025Y021140D01*
X028775Y021036D01*
X028660Y020922D01*
X028546Y021036D01*
X028296Y021140D01*
X028025Y021140D01*
X027775Y021036D01*
X027660Y020922D01*
X027546Y021036D01*
X027296Y021140D01*
X027025Y021140D01*
X026775Y021036D01*
X026660Y020922D01*
X026546Y021036D01*
X026296Y021140D01*
X026025Y021140D01*
X025775Y021036D01*
X025660Y020922D01*
X025546Y021036D01*
X025296Y021140D01*
X025025Y021140D01*
X024775Y021036D01*
X024584Y020845D01*
X024480Y020595D01*
X024480Y019845D01*
X024584Y019595D01*
X024775Y019404D01*
X025025Y019300D01*
X017087Y019300D01*
X016925Y019062D02*
X024790Y019062D01*
X024879Y019150D02*
X024480Y018752D01*
X024480Y018188D01*
X024509Y018160D01*
X023323Y018160D01*
X023161Y018093D01*
X023037Y017969D01*
X022970Y017808D01*
X022970Y014132D01*
X023037Y013971D01*
X023161Y013847D01*
X023323Y013780D01*
X024509Y013780D01*
X024480Y013752D01*
X024480Y013188D01*
X024879Y012790D01*
X025442Y012790D01*
X025840Y013188D01*
X025840Y013752D01*
X025812Y013780D01*
X026998Y013780D01*
X027160Y013847D01*
X027283Y013971D01*
X027350Y014132D01*
X027350Y017808D01*
X027283Y017969D01*
X027160Y018093D01*
X026998Y018160D01*
X025812Y018160D01*
X025840Y018188D01*
X025840Y018752D01*
X025442Y019150D01*
X024879Y019150D01*
X025025Y019300D02*
X025296Y019300D01*
X026025Y019300D01*
X026296Y019300D01*
X027025Y019300D01*
X027296Y019300D01*
X028025Y019300D01*
X028296Y019300D01*
X029025Y019300D01*
X029296Y019300D01*
X030025Y019300D01*
X030296Y019300D01*
X030373Y019300D01*
X030388Y019285D02*
X030351Y019323D01*
X030296Y019300D01*
X030388Y019285D02*
X030073Y019285D01*
X029911Y019218D01*
X029787Y019094D01*
X029720Y018933D01*
X029720Y018872D01*
X029442Y019150D01*
X028879Y019150D01*
X028480Y018752D01*
X028480Y018188D01*
X028879Y017790D01*
X029442Y017790D01*
X029720Y018068D01*
X029720Y013280D01*
X029720Y014581D01*
X029635Y014787D01*
X028978Y015445D01*
X028772Y015530D01*
X028566Y015530D01*
X028426Y015588D01*
X027895Y015588D01*
X027733Y015521D01*
X027609Y015397D01*
X027542Y015236D01*
X027542Y014704D01*
X027609Y014543D01*
X027733Y014419D01*
X027895Y014352D01*
X028426Y014352D01*
X028469Y014370D01*
X028600Y014238D01*
X028600Y013742D01*
X028442Y013900D01*
X027879Y013900D01*
X027480Y013502D01*
X027480Y012938D01*
X027851Y012568D01*
X027775Y012536D01*
X027660Y012422D01*
X027546Y012536D01*
X027296Y012640D01*
X027025Y012640D01*
X026775Y012536D01*
X026660Y012422D01*
X026546Y012536D01*
X026296Y012640D01*
X026025Y012640D01*
X025775Y012536D01*
X025660Y012422D01*
X025546Y012536D01*
X025296Y012640D01*
X025025Y012640D01*
X024775Y012536D01*
X024584Y012345D01*
X024480Y012095D01*
X024480Y011345D01*
X024584Y011095D01*
X024775Y010904D01*
X025025Y010800D01*
X025296Y010800D01*
X025546Y010904D01*
X025660Y011018D01*
X025775Y010904D01*
X026025Y010800D01*
X026296Y010800D01*
X026546Y010904D01*
X026660Y011018D01*
X026775Y010904D01*
X027025Y010800D01*
X027296Y010800D01*
X027546Y010904D01*
X027660Y011018D01*
X027775Y010904D01*
X028025Y010800D01*
X028296Y010800D01*
X028546Y010904D01*
X028660Y011018D01*
X028775Y010904D01*
X029025Y010800D01*
X029296Y010800D01*
X029546Y010904D01*
X029660Y011018D01*
X029775Y010904D01*
X030025Y010800D01*
X030296Y010800D01*
X030546Y010904D01*
X030660Y011018D01*
X030775Y010904D01*
X031025Y010800D01*
X031296Y010800D01*
X031546Y010904D01*
X031660Y011018D01*
X031775Y010904D01*
X032025Y010800D01*
X032296Y010800D01*
X032546Y010904D01*
X032737Y011095D01*
X032840Y011345D01*
X032840Y012095D01*
X032737Y012345D01*
X032699Y012383D01*
X032635Y012537D01*
X032517Y012655D01*
X032748Y012655D01*
X032910Y012722D01*
X033033Y012846D01*
X033100Y013007D01*
X033100Y018470D01*
X033314Y018470D01*
X033233Y018389D01*
X033120Y018117D01*
X033120Y017823D01*
X033233Y017551D01*
X033314Y017470D01*
X033233Y017389D01*
X033120Y017117D01*
X033120Y016823D01*
X033233Y016551D01*
X033441Y016343D01*
X033713Y016230D01*
X034160Y016230D01*
X034160Y015600D01*
X034025Y015600D01*
X033775Y015496D01*
X033584Y015305D01*
X033480Y015055D01*
X033480Y014785D01*
X033584Y014535D01*
X033775Y014344D01*
X034025Y014240D01*
X034160Y014240D01*
X034160Y013700D01*
X034025Y013700D01*
X033775Y013596D01*
X033584Y013405D01*
X033480Y013155D01*
X033480Y012885D01*
X033584Y012635D01*
X033775Y012444D01*
X034025Y012340D01*
X034173Y012340D01*
X034236Y012187D01*
X034377Y012046D01*
X035377Y011046D01*
X035561Y010970D01*
X036959Y010970D01*
X036844Y010855D01*
X036740Y010605D01*
X036740Y010335D01*
X036844Y010085D01*
X036959Y009970D01*
X036844Y009855D01*
X036740Y009605D01*
X036740Y009335D01*
X036788Y009220D01*
X033867Y009220D01*
X032944Y010144D01*
X032760Y010220D01*
X028561Y010220D01*
X028377Y010144D01*
X028236Y010003D01*
X027736Y009503D01*
X027733Y009494D01*
X027660Y009422D01*
X027546Y009536D01*
X027296Y009640D01*
X027025Y009640D01*
X026775Y009536D01*
X026660Y009422D01*
X026546Y009536D01*
X026296Y009640D01*
X026025Y009640D01*
X025775Y009536D01*
X025660Y009422D01*
X025546Y009536D01*
X025296Y009640D01*
X025025Y009640D01*
X024775Y009536D01*
X024584Y009345D01*
X024480Y009095D01*
X024480Y008535D01*
X024480Y008568D02*
X021355Y008568D01*
X021470Y008806D02*
X024480Y008806D01*
X024480Y009045D02*
X021559Y009045D01*
X021595Y009283D02*
X024558Y009283D01*
X024760Y009522D02*
X021615Y009522D01*
X021579Y009760D02*
X027993Y009760D01*
X027755Y009522D02*
X027561Y009522D01*
X026760Y009522D02*
X026561Y009522D01*
X025760Y009522D02*
X025561Y009522D01*
X025595Y010953D02*
X025726Y010953D01*
X026595Y010953D02*
X026726Y010953D01*
X027595Y010953D02*
X027726Y010953D01*
X028595Y010953D02*
X028726Y010953D01*
X029595Y010953D02*
X029726Y010953D01*
X030595Y010953D02*
X030726Y010953D01*
X031595Y010953D02*
X031726Y010953D01*
X032595Y010953D02*
X036941Y010953D01*
X036785Y010714D02*
X022366Y010714D01*
X022192Y010540D02*
X022590Y010938D01*
X022590Y011502D01*
X022192Y011900D01*
X021629Y011900D01*
X021230Y011502D01*
X021230Y010938D01*
X021629Y010540D01*
X022192Y010540D01*
X022590Y010953D02*
X024726Y010953D01*
X024544Y011191D02*
X022590Y011191D01*
X022590Y011430D02*
X024480Y011430D01*
X024480Y011668D02*
X022424Y011668D01*
X021397Y011668D02*
X018424Y011668D01*
X018590Y011502D02*
X018192Y011900D01*
X017629Y011900D01*
X017230Y011502D01*
X017230Y010938D01*
X017629Y010540D01*
X018192Y010540D01*
X018590Y010938D01*
X018590Y011502D01*
X018590Y011430D02*
X021230Y011430D01*
X021230Y011191D02*
X018590Y011191D01*
X018590Y010953D02*
X019054Y010953D01*
X019054Y010953D01*
X018754Y010714D02*
X018366Y010714D01*
X018546Y010476D02*
X016225Y010476D01*
X016225Y010237D02*
X018384Y010237D01*
X018368Y010213D02*
X018368Y010213D01*
X018301Y009999D02*
X016225Y009999D01*
X016225Y010220D02*
X015660Y010220D01*
X015660Y010784D01*
X015660Y010220D01*
X015660Y010220D01*
X015660Y010220D01*
X015660Y009784D01*
X015660Y009220D01*
X015660Y009220D01*
X015660Y010220D01*
X016225Y010220D01*
X016192Y009760D02*
X018228Y009760D01*
X018217Y009522D02*
X016225Y009522D01*
X016225Y009283D02*
X018217Y009283D01*
X018270Y009045D02*
X016225Y009045D01*
X016225Y009220D02*
X015660Y009220D01*
X016225Y009220D01*
X016381Y008806D02*
X018343Y008806D01*
X018368Y008727D02*
X018368Y008727D01*
X018476Y008568D02*
X016445Y008568D01*
X016445Y008329D02*
X017906Y008329D01*
X017845Y008091D02*
X016445Y008091D01*
X016445Y007852D02*
X017845Y007852D01*
X017845Y007614D02*
X016445Y007614D01*
X016445Y007375D02*
X017845Y007375D01*
X017845Y007137D02*
X016445Y007137D01*
X016445Y006898D02*
X017845Y006898D01*
X017845Y006660D02*
X016442Y006660D01*
X016445Y006421D02*
X017845Y006421D01*
X017845Y006183D02*
X016445Y006183D01*
X016445Y005944D02*
X017845Y005944D01*
X017845Y005706D02*
X016411Y005706D01*
X016350Y005467D02*
X017845Y005467D01*
X017845Y005229D02*
X016350Y005229D01*
X016350Y004990D02*
X017845Y004990D01*
X017845Y004752D02*
X016855Y004752D01*
X017093Y004513D02*
X017845Y004513D01*
X017845Y004275D02*
X017332Y004275D01*
X017570Y004036D02*
X017845Y004036D01*
X017845Y003798D02*
X017772Y003798D01*
X017850Y002995D02*
X017912Y002846D01*
X018036Y002722D01*
X018198Y002655D01*
X020885Y002655D01*
X020935Y002605D01*
X021117Y002530D01*
X021314Y002530D01*
X021496Y002605D01*
X021545Y002655D01*
X021628Y002655D01*
X021678Y002605D01*
X021860Y002530D01*
X022140Y002530D01*
X022140Y002220D01*
X022140Y001879D01*
X022153Y001798D01*
X022178Y001720D01*
X022209Y001660D01*
X017946Y001660D01*
X017850Y001756D01*
X017850Y002995D01*
X017850Y002844D02*
X017915Y002844D01*
X017850Y002605D02*
X020936Y002605D01*
X021495Y002605D02*
X021679Y002605D01*
X022140Y002367D02*
X017850Y002367D01*
X017850Y002128D02*
X022140Y002128D01*
X022140Y002220D02*
X022660Y002220D01*
X022660Y002220D01*
X022140Y002220D01*
X022140Y001890D02*
X017850Y001890D01*
X016719Y000936D02*
X016447Y000936D01*
X016583Y001072D02*
X016935Y000720D01*
X016221Y000720D01*
X016245Y000734D01*
X016583Y001072D01*
X014036Y000720D02*
X013660Y000720D01*
X013660Y001096D01*
X013674Y001072D01*
X014013Y000734D01*
X014036Y000720D01*
X013811Y000936D02*
X013660Y000936D01*
X013660Y003281D02*
X013660Y003994D01*
X014012Y003643D01*
X013674Y003305D01*
X013660Y003281D01*
X013660Y003321D02*
X013690Y003321D01*
X013660Y003559D02*
X013928Y003559D01*
X013857Y003798D02*
X013660Y003798D01*
X014696Y004910D02*
X014600Y005006D01*
X014600Y005656D01*
X014660Y005656D01*
X014660Y006220D01*
X014660Y006220D01*
X014660Y006784D01*
X014660Y007220D01*
X014660Y007220D01*
X014660Y006220D01*
X014660Y006220D01*
X014660Y005656D01*
X014931Y005656D01*
X014943Y005626D01*
X014970Y005599D01*
X014970Y004910D01*
X014696Y004910D01*
X014616Y004990D02*
X014970Y004990D01*
X014970Y005229D02*
X014600Y005229D01*
X014600Y005467D02*
X014970Y005467D01*
X014660Y005706D02*
X014660Y005706D01*
X014660Y005944D02*
X014660Y005944D01*
X014660Y006183D02*
X014660Y006183D01*
X014660Y006421D02*
X014660Y006421D01*
X014660Y006660D02*
X014660Y006660D01*
X014660Y006898D02*
X014660Y006898D01*
X014660Y007137D02*
X014660Y007137D01*
X015660Y009220D02*
X015660Y009220D01*
X015660Y009283D02*
X015660Y009283D01*
X015660Y009522D02*
X015660Y009522D01*
X015660Y009760D02*
X015660Y009760D01*
X015660Y009999D02*
X015660Y009999D01*
X015660Y010220D02*
X015660Y010220D01*
X015660Y010237D02*
X015660Y010237D01*
X015660Y010476D02*
X015660Y010476D01*
X015660Y010714D02*
X015660Y010714D01*
X015218Y010953D02*
X017230Y010953D01*
X017230Y011191D02*
X014665Y011191D01*
X014611Y011430D02*
X014600Y011430D01*
X016166Y010714D02*
X017455Y010714D01*
X017230Y011430D02*
X016788Y011430D01*
X016925Y011668D02*
X017397Y011668D01*
X016915Y011907D02*
X024480Y011907D01*
X024501Y012145D02*
X016763Y012145D01*
X017170Y012384D02*
X018068Y012384D01*
X018279Y012300D02*
X018279Y012300D01*
X017635Y012622D02*
X017338Y012622D01*
X017405Y012805D02*
X017405Y012805D01*
X017405Y012805D01*
X016967Y014194D02*
X016885Y014228D01*
X016853Y014305D01*
X016731Y014427D01*
X016731Y014714D01*
X016670Y014863D01*
X016656Y014896D01*
X016519Y015033D01*
X016517Y015035D01*
X016517Y015035D01*
X016412Y015078D01*
X016335Y015111D01*
X016247Y015111D01*
X016303Y015244D01*
X016367Y015218D01*
X016564Y015218D01*
X016746Y015293D01*
X016867Y015415D01*
X017154Y015415D01*
X017303Y015476D01*
X017336Y015490D01*
X017336Y015490D01*
X017336Y015490D01*
X017473Y015627D01*
X017476Y015629D01*
X017494Y015674D01*
X017629Y015540D01*
X018026Y015540D01*
X017804Y015453D01*
X017405Y015135D01*
X017405Y015135D01*
X017118Y014713D01*
X016967Y014225D01*
X016967Y014194D01*
X016987Y014292D02*
X016859Y014292D01*
X016731Y014530D02*
X017061Y014530D01*
X017118Y014713D02*
X017118Y014713D01*
X017155Y014769D02*
X016709Y014769D01*
X016656Y014896D02*
X016656Y014896D01*
X016656Y014896D01*
X016545Y015007D02*
X017318Y015007D01*
X017544Y015246D02*
X016631Y015246D01*
X017322Y015484D02*
X017883Y015484D01*
X017804Y015453D02*
X017804Y015453D01*
X017476Y015629D02*
X017476Y015629D01*
X018375Y015723D02*
X021446Y015723D01*
X021629Y015540D02*
X022192Y015540D01*
X022590Y015938D01*
X022590Y016502D01*
X022372Y016720D01*
X022590Y016938D01*
X022590Y017502D01*
X022372Y017720D01*
X022590Y017938D01*
X022590Y018502D01*
X022192Y018900D01*
X021629Y018900D01*
X021230Y018502D01*
X021230Y017938D01*
X021449Y017720D01*
X021230Y017502D01*
X021230Y016938D01*
X021449Y016720D01*
X021230Y016502D01*
X021230Y015938D01*
X021629Y015540D01*
X021230Y015961D02*
X018590Y015961D01*
X018590Y016200D02*
X021230Y016200D01*
X021230Y016438D02*
X018590Y016438D01*
X018416Y016677D02*
X021405Y016677D01*
X021254Y016915D02*
X018567Y016915D01*
X018590Y017154D02*
X021230Y017154D01*
X021230Y017392D02*
X018590Y017392D01*
X018462Y017631D02*
X021359Y017631D01*
X021300Y017869D02*
X018521Y017869D01*
X018590Y018108D02*
X021230Y018108D01*
X021230Y018346D02*
X018590Y018346D01*
X018508Y018585D02*
X021313Y018585D01*
X021552Y018823D02*
X018269Y018823D01*
X017552Y018823D02*
X016928Y018823D01*
X016890Y018585D02*
X017313Y018585D01*
X017303Y019539D02*
X024640Y019539D01*
X024508Y019777D02*
X022429Y019777D01*
X022590Y019938D02*
X022192Y019540D01*
X021629Y019540D01*
X021230Y019938D01*
X021230Y020502D01*
X021629Y020900D01*
X022192Y020900D01*
X022590Y020502D01*
X022590Y019938D01*
X022590Y020016D02*
X024480Y020016D01*
X024480Y020254D02*
X022590Y020254D01*
X022590Y020493D02*
X024480Y020493D01*
X024537Y020731D02*
X022361Y020731D01*
X021460Y020731D02*
X018361Y020731D01*
X018590Y020493D02*
X021230Y020493D01*
X021230Y020254D02*
X018590Y020254D01*
X018590Y020016D02*
X021230Y020016D01*
X021392Y019777D02*
X018429Y019777D01*
X017460Y020731D02*
X017374Y020731D01*
X017257Y020970D02*
X024708Y020970D01*
X025613Y020970D02*
X025708Y020970D01*
X026613Y020970D02*
X026708Y020970D01*
X027613Y020970D02*
X027708Y020970D01*
X028613Y020970D02*
X028708Y020970D01*
X029613Y020970D02*
X029708Y020970D01*
X030160Y021208D02*
X016933Y021208D01*
X016928Y021447D02*
X030160Y021447D01*
X030160Y021685D02*
X022337Y021685D01*
X022576Y021924D02*
X030000Y021924D01*
X031037Y022300D02*
X031296Y022300D01*
X031546Y022404D01*
X031660Y022518D01*
X031775Y022404D01*
X032025Y022300D01*
X032296Y022300D01*
X032546Y022404D01*
X032737Y022595D01*
X032840Y022845D01*
X032840Y023595D01*
X032760Y023788D01*
X032760Y024839D01*
X032669Y025060D01*
X032228Y025501D01*
X032330Y025543D01*
X032538Y025751D01*
X032554Y025791D01*
X032572Y025773D01*
X032638Y025725D01*
X032711Y025688D01*
X032789Y025663D01*
X032869Y025650D01*
X032910Y025650D01*
X032910Y026470D01*
X032910Y026470D01*
X032910Y027290D01*
X032869Y027290D01*
X032789Y027277D01*
X032711Y027252D01*
X032638Y027215D01*
X032572Y027167D01*
X032554Y027149D01*
X032538Y027189D01*
X032330Y027397D01*
X032058Y027510D01*
X031763Y027510D01*
X031491Y027397D01*
X031283Y027189D01*
X031170Y026917D01*
X031170Y026559D01*
X030760Y026969D01*
X030760Y027590D01*
X031578Y027590D01*
X031850Y027703D01*
X032058Y027911D01*
X032170Y028183D01*
X032170Y028477D01*
X032058Y028749D01*
X031850Y028957D01*
X031578Y029070D01*
X030760Y029070D01*
X030760Y029595D01*
X030789Y029590D01*
X031130Y029590D01*
X031130Y030110D01*
X031130Y030110D01*
X031130Y029590D01*
X031471Y029590D01*
X031552Y029603D01*
X031630Y029628D01*
X031703Y029665D01*
X031769Y029713D01*
X031827Y029771D01*
X031875Y029837D01*
X031912Y029910D01*
X031938Y029988D01*
X031950Y030069D01*
X031950Y030110D01*
X031950Y030151D01*
X031938Y030232D01*
X031922Y030280D01*
X032899Y030280D01*
X032883Y030232D01*
X032870Y030151D01*
X032870Y030110D01*
X032870Y030069D01*
X032883Y029988D01*
X032908Y029910D01*
X032946Y029837D01*
X032994Y029771D01*
X033052Y029713D01*
X033118Y029665D01*
X033191Y029628D01*
X033269Y029603D01*
X033349Y029590D01*
X033690Y029590D01*
X033690Y030110D01*
X032870Y030110D01*
X033690Y030110D01*
X033690Y030110D01*
X033690Y030110D01*
X033690Y029590D01*
X033970Y029590D01*
X033970Y029333D01*
X034075Y029079D01*
X034085Y029070D01*
X033243Y029070D01*
X032971Y028957D01*
X032763Y028749D01*
X032650Y028477D01*
X032650Y028183D01*
X032763Y027911D01*
X032971Y027703D01*
X033243Y027590D01*
X034138Y027590D01*
X034410Y027703D01*
X034618Y027911D01*
X034730Y028183D01*
X034730Y028424D01*
X035720Y027434D01*
X035720Y025872D01*
X035692Y025900D01*
X035129Y025900D01*
X035027Y025798D01*
X035100Y025976D01*
X035100Y026763D01*
X035025Y026945D01*
X034886Y027085D01*
X034704Y027160D01*
X034212Y027160D01*
X034135Y027128D01*
X034059Y027160D01*
X033862Y027160D01*
X033764Y027119D01*
X033666Y027160D01*
X033469Y027160D01*
X033316Y027097D01*
X033307Y027109D01*
X033249Y027167D01*
X033183Y027215D01*
X033110Y027252D01*
X033032Y027277D01*
X032951Y027290D01*
X032910Y027290D01*
X032910Y026470D01*
X032910Y026470D01*
X032910Y025650D01*
X032951Y025650D01*
X033032Y025663D01*
X033110Y025688D01*
X033183Y025725D01*
X033202Y025739D01*
X033285Y025657D01*
X033287Y025655D01*
X033391Y025612D01*
X033469Y025579D01*
X033666Y025579D01*
X033764Y025620D01*
X033824Y025595D01*
X033730Y025502D01*
X033730Y024938D01*
X034104Y024564D01*
X033950Y024411D01*
X033950Y024220D01*
X034410Y024220D01*
X033950Y024220D01*
X033950Y024029D01*
X034220Y023760D01*
X034410Y023760D01*
X034410Y024220D01*
X034410Y024220D01*
X034410Y024220D01*
X034410Y023760D01*
X034601Y023760D01*
X034755Y023914D01*
X035129Y023540D01*
X035383Y023540D01*
X035709Y023214D01*
X035536Y023314D01*
X035038Y023428D01*
X034529Y023390D01*
X034054Y023203D01*
X033655Y022885D01*
X033655Y022885D01*
X033655Y022885D01*
X033368Y022463D01*
X033217Y021975D01*
X033217Y021465D01*
X033368Y020977D01*
X033655Y020555D01*
X034054Y020237D01*
X034054Y020237D01*
X034529Y020050D01*
X035038Y020012D01*
X035038Y020012D01*
X035536Y020126D01*
X035978Y020381D01*
X035978Y020381D01*
X035978Y020381D01*
X036325Y020755D01*
X036325Y020755D01*
X036410Y020932D01*
X036410Y019121D01*
X036486Y018937D01*
X036703Y018720D01*
X036627Y018644D01*
X036486Y018503D01*
X036410Y018319D01*
X036410Y018150D01*
X036194Y018150D01*
X036211Y018168D01*
X036278Y018329D01*
X036278Y018861D01*
X036211Y019022D01*
X036160Y019073D01*
X036160Y019319D01*
X036084Y019503D01*
X035944Y019644D01*
X035694Y019894D01*
X035510Y019970D01*
X032620Y019970D01*
X032620Y020220D01*
X032620Y020496D01*
X032609Y020568D01*
X032587Y020637D01*
X032554Y020701D01*
X032511Y020760D01*
X032460Y020811D01*
X032401Y020853D01*
X032337Y020886D01*
X032268Y020909D01*
X032197Y020920D01*
X032160Y020920D01*
X032124Y020920D01*
X032053Y020909D01*
X031984Y020886D01*
X031919Y020853D01*
X031861Y020811D01*
X031809Y020760D01*
X031786Y020727D01*
X031737Y020845D01*
X031546Y021036D01*
X031296Y021140D01*
X031160Y021140D01*
X031160Y022069D01*
X031084Y022253D01*
X031037Y022300D01*
X031122Y022162D02*
X033275Y022162D01*
X033217Y021924D02*
X031160Y021924D01*
X031160Y021685D02*
X033217Y021685D01*
X033223Y021447D02*
X031160Y021447D01*
X031160Y021208D02*
X033296Y021208D01*
X033368Y020977D02*
X033368Y020977D01*
X033373Y020970D02*
X031613Y020970D01*
X031784Y020731D02*
X031789Y020731D01*
X032160Y020731D02*
X032160Y020731D01*
X032160Y020920D02*
X032160Y020220D01*
X032160Y020220D01*
X032160Y020920D01*
X032532Y020731D02*
X033535Y020731D01*
X033655Y020555D02*
X033655Y020555D01*
X033655Y020555D01*
X033734Y020493D02*
X032620Y020493D01*
X032620Y020254D02*
X034033Y020254D01*
X034529Y020050D02*
X034529Y020050D01*
X034996Y020016D02*
X032620Y020016D01*
X032620Y020220D02*
X032160Y020220D01*
X032620Y020220D01*
X032160Y020220D02*
X032160Y020220D01*
X032160Y020254D02*
X032160Y020254D01*
X032160Y020493D02*
X032160Y020493D01*
X030025Y019300D02*
X029775Y019404D01*
X029660Y019518D01*
X029546Y019404D01*
X029296Y019300D01*
X029025Y019300D02*
X028775Y019404D01*
X028660Y019518D01*
X028546Y019404D01*
X028296Y019300D01*
X028025Y019300D02*
X027775Y019404D01*
X027660Y019518D01*
X027546Y019404D01*
X027296Y019300D01*
X027025Y019300D02*
X026775Y019404D01*
X026660Y019518D01*
X026546Y019404D01*
X026296Y019300D01*
X026025Y019300D02*
X025775Y019404D01*
X025660Y019518D01*
X025546Y019404D01*
X025296Y019300D01*
X025531Y019062D02*
X028790Y019062D01*
X028552Y018823D02*
X025769Y018823D01*
X025840Y018585D02*
X028480Y018585D01*
X028480Y018346D02*
X025840Y018346D01*
X024480Y018346D02*
X022590Y018346D01*
X022590Y018108D02*
X023196Y018108D01*
X022996Y017869D02*
X022521Y017869D01*
X022462Y017631D02*
X022970Y017631D01*
X022970Y017392D02*
X022590Y017392D01*
X022590Y017154D02*
X022970Y017154D01*
X022970Y016915D02*
X022567Y016915D01*
X022416Y016677D02*
X022970Y016677D01*
X022970Y016438D02*
X022590Y016438D01*
X022590Y016200D02*
X022970Y016200D01*
X022970Y015961D02*
X022590Y015961D01*
X022375Y015723D02*
X022970Y015723D01*
X022970Y015484D02*
X019425Y015484D01*
X019286Y015564D02*
X019286Y015564D01*
X019728Y015309D02*
X019728Y015309D01*
X019787Y015246D02*
X022970Y015246D01*
X022970Y015007D02*
X020008Y015007D01*
X020075Y014935D02*
X020075Y014935D01*
X020155Y014769D02*
X022970Y014769D01*
X022970Y014530D02*
X020270Y014530D01*
X020297Y014475D02*
X020297Y014475D01*
X020324Y014292D02*
X022970Y014292D01*
X023003Y014053D02*
X021539Y014053D01*
X021442Y014150D02*
X020879Y014150D01*
X020480Y013752D01*
X020480Y013188D01*
X020879Y012790D01*
X021442Y012790D01*
X021840Y013188D01*
X021840Y013752D01*
X021442Y014150D01*
X021778Y013815D02*
X023240Y013815D01*
X024480Y013576D02*
X021840Y013576D01*
X021840Y013338D02*
X024480Y013338D01*
X024570Y013099D02*
X021751Y013099D01*
X021513Y012861D02*
X024808Y012861D01*
X024982Y012622D02*
X019712Y012622D01*
X019941Y012861D02*
X020808Y012861D01*
X020570Y013099D02*
X020120Y013099D01*
X020235Y013338D02*
X020480Y013338D01*
X020480Y013576D02*
X020313Y013576D01*
X020349Y013815D02*
X020543Y013815D01*
X020373Y013970D02*
X020373Y013970D01*
X020360Y014053D02*
X020782Y014053D01*
X018920Y014345D02*
X018922Y014366D01*
X018928Y014387D01*
X018937Y014406D01*
X018950Y014422D01*
X018966Y014437D01*
X018984Y014448D01*
X019004Y014456D01*
X019024Y014460D01*
X019046Y014460D01*
X019066Y014456D01*
X019086Y014448D01*
X019104Y014437D01*
X019120Y014422D01*
X019133Y014406D01*
X019142Y014387D01*
X019148Y014366D01*
X019150Y014345D01*
X019148Y014324D01*
X019142Y014303D01*
X019133Y014284D01*
X019120Y014268D01*
X019104Y014253D01*
X019086Y014242D01*
X019066Y014234D01*
X019046Y014230D01*
X019024Y014230D01*
X019004Y014234D01*
X018984Y014242D01*
X018966Y014253D01*
X018950Y014268D01*
X018937Y014284D01*
X018928Y014303D01*
X018922Y014324D01*
X018920Y014345D01*
X018410Y014720D02*
X018364Y014682D01*
X018320Y014642D01*
X018279Y014598D01*
X018241Y014552D01*
X018205Y014504D01*
X018173Y014454D01*
X018144Y014402D01*
X018119Y014348D01*
X018097Y014292D01*
X018078Y014235D01*
X018063Y014177D01*
X018052Y014119D01*
X018044Y014060D01*
X018040Y014000D01*
X018040Y013940D01*
X018044Y013880D01*
X018052Y013821D01*
X018063Y013763D01*
X018078Y013705D01*
X018097Y013648D01*
X018119Y013592D01*
X018144Y013538D01*
X018173Y013486D01*
X018205Y013436D01*
X018241Y013388D01*
X018279Y013342D01*
X018320Y013298D01*
X018364Y013258D01*
X018410Y013220D01*
X018920Y013595D02*
X018922Y013616D01*
X018928Y013637D01*
X018937Y013656D01*
X018950Y013672D01*
X018966Y013687D01*
X018984Y013698D01*
X019004Y013706D01*
X019024Y013710D01*
X019046Y013710D01*
X019066Y013706D01*
X019086Y013698D01*
X019104Y013687D01*
X019120Y013672D01*
X019133Y013656D01*
X019142Y013637D01*
X019148Y013616D01*
X019150Y013595D01*
X019148Y013574D01*
X019142Y013553D01*
X019133Y013534D01*
X019120Y013518D01*
X019104Y013503D01*
X019086Y013492D01*
X019066Y013484D01*
X019046Y013480D01*
X019024Y013480D01*
X019004Y013484D01*
X018984Y013492D01*
X018966Y013503D01*
X018950Y013518D01*
X018937Y013534D01*
X018928Y013553D01*
X018922Y013574D01*
X018920Y013595D01*
X017508Y013970D02*
X017510Y014038D01*
X017516Y014105D01*
X017526Y014172D01*
X017540Y014238D01*
X017557Y014303D01*
X017579Y014368D01*
X017604Y014430D01*
X017633Y014491D01*
X017665Y014551D01*
X017701Y014608D01*
X017740Y014663D01*
X017782Y014716D01*
X017828Y014766D01*
X017876Y014814D01*
X017927Y014858D01*
X017980Y014900D01*
X018036Y014938D01*
X018094Y014973D01*
X018154Y015005D01*
X018215Y015033D01*
X018278Y015057D01*
X018343Y015077D01*
X018408Y015094D01*
X018475Y015107D01*
X018542Y015116D01*
X018609Y015121D01*
X018677Y015122D01*
X018744Y015119D01*
X018812Y015112D01*
X018879Y015101D01*
X018945Y015086D01*
X019010Y015068D01*
X019073Y015045D01*
X019136Y015019D01*
X019197Y014989D01*
X019255Y014956D01*
X019312Y014920D01*
X019367Y014880D01*
X019419Y014837D01*
X019469Y014791D01*
X019515Y014742D01*
X019559Y014690D01*
X019600Y014636D01*
X019637Y014580D01*
X019671Y014521D01*
X019702Y014461D01*
X019729Y014399D01*
X019752Y014336D01*
X019772Y014271D01*
X019788Y014205D01*
X019800Y014139D01*
X019808Y014071D01*
X019812Y014004D01*
X019812Y013936D01*
X019808Y013869D01*
X019800Y013801D01*
X019788Y013735D01*
X019772Y013669D01*
X019752Y013604D01*
X019729Y013541D01*
X019702Y013479D01*
X019671Y013419D01*
X019637Y013360D01*
X019600Y013304D01*
X019559Y013250D01*
X019515Y013198D01*
X019469Y013149D01*
X019419Y013103D01*
X019367Y013060D01*
X019312Y013020D01*
X019255Y012984D01*
X019197Y012951D01*
X019136Y012921D01*
X019073Y012895D01*
X019010Y012872D01*
X018945Y012854D01*
X018879Y012839D01*
X018812Y012828D01*
X018744Y012821D01*
X018677Y012818D01*
X018609Y012819D01*
X018542Y012824D01*
X018475Y012833D01*
X018408Y012846D01*
X018343Y012863D01*
X018278Y012883D01*
X018215Y012907D01*
X018154Y012935D01*
X018094Y012967D01*
X018036Y013002D01*
X017980Y013040D01*
X017927Y013082D01*
X017876Y013126D01*
X017828Y013174D01*
X017782Y013224D01*
X017740Y013277D01*
X017701Y013332D01*
X017665Y013389D01*
X017633Y013449D01*
X017604Y013510D01*
X017579Y013572D01*
X017557Y013637D01*
X017540Y013702D01*
X017526Y013768D01*
X017516Y013835D01*
X017510Y013902D01*
X017508Y013970D01*
X018788Y015678D02*
X018788Y015678D01*
X015970Y018078D02*
X015796Y018150D01*
X015525Y018150D01*
X015350Y018078D01*
X015350Y018107D01*
X015276Y018286D01*
X015279Y018287D01*
X015297Y018280D01*
X015494Y018280D01*
X015592Y018321D01*
X015690Y018280D01*
X015887Y018280D01*
X015914Y018291D01*
X015941Y018280D01*
X016029Y018280D01*
X015970Y018138D01*
X015970Y018078D01*
X015970Y018108D02*
X015898Y018108D01*
X015423Y018108D02*
X015350Y018108D01*
X014980Y015356D02*
X014980Y015335D01*
X015073Y015111D01*
X014867Y015111D01*
X014685Y015035D01*
X014600Y014951D01*
X014600Y015280D01*
X014798Y015280D01*
X014980Y015356D01*
X015017Y015246D02*
X014600Y015246D01*
X014600Y015007D02*
X014657Y015007D01*
X019286Y012376D02*
X019286Y012376D01*
X019299Y012384D02*
X024622Y012384D01*
X025339Y012622D02*
X025982Y012622D01*
X026339Y012622D02*
X026982Y012622D01*
X027339Y012622D02*
X027797Y012622D01*
X027558Y012861D02*
X025513Y012861D01*
X025751Y013099D02*
X027480Y013099D01*
X027480Y013338D02*
X025840Y013338D01*
X025840Y013576D02*
X027555Y013576D01*
X027793Y013815D02*
X027081Y013815D01*
X027317Y014053D02*
X028600Y014053D01*
X028600Y013815D02*
X028528Y013815D01*
X028547Y014292D02*
X027350Y014292D01*
X027350Y014530D02*
X027622Y014530D01*
X027542Y014769D02*
X027350Y014769D01*
X027350Y015007D02*
X027542Y015007D01*
X027546Y015246D02*
X027350Y015246D01*
X027350Y015484D02*
X027696Y015484D01*
X027350Y015723D02*
X029720Y015723D01*
X029720Y015961D02*
X027350Y015961D01*
X027350Y016200D02*
X029720Y016200D01*
X029720Y016438D02*
X027350Y016438D01*
X027350Y016677D02*
X027742Y016677D01*
X027879Y016540D02*
X028442Y016540D01*
X028840Y016938D01*
X028840Y017502D01*
X028442Y017900D01*
X027879Y017900D01*
X027480Y017502D01*
X027480Y016938D01*
X027879Y016540D01*
X027504Y016915D02*
X027350Y016915D01*
X027350Y017154D02*
X027480Y017154D01*
X027480Y017392D02*
X027350Y017392D01*
X027350Y017631D02*
X027609Y017631D01*
X027848Y017869D02*
X027325Y017869D01*
X027125Y018108D02*
X028561Y018108D01*
X028473Y017869D02*
X028800Y017869D01*
X028712Y017631D02*
X029720Y017631D01*
X029720Y017869D02*
X029521Y017869D01*
X029720Y017392D02*
X028840Y017392D01*
X028840Y017154D02*
X029720Y017154D01*
X029720Y016915D02*
X028817Y016915D01*
X028579Y016677D02*
X029720Y016677D01*
X029720Y015484D02*
X028883Y015484D01*
X029177Y015246D02*
X029720Y015246D01*
X029720Y015007D02*
X029415Y015007D01*
X029643Y014769D02*
X029720Y014769D01*
X029720Y014530D02*
X029720Y014530D01*
X029720Y014292D02*
X029720Y014292D01*
X029720Y014053D02*
X029720Y014053D01*
X029720Y013815D02*
X029720Y013815D01*
X029720Y013576D02*
X029720Y013576D01*
X029720Y013338D02*
X029720Y013338D01*
X029720Y013280D02*
X029720Y013280D01*
X029160Y012970D02*
X029410Y012720D01*
X031660Y012720D01*
X032160Y012220D01*
X032160Y011720D01*
X032840Y011668D02*
X034755Y011668D01*
X034517Y011907D02*
X032840Y011907D01*
X032820Y012145D02*
X034278Y012145D01*
X033920Y012384D02*
X032699Y012384D01*
X032550Y012622D02*
X033597Y012622D01*
X033490Y012861D02*
X033039Y012861D01*
X033100Y013099D02*
X033480Y013099D01*
X033556Y013338D02*
X033100Y013338D01*
X033100Y013576D02*
X033755Y013576D01*
X034160Y013815D02*
X033100Y013815D01*
X033100Y014053D02*
X034160Y014053D01*
X033901Y014292D02*
X033100Y014292D01*
X033100Y014530D02*
X033589Y014530D01*
X033487Y014769D02*
X033100Y014769D01*
X033100Y015007D02*
X033480Y015007D01*
X033559Y015246D02*
X033100Y015246D01*
X033100Y015484D02*
X033763Y015484D01*
X034160Y015723D02*
X033100Y015723D01*
X033100Y015961D02*
X034160Y015961D01*
X034160Y016200D02*
X033100Y016200D01*
X033100Y016438D02*
X033346Y016438D01*
X033181Y016677D02*
X033100Y016677D01*
X033100Y016915D02*
X033120Y016915D01*
X033100Y017154D02*
X033135Y017154D01*
X033100Y017392D02*
X033236Y017392D01*
X033200Y017631D02*
X033100Y017631D01*
X033100Y017869D02*
X033120Y017869D01*
X033100Y018108D02*
X033120Y018108D01*
X033100Y018346D02*
X033215Y018346D01*
X034992Y018970D02*
X035060Y018903D01*
X035088Y018970D01*
X034992Y018970D01*
X035052Y020016D02*
X036410Y020016D01*
X036410Y020254D02*
X035758Y020254D01*
X035536Y020126D02*
X035536Y020126D01*
X035810Y019777D02*
X036410Y019777D01*
X036410Y019539D02*
X036049Y019539D01*
X036160Y019300D02*
X036410Y019300D01*
X036435Y019062D02*
X036172Y019062D01*
X036278Y018823D02*
X036600Y018823D01*
X036627Y018644D02*
X036627Y018644D01*
X036568Y018585D02*
X036278Y018585D01*
X036278Y018346D02*
X036421Y018346D01*
X035706Y017977D02*
X035660Y017932D01*
X035660Y017977D01*
X035706Y017977D01*
X035660Y017008D02*
X035854Y016814D01*
X035700Y016661D01*
X035700Y016470D01*
X036160Y016470D01*
X035811Y016470D01*
X035811Y016470D01*
X035700Y016470D01*
X035700Y016424D01*
X035660Y016408D01*
X035660Y017008D01*
X035660Y016915D02*
X035754Y016915D01*
X035716Y016677D02*
X035660Y016677D01*
X035660Y016438D02*
X035700Y016438D01*
X036160Y016470D02*
X036160Y016470D01*
X036160Y015470D02*
X036760Y015470D01*
X036944Y015546D01*
X036971Y015574D01*
X036960Y015506D01*
X036960Y015470D01*
X036960Y015434D01*
X036972Y015362D01*
X036994Y015293D01*
X037027Y015229D01*
X037069Y015170D01*
X037121Y015119D01*
X037153Y015095D01*
X037035Y015046D01*
X036844Y014855D01*
X036813Y014779D01*
X036466Y015126D01*
X036620Y015279D01*
X036620Y015470D01*
X036160Y015470D01*
X036160Y015470D01*
X036586Y015246D02*
X037018Y015246D01*
X036960Y015470D02*
X037660Y015470D01*
X037660Y015470D01*
X036960Y015470D01*
X036960Y015484D02*
X036794Y015484D01*
X037160Y015470D02*
X036785Y015095D01*
X036785Y013095D01*
X036160Y012470D01*
X036160Y012470D01*
X036740Y012470D01*
X036740Y012605D01*
X036844Y012855D01*
X036959Y012970D01*
X036844Y013085D01*
X036813Y013161D01*
X036466Y012814D01*
X036620Y012661D01*
X036620Y012470D01*
X036160Y012470D01*
X036620Y012622D02*
X036747Y012622D01*
X036849Y012861D02*
X036513Y012861D01*
X036751Y013099D02*
X036838Y013099D01*
X036813Y013779D02*
X036622Y013970D01*
X036813Y014161D01*
X036844Y014085D01*
X036959Y013970D01*
X036844Y013855D01*
X036813Y013779D01*
X036827Y013815D02*
X036778Y013815D01*
X036705Y014053D02*
X036876Y014053D01*
X036996Y015007D02*
X036585Y015007D01*
X037160Y015470D02*
X037660Y015470D01*
X038167Y015845D02*
X038286Y015894D01*
X038477Y016085D01*
X038580Y016335D01*
X038580Y016605D01*
X038477Y016855D01*
X038362Y016970D01*
X038434Y017042D01*
X038444Y017046D01*
X038584Y017187D01*
X038660Y017263D01*
X038660Y015927D01*
X038340Y015606D01*
X038327Y015647D01*
X038294Y015711D01*
X038251Y015770D01*
X038200Y015821D01*
X038167Y015845D01*
X038285Y015723D02*
X038456Y015723D01*
X038353Y015961D02*
X038660Y015961D01*
X038660Y016200D02*
X038524Y016200D01*
X038580Y016438D02*
X038660Y016438D01*
X038660Y016677D02*
X038551Y016677D01*
X038660Y016915D02*
X038417Y016915D01*
X038551Y017154D02*
X038660Y017154D01*
X038584Y017187D02*
X038584Y017187D01*
X040660Y016470D02*
X041360Y016470D01*
X041360Y016506D01*
X041349Y016578D01*
X041327Y016647D01*
X041294Y016711D01*
X041251Y016770D01*
X041200Y016821D01*
X041167Y016845D01*
X041286Y016894D01*
X041477Y017085D01*
X041576Y017325D01*
X042042Y017325D01*
X042042Y016954D01*
X042052Y016930D01*
X041910Y016930D01*
X041720Y016930D01*
X041450Y016661D01*
X041450Y016470D01*
X041450Y016279D01*
X041604Y016126D01*
X041405Y015927D01*
X041286Y016046D01*
X041167Y016095D01*
X041200Y016119D01*
X041251Y016170D01*
X041294Y016229D01*
X041327Y016293D01*
X041349Y016362D01*
X041360Y016434D01*
X041360Y016470D01*
X040660Y016470D01*
X040660Y016470D01*
X041272Y016200D02*
X041530Y016200D01*
X041450Y016438D02*
X041360Y016438D01*
X041450Y016470D02*
X041910Y016470D01*
X041910Y016470D01*
X041450Y016470D01*
X041466Y016677D02*
X041311Y016677D01*
X041307Y016915D02*
X041705Y016915D01*
X041910Y016915D02*
X041910Y016915D01*
X041910Y016930D02*
X041910Y016470D01*
X041910Y016470D01*
X041910Y016930D01*
X041910Y016677D02*
X041910Y016677D01*
X042042Y017154D02*
X041505Y017154D01*
X042660Y017220D02*
X042660Y016220D01*
X043410Y015470D01*
X044090Y015470D02*
X044090Y015752D01*
X043716Y016126D01*
X043870Y016279D01*
X043870Y016470D01*
X043870Y016661D01*
X043601Y016930D01*
X043410Y016930D01*
X043268Y016930D01*
X043278Y016954D01*
X043278Y017325D01*
X046910Y017325D01*
X046910Y015677D01*
X046703Y015470D01*
X044090Y015470D01*
X044090Y015484D02*
X046717Y015484D01*
X046910Y015723D02*
X044090Y015723D01*
X043881Y015961D02*
X046910Y015961D01*
X046910Y016200D02*
X043790Y016200D01*
X043870Y016438D02*
X046910Y016438D01*
X046910Y016677D02*
X043854Y016677D01*
X043870Y016470D02*
X043410Y016470D01*
X043410Y016930D01*
X043410Y016470D01*
X043410Y016470D01*
X043410Y016470D01*
X043870Y016470D01*
X043410Y016677D02*
X043410Y016677D01*
X043410Y016915D02*
X043410Y016915D01*
X043616Y016915D02*
X046910Y016915D01*
X046910Y017154D02*
X043278Y017154D01*
X042590Y015498D02*
X042590Y015470D01*
X042618Y015470D01*
X042590Y015498D01*
X042590Y015484D02*
X042604Y015484D01*
X041440Y015961D02*
X041371Y015961D01*
X042367Y013470D02*
X044660Y013470D01*
X044200Y013470D01*
X044200Y013279D01*
X044470Y013010D01*
X044660Y013010D01*
X044660Y013470D01*
X044660Y013470D01*
X044660Y013470D01*
X045410Y012720D01*
X045910Y012720D01*
X046160Y012970D01*
X049160Y012970D01*
X049220Y012861D02*
X047131Y012861D01*
X047036Y012900D02*
X046285Y012900D01*
X046035Y012796D01*
X045844Y012605D01*
X045740Y012355D01*
X045740Y012085D01*
X045844Y011835D01*
X045959Y011720D01*
X045844Y011605D01*
X045740Y011355D01*
X045740Y011085D01*
X045844Y010835D01*
X045959Y010720D01*
X045844Y010605D01*
X045740Y010355D01*
X045740Y010085D01*
X045844Y009835D01*
X046035Y009644D01*
X046153Y009595D01*
X046121Y009571D01*
X046069Y009520D01*
X046027Y009461D01*
X045994Y009397D01*
X045972Y009328D01*
X045960Y009256D01*
X045960Y009220D01*
X045960Y009184D01*
X045972Y009112D01*
X045994Y009043D01*
X046027Y008979D01*
X046069Y008920D01*
X046121Y008869D01*
X046179Y008827D01*
X046244Y008794D01*
X046313Y008771D01*
X046384Y008760D01*
X046660Y008760D01*
X046660Y009220D01*
X045960Y009220D01*
X046660Y009220D01*
X046660Y009220D01*
X046660Y009220D01*
X046660Y008760D01*
X046937Y008760D01*
X047008Y008771D01*
X047077Y008794D01*
X047141Y008827D01*
X047200Y008869D01*
X047251Y008920D01*
X047294Y008979D01*
X047327Y009043D01*
X047349Y009112D01*
X047360Y009184D01*
X047360Y009220D01*
X047360Y009256D01*
X047349Y009328D01*
X047327Y009397D01*
X047294Y009461D01*
X047251Y009520D01*
X047200Y009571D01*
X047167Y009595D01*
X047286Y009644D01*
X047477Y009835D01*
X047580Y010085D01*
X047580Y010355D01*
X047477Y010605D01*
X047362Y010720D01*
X047477Y010835D01*
X047580Y011085D01*
X047580Y011355D01*
X047477Y011605D01*
X047362Y011720D01*
X047477Y011835D01*
X047580Y012085D01*
X047580Y012355D01*
X047477Y012605D01*
X047286Y012796D01*
X047036Y012900D01*
X047460Y012622D02*
X049220Y012622D01*
X049220Y012384D02*
X047569Y012384D01*
X047580Y012145D02*
X049220Y012145D01*
X049220Y011907D02*
X047507Y011907D01*
X047414Y011668D02*
X049220Y011668D01*
X049220Y011430D02*
X047550Y011430D01*
X047580Y011191D02*
X049220Y011191D01*
X049220Y010953D02*
X047526Y010953D01*
X047368Y010714D02*
X049152Y010714D01*
X049126Y010652D02*
X049126Y009788D01*
X049154Y009720D01*
X049126Y009652D01*
X049126Y008788D01*
X049154Y008720D01*
X049126Y008652D01*
X049126Y007788D01*
X049193Y007626D01*
X049317Y007502D01*
X049346Y007490D01*
X049346Y007220D01*
X049346Y006847D01*
X049361Y006791D01*
X049390Y006740D01*
X049410Y006720D01*
X049390Y006700D01*
X049361Y006649D01*
X049346Y006593D01*
X049346Y006220D01*
X049346Y005847D01*
X049361Y005791D01*
X049390Y005740D01*
X049431Y005699D01*
X049481Y005671D01*
X049537Y005656D01*
X049910Y005656D01*
X049910Y006220D01*
X049346Y006220D01*
X049910Y006220D01*
X049910Y006220D01*
X049910Y007220D01*
X049346Y007220D01*
X049910Y007220D01*
X049910Y007220D01*
X049910Y007220D01*
X049910Y006656D01*
X049910Y006220D01*
X049910Y006220D01*
X049910Y006220D01*
X049910Y005656D01*
X050181Y005656D01*
X050193Y005626D01*
X050220Y005599D01*
X050220Y005006D01*
X050125Y004910D01*
X049023Y004910D01*
X048770Y004805D01*
X047875Y003911D01*
X047787Y003911D01*
X047492Y003911D01*
X047340Y003848D01*
X047340Y004252D01*
X046942Y004650D01*
X046379Y004650D01*
X046005Y004276D01*
X045851Y004430D01*
X045660Y004430D01*
X045470Y004430D01*
X045316Y004276D01*
X044942Y004650D01*
X044379Y004650D01*
X044005Y004276D01*
X043851Y004430D01*
X043660Y004430D01*
X043470Y004430D01*
X043200Y004161D01*
X043200Y003970D01*
X043200Y003842D01*
X043185Y003835D01*
X043046Y003696D01*
X042970Y003514D01*
X042970Y003317D01*
X043046Y003135D01*
X043167Y003014D01*
X043167Y002762D01*
X043115Y002727D01*
X042942Y002900D01*
X042379Y002900D01*
X041980Y002502D01*
X041980Y001938D01*
X042100Y001818D01*
X042100Y001660D01*
X039062Y001660D01*
X039340Y001938D01*
X039340Y002280D01*
X039477Y002280D01*
X039504Y002291D01*
X039531Y002280D01*
X039925Y002280D01*
X039943Y002287D01*
X039961Y002280D01*
X040354Y002280D01*
X040422Y002308D01*
X040489Y002280D01*
X040732Y002280D01*
X040853Y002159D01*
X041035Y002083D01*
X041232Y002083D01*
X041414Y002159D01*
X041541Y002286D01*
X041709Y002355D01*
X041848Y002495D01*
X041947Y002593D01*
X042022Y002775D01*
X042022Y003169D01*
X041972Y003290D01*
X042036Y003290D01*
X042286Y003394D01*
X042477Y003585D01*
X042580Y003835D01*
X042580Y004105D01*
X042477Y004355D01*
X042286Y004546D01*
X042036Y004650D01*
X041285Y004650D01*
X041035Y004546D01*
X040844Y004355D01*
X040740Y004105D01*
X040740Y003842D01*
X040686Y003820D01*
X040587Y003861D01*
X040390Y003861D01*
X040323Y003833D01*
X040256Y003861D01*
X039961Y003861D01*
X039894Y003833D01*
X039826Y003861D01*
X039580Y003861D01*
X039580Y004105D01*
X039477Y004355D01*
X039286Y004546D01*
X039036Y004650D01*
X038285Y004650D01*
X038212Y004620D01*
X038046Y004786D01*
X037796Y004890D01*
X037525Y004890D01*
X037275Y004786D01*
X037084Y004595D01*
X036980Y004345D01*
X036980Y004112D01*
X036942Y004150D01*
X036379Y004150D01*
X036005Y003776D01*
X035851Y003930D01*
X035660Y003930D01*
X035470Y003930D01*
X035200Y003661D01*
X035200Y003470D01*
X035660Y003470D01*
X035200Y003470D01*
X035200Y003279D01*
X035470Y003010D01*
X035660Y003010D01*
X035660Y003470D01*
X035660Y003470D01*
X035660Y003470D01*
X035660Y003930D01*
X035660Y003470D01*
X035660Y003470D01*
X035660Y003010D01*
X035851Y003010D01*
X036005Y003164D01*
X036131Y003037D01*
X036033Y002939D01*
X035995Y002847D01*
X035942Y002900D01*
X035379Y002900D01*
X034980Y002502D01*
X034980Y001938D01*
X035259Y001660D01*
X034160Y001660D01*
X034160Y003008D01*
X034316Y003164D01*
X034470Y003010D01*
X034660Y003010D01*
X034660Y003470D01*
X034660Y003930D01*
X034470Y003930D01*
X034316Y003776D01*
X033942Y004150D01*
X033379Y004150D01*
X032980Y003752D01*
X032980Y003188D01*
X033160Y003008D01*
X033160Y001660D01*
X032062Y001660D01*
X032340Y001938D01*
X032340Y002502D01*
X032101Y002741D01*
X032105Y002745D01*
X032180Y002927D01*
X032180Y003419D01*
X032105Y003601D01*
X032004Y003701D01*
X031867Y003838D01*
X031685Y003914D01*
X031586Y003914D01*
X031488Y003914D01*
X031389Y003914D01*
X031193Y003914D01*
X031171Y003904D01*
X031148Y003914D01*
X030656Y003914D01*
X030580Y003882D01*
X030504Y003914D01*
X030261Y003914D01*
X030139Y004035D01*
X029957Y004111D01*
X029720Y004111D01*
X029720Y006064D01*
X029778Y006204D01*
X029778Y006736D01*
X029711Y006897D01*
X029588Y007021D01*
X029426Y007088D01*
X028895Y007088D01*
X028733Y007021D01*
X028609Y006897D01*
X028600Y006876D01*
X028600Y007508D01*
X028694Y007546D01*
X028834Y007687D01*
X028970Y007823D01*
X029025Y007800D01*
X029296Y007800D01*
X029546Y007904D01*
X029660Y008018D01*
X029775Y007904D01*
X030025Y007800D01*
X030296Y007800D01*
X030546Y007904D01*
X030660Y008018D01*
X030775Y007904D01*
X031025Y007800D01*
X031296Y007800D01*
X031371Y007831D01*
X031200Y007661D01*
X031200Y007470D01*
X031660Y007470D01*
X031200Y007470D01*
X031200Y007279D01*
X031470Y007010D01*
X031660Y007010D01*
X031660Y007470D01*
X031660Y007470D01*
X031660Y007930D01*
X031572Y007930D01*
X031737Y008095D01*
X031786Y008213D01*
X031809Y008180D01*
X031861Y008129D01*
X031919Y008087D01*
X031984Y008054D01*
X032053Y008031D01*
X032124Y008020D01*
X032160Y008020D01*
X032160Y008720D01*
X032160Y008720D01*
X032160Y007470D01*
X031660Y007470D01*
X031660Y007470D01*
X031660Y007470D01*
X031660Y007930D01*
X031851Y007930D01*
X032005Y007776D01*
X032259Y008030D01*
X032197Y008020D01*
X032160Y008020D01*
X032160Y008720D01*
X032160Y008568D02*
X032160Y008568D01*
X032160Y008329D02*
X032160Y008329D01*
X032160Y008091D02*
X032160Y008091D01*
X031914Y008091D02*
X031733Y008091D01*
X031660Y007852D02*
X031660Y007852D01*
X031660Y007614D02*
X031660Y007614D01*
X031660Y007470D02*
X031660Y007010D01*
X031851Y007010D01*
X032005Y007164D01*
X032379Y006790D01*
X032942Y006790D01*
X033160Y007008D01*
X033379Y006790D01*
X033942Y006790D01*
X034160Y007008D01*
X034379Y006790D01*
X034942Y006790D01*
X035160Y007008D01*
X035379Y006790D01*
X035942Y006790D01*
X036160Y007008D01*
X036379Y006790D01*
X036942Y006790D01*
X036980Y006828D01*
X036980Y006595D01*
X037084Y006345D01*
X037275Y006154D01*
X037525Y006050D01*
X037796Y006050D01*
X038046Y006154D01*
X038237Y006345D01*
X038340Y006595D01*
X038340Y006828D01*
X038379Y006790D01*
X038942Y006790D01*
X039316Y007164D01*
X039470Y007010D01*
X039660Y007010D01*
X039660Y007470D01*
X039660Y007930D01*
X039470Y007930D01*
X039316Y007776D01*
X039122Y007970D01*
X039260Y007970D01*
X039444Y008046D01*
X039584Y008187D01*
X040216Y008819D01*
X040285Y008790D01*
X040340Y008790D01*
X040118Y008463D01*
X039967Y007975D01*
X039967Y007814D01*
X039851Y007930D01*
X039660Y007930D01*
X039660Y007470D01*
X039660Y007470D01*
X039660Y007470D01*
X039660Y007010D01*
X039851Y007010D01*
X040047Y007206D01*
X040118Y006977D01*
X040405Y006555D01*
X040804Y006237D01*
X040804Y006237D01*
X041279Y006050D01*
X041788Y006012D01*
X041788Y006012D01*
X042286Y006126D01*
X042728Y006381D01*
X043075Y006755D01*
X043075Y006755D01*
X043297Y007215D01*
X043297Y007215D01*
X043317Y007351D01*
X043379Y007290D01*
X043942Y007290D01*
X044160Y007508D01*
X044379Y007290D01*
X044942Y007290D01*
X045160Y007508D01*
X045379Y007290D01*
X045942Y007290D01*
X046160Y007508D01*
X046379Y007290D01*
X046942Y007290D01*
X047340Y007688D01*
X047340Y008252D01*
X046942Y008650D01*
X046379Y008650D01*
X046160Y008432D01*
X045942Y008650D01*
X045379Y008650D01*
X045160Y008432D01*
X044942Y008650D01*
X044379Y008650D01*
X044160Y008432D01*
X044047Y008545D01*
X044286Y008644D01*
X044477Y008835D01*
X044580Y009085D01*
X044580Y009355D01*
X044477Y009605D01*
X044362Y009720D01*
X044477Y009835D01*
X044580Y010085D01*
X044580Y010355D01*
X044477Y010605D01*
X044362Y010720D01*
X044477Y010835D01*
X044580Y011085D01*
X044580Y011355D01*
X044477Y011605D01*
X044362Y011720D01*
X044477Y011835D01*
X044580Y012085D01*
X044580Y012355D01*
X044477Y012605D01*
X044286Y012796D01*
X044036Y012900D01*
X043285Y012900D01*
X043035Y012796D01*
X042844Y012605D01*
X042740Y012355D01*
X042740Y012085D01*
X042844Y011835D01*
X042959Y011720D01*
X042844Y011605D01*
X042740Y011355D01*
X042740Y011347D01*
X042694Y011394D01*
X042510Y011470D01*
X041580Y011470D01*
X041580Y011605D01*
X041477Y011855D01*
X041362Y011970D01*
X041477Y012085D01*
X041580Y012335D01*
X041580Y012605D01*
X041477Y012855D01*
X041362Y012970D01*
X041760Y012970D01*
X041944Y013046D01*
X042084Y013187D01*
X042367Y013470D01*
X042235Y013338D02*
X044200Y013338D01*
X044381Y013099D02*
X041996Y013099D01*
X041472Y012861D02*
X043190Y012861D01*
X042861Y012622D02*
X041573Y012622D01*
X041580Y012384D02*
X042752Y012384D01*
X042740Y012145D02*
X041502Y012145D01*
X041426Y011907D02*
X042814Y011907D01*
X042907Y011668D02*
X041554Y011668D01*
X042608Y011430D02*
X042771Y011430D01*
X042203Y010470D02*
X041580Y010470D01*
X041580Y010335D01*
X041477Y010085D01*
X041362Y009970D01*
X041477Y009855D01*
X041580Y009605D01*
X041580Y009412D01*
X041788Y009428D01*
X042286Y009314D01*
X042286Y009314D01*
X042728Y009059D01*
X042728Y009059D01*
X042770Y009014D01*
X042740Y009085D01*
X042740Y009355D01*
X042844Y009605D01*
X042959Y009720D01*
X042886Y009792D01*
X042877Y009796D01*
X042203Y010470D01*
X042436Y010237D02*
X041540Y010237D01*
X041391Y009999D02*
X042675Y009999D01*
X042919Y009760D02*
X041516Y009760D01*
X041580Y009522D02*
X042809Y009522D01*
X042740Y009283D02*
X042340Y009283D01*
X042741Y009045D02*
X042757Y009045D01*
X043110Y008613D02*
X043185Y008456D01*
X043274Y008545D01*
X043110Y008613D01*
X043132Y008568D02*
X043219Y008568D01*
X044102Y008568D02*
X044296Y008568D01*
X044448Y008806D02*
X046220Y008806D01*
X046296Y008568D02*
X046025Y008568D01*
X045994Y009045D02*
X044564Y009045D01*
X044580Y009283D02*
X045965Y009283D01*
X046071Y009522D02*
X044512Y009522D01*
X044402Y009760D02*
X045919Y009760D01*
X045776Y009999D02*
X044545Y009999D01*
X044580Y010237D02*
X045740Y010237D01*
X045790Y010476D02*
X044531Y010476D01*
X044368Y010714D02*
X045953Y010714D01*
X045795Y010953D02*
X044526Y010953D01*
X044580Y011191D02*
X045740Y011191D01*
X045771Y011430D02*
X044550Y011430D01*
X044414Y011668D02*
X045907Y011668D01*
X045814Y011907D02*
X044507Y011907D01*
X044580Y012145D02*
X045740Y012145D01*
X045752Y012384D02*
X044569Y012384D01*
X044460Y012622D02*
X045861Y012622D01*
X045942Y012790D02*
X046340Y013188D01*
X046340Y013470D01*
X048010Y013470D01*
X048194Y013546D01*
X048334Y013687D01*
X048834Y014187D01*
X048910Y014371D01*
X048910Y017325D01*
X049220Y017325D01*
X049220Y014958D01*
X049220Y010841D01*
X049193Y010814D01*
X049126Y010652D01*
X049126Y010476D02*
X047531Y010476D01*
X047580Y010237D02*
X049126Y010237D01*
X049126Y009999D02*
X047545Y009999D01*
X047402Y009760D02*
X049137Y009760D01*
X049126Y009522D02*
X047249Y009522D01*
X047356Y009283D02*
X049126Y009283D01*
X049126Y009045D02*
X047327Y009045D01*
X047360Y009220D02*
X046660Y009220D01*
X047360Y009220D01*
X047101Y008806D02*
X049126Y008806D01*
X049126Y008568D02*
X047025Y008568D01*
X047263Y008329D02*
X049126Y008329D01*
X049126Y008091D02*
X047340Y008091D01*
X047340Y007852D02*
X049126Y007852D01*
X049206Y007614D02*
X047266Y007614D01*
X047027Y007375D02*
X049346Y007375D01*
X049346Y007137D02*
X043259Y007137D01*
X043144Y006898D02*
X047360Y006898D01*
X047359Y006897D02*
X047292Y006736D01*
X047292Y006204D01*
X047350Y006064D01*
X047350Y005626D01*
X047292Y005486D01*
X047292Y004954D01*
X047359Y004793D01*
X047483Y004669D01*
X047645Y004602D01*
X048176Y004602D01*
X048338Y004669D01*
X048461Y004793D01*
X048528Y004954D01*
X048528Y005486D01*
X048470Y005626D01*
X048470Y006064D01*
X048528Y006204D01*
X048528Y006736D01*
X048461Y006897D01*
X048338Y007021D01*
X048176Y007088D01*
X047645Y007088D01*
X047483Y007021D01*
X047359Y006897D01*
X047292Y006660D02*
X042986Y006660D01*
X042765Y006421D02*
X047292Y006421D01*
X047301Y006183D02*
X042384Y006183D01*
X042286Y006126D02*
X042286Y006126D01*
X042728Y006381D02*
X042728Y006381D01*
X044027Y007375D02*
X044294Y007375D01*
X045027Y007375D02*
X045294Y007375D01*
X046027Y007375D02*
X046294Y007375D01*
X046660Y008806D02*
X046660Y008806D01*
X046660Y009045D02*
X046660Y009045D01*
X046660Y009220D02*
X046660Y009220D01*
X045296Y008568D02*
X045025Y008568D01*
X047910Y006470D02*
X047910Y005220D01*
X047292Y005229D02*
X029720Y005229D01*
X029720Y005467D02*
X047292Y005467D01*
X047350Y005706D02*
X029720Y005706D01*
X029720Y005944D02*
X047350Y005944D01*
X047292Y004990D02*
X029720Y004990D01*
X029720Y004752D02*
X037240Y004752D01*
X037050Y004513D02*
X029720Y004513D01*
X029720Y004275D02*
X036980Y004275D01*
X036265Y004036D02*
X034056Y004036D01*
X034295Y003798D02*
X034337Y003798D01*
X034660Y003798D02*
X034660Y003798D01*
X034660Y003930D02*
X034660Y003470D01*
X034660Y003470D01*
X034660Y003470D01*
X034660Y003010D01*
X034851Y003010D01*
X035120Y003279D01*
X035120Y003470D01*
X035120Y003661D01*
X034851Y003930D01*
X034660Y003930D01*
X034983Y003798D02*
X035337Y003798D01*
X035200Y003559D02*
X035120Y003559D01*
X035120Y003470D02*
X034660Y003470D01*
X034660Y003470D01*
X035120Y003470D01*
X035120Y003321D02*
X035200Y003321D01*
X035398Y003082D02*
X034923Y003082D01*
X034660Y003082D02*
X034660Y003082D01*
X034660Y003321D02*
X034660Y003321D01*
X034660Y003559D02*
X034660Y003559D01*
X034398Y003082D02*
X034234Y003082D01*
X034160Y002844D02*
X035322Y002844D01*
X035084Y002605D02*
X034160Y002605D01*
X034160Y002367D02*
X034980Y002367D01*
X034980Y002128D02*
X034160Y002128D01*
X034160Y001890D02*
X035029Y001890D01*
X035660Y003082D02*
X035660Y003082D01*
X035660Y003321D02*
X035660Y003321D01*
X035660Y003559D02*
X035660Y003559D01*
X035660Y003798D02*
X035660Y003798D01*
X035983Y003798D02*
X036026Y003798D01*
X036087Y003082D02*
X035923Y003082D01*
X038081Y004752D02*
X047400Y004752D01*
X047079Y004513D02*
X048478Y004513D01*
X048420Y004752D02*
X048716Y004752D01*
X048528Y004990D02*
X050205Y004990D01*
X050220Y005229D02*
X048528Y005229D01*
X048528Y005467D02*
X050220Y005467D01*
X049910Y005706D02*
X049910Y005706D01*
X049910Y005944D02*
X049910Y005944D01*
X049910Y006183D02*
X049910Y006183D01*
X049910Y006421D02*
X049910Y006421D01*
X049910Y006660D02*
X049910Y006660D01*
X049910Y006898D02*
X049910Y006898D01*
X049910Y007137D02*
X049910Y007137D01*
X049346Y006898D02*
X048461Y006898D01*
X048528Y006660D02*
X049367Y006660D01*
X049346Y006421D02*
X048528Y006421D01*
X048519Y006183D02*
X049346Y006183D01*
X049346Y005944D02*
X048470Y005944D01*
X048470Y005706D02*
X049425Y005706D01*
X048239Y004275D02*
X047318Y004275D01*
X047340Y004036D02*
X048001Y004036D01*
X047787Y003911D02*
X047787Y003911D01*
X046242Y004513D02*
X045079Y004513D01*
X045660Y004430D02*
X045660Y003970D01*
X045660Y003970D01*
X045660Y003510D01*
X045470Y003510D01*
X045316Y003664D01*
X045248Y003596D01*
X045329Y003515D01*
X045396Y003353D01*
X045396Y002587D01*
X045329Y002425D01*
X045205Y002302D01*
X045176Y002290D01*
X045176Y001970D01*
X045176Y001660D01*
X045925Y001660D01*
X045925Y002353D01*
X045974Y002470D01*
X045925Y002587D01*
X045925Y003353D01*
X045992Y003515D01*
X046073Y003596D01*
X046005Y003664D01*
X045851Y003510D01*
X045660Y003510D01*
X045660Y003970D01*
X045660Y003970D01*
X045660Y004430D01*
X045660Y004275D02*
X045660Y004275D01*
X045660Y004036D02*
X045660Y004036D01*
X045660Y003798D02*
X045660Y003798D01*
X045660Y003559D02*
X045660Y003559D01*
X045421Y003559D02*
X045284Y003559D01*
X045396Y003321D02*
X045925Y003321D01*
X045925Y003082D02*
X045396Y003082D01*
X045396Y002844D02*
X045925Y002844D01*
X045925Y002605D02*
X045396Y002605D01*
X045270Y002367D02*
X045931Y002367D01*
X045925Y002128D02*
X045176Y002128D01*
X045176Y001970D02*
X044660Y001970D01*
X044660Y001970D01*
X045176Y001970D01*
X045176Y001890D02*
X045925Y001890D01*
X045900Y003559D02*
X046037Y003559D01*
X044242Y004513D02*
X042319Y004513D01*
X042510Y004275D02*
X043314Y004275D01*
X043200Y004036D02*
X042580Y004036D01*
X042565Y003798D02*
X043147Y003798D01*
X043200Y003970D02*
X043660Y003970D01*
X043660Y003970D01*
X043200Y003970D01*
X043660Y003970D02*
X043660Y004430D01*
X043660Y003970D01*
X043660Y003970D01*
X043660Y004036D02*
X043660Y004036D01*
X043660Y004275D02*
X043660Y004275D01*
X042989Y003559D02*
X042451Y003559D01*
X042109Y003321D02*
X042970Y003321D01*
X043099Y003082D02*
X042022Y003082D01*
X042022Y002844D02*
X042322Y002844D01*
X042084Y002605D02*
X041952Y002605D01*
X041980Y002367D02*
X041720Y002367D01*
X041980Y002128D02*
X041340Y002128D01*
X040927Y002128D02*
X039340Y002128D01*
X039292Y001890D02*
X042029Y001890D01*
X042660Y002220D02*
X042660Y000970D01*
X042999Y002844D02*
X043167Y002844D01*
X040740Y004036D02*
X039580Y004036D01*
X039510Y004275D02*
X040810Y004275D01*
X041002Y004513D02*
X039319Y004513D01*
X038075Y006183D02*
X040943Y006183D01*
X041279Y006050D02*
X041279Y006050D01*
X040573Y006421D02*
X038268Y006421D01*
X038340Y006660D02*
X040334Y006660D01*
X040405Y006555D02*
X040405Y006555D01*
X040405Y006555D01*
X040171Y006898D02*
X039050Y006898D01*
X039289Y007137D02*
X039343Y007137D01*
X039660Y007137D02*
X039660Y007137D01*
X039660Y007375D02*
X039660Y007375D01*
X039660Y007614D02*
X039660Y007614D01*
X039660Y007852D02*
X039660Y007852D01*
X039392Y007852D02*
X039240Y007852D01*
X039488Y008091D02*
X040003Y008091D01*
X039967Y007852D02*
X039929Y007852D01*
X040076Y008329D02*
X039726Y008329D01*
X039965Y008568D02*
X040189Y008568D01*
X040118Y008463D02*
X040118Y008463D01*
X040203Y008806D02*
X040246Y008806D01*
X041170Y008095D02*
X041172Y008116D01*
X041178Y008137D01*
X041187Y008156D01*
X041200Y008172D01*
X041216Y008187D01*
X041234Y008198D01*
X041254Y008206D01*
X041274Y008210D01*
X041296Y008210D01*
X041316Y008206D01*
X041336Y008198D01*
X041354Y008187D01*
X041370Y008172D01*
X041383Y008156D01*
X041392Y008137D01*
X041398Y008116D01*
X041400Y008095D01*
X041398Y008074D01*
X041392Y008053D01*
X041383Y008034D01*
X041370Y008018D01*
X041354Y008003D01*
X041336Y007992D01*
X041316Y007984D01*
X041296Y007980D01*
X041274Y007980D01*
X041254Y007984D01*
X041234Y007992D01*
X041216Y008003D01*
X041200Y008018D01*
X041187Y008034D01*
X041178Y008053D01*
X041172Y008074D01*
X041170Y008095D01*
X041911Y008470D02*
X041957Y008432D01*
X042001Y008392D01*
X042042Y008348D01*
X042080Y008302D01*
X042116Y008254D01*
X042148Y008204D01*
X042177Y008152D01*
X042202Y008098D01*
X042224Y008042D01*
X042243Y007985D01*
X042258Y007927D01*
X042269Y007869D01*
X042277Y007810D01*
X042281Y007750D01*
X042281Y007690D01*
X042277Y007630D01*
X042269Y007571D01*
X042258Y007513D01*
X042243Y007455D01*
X042224Y007398D01*
X042202Y007342D01*
X042177Y007288D01*
X042148Y007236D01*
X042116Y007186D01*
X042080Y007138D01*
X042042Y007092D01*
X042001Y007048D01*
X041957Y007008D01*
X041911Y006970D01*
X041170Y007345D02*
X041172Y007366D01*
X041178Y007387D01*
X041187Y007406D01*
X041200Y007422D01*
X041216Y007437D01*
X041234Y007448D01*
X041254Y007456D01*
X041274Y007460D01*
X041296Y007460D01*
X041316Y007456D01*
X041336Y007448D01*
X041354Y007437D01*
X041370Y007422D01*
X041383Y007406D01*
X041392Y007387D01*
X041398Y007366D01*
X041400Y007345D01*
X041398Y007324D01*
X041392Y007303D01*
X041383Y007284D01*
X041370Y007268D01*
X041354Y007253D01*
X041336Y007242D01*
X041316Y007234D01*
X041296Y007230D01*
X041274Y007230D01*
X041254Y007234D01*
X041234Y007242D01*
X041216Y007253D01*
X041200Y007268D01*
X041187Y007284D01*
X041178Y007303D01*
X041172Y007324D01*
X041170Y007345D01*
X040508Y007720D02*
X040510Y007788D01*
X040516Y007855D01*
X040526Y007922D01*
X040540Y007988D01*
X040557Y008053D01*
X040579Y008118D01*
X040604Y008180D01*
X040633Y008241D01*
X040665Y008301D01*
X040701Y008358D01*
X040740Y008413D01*
X040782Y008466D01*
X040828Y008516D01*
X040876Y008564D01*
X040927Y008608D01*
X040980Y008650D01*
X041036Y008688D01*
X041094Y008723D01*
X041154Y008755D01*
X041215Y008783D01*
X041278Y008807D01*
X041343Y008827D01*
X041408Y008844D01*
X041475Y008857D01*
X041542Y008866D01*
X041609Y008871D01*
X041677Y008872D01*
X041744Y008869D01*
X041812Y008862D01*
X041879Y008851D01*
X041945Y008836D01*
X042010Y008818D01*
X042073Y008795D01*
X042136Y008769D01*
X042197Y008739D01*
X042255Y008706D01*
X042312Y008670D01*
X042367Y008630D01*
X042419Y008587D01*
X042469Y008541D01*
X042515Y008492D01*
X042559Y008440D01*
X042600Y008386D01*
X042637Y008330D01*
X042671Y008271D01*
X042702Y008211D01*
X042729Y008149D01*
X042752Y008086D01*
X042772Y008021D01*
X042788Y007955D01*
X042800Y007889D01*
X042808Y007821D01*
X042812Y007754D01*
X042812Y007686D01*
X042808Y007619D01*
X042800Y007551D01*
X042788Y007485D01*
X042772Y007419D01*
X042752Y007354D01*
X042729Y007291D01*
X042702Y007229D01*
X042671Y007169D01*
X042637Y007110D01*
X042600Y007054D01*
X042559Y007000D01*
X042515Y006948D01*
X042469Y006899D01*
X042419Y006853D01*
X042367Y006810D01*
X042312Y006770D01*
X042255Y006734D01*
X042197Y006701D01*
X042136Y006671D01*
X042073Y006645D01*
X042010Y006622D01*
X041945Y006604D01*
X041879Y006589D01*
X041812Y006578D01*
X041744Y006571D01*
X041677Y006568D01*
X041609Y006569D01*
X041542Y006574D01*
X041475Y006583D01*
X041408Y006596D01*
X041343Y006613D01*
X041278Y006633D01*
X041215Y006657D01*
X041154Y006685D01*
X041094Y006717D01*
X041036Y006752D01*
X040980Y006790D01*
X040927Y006832D01*
X040876Y006876D01*
X040828Y006924D01*
X040782Y006974D01*
X040740Y007027D01*
X040701Y007082D01*
X040665Y007139D01*
X040633Y007199D01*
X040604Y007260D01*
X040579Y007322D01*
X040557Y007387D01*
X040540Y007452D01*
X040526Y007518D01*
X040516Y007585D01*
X040510Y007652D01*
X040508Y007720D01*
X040068Y007137D02*
X039977Y007137D01*
X040118Y006977D02*
X040118Y006977D01*
X038199Y007970D02*
X038024Y007795D01*
X037796Y007890D01*
X037525Y007890D01*
X037297Y007795D01*
X037122Y007970D01*
X038199Y007970D01*
X038081Y007852D02*
X037887Y007852D01*
X037433Y007852D02*
X037240Y007852D01*
X036199Y007970D02*
X036160Y007932D01*
X036122Y007970D01*
X036199Y007970D01*
X035199Y007970D02*
X035160Y007932D01*
X035122Y007970D01*
X035199Y007970D01*
X034199Y007970D02*
X034160Y007932D01*
X034122Y007970D01*
X034199Y007970D01*
X033232Y008003D02*
X033160Y007932D01*
X032942Y008150D01*
X032481Y008150D01*
X032511Y008180D01*
X032554Y008239D01*
X032587Y008303D01*
X032609Y008372D01*
X032620Y008444D01*
X032620Y008553D01*
X033127Y008046D01*
X033232Y008003D01*
X033083Y008091D02*
X033002Y008091D01*
X032844Y008329D02*
X032595Y008329D01*
X032081Y007852D02*
X031929Y007852D01*
X032160Y007470D02*
X032160Y004720D01*
X031685Y003914D02*
X031685Y003914D01*
X031685Y003914D01*
X031908Y003798D02*
X033026Y003798D01*
X032980Y003559D02*
X032122Y003559D01*
X032180Y003321D02*
X032980Y003321D01*
X033087Y003082D02*
X032180Y003082D01*
X032146Y002844D02*
X033160Y002844D01*
X033160Y002605D02*
X032237Y002605D01*
X032340Y002367D02*
X033160Y002367D01*
X033160Y002128D02*
X032340Y002128D01*
X032292Y001890D02*
X033160Y001890D01*
X033265Y004036D02*
X030137Y004036D01*
X028600Y004036D02*
X028600Y004036D01*
X028600Y003798D02*
X028600Y003798D01*
X028600Y003559D02*
X028600Y003559D01*
X028600Y003321D02*
X028600Y003321D01*
X028600Y003082D02*
X028600Y003082D01*
X028600Y003007D02*
X028600Y006064D01*
X028600Y002900D01*
X028556Y002900D01*
X028600Y003007D01*
X028134Y002655D02*
X027980Y002502D01*
X027980Y001938D01*
X028259Y001660D01*
X025062Y001660D01*
X025340Y001938D01*
X025340Y002502D01*
X025312Y002530D01*
X025396Y002530D01*
X025494Y002571D01*
X025593Y002530D01*
X025790Y002530D01*
X025972Y002605D01*
X026021Y002655D01*
X028134Y002655D01*
X028084Y002605D02*
X025971Y002605D01*
X025340Y002367D02*
X027980Y002367D01*
X027980Y002128D02*
X025340Y002128D01*
X025292Y001890D02*
X028029Y001890D01*
X028660Y002220D02*
X029160Y002220D01*
X029660Y002220D01*
X029160Y002220D02*
X029160Y006470D01*
X029778Y006421D02*
X037052Y006421D01*
X036980Y006660D02*
X029778Y006660D01*
X029711Y006898D02*
X032271Y006898D01*
X032032Y007137D02*
X031977Y007137D01*
X031660Y007137D02*
X031660Y007137D01*
X031660Y007375D02*
X031660Y007375D01*
X031343Y007137D02*
X028600Y007137D01*
X028600Y007375D02*
X031200Y007375D01*
X031200Y007614D02*
X028761Y007614D01*
X028610Y006898D02*
X028600Y006898D01*
X028600Y006064D02*
X028600Y006064D01*
X028600Y005944D02*
X028600Y005944D01*
X028600Y005706D02*
X028600Y005706D01*
X028600Y005467D02*
X028600Y005467D01*
X028600Y005229D02*
X028600Y005229D01*
X028600Y004990D02*
X028600Y004990D01*
X028600Y004752D02*
X028600Y004752D01*
X028600Y004513D02*
X028600Y004513D01*
X028600Y004275D02*
X028600Y004275D01*
X029769Y006183D02*
X037246Y006183D01*
X036271Y006898D02*
X036050Y006898D01*
X035271Y006898D02*
X035050Y006898D01*
X034271Y006898D02*
X034050Y006898D01*
X033271Y006898D02*
X033050Y006898D01*
X030900Y007852D02*
X030421Y007852D01*
X029900Y007852D02*
X029421Y007852D01*
X028232Y009999D02*
X021535Y009999D01*
X021547Y009975D02*
X021547Y009975D01*
X021420Y010237D02*
X036781Y010237D01*
X036740Y010476D02*
X021287Y010476D01*
X021325Y010435D02*
X021325Y010435D01*
X021455Y010714D02*
X021066Y010714D01*
X020978Y010809D02*
X020978Y010809D01*
X020729Y010953D02*
X021230Y010953D01*
X020536Y011064D02*
X020536Y011064D01*
X020038Y011178D02*
X020038Y011178D01*
X019529Y011140D02*
X019529Y011140D01*
X019420Y009845D02*
X019422Y009866D01*
X019428Y009887D01*
X019437Y009906D01*
X019450Y009922D01*
X019466Y009937D01*
X019484Y009948D01*
X019504Y009956D01*
X019524Y009960D01*
X019546Y009960D01*
X019566Y009956D01*
X019586Y009948D01*
X019604Y009937D01*
X019620Y009922D01*
X019633Y009906D01*
X019642Y009887D01*
X019648Y009866D01*
X019650Y009845D01*
X019648Y009824D01*
X019642Y009803D01*
X019633Y009784D01*
X019620Y009768D01*
X019604Y009753D01*
X019586Y009742D01*
X019566Y009734D01*
X019546Y009730D01*
X019524Y009730D01*
X019504Y009734D01*
X019484Y009742D01*
X019466Y009753D01*
X019450Y009768D01*
X019437Y009784D01*
X019428Y009803D01*
X019422Y009824D01*
X019420Y009845D01*
X019160Y009220D02*
X019198Y009174D01*
X019238Y009130D01*
X019282Y009089D01*
X019328Y009051D01*
X019376Y009015D01*
X019426Y008983D01*
X019478Y008954D01*
X019532Y008929D01*
X019588Y008907D01*
X019645Y008888D01*
X019703Y008873D01*
X019761Y008862D01*
X019820Y008854D01*
X019880Y008850D01*
X019940Y008850D01*
X020000Y008854D01*
X020059Y008862D01*
X020117Y008873D01*
X020175Y008888D01*
X020232Y008907D01*
X020288Y008929D01*
X020342Y008954D01*
X020394Y008983D01*
X020444Y009015D01*
X020492Y009051D01*
X020538Y009089D01*
X020582Y009130D01*
X020622Y009174D01*
X020660Y009220D01*
X020170Y009845D02*
X020172Y009866D01*
X020178Y009887D01*
X020187Y009906D01*
X020200Y009922D01*
X020216Y009937D01*
X020234Y009948D01*
X020254Y009956D01*
X020274Y009960D01*
X020296Y009960D01*
X020316Y009956D01*
X020336Y009948D01*
X020354Y009937D01*
X020370Y009922D01*
X020383Y009906D01*
X020392Y009887D01*
X020398Y009866D01*
X020400Y009845D01*
X020398Y009824D01*
X020392Y009803D01*
X020383Y009784D01*
X020370Y009768D01*
X020354Y009753D01*
X020336Y009742D01*
X020316Y009734D01*
X020296Y009730D01*
X020274Y009730D01*
X020254Y009734D01*
X020234Y009742D01*
X020216Y009753D01*
X020200Y009768D01*
X020187Y009784D01*
X020178Y009803D01*
X020172Y009824D01*
X020170Y009845D01*
X018758Y009470D02*
X018760Y009538D01*
X018766Y009605D01*
X018776Y009672D01*
X018790Y009738D01*
X018807Y009803D01*
X018829Y009868D01*
X018854Y009930D01*
X018883Y009991D01*
X018915Y010051D01*
X018951Y010108D01*
X018990Y010163D01*
X019032Y010216D01*
X019078Y010266D01*
X019126Y010314D01*
X019177Y010358D01*
X019230Y010400D01*
X019286Y010438D01*
X019344Y010473D01*
X019404Y010505D01*
X019465Y010533D01*
X019528Y010557D01*
X019593Y010577D01*
X019658Y010594D01*
X019725Y010607D01*
X019792Y010616D01*
X019859Y010621D01*
X019927Y010622D01*
X019994Y010619D01*
X020062Y010612D01*
X020129Y010601D01*
X020195Y010586D01*
X020260Y010568D01*
X020323Y010545D01*
X020386Y010519D01*
X020447Y010489D01*
X020505Y010456D01*
X020562Y010420D01*
X020617Y010380D01*
X020669Y010337D01*
X020719Y010291D01*
X020765Y010242D01*
X020809Y010190D01*
X020850Y010136D01*
X020887Y010080D01*
X020921Y010021D01*
X020952Y009961D01*
X020979Y009899D01*
X021002Y009836D01*
X021022Y009771D01*
X021038Y009705D01*
X021050Y009639D01*
X021058Y009571D01*
X021062Y009504D01*
X021062Y009436D01*
X021058Y009369D01*
X021050Y009301D01*
X021038Y009235D01*
X021022Y009169D01*
X021002Y009104D01*
X020979Y009041D01*
X020952Y008979D01*
X020921Y008919D01*
X020887Y008860D01*
X020850Y008804D01*
X020809Y008750D01*
X020765Y008698D01*
X020719Y008649D01*
X020669Y008603D01*
X020617Y008560D01*
X020562Y008520D01*
X020505Y008484D01*
X020447Y008451D01*
X020386Y008421D01*
X020323Y008395D01*
X020260Y008372D01*
X020195Y008354D01*
X020129Y008339D01*
X020062Y008328D01*
X019994Y008321D01*
X019927Y008318D01*
X019859Y008319D01*
X019792Y008324D01*
X019725Y008333D01*
X019658Y008346D01*
X019593Y008363D01*
X019528Y008383D01*
X019465Y008407D01*
X019404Y008435D01*
X019344Y008467D01*
X019286Y008502D01*
X019230Y008540D01*
X019177Y008582D01*
X019126Y008626D01*
X019078Y008674D01*
X019032Y008724D01*
X018990Y008777D01*
X018951Y008832D01*
X018915Y008889D01*
X018883Y008949D01*
X018854Y009010D01*
X018829Y009072D01*
X018807Y009137D01*
X018790Y009202D01*
X018776Y009268D01*
X018766Y009335D01*
X018760Y009402D01*
X018758Y009470D01*
X028160Y014970D02*
X028660Y014970D01*
X029160Y014470D01*
X029160Y012970D01*
X028647Y012745D02*
X028686Y012653D01*
X028794Y012544D01*
X028775Y012536D01*
X028660Y012422D01*
X028546Y012536D01*
X028470Y012568D01*
X028647Y012745D01*
X028716Y012622D02*
X028524Y012622D01*
X032840Y011430D02*
X034994Y011430D01*
X035232Y011191D02*
X032777Y011191D01*
X033089Y009999D02*
X036930Y009999D01*
X036804Y009760D02*
X033327Y009760D01*
X033566Y009522D02*
X036740Y009522D01*
X036762Y009283D02*
X033804Y009283D01*
X038580Y012441D02*
X038580Y012605D01*
X038477Y012855D01*
X038362Y012970D01*
X038477Y013085D01*
X038580Y013335D01*
X038580Y013605D01*
X038477Y013855D01*
X038362Y013970D01*
X038477Y014085D01*
X038510Y014164D01*
X038910Y013763D01*
X038910Y012177D01*
X038694Y012394D01*
X038580Y012441D01*
X038704Y012384D02*
X038910Y012384D01*
X038910Y012622D02*
X038573Y012622D01*
X038472Y012861D02*
X038910Y012861D01*
X038910Y013099D02*
X038483Y013099D01*
X038580Y013338D02*
X038910Y013338D01*
X038910Y013576D02*
X038580Y013576D01*
X038494Y013815D02*
X038859Y013815D01*
X038620Y014053D02*
X038445Y014053D01*
X041362Y012970D02*
X041362Y012970D01*
X039471Y010953D02*
X039160Y010953D01*
X039160Y011191D02*
X039232Y011191D01*
X039160Y011263D02*
X039160Y010177D01*
X039703Y010720D01*
X039160Y011263D01*
X039160Y010714D02*
X039697Y010714D01*
X039459Y010476D02*
X039160Y010476D01*
X039160Y010237D02*
X039220Y010237D01*
X044131Y012861D02*
X045308Y012861D01*
X045379Y012790D02*
X045942Y012790D01*
X046013Y012861D02*
X046190Y012861D01*
X046251Y013099D02*
X049220Y013099D01*
X049220Y013338D02*
X046340Y013338D01*
X045379Y012790D02*
X045005Y013164D01*
X044851Y013010D01*
X044660Y013010D01*
X044660Y013470D01*
X044660Y013338D02*
X044660Y013338D01*
X044660Y013099D02*
X044660Y013099D01*
X044940Y013099D02*
X045070Y013099D01*
X048223Y013576D02*
X049220Y013576D01*
X049220Y013815D02*
X048462Y013815D01*
X048700Y014053D02*
X049220Y014053D01*
X049220Y014292D02*
X048878Y014292D01*
X048910Y014530D02*
X049220Y014530D01*
X049220Y014769D02*
X048910Y014769D01*
X048910Y015007D02*
X049220Y015007D01*
X049220Y015246D02*
X048910Y015246D01*
X048910Y015484D02*
X049220Y015484D01*
X049220Y015723D02*
X048910Y015723D01*
X048910Y015961D02*
X049220Y015961D01*
X049220Y016200D02*
X048910Y016200D01*
X048910Y016438D02*
X049220Y016438D01*
X049220Y016677D02*
X048910Y016677D01*
X048910Y016915D02*
X049220Y016915D01*
X049220Y017154D02*
X048910Y017154D01*
X050600Y019208D02*
X050600Y020732D01*
X050495Y020986D01*
X050463Y021018D01*
X050461Y021022D01*
X050338Y021146D01*
X050333Y021148D01*
X050301Y021180D01*
X050180Y021230D01*
X050180Y021470D01*
X051260Y021470D01*
X051444Y021546D01*
X051584Y021687D01*
X052030Y022133D01*
X052030Y018712D01*
X051958Y018887D01*
X051750Y019095D01*
X051478Y019208D01*
X050600Y019208D01*
X050600Y019300D02*
X052030Y019300D01*
X052030Y019062D02*
X051783Y019062D01*
X051984Y018823D02*
X052030Y018823D01*
X052030Y018224D02*
X052030Y017712D01*
X051958Y017887D01*
X051877Y017968D01*
X051958Y018049D01*
X052030Y018224D01*
X052030Y018108D02*
X051982Y018108D01*
X051965Y017869D02*
X052030Y017869D01*
X052030Y017224D02*
X052030Y016712D01*
X051958Y016887D01*
X051877Y016968D01*
X051958Y017049D01*
X052030Y017224D01*
X052030Y017154D02*
X052001Y017154D01*
X052030Y016915D02*
X051930Y016915D01*
X052030Y016224D02*
X052030Y015712D01*
X051958Y015887D01*
X051877Y015968D01*
X051958Y016049D01*
X052030Y016224D01*
X052030Y016200D02*
X052020Y016200D01*
X052030Y015961D02*
X051884Y015961D01*
X052026Y015723D02*
X052030Y015723D01*
X052030Y015224D02*
X052030Y014712D01*
X051958Y014887D01*
X051877Y014968D01*
X051958Y015049D01*
X052030Y015224D01*
X052030Y015007D02*
X051916Y015007D01*
X052007Y014769D02*
X052030Y014769D01*
X052030Y014224D02*
X052030Y011576D01*
X051745Y011861D01*
X051551Y012055D01*
X051298Y012160D01*
X050600Y012160D01*
X050600Y012964D01*
X050609Y012961D01*
X050690Y012948D01*
X051030Y012948D01*
X051030Y013468D01*
X051030Y013468D01*
X051030Y012948D01*
X051371Y012948D01*
X051452Y012961D01*
X051530Y012986D01*
X051603Y013023D01*
X051669Y013071D01*
X051727Y013129D01*
X051775Y013195D01*
X051812Y013268D01*
X051838Y013346D01*
X051850Y013427D01*
X051850Y013468D01*
X051030Y013468D01*
X051030Y013468D01*
X051850Y013468D01*
X051850Y013509D01*
X051838Y013590D01*
X051812Y013668D01*
X051775Y013741D01*
X051727Y013807D01*
X051710Y013824D01*
X051750Y013841D01*
X051958Y014049D01*
X052030Y014224D01*
X052030Y014053D02*
X051960Y014053D01*
X052030Y013815D02*
X051719Y013815D01*
X051840Y013576D02*
X052030Y013576D01*
X052030Y013338D02*
X051835Y013338D01*
X051697Y013099D02*
X052030Y013099D01*
X052030Y012861D02*
X050600Y012861D01*
X050600Y012622D02*
X052030Y012622D01*
X052030Y012384D02*
X050600Y012384D01*
X051334Y012145D02*
X052030Y012145D01*
X052030Y011907D02*
X051700Y011907D01*
X051938Y011668D02*
X052030Y011668D01*
X051030Y013099D02*
X051030Y013099D01*
X051030Y013338D02*
X051030Y013338D01*
X050910Y010220D02*
X050910Y009656D01*
X050910Y009220D01*
X050910Y010220D01*
X050910Y010220D01*
X050910Y009999D02*
X050910Y009999D01*
X050910Y009760D02*
X050910Y009760D01*
X050910Y009522D02*
X050910Y009522D01*
X050910Y009283D02*
X050910Y009283D01*
X050910Y009220D02*
X050910Y009220D01*
X052030Y005614D02*
X052030Y003281D01*
X052017Y003305D01*
X051678Y003643D01*
X051264Y003883D01*
X051094Y003928D01*
X051495Y004329D01*
X051600Y004583D01*
X051600Y005184D01*
X052030Y005614D01*
X052030Y005467D02*
X051883Y005467D01*
X052030Y005229D02*
X051645Y005229D01*
X051600Y004990D02*
X052030Y004990D01*
X052030Y004752D02*
X051600Y004752D01*
X051571Y004513D02*
X052030Y004513D01*
X052030Y004275D02*
X051441Y004275D01*
X051202Y004036D02*
X052030Y004036D01*
X052030Y003798D02*
X051411Y003798D01*
X051762Y003559D02*
X052030Y003559D01*
X052030Y003321D02*
X052001Y003321D01*
X052030Y001096D02*
X052030Y000720D01*
X051654Y000720D01*
X051678Y000734D01*
X052017Y001072D01*
X052030Y001096D01*
X052030Y000936D02*
X051880Y000936D01*
X049470Y000720D02*
X048636Y000720D01*
X048801Y000885D01*
X048995Y001079D01*
X049040Y001188D01*
X049107Y001072D01*
X049446Y000734D01*
X049470Y000720D01*
X049244Y000936D02*
X048852Y000936D01*
X049035Y001174D02*
X049048Y001174D01*
X029774Y019062D02*
X029531Y019062D01*
X031538Y022401D02*
X031782Y022401D01*
X032538Y022401D02*
X033348Y022401D01*
X033368Y022463D02*
X033368Y022463D01*
X033488Y022639D02*
X032755Y022639D01*
X032840Y022878D02*
X033650Y022878D01*
X033945Y023116D02*
X032840Y023116D01*
X032840Y023355D02*
X034440Y023355D01*
X034529Y023390D02*
X034529Y023390D01*
X034410Y023832D02*
X034410Y023832D01*
X034410Y024070D02*
X034410Y024070D01*
X034148Y023832D02*
X032760Y023832D01*
X032760Y024070D02*
X033950Y024070D01*
X033950Y024309D02*
X032760Y024309D01*
X032760Y024547D02*
X034087Y024547D01*
X033883Y024786D02*
X032760Y024786D01*
X032684Y025024D02*
X033730Y025024D01*
X033730Y025263D02*
X032466Y025263D01*
X032229Y025501D02*
X033730Y025501D01*
X033287Y025655D02*
X033287Y025655D01*
X032910Y025740D02*
X032910Y025740D01*
X032910Y025978D02*
X032910Y025978D01*
X032910Y026217D02*
X032910Y026217D01*
X032910Y026455D02*
X032910Y026455D01*
X032910Y026694D02*
X032910Y026694D01*
X032910Y026932D02*
X032910Y026932D01*
X032910Y027171D02*
X032910Y027171D01*
X032577Y027171D02*
X032545Y027171D01*
X032301Y027409D02*
X035720Y027409D01*
X035720Y027171D02*
X033244Y027171D01*
X033104Y027648D02*
X031716Y027648D01*
X031519Y027409D02*
X030760Y027409D01*
X030760Y027171D02*
X031275Y027171D01*
X031177Y026932D02*
X030797Y026932D01*
X031035Y026694D02*
X031170Y026694D01*
X030054Y025978D02*
X027145Y025978D01*
X027142Y025970D02*
X027168Y026048D01*
X027180Y026129D01*
X027180Y026470D01*
X027180Y026811D01*
X027168Y026892D01*
X027142Y026970D01*
X027105Y027043D01*
X027057Y027109D01*
X026999Y027167D01*
X026933Y027215D01*
X026860Y027252D01*
X026782Y027277D01*
X026701Y027290D01*
X026660Y027290D01*
X026660Y026470D01*
X026660Y026470D01*
X026660Y026470D01*
X026660Y025650D01*
X026701Y025650D01*
X026782Y025663D01*
X026860Y025688D01*
X026933Y025725D01*
X026999Y025773D01*
X027057Y025831D01*
X027105Y025897D01*
X027142Y025970D01*
X027180Y026217D02*
X029815Y026217D01*
X029621Y026455D02*
X027180Y026455D01*
X027180Y026470D02*
X026660Y026470D01*
X027180Y026470D01*
X027180Y026694D02*
X029560Y026694D01*
X029560Y026932D02*
X027154Y026932D01*
X026994Y027171D02*
X029560Y027171D01*
X029560Y027409D02*
X026051Y027409D01*
X026295Y027171D02*
X026327Y027171D01*
X026660Y027171D02*
X026660Y027171D01*
X026660Y026932D02*
X026660Y026932D01*
X026660Y026694D02*
X026660Y026694D01*
X026660Y026470D02*
X026660Y026470D01*
X026660Y026455D02*
X026660Y026455D01*
X026660Y026217D02*
X026660Y026217D01*
X026660Y025978D02*
X026660Y025978D01*
X026660Y025740D02*
X026660Y025740D01*
X026368Y025740D02*
X026276Y025740D01*
X025979Y025501D02*
X027480Y025501D01*
X027480Y025263D02*
X024840Y025263D01*
X024840Y025501D02*
X025342Y025501D01*
X024840Y025024D02*
X027480Y025024D01*
X027633Y024786D02*
X024688Y024786D01*
X024449Y024547D02*
X027837Y024547D01*
X027700Y024309D02*
X024370Y024309D01*
X024370Y024220D02*
X023910Y024220D01*
X023910Y024220D01*
X024370Y024220D01*
X024370Y024070D02*
X024856Y024070D01*
X024578Y023832D02*
X024172Y023832D01*
X023910Y023832D02*
X023910Y023832D01*
X023910Y024070D02*
X023910Y024070D01*
X023648Y023832D02*
X023484Y023832D01*
X023410Y023593D02*
X024480Y023593D01*
X024480Y023355D02*
X023410Y023355D01*
X023471Y023116D02*
X024480Y023116D01*
X025465Y024070D02*
X025856Y024070D01*
X026465Y024070D02*
X026856Y024070D01*
X027465Y024070D02*
X027700Y024070D01*
X028160Y024220D02*
X028160Y024220D01*
X028484Y024547D02*
X028526Y024547D01*
X028505Y024526D02*
X028466Y024564D01*
X028660Y024758D01*
X028699Y024720D01*
X028505Y024526D01*
X029622Y024720D02*
X029840Y024502D01*
X029840Y024063D01*
X030025Y024140D01*
X030296Y024140D01*
X030546Y024036D01*
X030660Y023922D01*
X030775Y024036D01*
X031025Y024140D01*
X031296Y024140D01*
X031546Y024036D01*
X031560Y024022D01*
X031560Y024471D01*
X031090Y024941D01*
X031090Y024938D01*
X030692Y024540D01*
X030129Y024540D01*
X029785Y024883D01*
X029622Y024720D01*
X029688Y024786D02*
X029883Y024786D01*
X029795Y024547D02*
X030122Y024547D01*
X029840Y024309D02*
X031560Y024309D01*
X031560Y024070D02*
X031465Y024070D01*
X031485Y024547D02*
X030699Y024547D01*
X030938Y024786D02*
X031246Y024786D01*
X030856Y024070D02*
X030465Y024070D01*
X029856Y024070D02*
X029840Y024070D01*
X029968Y025740D02*
X029603Y025740D01*
X028718Y025740D02*
X028603Y025740D01*
X027718Y025740D02*
X026953Y025740D01*
X025025Y027171D02*
X020744Y027171D01*
X020749Y027167D02*
X020683Y027215D01*
X020610Y027252D01*
X020532Y027277D01*
X020451Y027290D01*
X020410Y027290D01*
X020410Y026470D01*
X020410Y026470D01*
X020410Y026470D01*
X020410Y025650D01*
X020451Y025650D01*
X020532Y025663D01*
X020610Y025688D01*
X020683Y025725D01*
X020749Y025773D01*
X020807Y025831D01*
X020855Y025897D01*
X020892Y025970D01*
X020918Y026048D01*
X020930Y026129D01*
X020930Y026470D01*
X020930Y026811D01*
X020918Y026892D01*
X020892Y026970D01*
X020855Y027043D01*
X020807Y027109D01*
X020749Y027167D01*
X020904Y026932D02*
X023392Y026932D01*
X023322Y026694D02*
X020930Y026694D01*
X020930Y026470D02*
X020410Y026470D01*
X020410Y026470D01*
X020930Y026470D01*
X020930Y026455D02*
X023357Y026455D01*
X023322Y026217D02*
X020930Y026217D01*
X020895Y025978D02*
X023362Y025978D01*
X023353Y025740D02*
X023550Y025740D01*
X023535Y024883D02*
X023739Y024680D01*
X023720Y024680D01*
X023566Y024526D01*
X023410Y024682D01*
X023410Y024758D01*
X023535Y024883D01*
X023438Y024786D02*
X023633Y024786D01*
X023587Y024547D02*
X023545Y024547D01*
X022410Y024682D02*
X022372Y024720D01*
X022410Y024758D01*
X022410Y024682D01*
X021383Y024786D02*
X018438Y024786D01*
X018545Y024547D02*
X021276Y024547D01*
X021230Y024309D02*
X018590Y024309D01*
X018590Y024070D02*
X021230Y024070D01*
X021337Y023832D02*
X018484Y023832D01*
X018499Y023593D02*
X021322Y023593D01*
X021230Y023355D02*
X018590Y023355D01*
X018590Y023116D02*
X021230Y023116D01*
X021291Y022878D02*
X018530Y022878D01*
X018453Y022639D02*
X021368Y022639D01*
X021230Y022401D02*
X018590Y022401D01*
X018590Y022162D02*
X021230Y022162D01*
X021245Y021924D02*
X018576Y021924D01*
X018337Y021685D02*
X021484Y021685D01*
X022590Y022162D02*
X023011Y022162D01*
X022773Y022401D02*
X022590Y022401D01*
X022534Y022639D02*
X022453Y022639D01*
X022410Y023682D02*
X022372Y023720D01*
X022410Y023758D01*
X022410Y023682D01*
X021230Y025024D02*
X018590Y025024D01*
X018590Y025263D02*
X021230Y025263D01*
X021230Y025501D02*
X019729Y025501D01*
X020026Y025740D02*
X020118Y025740D01*
X020410Y025740D02*
X020410Y025740D01*
X020410Y025978D02*
X020410Y025978D01*
X020410Y026217D02*
X020410Y026217D01*
X020410Y026455D02*
X020410Y026455D01*
X020410Y026694D02*
X020410Y026694D01*
X020410Y026932D02*
X020410Y026932D01*
X020410Y027171D02*
X020410Y027171D01*
X020077Y027171D02*
X020045Y027171D01*
X019801Y027409D02*
X025269Y027409D01*
X025328Y027590D02*
X025600Y027703D01*
X025808Y027911D01*
X025920Y028183D01*
X025920Y028477D01*
X025808Y028749D01*
X025600Y028957D01*
X025328Y029070D01*
X024433Y029070D01*
X024161Y028957D01*
X023953Y028749D01*
X023840Y028477D01*
X023840Y028183D01*
X023953Y027911D01*
X024161Y027703D01*
X024433Y027590D01*
X025328Y027590D01*
X025466Y027648D02*
X026854Y027648D01*
X026721Y027703D02*
X026993Y027590D01*
X027888Y027590D01*
X028160Y027703D01*
X028368Y027911D01*
X028480Y028183D01*
X028480Y028477D01*
X028368Y028749D01*
X028160Y028957D01*
X027888Y029070D01*
X026993Y029070D01*
X026721Y028957D01*
X026513Y028749D01*
X026400Y028477D01*
X026400Y028183D01*
X026513Y027911D01*
X026721Y027703D01*
X026538Y027886D02*
X025783Y027886D01*
X025896Y028125D02*
X026425Y028125D01*
X026400Y028363D02*
X025920Y028363D01*
X025869Y028602D02*
X026452Y028602D01*
X026604Y028840D02*
X025717Y028840D01*
X025594Y029794D02*
X026727Y029794D01*
X026626Y030033D02*
X025695Y030033D01*
X025700Y030110D02*
X024880Y030110D01*
X025700Y030110D01*
X025675Y030271D02*
X026646Y030271D01*
X027440Y030110D02*
X028260Y030110D01*
X027440Y030110D01*
X027440Y030110D01*
X027440Y030033D02*
X027440Y030033D01*
X027440Y029794D02*
X027440Y029794D01*
X028154Y029794D02*
X028660Y029794D01*
X028660Y030033D02*
X028255Y030033D01*
X028235Y030271D02*
X028660Y030271D01*
X028534Y029556D02*
X023536Y029556D01*
X023590Y029317D02*
X028480Y029317D01*
X028480Y029079D02*
X023590Y029079D01*
X023492Y028840D02*
X024044Y028840D01*
X023892Y028602D02*
X023254Y028602D01*
X023840Y028363D02*
X022230Y028363D01*
X022230Y028477D02*
X022118Y028749D01*
X021910Y028957D01*
X021638Y029070D01*
X020743Y029070D01*
X020471Y028957D01*
X020263Y028749D01*
X020150Y028477D01*
X020150Y028183D01*
X020263Y027911D01*
X020471Y027703D01*
X020743Y027590D01*
X021638Y027590D01*
X021910Y027703D01*
X022118Y027911D01*
X022230Y028183D01*
X022230Y028477D01*
X022179Y028602D02*
X022567Y028602D01*
X022329Y028840D02*
X022027Y028840D01*
X022230Y029079D02*
X018100Y029079D01*
X018100Y029317D02*
X022230Y029317D01*
X022284Y029556D02*
X018100Y029556D01*
X018630Y029794D02*
X018630Y029794D01*
X018630Y030033D02*
X018630Y030033D01*
X018630Y030110D02*
X018630Y030110D01*
X019450Y030110D01*
X018630Y030110D01*
X019344Y029794D02*
X020477Y029794D01*
X020376Y030033D02*
X019445Y030033D01*
X019425Y030271D02*
X020396Y030271D01*
X021190Y030110D02*
X022010Y030110D01*
X021190Y030110D01*
X021190Y030110D01*
X021190Y030033D02*
X021190Y030033D01*
X021190Y029794D02*
X021190Y029794D01*
X021904Y029794D02*
X022410Y029794D01*
X022410Y030033D02*
X022005Y030033D01*
X021985Y030271D02*
X022410Y030271D01*
X023410Y030271D02*
X024086Y030271D01*
X024066Y030033D02*
X023410Y030033D01*
X023410Y029794D02*
X024167Y029794D01*
X024880Y029794D02*
X024880Y029794D01*
X024880Y030033D02*
X024880Y030033D01*
X024880Y030110D02*
X024880Y030110D01*
X023865Y028125D02*
X022206Y028125D01*
X022093Y027886D02*
X023978Y027886D01*
X024294Y027648D02*
X021776Y027648D01*
X020604Y027648D02*
X019216Y027648D01*
X019019Y027409D02*
X016825Y027409D01*
X016587Y027171D02*
X018775Y027171D01*
X018044Y027648D02*
X017064Y027648D01*
X017302Y027886D02*
X017728Y027886D01*
X017615Y028125D02*
X017541Y028125D01*
X017142Y026932D02*
X016348Y026932D01*
X016110Y026694D02*
X017072Y026694D01*
X017118Y026455D02*
X015871Y026455D01*
X015633Y026217D02*
X017269Y026217D01*
X017269Y025978D02*
X015394Y025978D01*
X015156Y025740D02*
X017399Y025740D01*
X017344Y025794D02*
X017344Y025794D01*
X017230Y025501D02*
X015105Y025501D01*
X015286Y025263D02*
X016313Y025263D01*
X017209Y025263D02*
X017230Y025263D01*
X018590Y025501D02*
X019092Y025501D01*
X020703Y025740D02*
X021468Y025740D01*
X022353Y025740D02*
X022468Y025740D01*
X020288Y027886D02*
X019533Y027886D01*
X019646Y028125D02*
X020175Y028125D01*
X020150Y028363D02*
X019670Y028363D01*
X019619Y028602D02*
X020202Y028602D01*
X020354Y028840D02*
X019467Y028840D01*
X016725Y030619D02*
X016825Y030861D01*
X017181Y031216D01*
X016221Y031216D01*
X016245Y031202D01*
X016584Y030864D01*
X016725Y030619D01*
X016779Y030748D02*
X016650Y030748D01*
X016461Y030987D02*
X016951Y030987D01*
X014036Y031216D02*
X014013Y031202D01*
X013674Y030864D01*
X013660Y030840D01*
X013660Y031216D01*
X014036Y031216D01*
X013797Y030987D02*
X013660Y030987D01*
X013660Y028655D02*
X013674Y028631D01*
X014013Y028293D01*
X014427Y028053D01*
X014890Y027930D01*
X015368Y027930D01*
X015404Y027939D01*
X013660Y026196D01*
X013660Y028655D01*
X013660Y028602D02*
X013704Y028602D01*
X013660Y028363D02*
X013942Y028363D01*
X013660Y028125D02*
X014304Y028125D01*
X013660Y027886D02*
X015351Y027886D01*
X015112Y027648D02*
X013660Y027648D01*
X013660Y027409D02*
X014874Y027409D01*
X014635Y027171D02*
X013660Y027171D01*
X013660Y026932D02*
X014397Y026932D01*
X014158Y026694D02*
X013660Y026694D01*
X013660Y026455D02*
X013920Y026455D01*
X013681Y026217D02*
X013660Y026217D01*
X014600Y022280D02*
X014798Y022280D01*
X014980Y022356D01*
X014980Y022335D01*
X015073Y022111D01*
X014867Y022111D01*
X014685Y022035D01*
X014600Y021951D01*
X014600Y022280D01*
X014600Y022162D02*
X015052Y022162D01*
X016727Y021924D02*
X017245Y021924D01*
X017484Y021685D02*
X016900Y021685D01*
X022269Y018823D02*
X024552Y018823D01*
X024480Y018585D02*
X022508Y018585D01*
X032840Y023593D02*
X035076Y023593D01*
X035038Y023428D02*
X035038Y023428D01*
X035359Y023355D02*
X035569Y023355D01*
X035536Y023314D02*
X035536Y023314D01*
X034837Y023832D02*
X034672Y023832D01*
X034755Y024526D02*
X034716Y024564D01*
X034910Y024758D01*
X034949Y024720D01*
X034755Y024526D01*
X034734Y024547D02*
X034776Y024547D01*
X035872Y024720D02*
X035897Y024745D01*
X035897Y024744D01*
X035883Y024709D01*
X035872Y024720D01*
X035720Y025978D02*
X035100Y025978D01*
X035100Y026217D02*
X035720Y026217D01*
X035720Y026455D02*
X035100Y026455D01*
X035100Y026694D02*
X035720Y026694D01*
X035720Y026932D02*
X035031Y026932D01*
X035507Y027648D02*
X034276Y027648D01*
X034593Y027886D02*
X035269Y027886D01*
X035030Y028125D02*
X034706Y028125D01*
X034730Y028363D02*
X034792Y028363D01*
X034076Y029079D02*
X030760Y029079D01*
X030760Y029317D02*
X033977Y029317D01*
X033970Y029556D02*
X030760Y029556D01*
X031130Y029794D02*
X031130Y029794D01*
X031130Y030033D02*
X031130Y030033D01*
X031130Y030110D02*
X031130Y030110D01*
X031950Y030110D01*
X031130Y030110D01*
X031844Y029794D02*
X032977Y029794D01*
X032876Y030033D02*
X031945Y030033D01*
X031925Y030271D02*
X032896Y030271D01*
X033690Y030033D02*
X033690Y030033D01*
X033690Y029794D02*
X033690Y029794D01*
X032854Y028840D02*
X031967Y028840D01*
X032119Y028602D02*
X032702Y028602D01*
X032650Y028363D02*
X032170Y028363D01*
X032146Y028125D02*
X032675Y028125D01*
X032788Y027886D02*
X032033Y027886D01*
X029560Y027886D02*
X028343Y027886D01*
X028456Y028125D02*
X029560Y028125D01*
X029560Y028363D02*
X028480Y028363D01*
X028429Y028602D02*
X028817Y028602D01*
X028579Y028840D02*
X028277Y028840D01*
X029504Y028602D02*
X029560Y028602D01*
X029560Y027648D02*
X028026Y027648D01*
X032526Y025740D02*
X032618Y025740D01*
X034054Y023203D02*
X034054Y023203D01*
X033758Y021720D02*
X033760Y021788D01*
X033766Y021855D01*
X033776Y021922D01*
X033790Y021988D01*
X033807Y022053D01*
X033829Y022118D01*
X033854Y022180D01*
X033883Y022241D01*
X033915Y022301D01*
X033951Y022358D01*
X033990Y022413D01*
X034032Y022466D01*
X034078Y022516D01*
X034126Y022564D01*
X034177Y022608D01*
X034230Y022650D01*
X034286Y022688D01*
X034344Y022723D01*
X034404Y022755D01*
X034465Y022783D01*
X034528Y022807D01*
X034593Y022827D01*
X034658Y022844D01*
X034725Y022857D01*
X034792Y022866D01*
X034859Y022871D01*
X034927Y022872D01*
X034994Y022869D01*
X035062Y022862D01*
X035129Y022851D01*
X035195Y022836D01*
X035260Y022818D01*
X035323Y022795D01*
X035386Y022769D01*
X035447Y022739D01*
X035505Y022706D01*
X035562Y022670D01*
X035617Y022630D01*
X035669Y022587D01*
X035719Y022541D01*
X035765Y022492D01*
X035809Y022440D01*
X035850Y022386D01*
X035887Y022330D01*
X035921Y022271D01*
X035952Y022211D01*
X035979Y022149D01*
X036002Y022086D01*
X036022Y022021D01*
X036038Y021955D01*
X036050Y021889D01*
X036058Y021821D01*
X036062Y021754D01*
X036062Y021686D01*
X036058Y021619D01*
X036050Y021551D01*
X036038Y021485D01*
X036022Y021419D01*
X036002Y021354D01*
X035979Y021291D01*
X035952Y021229D01*
X035921Y021169D01*
X035887Y021110D01*
X035850Y021054D01*
X035809Y021000D01*
X035765Y020948D01*
X035719Y020899D01*
X035669Y020853D01*
X035617Y020810D01*
X035562Y020770D01*
X035505Y020734D01*
X035447Y020701D01*
X035386Y020671D01*
X035323Y020645D01*
X035260Y020622D01*
X035195Y020604D01*
X035129Y020589D01*
X035062Y020578D01*
X034994Y020571D01*
X034927Y020568D01*
X034859Y020569D01*
X034792Y020574D01*
X034725Y020583D01*
X034658Y020596D01*
X034593Y020613D01*
X034528Y020633D01*
X034465Y020657D01*
X034404Y020685D01*
X034344Y020717D01*
X034286Y020752D01*
X034230Y020790D01*
X034177Y020832D01*
X034126Y020876D01*
X034078Y020924D01*
X034032Y020974D01*
X033990Y021027D01*
X033951Y021082D01*
X033915Y021139D01*
X033883Y021199D01*
X033854Y021260D01*
X033829Y021322D01*
X033807Y021387D01*
X033790Y021452D01*
X033776Y021518D01*
X033766Y021585D01*
X033760Y021652D01*
X033758Y021720D01*
X034420Y021345D02*
X034422Y021366D01*
X034428Y021387D01*
X034437Y021406D01*
X034450Y021422D01*
X034466Y021437D01*
X034484Y021448D01*
X034504Y021456D01*
X034524Y021460D01*
X034546Y021460D01*
X034566Y021456D01*
X034586Y021448D01*
X034604Y021437D01*
X034620Y021422D01*
X034633Y021406D01*
X034642Y021387D01*
X034648Y021366D01*
X034650Y021345D01*
X034648Y021324D01*
X034642Y021303D01*
X034633Y021284D01*
X034620Y021268D01*
X034604Y021253D01*
X034586Y021242D01*
X034566Y021234D01*
X034546Y021230D01*
X034524Y021230D01*
X034504Y021234D01*
X034484Y021242D01*
X034466Y021253D01*
X034450Y021268D01*
X034437Y021284D01*
X034428Y021303D01*
X034422Y021324D01*
X034420Y021345D01*
X034160Y021970D02*
X034198Y022016D01*
X034238Y022060D01*
X034282Y022101D01*
X034328Y022139D01*
X034376Y022175D01*
X034426Y022207D01*
X034478Y022236D01*
X034532Y022261D01*
X034588Y022283D01*
X034645Y022302D01*
X034703Y022317D01*
X034761Y022328D01*
X034820Y022336D01*
X034880Y022340D01*
X034940Y022340D01*
X035000Y022336D01*
X035059Y022328D01*
X035117Y022317D01*
X035175Y022302D01*
X035232Y022283D01*
X035288Y022261D01*
X035342Y022236D01*
X035394Y022207D01*
X035444Y022175D01*
X035492Y022139D01*
X035538Y022101D01*
X035582Y022060D01*
X035622Y022016D01*
X035660Y021970D01*
X035170Y021345D02*
X035172Y021366D01*
X035178Y021387D01*
X035187Y021406D01*
X035200Y021422D01*
X035216Y021437D01*
X035234Y021448D01*
X035254Y021456D01*
X035274Y021460D01*
X035296Y021460D01*
X035316Y021456D01*
X035336Y021448D01*
X035354Y021437D01*
X035370Y021422D01*
X035383Y021406D01*
X035392Y021387D01*
X035398Y021366D01*
X035400Y021345D01*
X035398Y021324D01*
X035392Y021303D01*
X035383Y021284D01*
X035370Y021268D01*
X035354Y021253D01*
X035336Y021242D01*
X035316Y021234D01*
X035296Y021230D01*
X035274Y021230D01*
X035254Y021234D01*
X035234Y021242D01*
X035216Y021253D01*
X035200Y021268D01*
X035187Y021284D01*
X035178Y021303D01*
X035172Y021324D01*
X035170Y021345D01*
X036081Y020493D02*
X036410Y020493D01*
X036410Y020731D02*
X036303Y020731D01*
X036410Y022508D02*
X036406Y022518D01*
X036410Y022513D01*
X036410Y022508D01*
X037117Y023220D02*
X037211Y023259D01*
X037244Y023292D01*
X037513Y023180D01*
X037808Y023180D01*
X038080Y023293D01*
X038160Y023373D01*
X038241Y023293D01*
X038513Y023180D01*
X038808Y023180D01*
X039080Y023293D01*
X039160Y023373D01*
X039241Y023293D01*
X039513Y023180D01*
X039808Y023180D01*
X040080Y023293D01*
X040160Y023373D01*
X040241Y023293D01*
X040513Y023180D01*
X040640Y023180D01*
X040640Y023150D01*
X040285Y023150D01*
X040035Y023046D01*
X039900Y022912D01*
X039760Y022970D01*
X038362Y022970D01*
X038286Y023046D01*
X038036Y023150D01*
X037285Y023150D01*
X037216Y023121D01*
X037194Y023144D01*
X037117Y023220D01*
X038118Y023116D02*
X040203Y023116D01*
X040179Y023355D02*
X040141Y023355D01*
X039179Y023355D02*
X039141Y023355D01*
X038179Y023355D02*
X038141Y023355D01*
X040080Y025147D02*
X040160Y025067D01*
X040241Y025147D01*
X040513Y025260D01*
X040808Y025260D01*
X041080Y025147D01*
X041237Y024990D01*
X043106Y024990D01*
X043033Y025063D01*
X042920Y025335D01*
X042920Y026230D01*
X042970Y026350D01*
X042970Y026780D01*
X042696Y026780D01*
X042551Y026635D01*
X042527Y026625D01*
X042466Y026564D01*
X042620Y026411D01*
X042620Y026220D01*
X042160Y026220D01*
X041700Y026220D01*
X041700Y026029D01*
X041970Y025760D01*
X042160Y025760D01*
X042160Y026220D01*
X042160Y026220D01*
X041700Y026220D01*
X041700Y026411D01*
X041854Y026564D01*
X041794Y026625D01*
X041770Y026635D01*
X041625Y026780D01*
X041519Y026780D01*
X041506Y026775D01*
X041620Y026661D01*
X041620Y026470D01*
X041160Y026470D01*
X041160Y026470D01*
X041160Y026010D01*
X040970Y026010D01*
X040850Y026129D01*
X040850Y026083D01*
X040745Y025829D01*
X040551Y025635D01*
X040245Y025329D01*
X040245Y025329D01*
X040068Y025152D01*
X040080Y025147D01*
X040179Y025263D02*
X042951Y025263D01*
X042920Y025501D02*
X040417Y025501D01*
X040656Y025740D02*
X042920Y025740D01*
X042920Y025978D02*
X042569Y025978D01*
X042620Y026029D02*
X042351Y025760D01*
X042160Y025760D01*
X042160Y026220D01*
X042160Y026530D01*
X042160Y026530D01*
X042160Y026220D01*
X042160Y026220D01*
X042160Y026220D01*
X042160Y026220D01*
X042620Y026220D01*
X042620Y026029D01*
X042620Y026217D02*
X042920Y026217D01*
X042970Y026455D02*
X042576Y026455D01*
X042610Y026694D02*
X042970Y026694D01*
X042160Y026455D02*
X042160Y026455D01*
X042160Y026217D02*
X042160Y026217D01*
X042160Y025978D02*
X042160Y025978D01*
X041752Y025978D02*
X040807Y025978D01*
X041160Y026010D02*
X041160Y026470D01*
X041160Y026470D01*
X041620Y026470D01*
X041620Y026279D01*
X041351Y026010D01*
X041160Y026010D01*
X041160Y026217D02*
X041160Y026217D01*
X041160Y026455D02*
X041160Y026455D01*
X041620Y026455D02*
X041745Y026455D01*
X041711Y026694D02*
X041587Y026694D01*
X041557Y026217D02*
X041700Y026217D01*
X041203Y025024D02*
X043072Y025024D01*
X045214Y024990D02*
X045288Y025063D01*
X045304Y025103D01*
X045322Y025086D01*
X045388Y025038D01*
X045461Y025001D01*
X045493Y024990D01*
X045214Y024990D01*
X045248Y025024D02*
X045415Y025024D01*
X045827Y024990D02*
X045860Y025001D01*
X045933Y025038D01*
X045999Y025086D01*
X046057Y025144D01*
X046105Y025210D01*
X046142Y025283D01*
X046168Y025361D01*
X046180Y025442D01*
X046180Y025782D01*
X045660Y025782D01*
X045660Y025783D01*
X045660Y026602D01*
X045619Y026602D01*
X045539Y026590D01*
X045461Y026564D01*
X045388Y026527D01*
X045350Y026500D01*
X045350Y026934D01*
X045495Y027079D01*
X045505Y027103D01*
X045566Y027164D01*
X045720Y027010D01*
X045910Y027010D01*
X045910Y027470D01*
X045910Y027930D01*
X045720Y027930D01*
X045566Y027776D01*
X045505Y027837D01*
X045502Y027845D01*
X045600Y028083D01*
X045600Y028924D01*
X045719Y029210D01*
X045719Y030230D01*
X045598Y030521D01*
X045375Y030744D01*
X045084Y030865D01*
X044768Y030865D01*
X044477Y030744D01*
X044345Y030613D01*
X044345Y030831D01*
X044260Y031037D01*
X044103Y031195D01*
X044051Y031216D01*
X047895Y031216D01*
X047843Y031195D01*
X047686Y031037D01*
X047600Y030831D01*
X047600Y030609D01*
X047686Y030403D01*
X047843Y030245D01*
X047952Y030200D01*
X047845Y030094D01*
X047770Y029912D01*
X047770Y029715D01*
X047811Y029616D01*
X047770Y029518D01*
X047770Y029321D01*
X047781Y029294D01*
X047770Y029267D01*
X047770Y028677D01*
X047845Y028495D01*
X047984Y028355D01*
X048166Y028280D01*
X048480Y028280D01*
X048497Y028274D01*
X048578Y028280D01*
X048855Y028280D01*
X049037Y028355D01*
X049210Y028528D01*
X049446Y028293D01*
X049860Y028053D01*
X050323Y027930D01*
X050801Y027930D01*
X051264Y028053D01*
X051678Y028293D01*
X052017Y028631D01*
X052030Y028655D01*
X052030Y024307D01*
X051944Y024394D01*
X051695Y024643D01*
X051695Y024652D01*
X051667Y024720D01*
X051695Y024788D01*
X051695Y025652D01*
X051628Y025814D01*
X051504Y025938D01*
X051342Y026004D01*
X051333Y026004D01*
X051084Y026253D01*
X050944Y026394D01*
X050760Y026470D01*
X048311Y026470D01*
X048127Y026394D01*
X048100Y026367D01*
X048100Y026457D01*
X047995Y026711D01*
X047831Y026876D01*
X047880Y026925D01*
X047880Y027120D01*
X047880Y027315D01*
X047605Y027590D01*
X047410Y027590D01*
X047216Y027590D01*
X046940Y027315D01*
X046940Y027120D01*
X046940Y026925D01*
X046990Y026876D01*
X046825Y026711D01*
X046720Y026457D01*
X046720Y026183D01*
X046825Y025929D01*
X047020Y025735D01*
X047273Y025630D01*
X047363Y025630D01*
X046723Y024990D01*
X045827Y024990D01*
X045906Y025024D02*
X046757Y025024D01*
X046996Y025263D02*
X046132Y025263D01*
X046180Y025501D02*
X047234Y025501D01*
X047015Y025740D02*
X046180Y025740D01*
X046180Y025783D02*
X046180Y026123D01*
X046168Y026204D01*
X046142Y026282D01*
X046105Y026355D01*
X046057Y026421D01*
X045999Y026479D01*
X045933Y026527D01*
X045860Y026564D01*
X045782Y026590D01*
X045701Y026602D01*
X045660Y026602D01*
X045660Y025783D01*
X045660Y025783D01*
X046180Y025783D01*
X046180Y025978D02*
X046805Y025978D01*
X046720Y026217D02*
X046164Y026217D01*
X046023Y026455D02*
X046720Y026455D01*
X046818Y026694D02*
X045350Y026694D01*
X045350Y026932D02*
X046940Y026932D01*
X046940Y027120D02*
X047410Y027120D01*
X047410Y027120D01*
X046940Y027120D01*
X046940Y027171D02*
X046261Y027171D01*
X046370Y027279D02*
X046370Y027470D01*
X046370Y027661D01*
X046101Y027930D01*
X045910Y027930D01*
X045910Y027470D01*
X045910Y027470D01*
X045910Y027470D01*
X045910Y027010D01*
X046101Y027010D01*
X046370Y027279D01*
X046370Y027409D02*
X047035Y027409D01*
X047410Y027409D02*
X047410Y027409D01*
X047410Y027590D02*
X047410Y027120D01*
X047410Y027120D01*
X047410Y027590D01*
X047786Y027409D02*
X052030Y027409D01*
X052030Y027171D02*
X047880Y027171D01*
X047880Y027120D02*
X047410Y027120D01*
X047410Y027120D01*
X047880Y027120D01*
X047880Y026932D02*
X052030Y026932D01*
X052030Y026694D02*
X048002Y026694D01*
X048100Y026455D02*
X048275Y026455D01*
X048617Y025470D02*
X048137Y024990D01*
X049346Y024990D01*
X049346Y025220D01*
X049910Y025220D01*
X049910Y025220D01*
X049346Y025220D01*
X049346Y025470D01*
X048617Y025470D01*
X048410Y025263D02*
X049346Y025263D01*
X049346Y025024D02*
X048171Y025024D01*
X045660Y025978D02*
X045660Y025978D01*
X045660Y026217D02*
X045660Y026217D01*
X045660Y026455D02*
X045660Y026455D01*
X045910Y027171D02*
X045910Y027171D01*
X045910Y027409D02*
X045910Y027409D01*
X045910Y027470D02*
X045910Y027470D01*
X046370Y027470D01*
X045910Y027470D01*
X045910Y027648D02*
X045910Y027648D01*
X045910Y027886D02*
X045910Y027886D01*
X045676Y027886D02*
X045519Y027886D01*
X045600Y028125D02*
X049737Y028125D01*
X049375Y028363D02*
X049045Y028363D01*
X047977Y028363D02*
X045600Y028363D01*
X045600Y028602D02*
X047801Y028602D01*
X047770Y028840D02*
X047120Y028840D01*
X047114Y028837D02*
X047195Y028878D01*
X047268Y028931D01*
X047331Y028995D01*
X047384Y029067D01*
X047425Y029148D01*
X047453Y029233D01*
X047467Y029322D01*
X047467Y029720D01*
X047467Y030118D01*
X047453Y030207D01*
X047425Y030292D01*
X047384Y030373D01*
X047331Y030445D01*
X047268Y030509D01*
X047195Y030562D01*
X047114Y030603D01*
X047029Y030631D01*
X046940Y030645D01*
X046895Y030645D01*
X046895Y029720D01*
X047467Y029720D01*
X046895Y029720D01*
X046895Y029720D01*
X046895Y028795D01*
X046940Y028795D01*
X047029Y028809D01*
X047114Y028837D01*
X046895Y028840D02*
X046895Y028840D01*
X046895Y028795D02*
X046895Y029720D01*
X046895Y029720D01*
X046895Y029720D01*
X046895Y030645D01*
X046850Y030645D01*
X046761Y030631D01*
X046675Y030603D01*
X046595Y030562D01*
X046522Y030509D01*
X046458Y030445D01*
X046405Y030373D01*
X046364Y030292D01*
X046336Y030207D01*
X046322Y030118D01*
X046322Y029720D01*
X046322Y029322D01*
X046336Y029233D01*
X046364Y029148D01*
X046405Y029067D01*
X046458Y028995D01*
X046522Y028931D01*
X046595Y028878D01*
X046675Y028837D01*
X046761Y028809D01*
X046850Y028795D01*
X046895Y028795D01*
X046669Y028840D02*
X045600Y028840D01*
X045664Y029079D02*
X046399Y029079D01*
X046323Y029317D02*
X045719Y029317D01*
X045719Y029556D02*
X046322Y029556D01*
X046322Y029720D02*
X046895Y029720D01*
X046895Y029720D01*
X046322Y029720D01*
X046322Y029794D02*
X045719Y029794D01*
X045719Y030033D02*
X046322Y030033D01*
X046357Y030271D02*
X045702Y030271D01*
X045603Y030510D02*
X046522Y030510D01*
X046895Y030510D02*
X046895Y030510D01*
X046895Y030271D02*
X046895Y030271D01*
X046895Y030033D02*
X046895Y030033D01*
X046895Y029794D02*
X046895Y029794D01*
X046895Y029556D02*
X046895Y029556D01*
X046895Y029317D02*
X046895Y029317D01*
X046895Y029079D02*
X046895Y029079D01*
X047390Y029079D02*
X047770Y029079D01*
X047772Y029317D02*
X047466Y029317D01*
X047467Y029556D02*
X047785Y029556D01*
X047770Y029794D02*
X047467Y029794D01*
X047467Y030033D02*
X047820Y030033D01*
X047817Y030271D02*
X047432Y030271D01*
X047267Y030510D02*
X047641Y030510D01*
X047600Y030748D02*
X045366Y030748D01*
X044486Y030748D02*
X044345Y030748D01*
X044281Y030987D02*
X047665Y030987D01*
X048160Y030720D02*
X048910Y030720D01*
X049333Y031089D02*
X049228Y031195D01*
X049176Y031216D01*
X049470Y031216D01*
X049446Y031202D01*
X049333Y031089D01*
X051654Y031216D02*
X052030Y031216D01*
X052030Y030840D01*
X052017Y030864D01*
X051678Y031202D01*
X051654Y031216D01*
X051894Y030987D02*
X052030Y030987D01*
X051987Y028602D02*
X052030Y028602D01*
X052030Y028363D02*
X051748Y028363D01*
X052030Y028125D02*
X051387Y028125D01*
X052030Y027886D02*
X046145Y027886D01*
X046370Y027648D02*
X052030Y027648D01*
X052030Y026455D02*
X050796Y026455D01*
X051121Y026217D02*
X052030Y026217D01*
X052030Y025978D02*
X051406Y025978D01*
X051659Y025740D02*
X052030Y025740D01*
X052030Y025501D02*
X051695Y025501D01*
X051695Y025263D02*
X052030Y025263D01*
X052030Y025024D02*
X051695Y025024D01*
X051694Y024786D02*
X052030Y024786D01*
X052030Y024547D02*
X051790Y024547D01*
X052029Y024309D02*
X052030Y024309D01*
X052030Y021924D02*
X051821Y021924D01*
X052030Y021685D02*
X051582Y021685D01*
X052030Y021447D02*
X050180Y021447D01*
X050233Y021208D02*
X052030Y021208D01*
X052030Y020970D02*
X050502Y020970D01*
X050600Y020731D02*
X052030Y020731D01*
X052030Y020493D02*
X050600Y020493D01*
X050600Y020254D02*
X052030Y020254D01*
X052030Y020016D02*
X050600Y020016D01*
X050600Y019777D02*
X052030Y019777D01*
X052030Y019539D02*
X050600Y019539D01*
X047410Y027171D02*
X047410Y027171D01*
X044150Y030271D02*
X044166Y030309D01*
X044139Y030282D01*
X044150Y030271D01*
X044151Y030271D01*
X043785Y030720D02*
X043410Y030720D01*
X043410Y030345D01*
X043410Y030720D02*
X043035Y030720D01*
X043410Y030720D02*
X043410Y031095D01*
X042770Y031216D02*
X041551Y031216D01*
X041603Y031195D01*
X041760Y031037D01*
X041845Y030831D01*
X041845Y030705D01*
X042475Y030705D01*
X042475Y030831D01*
X042561Y031037D01*
X042718Y031195D01*
X042770Y031216D01*
X042540Y030987D02*
X041781Y030987D01*
X041845Y030748D02*
X042475Y030748D01*
X041285Y030720D02*
X040535Y030720D01*
X040016Y030510D02*
X039767Y030510D01*
X039768Y030509D02*
X039695Y030562D01*
X039614Y030603D01*
X039529Y030631D01*
X039440Y030645D01*
X039395Y030645D01*
X039395Y029720D01*
X039967Y029720D01*
X039967Y030118D01*
X039953Y030207D01*
X039925Y030292D01*
X039884Y030373D01*
X039831Y030445D01*
X039768Y030509D01*
X039975Y030609D02*
X040061Y030403D01*
X040145Y030319D01*
X040145Y030234D01*
X040186Y030136D01*
X040145Y030038D01*
X040145Y029841D01*
X040176Y029764D01*
X040145Y029688D01*
X040145Y029589D01*
X040145Y029491D01*
X040145Y029392D01*
X040145Y029295D01*
X040145Y029295D01*
X040145Y029295D01*
X040217Y029120D01*
X040177Y029023D01*
X040145Y028945D01*
X040145Y028748D01*
X040165Y028700D01*
X040075Y028611D01*
X039575Y028111D01*
X039470Y027857D01*
X039470Y026506D01*
X039375Y026410D01*
X037840Y026410D01*
X037840Y026752D01*
X037819Y026773D01*
X038006Y026695D01*
X038314Y026695D01*
X038599Y026813D01*
X038817Y027031D01*
X038935Y027316D01*
X038935Y027624D01*
X038817Y027909D01*
X038599Y028127D01*
X038314Y028245D01*
X038100Y028245D01*
X038100Y028924D01*
X038219Y029210D01*
X038219Y030230D01*
X038098Y030521D01*
X037875Y030744D01*
X037584Y030865D01*
X037268Y030865D01*
X036977Y030744D01*
X036754Y030521D01*
X036634Y030230D01*
X036634Y029210D01*
X036720Y029000D01*
X036720Y028386D01*
X036090Y029016D01*
X036090Y029502D01*
X035807Y029785D01*
X035897Y029785D01*
X036103Y029870D01*
X036260Y030028D01*
X036324Y030182D01*
X036478Y030245D01*
X036635Y030403D01*
X036720Y030609D01*
X036720Y030831D01*
X036635Y031037D01*
X036478Y031195D01*
X036426Y031216D01*
X040270Y031216D01*
X040218Y031195D01*
X040061Y031037D01*
X039975Y030831D01*
X039975Y030609D01*
X039975Y030748D02*
X037866Y030748D01*
X038103Y030510D02*
X039022Y030510D01*
X039022Y030509D02*
X038958Y030445D01*
X038905Y030373D01*
X038864Y030292D01*
X038836Y030207D01*
X038822Y030118D01*
X038822Y029720D01*
X038822Y029322D01*
X038836Y029233D01*
X038864Y029148D01*
X038905Y029067D01*
X038958Y028995D01*
X039022Y028931D01*
X039095Y028878D01*
X039175Y028837D01*
X039261Y028809D01*
X039350Y028795D01*
X039395Y028795D01*
X039440Y028795D01*
X039529Y028809D01*
X039614Y028837D01*
X039695Y028878D01*
X039768Y028931D01*
X039831Y028995D01*
X039884Y029067D01*
X039925Y029148D01*
X039953Y029233D01*
X039967Y029322D01*
X039967Y029720D01*
X039395Y029720D01*
X039395Y029720D01*
X039395Y028795D01*
X039395Y029720D01*
X039395Y029720D01*
X039395Y029720D01*
X039395Y030645D01*
X039350Y030645D01*
X039261Y030631D01*
X039175Y030603D01*
X039095Y030562D01*
X039022Y030509D01*
X038857Y030271D02*
X038202Y030271D01*
X038219Y030033D02*
X038822Y030033D01*
X038822Y029794D02*
X038219Y029794D01*
X038219Y029556D02*
X038822Y029556D01*
X038822Y029720D02*
X039395Y029720D01*
X039395Y029720D01*
X038822Y029720D01*
X038823Y029317D02*
X038219Y029317D01*
X038164Y029079D02*
X038899Y029079D01*
X039169Y028840D02*
X038100Y028840D01*
X038100Y028602D02*
X040066Y028602D01*
X040145Y028840D02*
X039620Y028840D01*
X039395Y028840D02*
X039395Y028840D01*
X039395Y029079D02*
X039395Y029079D01*
X039395Y029317D02*
X039395Y029317D01*
X039395Y029556D02*
X039395Y029556D01*
X039395Y029794D02*
X039395Y029794D01*
X039395Y030033D02*
X039395Y030033D01*
X039395Y030271D02*
X039395Y030271D01*
X039395Y030510D02*
X039395Y030510D01*
X039932Y030271D02*
X040145Y030271D01*
X040145Y030033D02*
X039967Y030033D01*
X039967Y029794D02*
X040164Y029794D01*
X040145Y029688D02*
X040145Y029688D01*
X040145Y029688D01*
X040145Y029556D02*
X039967Y029556D01*
X039966Y029317D02*
X040145Y029317D01*
X040200Y029079D02*
X039890Y029079D01*
X039828Y028363D02*
X038100Y028363D01*
X038601Y028125D02*
X039589Y028125D01*
X039482Y027886D02*
X038827Y027886D01*
X038925Y027648D02*
X039470Y027648D01*
X039470Y027409D02*
X038935Y027409D01*
X038875Y027171D02*
X039470Y027171D01*
X039470Y026932D02*
X038718Y026932D01*
X039470Y026694D02*
X037840Y026694D01*
X037840Y026455D02*
X039420Y026455D01*
X036720Y028602D02*
X036505Y028602D01*
X036720Y028840D02*
X036266Y028840D01*
X036090Y029079D02*
X036688Y029079D01*
X036634Y029317D02*
X036090Y029317D01*
X036036Y029556D02*
X036634Y029556D01*
X036634Y029794D02*
X035919Y029794D01*
X036262Y030033D02*
X036634Y030033D01*
X036651Y030271D02*
X036503Y030271D01*
X036679Y030510D02*
X036749Y030510D01*
X036720Y030748D02*
X036986Y030748D01*
X036656Y030987D02*
X040040Y030987D01*
X036160Y030720D02*
X035785Y030720D01*
X035785Y031095D01*
X035785Y030720D02*
X035410Y030720D01*
X035785Y030720D02*
X035785Y030345D01*
X035350Y029988D02*
X035438Y029900D01*
X035350Y029900D01*
X035350Y029988D01*
X035065Y031166D02*
X035051Y031180D01*
X035015Y031216D01*
X035145Y031216D01*
X035093Y031195D01*
X035065Y031166D01*
X035051Y031180D02*
X035051Y031180D01*
X038362Y021970D02*
X038362Y021970D01*
X039453Y021970D01*
X039453Y021970D01*
X038362Y021970D01*
X038362Y020970D02*
X038362Y020970D01*
X039160Y020970D01*
X038362Y020970D01*
X039160Y020970D02*
X039160Y020970D01*
X038910Y019970D02*
X038362Y019970D01*
X038362Y019970D01*
X038910Y019970D01*
X038910Y019970D01*
D14*
X036931Y023679D02*
X036931Y023876D01*
X036931Y023777D02*
X036340Y023777D01*
X036340Y023679D02*
X036340Y023876D01*
X036340Y024127D02*
X036931Y024127D01*
X036931Y024520D02*
X036340Y024520D01*
X036537Y024324D01*
X036340Y024127D01*
X036340Y024968D02*
X036931Y024968D01*
X036931Y025165D02*
X036931Y024771D01*
X034605Y026074D02*
X034605Y026665D01*
X034310Y026665D01*
X034212Y026567D01*
X034212Y026468D01*
X034310Y026370D01*
X034605Y026370D01*
X034310Y026370D02*
X034212Y026271D01*
X034212Y026173D01*
X034310Y026074D01*
X034605Y026074D01*
X033961Y026074D02*
X033764Y026271D01*
X033567Y026074D01*
X033567Y026665D01*
X033961Y026665D02*
X033961Y026074D01*
X040640Y028847D02*
X040837Y028650D01*
X040640Y028847D02*
X041230Y028847D01*
X041230Y028650D02*
X041230Y029044D01*
X041230Y029295D02*
X040837Y029688D01*
X040738Y029688D01*
X040640Y029590D01*
X040640Y029393D01*
X040738Y029295D01*
X041230Y029295D02*
X041230Y029688D01*
X041034Y029939D02*
X041230Y030136D01*
X041034Y030333D01*
X040640Y030333D01*
X040640Y029939D02*
X041034Y029939D01*
X043215Y029817D02*
X043314Y029915D01*
X043215Y029817D02*
X043215Y029620D01*
X043314Y029521D01*
X043511Y029521D01*
X043609Y029620D01*
X043609Y029718D01*
X043511Y029915D01*
X043806Y029915D01*
X043806Y029521D01*
X043806Y029270D02*
X043412Y029270D01*
X043215Y029074D01*
X043412Y028877D01*
X043806Y028877D01*
X048265Y028775D02*
X048560Y028775D01*
X048462Y028972D01*
X048462Y029070D01*
X048560Y029169D01*
X048757Y029169D01*
X048855Y029070D01*
X048855Y028873D01*
X048757Y028775D01*
X048265Y028775D02*
X048265Y029169D01*
X048265Y029420D02*
X048659Y029420D01*
X048855Y029616D01*
X048659Y029813D01*
X048265Y029813D01*
X024855Y026665D02*
X024855Y026074D01*
X024560Y026074D01*
X024462Y026173D01*
X024462Y026271D01*
X024560Y026370D01*
X024855Y026370D01*
X024560Y026370D02*
X024462Y026468D01*
X024462Y026567D01*
X024560Y026665D01*
X024855Y026665D01*
X024211Y026665D02*
X023817Y026271D01*
X023817Y026173D01*
X023916Y026074D01*
X024112Y026074D01*
X024211Y026173D01*
X024211Y026665D02*
X023817Y026665D01*
X018605Y026665D02*
X018605Y026074D01*
X018310Y026074D01*
X018212Y026173D01*
X018212Y026271D01*
X018310Y026370D01*
X018605Y026370D01*
X018310Y026370D02*
X018212Y026468D01*
X018212Y026567D01*
X018310Y026665D01*
X018605Y026665D01*
X017961Y026665D02*
X017567Y026665D01*
X017764Y026665D02*
X017764Y026074D01*
X017961Y026271D01*
X017056Y024790D02*
X016465Y024790D01*
X016662Y024790D02*
X016662Y024495D01*
X016761Y024396D01*
X016957Y024396D01*
X017056Y024495D01*
X017056Y024790D01*
X016662Y024593D02*
X016465Y024396D01*
X016564Y024145D02*
X016465Y024047D01*
X016465Y023850D01*
X016564Y023752D01*
X016761Y023752D01*
X016761Y023949D01*
X016957Y024145D02*
X016564Y024145D01*
X016957Y024145D02*
X017056Y024047D01*
X017056Y023850D01*
X016957Y023752D01*
X017056Y023501D02*
X017056Y023206D01*
X016957Y023107D01*
X016859Y023107D01*
X016761Y023206D01*
X016761Y023501D01*
X017056Y023501D02*
X016465Y023501D01*
X016465Y023206D01*
X016564Y023107D01*
X016662Y023107D01*
X016761Y023206D01*
X016957Y022856D02*
X017056Y022758D01*
X017056Y022561D01*
X016957Y022463D01*
X016859Y022463D01*
X016465Y022856D01*
X016465Y022463D01*
X016335Y021616D02*
X016138Y021616D01*
X016040Y021517D01*
X015789Y021517D02*
X015789Y021320D01*
X015690Y021222D01*
X015395Y021222D01*
X015592Y021222D02*
X015789Y021025D01*
X016040Y021025D02*
X016433Y021419D01*
X016433Y021517D01*
X016335Y021616D01*
X015789Y021517D02*
X015690Y021616D01*
X015395Y021616D01*
X015395Y021025D01*
X015162Y021025D02*
X014965Y021025D01*
X015064Y021025D02*
X015064Y021616D01*
X015162Y021616D02*
X014965Y021616D01*
X016040Y021025D02*
X016433Y021025D01*
X016335Y019366D02*
X016138Y019366D01*
X016040Y019267D01*
X015789Y019267D02*
X015789Y019070D01*
X015690Y018972D01*
X015395Y018972D01*
X015592Y018972D02*
X015789Y018775D01*
X016040Y018775D02*
X016433Y019169D01*
X016433Y019267D01*
X016335Y019366D01*
X015789Y019267D02*
X015690Y019366D01*
X015395Y019366D01*
X015395Y018775D01*
X015162Y018775D02*
X014965Y018775D01*
X015064Y018775D02*
X015064Y019366D01*
X015162Y019366D02*
X014965Y019366D01*
X016040Y018775D02*
X016433Y018775D01*
X016465Y018040D02*
X017056Y018040D01*
X017056Y017745D01*
X016957Y017646D01*
X016761Y017646D01*
X016662Y017745D01*
X016662Y018040D01*
X016662Y017843D02*
X016465Y017646D01*
X016564Y017395D02*
X016465Y017297D01*
X016465Y017100D01*
X016564Y017002D01*
X016761Y017002D01*
X016761Y017199D01*
X016957Y017395D02*
X016564Y017395D01*
X016957Y017395D02*
X017056Y017297D01*
X017056Y017100D01*
X016957Y017002D01*
X017056Y016751D02*
X017056Y016456D01*
X016957Y016357D01*
X016859Y016357D01*
X016761Y016456D01*
X016761Y016751D01*
X017056Y016751D02*
X016465Y016751D01*
X016465Y016456D01*
X016564Y016357D01*
X016662Y016357D01*
X016761Y016456D01*
X016859Y016106D02*
X017056Y015910D01*
X016465Y015910D01*
X016465Y016106D02*
X016465Y015713D01*
X016236Y014616D02*
X016040Y014419D01*
X015789Y014517D02*
X015789Y014320D01*
X015690Y014222D01*
X015395Y014222D01*
X015592Y014222D02*
X015789Y014025D01*
X016040Y014025D02*
X016433Y014025D01*
X016236Y014025D02*
X016236Y014616D01*
X015789Y014517D02*
X015690Y014616D01*
X015395Y014616D01*
X015395Y014025D01*
X015162Y014025D02*
X014965Y014025D01*
X015064Y014025D02*
X015064Y014616D01*
X015162Y014616D02*
X014965Y014616D01*
X014965Y012366D02*
X015162Y012366D01*
X015064Y012366D02*
X015064Y011775D01*
X015162Y011775D02*
X014965Y011775D01*
X015395Y011775D02*
X015395Y012366D01*
X015690Y012366D01*
X015789Y012267D01*
X015789Y012070D01*
X015690Y011972D01*
X015395Y011972D01*
X015592Y011972D02*
X015789Y011775D01*
X016040Y011775D02*
X016433Y011775D01*
X016236Y011775D02*
X016236Y012366D01*
X016040Y012169D01*
X021215Y003616D02*
X021511Y003616D01*
X021609Y003517D01*
X021609Y003320D01*
X021511Y003222D01*
X021215Y003222D01*
X021215Y003025D02*
X021215Y003616D01*
X021860Y003419D02*
X021860Y003123D01*
X021958Y003025D01*
X022254Y003025D01*
X022254Y003419D01*
X022504Y003616D02*
X022603Y003616D01*
X022603Y003025D01*
X022701Y003025D02*
X022504Y003025D01*
X022934Y003025D02*
X023131Y003025D01*
X023033Y003025D02*
X023033Y003616D01*
X022934Y003616D01*
X023364Y003616D02*
X023659Y003616D01*
X023758Y003517D01*
X023758Y003123D01*
X023659Y003025D01*
X023364Y003025D01*
X023364Y003616D01*
X024008Y003320D02*
X024008Y003123D01*
X024107Y003025D01*
X024304Y003025D01*
X024402Y003123D01*
X024402Y003320D01*
X024304Y003419D01*
X024107Y003419D01*
X024008Y003320D01*
X024653Y003419D02*
X024653Y003123D01*
X024751Y003025D01*
X024850Y003123D01*
X024948Y003025D01*
X025047Y003123D01*
X025047Y003419D01*
X025298Y003419D02*
X025593Y003419D01*
X025691Y003320D01*
X025691Y003025D01*
X025298Y003025D02*
X025298Y003419D01*
X029465Y003616D02*
X029859Y003616D01*
X029662Y003616D02*
X029662Y003025D01*
X030110Y003123D02*
X030110Y003320D01*
X030208Y003419D01*
X030405Y003419D01*
X030504Y003320D01*
X030504Y003222D01*
X030110Y003222D01*
X030110Y003123D02*
X030208Y003025D01*
X030405Y003025D01*
X030754Y003025D02*
X030754Y003419D01*
X030754Y003222D02*
X030951Y003419D01*
X031050Y003419D01*
X031292Y003419D02*
X031292Y003025D01*
X031488Y003025D02*
X031488Y003320D01*
X031587Y003419D01*
X031685Y003320D01*
X031685Y003025D01*
X031488Y003320D02*
X031390Y003419D01*
X031292Y003419D01*
X038340Y003366D02*
X038340Y002775D01*
X038340Y002972D02*
X038636Y002972D01*
X038734Y003070D01*
X038734Y003267D01*
X038636Y003366D01*
X038340Y003366D01*
X038985Y003169D02*
X038985Y002873D01*
X039083Y002775D01*
X039379Y002775D01*
X039379Y003169D01*
X039629Y003366D02*
X039728Y003366D01*
X039728Y002775D01*
X039826Y002775D02*
X039629Y002775D01*
X040059Y002775D02*
X040256Y002775D01*
X040158Y002775D02*
X040158Y003366D01*
X040059Y003366D01*
X040489Y003366D02*
X040489Y002873D01*
X040587Y002775D01*
X040784Y002775D01*
X040883Y002873D01*
X040883Y003366D01*
X041133Y003169D02*
X041429Y003169D01*
X041527Y003070D01*
X041527Y002873D01*
X041429Y002775D01*
X041133Y002775D01*
X041133Y002578D02*
X041133Y003169D01*
X043465Y003416D02*
X043859Y003416D01*
X043662Y003416D02*
X043662Y002825D01*
X043465Y002366D02*
X043859Y001775D01*
X043465Y001775D02*
X043859Y002366D01*
X047590Y002366D02*
X047984Y001775D01*
X047590Y001775D02*
X047984Y002366D01*
X047984Y002825D02*
X047787Y003022D01*
X047886Y003022D02*
X047590Y003022D01*
X047590Y002825D02*
X047590Y003416D01*
X047886Y003416D01*
X047984Y003317D01*
X047984Y003120D01*
X047886Y003022D01*
D15*
X046895Y029368D02*
X046895Y030073D01*
X044926Y030073D02*
X044926Y029368D01*
X039395Y029368D02*
X039395Y030073D01*
X037426Y030073D02*
X037426Y029368D01*
D16*
X032160Y023460D02*
X032160Y022980D01*
X031160Y022980D02*
X031160Y023460D01*
X030160Y023460D02*
X030160Y022980D01*
X029160Y022980D02*
X029160Y023460D01*
X028160Y023460D02*
X028160Y022980D01*
X027160Y022980D02*
X027160Y023460D01*
X026160Y023460D02*
X026160Y022980D01*
X025160Y022980D02*
X025160Y023460D01*
X025160Y020460D02*
X025160Y019980D01*
X026160Y019980D02*
X026160Y020460D01*
X027160Y020460D02*
X027160Y019980D01*
X028160Y019980D02*
X028160Y020460D01*
X029160Y020460D02*
X029160Y019980D01*
X030160Y019980D02*
X030160Y020460D01*
X031160Y020460D02*
X031160Y019980D01*
X032160Y019980D02*
X032160Y020460D01*
X037420Y020470D02*
X037900Y020470D01*
X037900Y019470D02*
X037420Y019470D01*
X037420Y018470D02*
X037900Y018470D01*
X037900Y017470D02*
X037420Y017470D01*
X037420Y016470D02*
X037900Y016470D01*
X037900Y015470D02*
X037420Y015470D01*
X037420Y014470D02*
X037900Y014470D01*
X037900Y013470D02*
X037420Y013470D01*
X037420Y012470D02*
X037900Y012470D01*
X037900Y011470D02*
X037420Y011470D01*
X037420Y010470D02*
X037900Y010470D01*
X037900Y009470D02*
X037420Y009470D01*
X037660Y007210D02*
X037660Y006730D01*
X037660Y004210D02*
X037660Y003730D01*
X038420Y003970D02*
X038900Y003970D01*
X041420Y003970D02*
X041900Y003970D01*
X043420Y009220D02*
X043900Y009220D01*
X043900Y010220D02*
X043420Y010220D01*
X043420Y011220D02*
X043900Y011220D01*
X043900Y012220D02*
X043420Y012220D01*
X040900Y012470D02*
X040420Y012470D01*
X040420Y011470D02*
X040900Y011470D01*
X040900Y010470D02*
X040420Y010470D01*
X040420Y009470D02*
X040900Y009470D01*
X040900Y013470D02*
X040420Y013470D01*
X040420Y014470D02*
X040900Y014470D01*
X040900Y015470D02*
X040420Y015470D01*
X040420Y016470D02*
X040900Y016470D01*
X040900Y017470D02*
X040420Y017470D01*
X040420Y018470D02*
X040900Y018470D01*
X040900Y019470D02*
X040420Y019470D01*
X040420Y020470D02*
X040900Y020470D01*
X040900Y021470D02*
X040420Y021470D01*
X040420Y022470D02*
X040900Y022470D01*
X037900Y022470D02*
X037420Y022470D01*
X037420Y021470D02*
X037900Y021470D01*
X046420Y012220D02*
X046900Y012220D01*
X046900Y011220D02*
X046420Y011220D01*
X046420Y010220D02*
X046900Y010220D01*
X046900Y009220D02*
X046420Y009220D01*
X032160Y008960D02*
X032160Y008480D01*
X031160Y008480D02*
X031160Y008960D01*
X030160Y008960D02*
X030160Y008480D01*
X029160Y008480D02*
X029160Y008960D01*
X028160Y008960D02*
X028160Y008480D01*
X027160Y008480D02*
X027160Y008960D01*
X026160Y008960D02*
X026160Y008480D01*
X025160Y008480D02*
X025160Y008960D01*
X025160Y011480D02*
X025160Y011960D01*
X026160Y011960D02*
X026160Y011480D01*
X027160Y011480D02*
X027160Y011960D01*
X028160Y011960D02*
X028160Y011480D01*
X029160Y011480D02*
X029160Y011960D01*
X030160Y011960D02*
X030160Y011480D01*
X031160Y011480D02*
X031160Y011960D01*
X032160Y011960D02*
X032160Y011480D01*
D17*
X015660Y010220D03*
X014660Y010220D03*
X014660Y009220D03*
X014660Y008220D03*
X014660Y007220D03*
X015660Y007220D03*
X015660Y008220D03*
X015660Y009220D03*
X015660Y006220D03*
X014660Y006220D03*
X049910Y006220D03*
X050910Y006220D03*
X050910Y007220D03*
X049910Y007220D03*
X049910Y008220D03*
X049910Y009220D03*
X049910Y010220D03*
X050910Y010220D03*
X050910Y009220D03*
X050910Y008220D03*
X050910Y023220D03*
X049910Y023220D03*
X049910Y024220D03*
X050910Y024220D03*
X050910Y025220D03*
X049910Y025220D03*
D18*
X045660Y025483D02*
X045660Y026083D01*
X044660Y026083D02*
X044660Y025483D01*
X043660Y025483D02*
X043660Y026083D01*
X040660Y024520D02*
X040660Y023920D01*
X039660Y023920D02*
X039660Y024520D01*
X038660Y024520D02*
X038660Y023920D01*
X037660Y023920D02*
X037660Y024520D01*
X032910Y026170D02*
X032910Y026770D01*
X031910Y026770D02*
X031910Y026170D01*
X031430Y028330D02*
X030830Y028330D01*
X030830Y030110D02*
X031430Y030110D01*
X033390Y030110D02*
X033990Y030110D01*
X033990Y028330D02*
X033390Y028330D01*
X027740Y028330D02*
X027140Y028330D01*
X026660Y026770D02*
X026660Y026170D01*
X025660Y026170D02*
X025660Y026770D01*
X025180Y028330D02*
X024580Y028330D01*
X024580Y030110D02*
X025180Y030110D01*
X027140Y030110D02*
X027740Y030110D01*
X021490Y030110D02*
X020890Y030110D01*
X020890Y028330D02*
X021490Y028330D01*
X020410Y026770D02*
X020410Y026170D01*
X019410Y026170D02*
X019410Y026770D01*
X018930Y028330D02*
X018330Y028330D01*
X018330Y030110D02*
X018930Y030110D01*
X016660Y020520D02*
X016660Y019920D01*
X015660Y019920D02*
X015660Y020520D01*
X014660Y020520D02*
X014660Y019920D01*
X014660Y013520D02*
X014660Y012920D01*
X015660Y012920D02*
X015660Y013520D01*
X016660Y013520D02*
X016660Y012920D01*
X022660Y002520D02*
X022660Y001920D01*
X023660Y001920D02*
X023660Y002520D01*
X029660Y002520D02*
X029660Y001920D01*
X030660Y001920D02*
X030660Y002520D01*
X036660Y002520D02*
X036660Y001920D01*
X037660Y001920D02*
X037660Y002520D01*
X050730Y013468D02*
X051330Y013468D01*
X051330Y014468D02*
X050730Y014468D01*
X050730Y015468D02*
X051330Y015468D01*
X051330Y016468D02*
X050730Y016468D01*
X050730Y017468D02*
X051330Y017468D01*
X051330Y018468D02*
X050730Y018468D01*
X034460Y017970D02*
X033860Y017970D01*
X033860Y016970D02*
X034460Y016970D01*
D19*
X044010Y019883D02*
X044012Y019933D01*
X044018Y019983D01*
X044028Y020033D01*
X044041Y020081D01*
X044058Y020129D01*
X044079Y020175D01*
X044103Y020219D01*
X044131Y020261D01*
X044162Y020301D01*
X044196Y020338D01*
X044233Y020373D01*
X044272Y020404D01*
X044313Y020433D01*
X044357Y020458D01*
X044403Y020480D01*
X044450Y020498D01*
X044498Y020512D01*
X044547Y020523D01*
X044597Y020530D01*
X044647Y020533D01*
X044698Y020532D01*
X044748Y020527D01*
X044798Y020518D01*
X044846Y020506D01*
X044894Y020489D01*
X044940Y020469D01*
X044985Y020446D01*
X045028Y020419D01*
X045068Y020389D01*
X045106Y020356D01*
X045141Y020320D01*
X045174Y020281D01*
X045203Y020240D01*
X045229Y020197D01*
X045252Y020152D01*
X045271Y020105D01*
X045286Y020057D01*
X045298Y020008D01*
X045306Y019958D01*
X045310Y019908D01*
X045310Y019858D01*
X045306Y019808D01*
X045298Y019758D01*
X045286Y019709D01*
X045271Y019661D01*
X045252Y019614D01*
X045229Y019569D01*
X045203Y019526D01*
X045174Y019485D01*
X045141Y019446D01*
X045106Y019410D01*
X045068Y019377D01*
X045028Y019347D01*
X044985Y019320D01*
X044940Y019297D01*
X044894Y019277D01*
X044846Y019260D01*
X044798Y019248D01*
X044748Y019239D01*
X044698Y019234D01*
X044647Y019233D01*
X044597Y019236D01*
X044547Y019243D01*
X044498Y019254D01*
X044450Y019268D01*
X044403Y019286D01*
X044357Y019308D01*
X044313Y019333D01*
X044272Y019362D01*
X044233Y019393D01*
X044196Y019428D01*
X044162Y019465D01*
X044131Y019505D01*
X044103Y019547D01*
X044079Y019591D01*
X044058Y019637D01*
X044041Y019685D01*
X044028Y019733D01*
X044018Y019783D01*
X044012Y019833D01*
X044010Y019883D01*
D20*
X047910Y020220D03*
X047910Y024220D03*
X045910Y027470D03*
X044910Y027470D03*
X042160Y027220D03*
X042160Y026220D03*
X041160Y026470D03*
X037160Y026470D03*
X035410Y025220D03*
X034410Y025220D03*
X034410Y024220D03*
X035410Y024220D03*
X030410Y025220D03*
X029160Y025220D03*
X028160Y025220D03*
X028160Y024220D03*
X029160Y024220D03*
X024160Y025220D03*
X022910Y025220D03*
X021910Y025220D03*
X021910Y024220D03*
X021910Y023220D03*
X021910Y022220D03*
X021910Y020220D03*
X021910Y018220D03*
X021910Y017220D03*
X021910Y016220D03*
X021160Y013470D03*
X021910Y011220D03*
X025160Y013470D03*
X028160Y013220D03*
X028160Y017220D03*
X029160Y018470D03*
X025160Y018470D03*
X023910Y024220D03*
X022910Y024220D03*
X017910Y024220D03*
X017910Y023220D03*
X017910Y022220D03*
X017910Y020220D03*
X017910Y018220D03*
X017910Y017220D03*
X017910Y016220D03*
X017910Y011220D03*
X024660Y002220D03*
X028660Y002220D03*
X031660Y002220D03*
X033660Y003470D03*
X034660Y003470D03*
X035660Y003470D03*
X036660Y003470D03*
X035660Y002220D03*
X038660Y002220D03*
X042660Y002220D03*
X043660Y003970D03*
X044660Y003970D03*
X045660Y003970D03*
X046660Y003970D03*
X046660Y007970D03*
X045660Y007970D03*
X044660Y007970D03*
X043660Y007970D03*
X039660Y007470D03*
X038660Y007470D03*
X036660Y007470D03*
X035660Y007470D03*
X034660Y007470D03*
X033660Y007470D03*
X032660Y007470D03*
X031660Y007470D03*
X036160Y012470D03*
X036160Y013470D03*
X036160Y014470D03*
X036160Y015470D03*
X036160Y016470D03*
X036160Y017470D03*
X041910Y016470D03*
X041910Y015470D03*
X043410Y015470D03*
X043410Y016470D03*
X044660Y013470D03*
X045660Y013470D03*
X035410Y029220D03*
X029160Y029220D03*
X022910Y029220D03*
X017910Y025220D03*
D21*
X047410Y027120D03*
D22*
X047410Y026320D03*
D23*
X034160Y014920D03*
X034160Y013020D03*
X015660Y015470D03*
X015660Y016470D03*
X015660Y017470D03*
X014660Y017970D03*
X014660Y016970D03*
X014660Y015970D03*
X015660Y022470D03*
X015660Y023470D03*
X015660Y024470D03*
X014660Y023970D03*
X014660Y022970D03*
X014660Y024970D03*
D24*
X038160Y027470D03*
X041160Y027470D03*
D25*
X042160Y028970D03*
X042160Y029970D03*
X044660Y002970D03*
X044660Y001970D03*
X046660Y001970D03*
X046660Y002970D03*
D26*
X048410Y003470D02*
X048410Y001470D01*
X047910Y000970D01*
X046660Y000970D01*
X042660Y000970D01*
X033660Y000970D01*
X017660Y000970D01*
X017160Y001470D01*
X017160Y003470D01*
X016410Y004220D01*
X015660Y004220D01*
X014410Y004220D01*
X013910Y004720D01*
X013910Y008720D01*
X014410Y009220D01*
X014660Y009220D01*
X014660Y010220D01*
X013910Y010970D01*
X013910Y013220D01*
X014660Y013220D01*
X013910Y013220D02*
X013910Y015970D01*
X014660Y015970D01*
X013910Y015970D02*
X013910Y016970D01*
X014660Y016970D01*
X013910Y016970D02*
X013910Y017970D01*
X014660Y017970D01*
X013910Y017970D02*
X013910Y020220D01*
X014660Y020220D01*
X013910Y020220D02*
X013910Y022970D01*
X014660Y022970D01*
X013910Y022970D02*
X013910Y023970D01*
X014660Y023970D01*
X013910Y023970D02*
X013910Y024970D01*
X014660Y024970D01*
X013910Y024970D02*
X013910Y025470D01*
X017410Y028970D01*
X017410Y030470D01*
X017910Y030970D01*
X022910Y030970D01*
X029160Y030970D01*
X030160Y030970D01*
X034285Y030970D01*
X034660Y030595D01*
X034660Y029470D01*
X035160Y028970D01*
X036410Y027720D01*
X036410Y025970D01*
X036660Y025720D01*
X039660Y025720D01*
X040160Y026220D01*
X040160Y027720D01*
X040660Y028220D01*
X042160Y028220D01*
X042160Y028970D01*
X042160Y028220D02*
X044660Y028220D01*
X044910Y028220D01*
X044910Y029720D01*
X044660Y028220D02*
X044660Y027470D01*
X044910Y027470D01*
X044660Y027470D02*
X044660Y025783D01*
X043660Y025783D02*
X043660Y027470D01*
X042160Y027470D01*
X042160Y027220D01*
X042160Y027470D02*
X041160Y027470D01*
X042160Y026220D02*
X042160Y024470D01*
X045660Y024470D01*
X045660Y025783D01*
X045660Y027220D01*
X045910Y027220D01*
X045910Y027470D01*
X045910Y027220D02*
X046910Y027220D01*
X047410Y027220D01*
X046910Y027220D02*
X046910Y029720D01*
X038160Y027470D02*
X037410Y027470D01*
X037410Y029720D01*
X049910Y020595D02*
X049910Y019970D01*
X049910Y015095D01*
X049910Y014470D01*
X049910Y013845D01*
X049910Y011470D01*
X051160Y011470D01*
X051660Y010970D01*
X051660Y007720D01*
X051660Y006220D01*
X050910Y005470D01*
X050910Y004720D01*
X050410Y004220D01*
X049160Y004220D01*
X048410Y003470D01*
X049910Y004970D02*
X049910Y006220D01*
X049910Y007220D01*
X049660Y007220D01*
X049535Y007345D01*
X049160Y007720D01*
X049160Y010345D01*
X049160Y010970D01*
X049160Y011595D01*
X049160Y012970D01*
X049160Y015720D01*
X049160Y018345D01*
X049160Y018970D01*
X049910Y011470D02*
X049910Y010220D01*
X049910Y009220D01*
X050910Y009220D02*
X050910Y010220D01*
X051660Y007720D02*
X051160Y007220D01*
X050910Y007220D01*
X050910Y006220D01*
X050910Y005470D01*
X016410Y004970D02*
X016410Y008720D01*
X015910Y009220D01*
X015660Y009220D01*
X015660Y010220D01*
X013910Y010970D02*
X013910Y008720D01*
X014660Y007220D02*
X014660Y006220D01*
X014660Y004970D01*
X015660Y004220D02*
X015660Y006220D01*
X015660Y007220D01*
D27*
X016410Y004970D03*
X014660Y004970D03*
X028160Y014970D03*
X035660Y012970D03*
X039160Y014970D03*
X039910Y015970D03*
X042660Y017220D03*
X043160Y019220D03*
X043160Y019970D03*
X043160Y020720D03*
X043160Y021470D03*
X043160Y022220D03*
X043160Y022970D03*
X043910Y022970D03*
X044660Y022970D03*
X045410Y022970D03*
X045410Y022220D03*
X044660Y022220D03*
X043910Y022220D03*
X043910Y021470D03*
X044660Y021470D03*
X045410Y021470D03*
X046160Y021470D03*
X046160Y020720D03*
X046160Y019970D03*
X046160Y019220D03*
X049160Y018970D03*
X049160Y018345D03*
X049910Y019970D03*
X049910Y020595D03*
X046160Y022220D03*
X046160Y022970D03*
X049160Y015720D03*
X049910Y015095D03*
X049910Y014470D03*
X049910Y013845D03*
X049160Y011595D03*
X049160Y010970D03*
X049160Y010345D03*
X047910Y006470D03*
X047910Y005220D03*
X049910Y004970D03*
X039660Y004720D03*
X032160Y004720D03*
X029160Y006470D03*
X035660Y018595D03*
D28*
X032910Y020970D02*
X032910Y026470D01*
X032160Y024720D02*
X030160Y026720D01*
X030160Y030970D01*
X032160Y024720D02*
X032160Y023220D01*
X032910Y020970D02*
X032160Y020220D01*
D29*
X041183Y019970D02*
X041223Y019987D01*
X041384Y020147D01*
X041470Y020357D01*
X041470Y020583D01*
X041384Y020793D01*
X041223Y020953D01*
X041183Y020970D01*
X041223Y020987D01*
X041384Y021147D01*
X041470Y021357D01*
X041470Y021580D01*
X041488Y021580D01*
X041631Y021639D01*
X041881Y021889D01*
X041991Y021999D01*
X042050Y022142D01*
X042050Y023308D01*
X042072Y023330D01*
X046238Y023330D01*
X046381Y023389D01*
X046491Y023499D01*
X047340Y024348D01*
X047340Y023984D01*
X047674Y023650D01*
X048146Y023650D01*
X048480Y023984D01*
X048480Y024456D01*
X048466Y024470D01*
X049236Y024470D01*
X049236Y023810D01*
X049273Y023720D01*
X049236Y023630D01*
X049236Y022820D01*
X049189Y022801D01*
X048439Y022051D01*
X048330Y021941D01*
X048270Y021798D01*
X048270Y020666D01*
X048146Y020790D01*
X047674Y020790D01*
X047340Y020456D01*
X047340Y019984D01*
X047482Y019843D01*
X047189Y019551D01*
X047080Y019441D01*
X047020Y019298D01*
X047020Y017845D01*
X041331Y017845D01*
X041223Y017953D01*
X041183Y017970D01*
X041223Y017987D01*
X041384Y018147D01*
X041470Y018357D01*
X041470Y018583D01*
X041384Y018793D01*
X041223Y018953D01*
X041183Y018970D01*
X041223Y018987D01*
X041384Y019147D01*
X041470Y019357D01*
X041470Y019583D01*
X041384Y019793D01*
X041223Y019953D01*
X041183Y019970D01*
X041269Y020033D02*
X043680Y020033D01*
X043680Y020077D02*
X043680Y019688D01*
X043830Y019327D01*
X044105Y019052D01*
X044465Y018903D01*
X044855Y018903D01*
X045215Y019052D01*
X045491Y019327D01*
X045640Y019688D01*
X045640Y020077D01*
X045491Y020438D01*
X045215Y020713D01*
X044855Y020862D01*
X044465Y020862D01*
X044105Y020713D01*
X043830Y020438D01*
X043680Y020077D01*
X043727Y020191D02*
X041402Y020191D01*
X041467Y020350D02*
X043793Y020350D01*
X043900Y020508D02*
X041470Y020508D01*
X041436Y020667D02*
X044058Y020667D01*
X044375Y020825D02*
X041351Y020825D01*
X041215Y020984D02*
X048270Y020984D01*
X048270Y021142D02*
X041379Y021142D01*
X041447Y021301D02*
X048270Y021301D01*
X048270Y021459D02*
X041470Y021459D01*
X041579Y021618D02*
X048270Y021618D01*
X048270Y021776D02*
X041768Y021776D01*
X041926Y021935D02*
X048327Y021935D01*
X048482Y022093D02*
X042030Y022093D01*
X042050Y022252D02*
X048640Y022252D01*
X048799Y022410D02*
X042050Y022410D01*
X042050Y022569D02*
X048957Y022569D01*
X049116Y022727D02*
X042050Y022727D01*
X042050Y022886D02*
X049236Y022886D01*
X049236Y023044D02*
X042050Y023044D01*
X042050Y023203D02*
X049236Y023203D01*
X049236Y023361D02*
X046313Y023361D01*
X046511Y023520D02*
X049236Y023520D01*
X049256Y023678D02*
X048175Y023678D01*
X048333Y023837D02*
X049236Y023837D01*
X049236Y023995D02*
X048480Y023995D01*
X048480Y024154D02*
X049236Y024154D01*
X049236Y024312D02*
X048480Y024312D01*
X047646Y023678D02*
X046670Y023678D01*
X046828Y023837D02*
X047488Y023837D01*
X047340Y023995D02*
X046987Y023995D01*
X047145Y024154D02*
X047340Y024154D01*
X047340Y024312D02*
X047304Y024312D01*
X046359Y024470D02*
X046238Y024349D01*
X046240Y024355D01*
X046240Y024470D01*
X046359Y024470D01*
X049550Y021558D02*
X049572Y021580D01*
X049660Y021580D01*
X049660Y021119D01*
X049582Y021087D01*
X049550Y021055D01*
X049550Y021558D01*
X049550Y021459D02*
X049660Y021459D01*
X049660Y021301D02*
X049550Y021301D01*
X049550Y021142D02*
X049660Y021142D01*
X048270Y020825D02*
X044946Y020825D01*
X045262Y020667D02*
X047551Y020667D01*
X047392Y020508D02*
X045421Y020508D01*
X045528Y020350D02*
X047340Y020350D01*
X047340Y020191D02*
X045593Y020191D01*
X045640Y020033D02*
X047340Y020033D01*
X047450Y019874D02*
X045640Y019874D01*
X045640Y019716D02*
X047354Y019716D01*
X047196Y019557D02*
X045586Y019557D01*
X045521Y019399D02*
X047062Y019399D01*
X047020Y019240D02*
X045404Y019240D01*
X045245Y019082D02*
X047020Y019082D01*
X047020Y018923D02*
X044905Y018923D01*
X044416Y018923D02*
X041253Y018923D01*
X041318Y019082D02*
X044075Y019082D01*
X043917Y019240D02*
X041422Y019240D01*
X041470Y019399D02*
X043800Y019399D01*
X043734Y019557D02*
X041470Y019557D01*
X041416Y019716D02*
X043680Y019716D01*
X043680Y019874D02*
X041302Y019874D01*
X041395Y018765D02*
X047020Y018765D01*
X047020Y018606D02*
X041461Y018606D01*
X041470Y018448D02*
X047020Y018448D01*
X047020Y018289D02*
X041442Y018289D01*
X041367Y018131D02*
X047020Y018131D01*
X047020Y017972D02*
X041188Y017972D01*
X047189Y019551D02*
X047189Y019551D01*
X048270Y020667D02*
X048270Y020667D01*
X049330Y019588D02*
X049330Y019527D01*
X049287Y019545D01*
X049330Y019588D01*
X049330Y019557D02*
X049299Y019557D01*
X041739Y024071D02*
X041689Y024051D01*
X041330Y023691D01*
X041270Y023548D01*
X041270Y022906D01*
X041223Y022953D01*
X041160Y022979D01*
X041160Y023529D01*
X041194Y023563D01*
X041290Y023795D01*
X041290Y024470D01*
X041580Y024470D01*
X041580Y024355D01*
X041669Y024141D01*
X041739Y024071D01*
X041664Y024154D02*
X041290Y024154D01*
X041290Y024312D02*
X041598Y024312D01*
X041634Y023995D02*
X041290Y023995D01*
X041290Y023837D02*
X041475Y023837D01*
X041324Y023678D02*
X041242Y023678D01*
X041270Y023520D02*
X041160Y023520D01*
X041160Y023361D02*
X041270Y023361D01*
X041270Y023203D02*
X041160Y023203D01*
X041160Y023044D02*
X041270Y023044D01*
X039660Y007470D02*
X039660Y004720D01*
D30*
X050562Y002189D03*
X015129Y002189D03*
X015129Y029748D03*
X050562Y029748D03*
M02*
