G75*
%MOIN*%
%OFA0B0*%
%FSLAX24Y24*%
%IPPOS*%
%LPD*%
%AMOC8*
5,1,8,0,0,1.08239X$1,22.5*
%
%ADD10C,0.0120*%
%ADD11C,0.0060*%
%ADD12C,0.0050*%
%ADD13C,0.0070*%
%ADD14C,0.0020*%
%ADD15R,0.0200X0.0200*%
%ADD16C,0.0040*%
%ADD17R,0.0500X0.0350*%
%ADD18C,0.0000*%
%ADD19C,0.0100*%
%ADD20R,0.0340X0.0240*%
%ADD21R,0.0240X0.0340*%
%ADD22C,0.0080*%
%ADD23C,0.0160*%
%ADD24R,0.0200X0.0800*%
%ADD25R,0.0250X0.0200*%
%ADD26R,0.0800X0.0200*%
%ADD27R,0.0200X0.0250*%
%ADD28R,0.0200X0.0736*%
%ADD29R,0.0250X0.0335*%
%ADD30C,0.0300*%
%ADD31R,0.0200X0.0300*%
%ADD32R,0.0400X0.0300*%
D10*
X013160Y000220D02*
X013160Y031716D01*
X052530Y031716D01*
X052530Y000220D01*
X013160Y000220D01*
D11*
X013410Y004220D02*
X016910Y004220D01*
X016910Y004720D01*
X017010Y004720D01*
X017010Y005220D01*
X016910Y005220D01*
X016910Y007970D01*
X017010Y007970D01*
X017010Y008470D01*
X016910Y008470D01*
X016910Y011220D01*
X017010Y011220D01*
X017010Y011720D01*
X016910Y011720D01*
X016910Y012220D01*
X013410Y012220D01*
X013410Y010470D01*
X013460Y010470D01*
X013460Y009970D01*
X013410Y009970D01*
X013410Y009020D01*
X013810Y009020D01*
X013910Y009020D01*
X013910Y011720D01*
X016410Y011720D01*
X016410Y004720D01*
X013910Y004720D01*
X013910Y006420D01*
X013910Y007020D01*
X013910Y007420D01*
X013810Y007420D01*
X013410Y007420D01*
X013410Y009020D01*
X013910Y009020D02*
X014210Y009020D01*
X014210Y007420D01*
X013910Y007420D01*
X013610Y007220D02*
X013610Y007020D01*
X013610Y006420D01*
X013810Y006420D01*
X013910Y006420D01*
X013610Y006420D02*
X013610Y006220D01*
X013410Y006070D01*
X013410Y004220D01*
X013610Y007020D02*
X013810Y007020D01*
X013910Y007020D01*
X013610Y007220D02*
X013410Y007370D01*
X013410Y007420D01*
X018660Y010870D02*
X018660Y011570D01*
X018662Y011587D01*
X018666Y011604D01*
X018673Y011620D01*
X018683Y011634D01*
X018696Y011647D01*
X018710Y011657D01*
X018726Y011664D01*
X018743Y011668D01*
X018760Y011670D01*
X018910Y011670D01*
X018960Y011620D01*
X020860Y011620D01*
X020910Y011670D01*
X021060Y011670D01*
X021077Y011668D01*
X021094Y011664D01*
X021110Y011657D01*
X021124Y011647D01*
X021137Y011634D01*
X021147Y011620D01*
X021154Y011604D01*
X021158Y011587D01*
X021160Y011570D01*
X021160Y010870D01*
X021158Y010853D01*
X021154Y010836D01*
X021147Y010820D01*
X021137Y010806D01*
X021124Y010793D01*
X021110Y010783D01*
X021094Y010776D01*
X021077Y010772D01*
X021060Y010770D01*
X020910Y010770D01*
X020860Y010820D01*
X018960Y010820D01*
X018910Y010770D01*
X018760Y010770D01*
X018743Y010772D01*
X018726Y010776D01*
X018710Y010783D01*
X018696Y010793D01*
X018683Y010806D01*
X018673Y010820D01*
X018666Y010836D01*
X018662Y010853D01*
X018660Y010870D01*
X016910Y012720D02*
X016410Y012720D01*
X016160Y012970D01*
X015910Y012720D01*
X015410Y012720D01*
X015160Y012970D01*
X014910Y012720D01*
X014410Y012720D01*
X014160Y012970D01*
X014160Y013470D01*
X014410Y013720D01*
X014910Y013720D01*
X015160Y013470D01*
X015410Y013720D01*
X015910Y013720D01*
X016160Y013470D01*
X016410Y013720D01*
X016910Y013720D01*
X017160Y013470D01*
X017160Y012970D01*
X016910Y012720D01*
X016160Y012970D02*
X016160Y013470D01*
X015160Y013470D02*
X015160Y012970D01*
X018660Y015870D02*
X018660Y016570D01*
X018662Y016587D01*
X018666Y016604D01*
X018673Y016620D01*
X018683Y016634D01*
X018696Y016647D01*
X018710Y016657D01*
X018726Y016664D01*
X018743Y016668D01*
X018760Y016670D01*
X018910Y016670D01*
X018960Y016620D01*
X020860Y016620D01*
X020910Y016670D01*
X021060Y016670D01*
X021060Y016770D02*
X020910Y016770D01*
X020860Y016820D01*
X018960Y016820D01*
X018910Y016770D01*
X018760Y016770D01*
X018743Y016772D01*
X018726Y016776D01*
X018710Y016783D01*
X018696Y016793D01*
X018683Y016806D01*
X018673Y016820D01*
X018666Y016836D01*
X018662Y016853D01*
X018660Y016870D01*
X018660Y017570D01*
X018662Y017587D01*
X018666Y017604D01*
X018673Y017620D01*
X018683Y017634D01*
X018696Y017647D01*
X018710Y017657D01*
X018726Y017664D01*
X018743Y017668D01*
X018760Y017670D01*
X018910Y017670D01*
X018960Y017620D01*
X020860Y017620D01*
X020910Y017670D01*
X021060Y017670D01*
X021077Y017668D01*
X021094Y017664D01*
X021110Y017657D01*
X021124Y017647D01*
X021137Y017634D01*
X021147Y017620D01*
X021154Y017604D01*
X021158Y017587D01*
X021160Y017570D01*
X021160Y016870D01*
X021158Y016853D01*
X021154Y016836D01*
X021147Y016820D01*
X021137Y016806D01*
X021124Y016793D01*
X021110Y016783D01*
X021094Y016776D01*
X021077Y016772D01*
X021060Y016770D01*
X021060Y016670D02*
X021077Y016668D01*
X021094Y016664D01*
X021110Y016657D01*
X021124Y016647D01*
X021137Y016634D01*
X021147Y016620D01*
X021154Y016604D01*
X021158Y016587D01*
X021160Y016570D01*
X021160Y015870D01*
X021158Y015853D01*
X021154Y015836D01*
X021147Y015820D01*
X021137Y015806D01*
X021124Y015793D01*
X021110Y015783D01*
X021094Y015776D01*
X021077Y015772D01*
X021060Y015770D01*
X020910Y015770D01*
X020860Y015820D01*
X018960Y015820D01*
X018910Y015770D01*
X018760Y015770D01*
X018743Y015772D01*
X018726Y015776D01*
X018710Y015783D01*
X018696Y015793D01*
X018683Y015806D01*
X018673Y015820D01*
X018666Y015836D01*
X018662Y015853D01*
X018660Y015870D01*
X018760Y017770D02*
X018910Y017770D01*
X018960Y017820D01*
X020860Y017820D01*
X020910Y017770D01*
X021060Y017770D01*
X021077Y017772D01*
X021094Y017776D01*
X021110Y017783D01*
X021124Y017793D01*
X021137Y017806D01*
X021147Y017820D01*
X021154Y017836D01*
X021158Y017853D01*
X021160Y017870D01*
X021160Y018570D01*
X021158Y018587D01*
X021154Y018604D01*
X021147Y018620D01*
X021137Y018634D01*
X021124Y018647D01*
X021110Y018657D01*
X021094Y018664D01*
X021077Y018668D01*
X021060Y018670D01*
X020910Y018670D01*
X020860Y018620D01*
X018960Y018620D01*
X018910Y018670D01*
X018760Y018670D01*
X018743Y018668D01*
X018726Y018664D01*
X018710Y018657D01*
X018696Y018647D01*
X018683Y018634D01*
X018673Y018620D01*
X018666Y018604D01*
X018662Y018587D01*
X018660Y018570D01*
X018660Y017870D01*
X018662Y017853D01*
X018666Y017836D01*
X018673Y017820D01*
X018683Y017806D01*
X018696Y017793D01*
X018710Y017783D01*
X018726Y017776D01*
X018743Y017772D01*
X018760Y017770D01*
X016910Y019720D02*
X016410Y019720D01*
X016160Y019970D01*
X015910Y019720D01*
X015410Y019720D01*
X015160Y019970D01*
X014910Y019720D01*
X014410Y019720D01*
X014160Y019970D01*
X014160Y020470D01*
X014410Y020720D01*
X014910Y020720D01*
X015160Y020470D01*
X015410Y020720D01*
X015910Y020720D01*
X016160Y020470D01*
X016410Y020720D01*
X016910Y020720D01*
X017160Y020470D01*
X017160Y019970D01*
X016910Y019720D01*
X016160Y019970D02*
X016160Y020470D01*
X015160Y020470D02*
X015160Y019970D01*
X018660Y019870D02*
X018660Y020570D01*
X018662Y020587D01*
X018666Y020604D01*
X018673Y020620D01*
X018683Y020634D01*
X018696Y020647D01*
X018710Y020657D01*
X018726Y020664D01*
X018743Y020668D01*
X018760Y020670D01*
X018910Y020670D01*
X018960Y020620D01*
X020860Y020620D01*
X020910Y020670D01*
X021060Y020670D01*
X021077Y020668D01*
X021094Y020664D01*
X021110Y020657D01*
X021124Y020647D01*
X021137Y020634D01*
X021147Y020620D01*
X021154Y020604D01*
X021158Y020587D01*
X021160Y020570D01*
X021160Y019870D01*
X021158Y019853D01*
X021154Y019836D01*
X021147Y019820D01*
X021137Y019806D01*
X021124Y019793D01*
X021110Y019783D01*
X021094Y019776D01*
X021077Y019772D01*
X021060Y019770D01*
X020910Y019770D01*
X020860Y019820D01*
X018960Y019820D01*
X018910Y019770D01*
X018760Y019770D01*
X018743Y019772D01*
X018726Y019776D01*
X018710Y019783D01*
X018696Y019793D01*
X018683Y019806D01*
X018673Y019820D01*
X018666Y019836D01*
X018662Y019853D01*
X018660Y019870D01*
X018760Y021770D02*
X018910Y021770D01*
X018960Y021820D01*
X020860Y021820D01*
X020910Y021770D01*
X021060Y021770D01*
X021077Y021772D01*
X021094Y021776D01*
X021110Y021783D01*
X021124Y021793D01*
X021137Y021806D01*
X021147Y021820D01*
X021154Y021836D01*
X021158Y021853D01*
X021160Y021870D01*
X021160Y022570D01*
X021158Y022587D01*
X021154Y022604D01*
X021147Y022620D01*
X021137Y022634D01*
X021124Y022647D01*
X021110Y022657D01*
X021094Y022664D01*
X021077Y022668D01*
X021060Y022670D01*
X020910Y022670D01*
X020860Y022620D01*
X018960Y022620D01*
X018910Y022670D01*
X018760Y022670D01*
X018743Y022668D01*
X018726Y022664D01*
X018710Y022657D01*
X018696Y022647D01*
X018683Y022634D01*
X018673Y022620D01*
X018666Y022604D01*
X018662Y022587D01*
X018660Y022570D01*
X018660Y021870D01*
X018662Y021853D01*
X018666Y021836D01*
X018673Y021820D01*
X018683Y021806D01*
X018696Y021793D01*
X018710Y021783D01*
X018726Y021776D01*
X018743Y021772D01*
X018760Y021770D01*
X018760Y022770D02*
X018910Y022770D01*
X018960Y022820D01*
X020860Y022820D01*
X020910Y022770D01*
X021060Y022770D01*
X021077Y022772D01*
X021094Y022776D01*
X021110Y022783D01*
X021124Y022793D01*
X021137Y022806D01*
X021147Y022820D01*
X021154Y022836D01*
X021158Y022853D01*
X021160Y022870D01*
X021160Y023570D01*
X021158Y023587D01*
X021154Y023604D01*
X021147Y023620D01*
X021137Y023634D01*
X021124Y023647D01*
X021110Y023657D01*
X021094Y023664D01*
X021077Y023668D01*
X021060Y023670D01*
X020910Y023670D01*
X020860Y023620D01*
X018960Y023620D01*
X018910Y023670D01*
X018760Y023670D01*
X018743Y023668D01*
X018726Y023664D01*
X018710Y023657D01*
X018696Y023647D01*
X018683Y023634D01*
X018673Y023620D01*
X018666Y023604D01*
X018662Y023587D01*
X018660Y023570D01*
X018660Y022870D01*
X018662Y022853D01*
X018666Y022836D01*
X018673Y022820D01*
X018683Y022806D01*
X018696Y022793D01*
X018710Y022783D01*
X018726Y022776D01*
X018743Y022772D01*
X018760Y022770D01*
X018760Y023770D02*
X018910Y023770D01*
X018960Y023820D01*
X020860Y023820D01*
X020910Y023770D01*
X021060Y023770D01*
X021077Y023772D01*
X021094Y023776D01*
X021110Y023783D01*
X021124Y023793D01*
X021137Y023806D01*
X021147Y023820D01*
X021154Y023836D01*
X021158Y023853D01*
X021160Y023870D01*
X021160Y024570D01*
X021158Y024587D01*
X021154Y024604D01*
X021147Y024620D01*
X021137Y024634D01*
X021124Y024647D01*
X021110Y024657D01*
X021094Y024664D01*
X021077Y024668D01*
X021060Y024670D01*
X020910Y024670D01*
X020860Y024620D01*
X018960Y024620D01*
X018910Y024670D01*
X018760Y024670D01*
X018743Y024668D01*
X018726Y024664D01*
X018710Y024657D01*
X018696Y024647D01*
X018683Y024634D01*
X018673Y024620D01*
X018666Y024604D01*
X018662Y024587D01*
X018660Y024570D01*
X018660Y023870D01*
X018662Y023853D01*
X018666Y023836D01*
X018673Y023820D01*
X018683Y023806D01*
X018696Y023793D01*
X018710Y023783D01*
X018726Y023776D01*
X018743Y023772D01*
X018760Y023770D01*
X018760Y024770D02*
X018910Y024770D01*
X018960Y024820D01*
X020860Y024820D01*
X020910Y024770D01*
X021060Y024770D01*
X021077Y024772D01*
X021094Y024776D01*
X021110Y024783D01*
X021124Y024793D01*
X021137Y024806D01*
X021147Y024820D01*
X021154Y024836D01*
X021158Y024853D01*
X021160Y024870D01*
X021160Y025570D01*
X021158Y025587D01*
X021154Y025604D01*
X021147Y025620D01*
X021137Y025634D01*
X021124Y025647D01*
X021110Y025657D01*
X021094Y025664D01*
X021077Y025668D01*
X021060Y025670D01*
X020910Y025670D01*
X020860Y025620D01*
X018960Y025620D01*
X018910Y025670D01*
X018760Y025670D01*
X018743Y025668D01*
X018726Y025664D01*
X018710Y025657D01*
X018696Y025647D01*
X018683Y025634D01*
X018673Y025620D01*
X018666Y025604D01*
X018662Y025587D01*
X018660Y025570D01*
X018660Y024870D01*
X018662Y024853D01*
X018666Y024836D01*
X018673Y024820D01*
X018683Y024806D01*
X018696Y024793D01*
X018710Y024783D01*
X018726Y024776D01*
X018743Y024772D01*
X018760Y024770D01*
X019160Y025970D02*
X019660Y025970D01*
X019910Y026220D01*
X020160Y025970D01*
X020660Y025970D01*
X020910Y026220D01*
X020910Y026720D01*
X020660Y026970D01*
X020160Y026970D01*
X019910Y026720D01*
X019910Y026220D01*
X019910Y026720D02*
X019660Y026970D01*
X019160Y026970D01*
X018910Y026720D01*
X018910Y026220D01*
X019160Y025970D01*
X019060Y028020D02*
X019410Y028020D01*
X020410Y028020D01*
X020760Y028020D01*
X021110Y028820D02*
X021110Y028920D01*
X021210Y028920D01*
X021210Y029520D01*
X021110Y029520D01*
X021110Y029620D01*
X020760Y030420D02*
X020410Y030420D01*
X019460Y030420D01*
X019060Y030420D01*
X018710Y029620D02*
X018710Y029520D01*
X018610Y029520D01*
X018610Y028920D01*
X018710Y028920D01*
X018710Y028820D01*
X019810Y029220D02*
X019812Y029240D01*
X019818Y029258D01*
X019827Y029276D01*
X019839Y029291D01*
X019854Y029303D01*
X019872Y029312D01*
X019890Y029318D01*
X019910Y029320D01*
X019930Y029318D01*
X019948Y029312D01*
X019966Y029303D01*
X019981Y029291D01*
X019993Y029276D01*
X020002Y029258D01*
X020008Y029240D01*
X020010Y029220D01*
X020008Y029200D01*
X020002Y029182D01*
X019993Y029164D01*
X019981Y029149D01*
X019966Y029137D01*
X019948Y029128D01*
X019930Y029122D01*
X019910Y029120D01*
X019890Y029122D01*
X019872Y029128D01*
X019854Y029137D01*
X019839Y029149D01*
X019827Y029164D01*
X019818Y029182D01*
X019812Y029200D01*
X019810Y029220D01*
X019210Y029220D02*
X019212Y029272D01*
X019218Y029324D01*
X019228Y029376D01*
X019241Y029426D01*
X019258Y029476D01*
X019279Y029524D01*
X019304Y029570D01*
X019332Y029614D01*
X019363Y029656D01*
X019397Y029696D01*
X019434Y029733D01*
X019474Y029767D01*
X019516Y029798D01*
X019560Y029826D01*
X019606Y029851D01*
X019654Y029872D01*
X019704Y029889D01*
X019754Y029902D01*
X019806Y029912D01*
X019858Y029918D01*
X019910Y029920D01*
X019962Y029918D01*
X020014Y029912D01*
X020066Y029902D01*
X020116Y029889D01*
X020166Y029872D01*
X020214Y029851D01*
X020260Y029826D01*
X020304Y029798D01*
X020346Y029767D01*
X020386Y029733D01*
X020423Y029696D01*
X020457Y029656D01*
X020488Y029614D01*
X020516Y029570D01*
X020541Y029524D01*
X020562Y029476D01*
X020579Y029426D01*
X020592Y029376D01*
X020602Y029324D01*
X020608Y029272D01*
X020610Y029220D01*
X020608Y029168D01*
X020602Y029116D01*
X020592Y029064D01*
X020579Y029014D01*
X020562Y028964D01*
X020541Y028916D01*
X020516Y028870D01*
X020488Y028826D01*
X020457Y028784D01*
X020423Y028744D01*
X020386Y028707D01*
X020346Y028673D01*
X020304Y028642D01*
X020260Y028614D01*
X020214Y028589D01*
X020166Y028568D01*
X020116Y028551D01*
X020066Y028538D01*
X020014Y028528D01*
X019962Y028522D01*
X019910Y028520D01*
X019858Y028522D01*
X019806Y028528D01*
X019754Y028538D01*
X019704Y028551D01*
X019654Y028568D01*
X019606Y028589D01*
X019560Y028614D01*
X019516Y028642D01*
X019474Y028673D01*
X019434Y028707D01*
X019397Y028744D01*
X019363Y028784D01*
X019332Y028826D01*
X019304Y028870D01*
X019279Y028916D01*
X019258Y028964D01*
X019241Y029014D01*
X019228Y029064D01*
X019218Y029116D01*
X019212Y029168D01*
X019210Y029220D01*
X022460Y028370D02*
X022460Y028220D01*
X022510Y028170D01*
X022510Y026270D01*
X022460Y026220D01*
X022460Y026070D01*
X022462Y026053D01*
X022466Y026036D01*
X022473Y026020D01*
X022483Y026006D01*
X022496Y025993D01*
X022510Y025983D01*
X022526Y025976D01*
X022543Y025972D01*
X022560Y025970D01*
X023260Y025970D01*
X023277Y025972D01*
X023294Y025976D01*
X023310Y025983D01*
X023324Y025993D01*
X023337Y026006D01*
X023347Y026020D01*
X023354Y026036D01*
X023358Y026053D01*
X023360Y026070D01*
X023360Y026220D01*
X023310Y026270D01*
X023310Y028170D01*
X023360Y028220D01*
X023360Y028370D01*
X023358Y028387D01*
X023354Y028404D01*
X023347Y028420D01*
X023337Y028434D01*
X023324Y028447D01*
X023310Y028457D01*
X023294Y028464D01*
X023277Y028468D01*
X023260Y028470D01*
X022560Y028470D01*
X022543Y028468D01*
X022526Y028464D01*
X022510Y028457D01*
X022496Y028447D01*
X022483Y028434D01*
X022473Y028420D01*
X022466Y028404D01*
X022462Y028387D01*
X022460Y028370D01*
X024860Y028920D02*
X024960Y028920D01*
X024960Y028820D01*
X024860Y028920D02*
X024860Y029520D01*
X024960Y029520D01*
X024960Y029620D01*
X025310Y030420D02*
X025710Y030420D01*
X026660Y030420D01*
X027010Y030420D01*
X027360Y029620D02*
X027360Y029520D01*
X027460Y029520D01*
X027460Y028920D01*
X027360Y028920D01*
X027360Y028820D01*
X027010Y028020D02*
X026660Y028020D01*
X025660Y028020D01*
X025310Y028020D01*
X025410Y026970D02*
X025160Y026720D01*
X025160Y026220D01*
X025410Y025970D01*
X025910Y025970D01*
X026160Y026220D01*
X026410Y025970D01*
X026910Y025970D01*
X027160Y026220D01*
X027160Y026720D01*
X026910Y026970D01*
X026410Y026970D01*
X026160Y026720D01*
X026160Y026220D01*
X026160Y026720D02*
X025910Y026970D01*
X025410Y026970D01*
X025160Y025670D02*
X025210Y025620D01*
X027110Y025620D01*
X027160Y025670D01*
X027310Y025670D01*
X027327Y025668D01*
X027344Y025664D01*
X027360Y025657D01*
X027374Y025647D01*
X027387Y025634D01*
X027397Y025620D01*
X027404Y025604D01*
X027408Y025587D01*
X027410Y025570D01*
X027410Y024870D01*
X027408Y024853D01*
X027404Y024836D01*
X027397Y024820D01*
X027387Y024806D01*
X027374Y024793D01*
X027360Y024783D01*
X027344Y024776D01*
X027327Y024772D01*
X027310Y024770D01*
X027160Y024770D01*
X027110Y024820D01*
X025210Y024820D01*
X025160Y024770D01*
X025010Y024770D01*
X024993Y024772D01*
X024976Y024776D01*
X024960Y024783D01*
X024946Y024793D01*
X024933Y024806D01*
X024923Y024820D01*
X024916Y024836D01*
X024912Y024853D01*
X024910Y024870D01*
X024910Y025570D01*
X024912Y025587D01*
X024916Y025604D01*
X024923Y025620D01*
X024933Y025634D01*
X024946Y025647D01*
X024960Y025657D01*
X024976Y025664D01*
X024993Y025668D01*
X025010Y025670D01*
X025160Y025670D01*
X024260Y024720D02*
X022560Y024720D01*
X022543Y024718D01*
X022526Y024714D01*
X022510Y024707D01*
X022496Y024697D01*
X022483Y024684D01*
X022473Y024670D01*
X022466Y024654D01*
X022462Y024637D01*
X022460Y024620D01*
X022460Y023820D01*
X022462Y023803D01*
X022466Y023786D01*
X022473Y023770D01*
X022483Y023756D01*
X022496Y023743D01*
X022510Y023733D01*
X022526Y023726D01*
X022543Y023722D01*
X022560Y023720D01*
X024260Y023720D01*
X024277Y023722D01*
X024294Y023726D01*
X024310Y023733D01*
X024324Y023743D01*
X024337Y023756D01*
X024347Y023770D01*
X024354Y023786D01*
X024358Y023803D01*
X024360Y023820D01*
X024360Y024620D01*
X024358Y024637D01*
X024354Y024654D01*
X024347Y024670D01*
X024337Y024684D01*
X024324Y024697D01*
X024310Y024707D01*
X024294Y024714D01*
X024277Y024718D01*
X024260Y024720D01*
X023560Y024220D02*
X023510Y024220D01*
X023310Y024220D02*
X023260Y024220D01*
X024660Y022870D02*
X024660Y022120D01*
X024699Y022118D01*
X024738Y022112D01*
X024776Y022103D01*
X024813Y022090D01*
X024849Y022073D01*
X024882Y022053D01*
X024914Y022029D01*
X024943Y022003D01*
X024969Y021974D01*
X024993Y021942D01*
X025013Y021909D01*
X025030Y021873D01*
X025043Y021836D01*
X025052Y021798D01*
X025058Y021759D01*
X025060Y021720D01*
X025058Y021681D01*
X025052Y021642D01*
X025043Y021604D01*
X025030Y021567D01*
X025013Y021531D01*
X024993Y021498D01*
X024969Y021466D01*
X024943Y021437D01*
X024914Y021411D01*
X024882Y021387D01*
X024849Y021367D01*
X024813Y021350D01*
X024776Y021337D01*
X024738Y021328D01*
X024699Y021322D01*
X024660Y021320D01*
X024660Y020570D01*
X032660Y020570D01*
X032660Y022870D01*
X024660Y022870D01*
X027710Y023820D02*
X027710Y024620D01*
X027712Y024637D01*
X027716Y024654D01*
X027723Y024670D01*
X027733Y024684D01*
X027746Y024697D01*
X027760Y024707D01*
X027776Y024714D01*
X027793Y024718D01*
X027810Y024720D01*
X029510Y024720D01*
X029527Y024718D01*
X029544Y024714D01*
X029560Y024707D01*
X029574Y024697D01*
X029587Y024684D01*
X029597Y024670D01*
X029604Y024654D01*
X029608Y024637D01*
X029610Y024620D01*
X029610Y023820D01*
X029608Y023803D01*
X029604Y023786D01*
X029597Y023770D01*
X029587Y023756D01*
X029574Y023743D01*
X029560Y023733D01*
X029544Y023726D01*
X029527Y023722D01*
X029510Y023720D01*
X027810Y023720D01*
X027793Y023722D01*
X027776Y023726D01*
X027760Y023733D01*
X027746Y023743D01*
X027733Y023756D01*
X027723Y023770D01*
X027716Y023786D01*
X027712Y023803D01*
X027710Y023820D01*
X028510Y024220D02*
X028560Y024220D01*
X028760Y024220D02*
X028810Y024220D01*
X028810Y025970D02*
X029510Y025970D01*
X029527Y025972D01*
X029544Y025976D01*
X029560Y025983D01*
X029574Y025993D01*
X029587Y026006D01*
X029597Y026020D01*
X029604Y026036D01*
X029608Y026053D01*
X029610Y026070D01*
X029610Y026220D01*
X029560Y026270D01*
X029560Y028170D01*
X029610Y028220D01*
X029610Y028370D01*
X029608Y028387D01*
X029604Y028404D01*
X029597Y028420D01*
X029587Y028434D01*
X029574Y028447D01*
X029560Y028457D01*
X029544Y028464D01*
X029527Y028468D01*
X029510Y028470D01*
X028810Y028470D01*
X028793Y028468D01*
X028776Y028464D01*
X028760Y028457D01*
X028746Y028447D01*
X028733Y028434D01*
X028723Y028420D01*
X028716Y028404D01*
X028712Y028387D01*
X028710Y028370D01*
X028710Y028220D01*
X028760Y028170D01*
X028760Y026270D01*
X028710Y026220D01*
X028710Y026070D01*
X028712Y026053D01*
X028716Y026036D01*
X028723Y026020D01*
X028733Y026006D01*
X028746Y025993D01*
X028760Y025983D01*
X028776Y025976D01*
X028793Y025972D01*
X028810Y025970D01*
X031160Y025570D02*
X031160Y024870D01*
X031162Y024853D01*
X031166Y024836D01*
X031173Y024820D01*
X031183Y024806D01*
X031196Y024793D01*
X031210Y024783D01*
X031226Y024776D01*
X031243Y024772D01*
X031260Y024770D01*
X031410Y024770D01*
X031460Y024820D01*
X033360Y024820D01*
X033410Y024770D01*
X033560Y024770D01*
X033577Y024772D01*
X033594Y024776D01*
X033610Y024783D01*
X033624Y024793D01*
X033637Y024806D01*
X033647Y024820D01*
X033654Y024836D01*
X033658Y024853D01*
X033660Y024870D01*
X033660Y025570D01*
X033658Y025587D01*
X033654Y025604D01*
X033647Y025620D01*
X033637Y025634D01*
X033624Y025647D01*
X033610Y025657D01*
X033594Y025664D01*
X033577Y025668D01*
X033560Y025670D01*
X033410Y025670D01*
X033360Y025620D01*
X031460Y025620D01*
X031410Y025670D01*
X031260Y025670D01*
X031243Y025668D01*
X031226Y025664D01*
X031210Y025657D01*
X031196Y025647D01*
X031183Y025634D01*
X031173Y025620D01*
X031166Y025604D01*
X031162Y025587D01*
X031160Y025570D01*
X031660Y025970D02*
X032160Y025970D01*
X032410Y026220D01*
X032660Y025970D01*
X033160Y025970D01*
X033410Y026220D01*
X033410Y026720D01*
X033160Y026970D01*
X032660Y026970D01*
X032410Y026720D01*
X032410Y026220D01*
X032410Y026720D02*
X032160Y026970D01*
X031660Y026970D01*
X031410Y026720D01*
X031410Y026220D01*
X031660Y025970D01*
X033960Y024620D02*
X033960Y023820D01*
X033962Y023803D01*
X033966Y023786D01*
X033973Y023770D01*
X033983Y023756D01*
X033996Y023743D01*
X034010Y023733D01*
X034026Y023726D01*
X034043Y023722D01*
X034060Y023720D01*
X035760Y023720D01*
X035777Y023722D01*
X035794Y023726D01*
X035810Y023733D01*
X035824Y023743D01*
X035837Y023756D01*
X035847Y023770D01*
X035854Y023786D01*
X035858Y023803D01*
X035860Y023820D01*
X035860Y024620D01*
X035858Y024637D01*
X035854Y024654D01*
X035847Y024670D01*
X035837Y024684D01*
X035824Y024697D01*
X035810Y024707D01*
X035794Y024714D01*
X035777Y024718D01*
X035760Y024720D01*
X034060Y024720D01*
X034043Y024718D01*
X034026Y024714D01*
X034010Y024707D01*
X033996Y024697D01*
X033983Y024684D01*
X033973Y024670D01*
X033966Y024654D01*
X033962Y024637D01*
X033960Y024620D01*
X034760Y024220D02*
X034810Y024220D01*
X035010Y024220D02*
X035060Y024220D01*
X035060Y025970D02*
X035760Y025970D01*
X035777Y025972D01*
X035794Y025976D01*
X035810Y025983D01*
X035824Y025993D01*
X035837Y026006D01*
X035847Y026020D01*
X035854Y026036D01*
X035858Y026053D01*
X035860Y026070D01*
X035860Y026220D01*
X035810Y026270D01*
X035810Y028170D01*
X035860Y028220D01*
X035860Y028370D01*
X035858Y028387D01*
X035854Y028404D01*
X035847Y028420D01*
X035837Y028434D01*
X035824Y028447D01*
X035810Y028457D01*
X035794Y028464D01*
X035777Y028468D01*
X035760Y028470D01*
X035060Y028470D01*
X035043Y028468D01*
X035026Y028464D01*
X035010Y028457D01*
X034996Y028447D01*
X034983Y028434D01*
X034973Y028420D01*
X034966Y028404D01*
X034962Y028387D01*
X034960Y028370D01*
X034960Y028220D01*
X035010Y028170D01*
X035010Y026270D01*
X034960Y026220D01*
X034960Y026070D01*
X034962Y026053D01*
X034966Y026036D01*
X034973Y026020D01*
X034983Y026006D01*
X034996Y025993D01*
X035010Y025983D01*
X035026Y025976D01*
X035043Y025972D01*
X035060Y025970D01*
X037160Y024470D02*
X037160Y023970D01*
X037410Y023720D01*
X037910Y023720D01*
X038160Y023970D01*
X038410Y023720D01*
X038910Y023720D01*
X039160Y023970D01*
X039160Y024470D01*
X038910Y024720D01*
X038410Y024720D01*
X038160Y024470D01*
X038160Y023970D01*
X038160Y024470D02*
X037910Y024720D01*
X037410Y024720D01*
X037160Y024470D01*
X038060Y023270D02*
X038060Y008670D01*
X040260Y008670D01*
X040260Y023270D01*
X039410Y023270D01*
X039408Y023240D01*
X039403Y023210D01*
X039394Y023181D01*
X039381Y023154D01*
X039366Y023128D01*
X039347Y023104D01*
X039326Y023083D01*
X039302Y023064D01*
X039276Y023049D01*
X039249Y023036D01*
X039220Y023027D01*
X039190Y023022D01*
X039160Y023020D01*
X039130Y023022D01*
X039100Y023027D01*
X039071Y023036D01*
X039044Y023049D01*
X039018Y023064D01*
X038994Y023083D01*
X038973Y023104D01*
X038954Y023128D01*
X038939Y023154D01*
X038926Y023181D01*
X038917Y023210D01*
X038912Y023240D01*
X038910Y023270D01*
X038060Y023270D01*
X039160Y023970D02*
X039410Y023720D01*
X039910Y023720D01*
X040160Y023970D01*
X040410Y023720D01*
X040910Y023720D01*
X041160Y023970D01*
X041160Y024470D01*
X040910Y024720D01*
X040410Y024720D01*
X040160Y024470D01*
X040160Y023970D01*
X040160Y024470D02*
X039910Y024720D01*
X039410Y024720D01*
X039160Y024470D01*
X038160Y026020D02*
X038010Y026020D01*
X037993Y026022D01*
X037976Y026026D01*
X037960Y026033D01*
X037946Y026043D01*
X037933Y026056D01*
X037923Y026070D01*
X037916Y026086D01*
X037912Y026103D01*
X037910Y026120D01*
X037910Y026820D01*
X037912Y026837D01*
X037916Y026854D01*
X037923Y026870D01*
X037933Y026884D01*
X037946Y026897D01*
X037960Y026907D01*
X037976Y026914D01*
X037993Y026918D01*
X038010Y026920D01*
X038160Y026920D01*
X038210Y026870D01*
X040110Y026870D01*
X040160Y026920D01*
X040310Y026920D01*
X040327Y026918D01*
X040344Y026914D01*
X040360Y026907D01*
X040374Y026897D01*
X040387Y026884D01*
X040397Y026870D01*
X040404Y026854D01*
X040408Y026837D01*
X040410Y026820D01*
X040410Y026120D01*
X040408Y026103D01*
X040404Y026086D01*
X040397Y026070D01*
X040387Y026056D01*
X040374Y026043D01*
X040360Y026033D01*
X040344Y026026D01*
X040327Y026022D01*
X040310Y026020D01*
X040160Y026020D01*
X040110Y026070D01*
X038210Y026070D01*
X038160Y026020D01*
X038841Y027108D02*
X040480Y027108D01*
X040480Y027832D01*
X038841Y027832D01*
X038841Y027108D01*
X039060Y027470D02*
X039660Y027470D01*
X039660Y027720D01*
X039660Y027470D02*
X039660Y027220D01*
X039660Y027470D02*
X039260Y027220D01*
X039260Y027720D01*
X039660Y027470D01*
X039910Y027470D01*
X040376Y028070D02*
X040376Y029010D01*
X040376Y031610D01*
X036446Y031610D01*
X036446Y031690D01*
X040376Y031690D01*
X040376Y031610D01*
X039196Y031090D02*
X039198Y031118D01*
X039204Y031145D01*
X039213Y031171D01*
X039226Y031196D01*
X039243Y031219D01*
X039262Y031239D01*
X039284Y031256D01*
X039308Y031270D01*
X039334Y031280D01*
X039361Y031287D01*
X039389Y031290D01*
X039417Y031289D01*
X039444Y031284D01*
X039471Y031275D01*
X039496Y031263D01*
X039519Y031248D01*
X039540Y031229D01*
X039558Y031208D01*
X039573Y031184D01*
X039584Y031158D01*
X039592Y031132D01*
X039596Y031104D01*
X039596Y031076D01*
X039592Y031048D01*
X039584Y031022D01*
X039573Y030996D01*
X039558Y030972D01*
X039540Y030951D01*
X039519Y030932D01*
X039496Y030917D01*
X039471Y030905D01*
X039444Y030896D01*
X039417Y030891D01*
X039389Y030890D01*
X039361Y030893D01*
X039334Y030900D01*
X039308Y030910D01*
X039284Y030924D01*
X039262Y030941D01*
X039243Y030961D01*
X039226Y030984D01*
X039213Y031009D01*
X039204Y031035D01*
X039198Y031062D01*
X039196Y031090D01*
X037226Y031090D02*
X037228Y031118D01*
X037234Y031145D01*
X037243Y031171D01*
X037256Y031196D01*
X037273Y031219D01*
X037292Y031239D01*
X037314Y031256D01*
X037338Y031270D01*
X037364Y031280D01*
X037391Y031287D01*
X037419Y031290D01*
X037447Y031289D01*
X037474Y031284D01*
X037501Y031275D01*
X037526Y031263D01*
X037549Y031248D01*
X037570Y031229D01*
X037588Y031208D01*
X037603Y031184D01*
X037614Y031158D01*
X037622Y031132D01*
X037626Y031104D01*
X037626Y031076D01*
X037622Y031048D01*
X037614Y031022D01*
X037603Y030996D01*
X037588Y030972D01*
X037570Y030951D01*
X037549Y030932D01*
X037526Y030917D01*
X037501Y030905D01*
X037474Y030896D01*
X037447Y030891D01*
X037419Y030890D01*
X037391Y030893D01*
X037364Y030900D01*
X037338Y030910D01*
X037314Y030924D01*
X037292Y030941D01*
X037273Y030961D01*
X037256Y030984D01*
X037243Y031009D01*
X037234Y031035D01*
X037228Y031062D01*
X037226Y031090D01*
X036446Y031610D02*
X036446Y029010D01*
X037076Y029010D01*
X036446Y029010D02*
X036446Y028070D01*
X040376Y028070D01*
X040376Y029010D02*
X039746Y029010D01*
X039046Y029010D02*
X037776Y029010D01*
X033710Y028920D02*
X033710Y029520D01*
X033610Y029520D01*
X033610Y029620D01*
X033260Y030420D02*
X032910Y030420D01*
X031960Y030420D01*
X031560Y030420D01*
X031210Y029620D02*
X031210Y029520D01*
X031110Y029520D01*
X031110Y028920D01*
X031210Y028920D01*
X031210Y028820D01*
X031560Y028020D02*
X031910Y028020D01*
X032910Y028020D01*
X033260Y028020D01*
X033610Y028820D02*
X033610Y028920D01*
X033710Y028920D01*
X032310Y029220D02*
X032312Y029240D01*
X032318Y029258D01*
X032327Y029276D01*
X032339Y029291D01*
X032354Y029303D01*
X032372Y029312D01*
X032390Y029318D01*
X032410Y029320D01*
X032430Y029318D01*
X032448Y029312D01*
X032466Y029303D01*
X032481Y029291D01*
X032493Y029276D01*
X032502Y029258D01*
X032508Y029240D01*
X032510Y029220D01*
X032508Y029200D01*
X032502Y029182D01*
X032493Y029164D01*
X032481Y029149D01*
X032466Y029137D01*
X032448Y029128D01*
X032430Y029122D01*
X032410Y029120D01*
X032390Y029122D01*
X032372Y029128D01*
X032354Y029137D01*
X032339Y029149D01*
X032327Y029164D01*
X032318Y029182D01*
X032312Y029200D01*
X032310Y029220D01*
X031710Y029220D02*
X031712Y029272D01*
X031718Y029324D01*
X031728Y029376D01*
X031741Y029426D01*
X031758Y029476D01*
X031779Y029524D01*
X031804Y029570D01*
X031832Y029614D01*
X031863Y029656D01*
X031897Y029696D01*
X031934Y029733D01*
X031974Y029767D01*
X032016Y029798D01*
X032060Y029826D01*
X032106Y029851D01*
X032154Y029872D01*
X032204Y029889D01*
X032254Y029902D01*
X032306Y029912D01*
X032358Y029918D01*
X032410Y029920D01*
X032462Y029918D01*
X032514Y029912D01*
X032566Y029902D01*
X032616Y029889D01*
X032666Y029872D01*
X032714Y029851D01*
X032760Y029826D01*
X032804Y029798D01*
X032846Y029767D01*
X032886Y029733D01*
X032923Y029696D01*
X032957Y029656D01*
X032988Y029614D01*
X033016Y029570D01*
X033041Y029524D01*
X033062Y029476D01*
X033079Y029426D01*
X033092Y029376D01*
X033102Y029324D01*
X033108Y029272D01*
X033110Y029220D01*
X033108Y029168D01*
X033102Y029116D01*
X033092Y029064D01*
X033079Y029014D01*
X033062Y028964D01*
X033041Y028916D01*
X033016Y028870D01*
X032988Y028826D01*
X032957Y028784D01*
X032923Y028744D01*
X032886Y028707D01*
X032846Y028673D01*
X032804Y028642D01*
X032760Y028614D01*
X032714Y028589D01*
X032666Y028568D01*
X032616Y028551D01*
X032566Y028538D01*
X032514Y028528D01*
X032462Y028522D01*
X032410Y028520D01*
X032358Y028522D01*
X032306Y028528D01*
X032254Y028538D01*
X032204Y028551D01*
X032154Y028568D01*
X032106Y028589D01*
X032060Y028614D01*
X032016Y028642D01*
X031974Y028673D01*
X031934Y028707D01*
X031897Y028744D01*
X031863Y028784D01*
X031832Y028826D01*
X031804Y028870D01*
X031779Y028916D01*
X031758Y028964D01*
X031741Y029014D01*
X031728Y029064D01*
X031718Y029116D01*
X031712Y029168D01*
X031710Y029220D01*
X026060Y029220D02*
X026062Y029240D01*
X026068Y029258D01*
X026077Y029276D01*
X026089Y029291D01*
X026104Y029303D01*
X026122Y029312D01*
X026140Y029318D01*
X026160Y029320D01*
X026180Y029318D01*
X026198Y029312D01*
X026216Y029303D01*
X026231Y029291D01*
X026243Y029276D01*
X026252Y029258D01*
X026258Y029240D01*
X026260Y029220D01*
X026258Y029200D01*
X026252Y029182D01*
X026243Y029164D01*
X026231Y029149D01*
X026216Y029137D01*
X026198Y029128D01*
X026180Y029122D01*
X026160Y029120D01*
X026140Y029122D01*
X026122Y029128D01*
X026104Y029137D01*
X026089Y029149D01*
X026077Y029164D01*
X026068Y029182D01*
X026062Y029200D01*
X026060Y029220D01*
X025460Y029220D02*
X025462Y029272D01*
X025468Y029324D01*
X025478Y029376D01*
X025491Y029426D01*
X025508Y029476D01*
X025529Y029524D01*
X025554Y029570D01*
X025582Y029614D01*
X025613Y029656D01*
X025647Y029696D01*
X025684Y029733D01*
X025724Y029767D01*
X025766Y029798D01*
X025810Y029826D01*
X025856Y029851D01*
X025904Y029872D01*
X025954Y029889D01*
X026004Y029902D01*
X026056Y029912D01*
X026108Y029918D01*
X026160Y029920D01*
X026212Y029918D01*
X026264Y029912D01*
X026316Y029902D01*
X026366Y029889D01*
X026416Y029872D01*
X026464Y029851D01*
X026510Y029826D01*
X026554Y029798D01*
X026596Y029767D01*
X026636Y029733D01*
X026673Y029696D01*
X026707Y029656D01*
X026738Y029614D01*
X026766Y029570D01*
X026791Y029524D01*
X026812Y029476D01*
X026829Y029426D01*
X026842Y029376D01*
X026852Y029324D01*
X026858Y029272D01*
X026860Y029220D01*
X026858Y029168D01*
X026852Y029116D01*
X026842Y029064D01*
X026829Y029014D01*
X026812Y028964D01*
X026791Y028916D01*
X026766Y028870D01*
X026738Y028826D01*
X026707Y028784D01*
X026673Y028744D01*
X026636Y028707D01*
X026596Y028673D01*
X026554Y028642D01*
X026510Y028614D01*
X026464Y028589D01*
X026416Y028568D01*
X026366Y028551D01*
X026316Y028538D01*
X026264Y028528D01*
X026212Y028522D01*
X026160Y028520D01*
X026108Y028522D01*
X026056Y028528D01*
X026004Y028538D01*
X025954Y028551D01*
X025904Y028568D01*
X025856Y028589D01*
X025810Y028614D01*
X025766Y028642D01*
X025724Y028673D01*
X025684Y028707D01*
X025647Y028744D01*
X025613Y028784D01*
X025582Y028826D01*
X025554Y028870D01*
X025529Y028916D01*
X025508Y028964D01*
X025491Y029014D01*
X025478Y029064D01*
X025468Y029116D01*
X025462Y029168D01*
X025460Y029220D01*
X026010Y018920D02*
X026160Y018920D01*
X026210Y018870D01*
X028110Y018870D01*
X028160Y018920D01*
X028310Y018920D01*
X028327Y018918D01*
X028344Y018914D01*
X028360Y018907D01*
X028374Y018897D01*
X028387Y018884D01*
X028397Y018870D01*
X028404Y018854D01*
X028408Y018837D01*
X028410Y018820D01*
X028410Y018120D01*
X028408Y018103D01*
X028404Y018086D01*
X028397Y018070D01*
X028387Y018056D01*
X028374Y018043D01*
X028360Y018033D01*
X028344Y018026D01*
X028327Y018022D01*
X028310Y018020D01*
X028160Y018020D01*
X028110Y018070D01*
X026210Y018070D01*
X026160Y018020D01*
X026010Y018020D01*
X025993Y018022D01*
X025976Y018026D01*
X025960Y018033D01*
X025946Y018043D01*
X025933Y018056D01*
X025923Y018070D01*
X025916Y018086D01*
X025912Y018103D01*
X025910Y018120D01*
X025910Y018820D01*
X025912Y018837D01*
X025916Y018854D01*
X025923Y018870D01*
X025933Y018884D01*
X025946Y018897D01*
X025960Y018907D01*
X025976Y018914D01*
X025993Y018918D01*
X026010Y018920D01*
X027810Y016470D02*
X028510Y016470D01*
X028527Y016468D01*
X028544Y016464D01*
X028560Y016457D01*
X028574Y016447D01*
X028587Y016434D01*
X028597Y016420D01*
X028604Y016404D01*
X028608Y016387D01*
X028610Y016370D01*
X028610Y016220D01*
X028560Y016170D01*
X028560Y014270D01*
X028610Y014220D01*
X028610Y014070D01*
X028608Y014053D01*
X028604Y014036D01*
X028597Y014020D01*
X028587Y014006D01*
X028574Y013993D01*
X028560Y013983D01*
X028544Y013976D01*
X028527Y013972D01*
X028510Y013970D01*
X027810Y013970D01*
X027793Y013972D01*
X027776Y013976D01*
X027760Y013983D01*
X027746Y013993D01*
X027733Y014006D01*
X027723Y014020D01*
X027716Y014036D01*
X027712Y014053D01*
X027710Y014070D01*
X027710Y014220D01*
X027760Y014270D01*
X027760Y016170D01*
X027710Y016220D01*
X027710Y016370D01*
X027712Y016387D01*
X027716Y016404D01*
X027723Y016420D01*
X027733Y016434D01*
X027746Y016447D01*
X027760Y016457D01*
X027776Y016464D01*
X027793Y016468D01*
X027810Y016470D01*
X024410Y013820D02*
X024410Y013120D01*
X024408Y013103D01*
X024404Y013086D01*
X024397Y013070D01*
X024387Y013056D01*
X024374Y013043D01*
X024360Y013033D01*
X024344Y013026D01*
X024327Y013022D01*
X024310Y013020D01*
X024160Y013020D01*
X024110Y013070D01*
X022210Y013070D01*
X022160Y013020D01*
X022010Y013020D01*
X021993Y013022D01*
X021976Y013026D01*
X021960Y013033D01*
X021946Y013043D01*
X021933Y013056D01*
X021923Y013070D01*
X021916Y013086D01*
X021912Y013103D01*
X021910Y013120D01*
X021910Y013820D01*
X021912Y013837D01*
X021916Y013854D01*
X021923Y013870D01*
X021933Y013884D01*
X021946Y013897D01*
X021960Y013907D01*
X021976Y013914D01*
X021993Y013918D01*
X022010Y013920D01*
X022160Y013920D01*
X022210Y013870D01*
X024110Y013870D01*
X024160Y013920D01*
X024310Y013920D01*
X024327Y013918D01*
X024344Y013914D01*
X024360Y013907D01*
X024374Y013897D01*
X024387Y013884D01*
X024397Y013870D01*
X024404Y013854D01*
X024408Y013837D01*
X024410Y013820D01*
X024660Y011370D02*
X024660Y010620D01*
X024699Y010618D01*
X024738Y010612D01*
X024776Y010603D01*
X024813Y010590D01*
X024849Y010573D01*
X024882Y010553D01*
X024914Y010529D01*
X024943Y010503D01*
X024969Y010474D01*
X024993Y010442D01*
X025013Y010409D01*
X025030Y010373D01*
X025043Y010336D01*
X025052Y010298D01*
X025058Y010259D01*
X025060Y010220D01*
X025058Y010181D01*
X025052Y010142D01*
X025043Y010104D01*
X025030Y010067D01*
X025013Y010031D01*
X024993Y009998D01*
X024969Y009966D01*
X024943Y009937D01*
X024914Y009911D01*
X024882Y009887D01*
X024849Y009867D01*
X024813Y009850D01*
X024776Y009837D01*
X024738Y009828D01*
X024699Y009822D01*
X024660Y009820D01*
X024660Y009070D01*
X032660Y009070D01*
X032660Y011370D01*
X024660Y011370D01*
X031210Y007870D02*
X031210Y007070D01*
X031212Y007053D01*
X031216Y007036D01*
X031223Y007020D01*
X031233Y007006D01*
X031246Y006993D01*
X031260Y006983D01*
X031276Y006976D01*
X031293Y006972D01*
X031310Y006970D01*
X033010Y006970D01*
X033027Y006972D01*
X033044Y006976D01*
X033060Y006983D01*
X033074Y006993D01*
X033087Y007006D01*
X033097Y007020D01*
X033104Y007036D01*
X033108Y007053D01*
X033110Y007070D01*
X033110Y007870D01*
X033108Y007887D01*
X033104Y007904D01*
X033097Y007920D01*
X033087Y007934D01*
X033074Y007947D01*
X033060Y007957D01*
X033044Y007964D01*
X033027Y007968D01*
X033010Y007970D01*
X031310Y007970D01*
X031293Y007968D01*
X031276Y007964D01*
X031260Y007957D01*
X031246Y007947D01*
X031233Y007934D01*
X031223Y007920D01*
X031216Y007904D01*
X031212Y007887D01*
X031210Y007870D01*
X032010Y007470D02*
X032060Y007470D01*
X032260Y007470D02*
X032310Y007470D01*
X033210Y006620D02*
X033210Y006470D01*
X033260Y006420D01*
X033260Y004520D01*
X033210Y004470D01*
X033210Y004320D01*
X033212Y004303D01*
X033216Y004286D01*
X033223Y004270D01*
X033233Y004256D01*
X033246Y004243D01*
X033260Y004233D01*
X033276Y004226D01*
X033293Y004222D01*
X033310Y004220D01*
X034010Y004220D01*
X034027Y004222D01*
X034044Y004226D01*
X034060Y004233D01*
X034074Y004243D01*
X034087Y004256D01*
X034097Y004270D01*
X034104Y004286D01*
X034108Y004303D01*
X034110Y004320D01*
X034110Y004470D01*
X034060Y004520D01*
X034060Y006420D01*
X034110Y006470D01*
X034110Y006620D01*
X034108Y006637D01*
X034104Y006654D01*
X034097Y006670D01*
X034087Y006684D01*
X034074Y006697D01*
X034060Y006707D01*
X034044Y006714D01*
X034027Y006718D01*
X034010Y006720D01*
X033310Y006720D01*
X033293Y006718D01*
X033276Y006714D01*
X033260Y006707D01*
X033246Y006697D01*
X033233Y006684D01*
X033223Y006670D01*
X033216Y006654D01*
X033212Y006637D01*
X033210Y006620D01*
X034210Y006620D02*
X034210Y006470D01*
X034260Y006420D01*
X034260Y004520D01*
X034210Y004470D01*
X034210Y004320D01*
X034212Y004303D01*
X034216Y004286D01*
X034223Y004270D01*
X034233Y004256D01*
X034246Y004243D01*
X034260Y004233D01*
X034276Y004226D01*
X034293Y004222D01*
X034310Y004220D01*
X035010Y004220D01*
X035027Y004222D01*
X035044Y004226D01*
X035060Y004233D01*
X035074Y004243D01*
X035087Y004256D01*
X035097Y004270D01*
X035104Y004286D01*
X035108Y004303D01*
X035110Y004320D01*
X035110Y004470D01*
X035060Y004520D01*
X035060Y006420D01*
X035110Y006470D01*
X035110Y006620D01*
X035108Y006637D01*
X035104Y006654D01*
X035097Y006670D01*
X035087Y006684D01*
X035074Y006697D01*
X035060Y006707D01*
X035044Y006714D01*
X035027Y006718D01*
X035010Y006720D01*
X034310Y006720D01*
X034293Y006718D01*
X034276Y006714D01*
X034260Y006707D01*
X034246Y006697D01*
X034233Y006684D01*
X034223Y006670D01*
X034216Y006654D01*
X034212Y006637D01*
X034210Y006620D01*
X035210Y006620D02*
X035210Y006470D01*
X035260Y006420D01*
X035260Y004520D01*
X035210Y004470D01*
X035210Y004320D01*
X035212Y004303D01*
X035216Y004286D01*
X035223Y004270D01*
X035233Y004256D01*
X035246Y004243D01*
X035260Y004233D01*
X035276Y004226D01*
X035293Y004222D01*
X035310Y004220D01*
X036010Y004220D01*
X036027Y004222D01*
X036044Y004226D01*
X036060Y004233D01*
X036074Y004243D01*
X036087Y004256D01*
X036097Y004270D01*
X036104Y004286D01*
X036108Y004303D01*
X036110Y004320D01*
X036110Y004470D01*
X036060Y004520D01*
X036060Y006420D01*
X036110Y006470D01*
X036110Y006620D01*
X036108Y006637D01*
X036104Y006654D01*
X036097Y006670D01*
X036087Y006684D01*
X036074Y006697D01*
X036060Y006707D01*
X036044Y006714D01*
X036027Y006718D01*
X036010Y006720D01*
X035310Y006720D01*
X035293Y006718D01*
X035276Y006714D01*
X035260Y006707D01*
X035246Y006697D01*
X035233Y006684D01*
X035223Y006670D01*
X035216Y006654D01*
X035212Y006637D01*
X035210Y006620D01*
X036210Y006620D02*
X036210Y006470D01*
X036260Y006420D01*
X036260Y004520D01*
X036210Y004470D01*
X036210Y004320D01*
X036212Y004303D01*
X036216Y004286D01*
X036223Y004270D01*
X036233Y004256D01*
X036246Y004243D01*
X036260Y004233D01*
X036276Y004226D01*
X036293Y004222D01*
X036310Y004220D01*
X037010Y004220D01*
X037027Y004222D01*
X037044Y004226D01*
X037060Y004233D01*
X037074Y004243D01*
X037087Y004256D01*
X037097Y004270D01*
X037104Y004286D01*
X037108Y004303D01*
X037110Y004320D01*
X037110Y004470D01*
X037060Y004520D01*
X037060Y006420D01*
X037110Y006470D01*
X037110Y006620D01*
X037108Y006637D01*
X037104Y006654D01*
X037097Y006670D01*
X037087Y006684D01*
X037074Y006697D01*
X037060Y006707D01*
X037044Y006714D01*
X037027Y006718D01*
X037010Y006720D01*
X036310Y006720D01*
X036293Y006718D01*
X036276Y006714D01*
X036260Y006707D01*
X036246Y006697D01*
X036233Y006684D01*
X036223Y006670D01*
X036216Y006654D01*
X036212Y006637D01*
X036210Y006620D01*
X037260Y006270D02*
X037260Y004670D01*
X037262Y004653D01*
X037266Y004636D01*
X037273Y004620D01*
X037283Y004606D01*
X037296Y004593D01*
X037310Y004583D01*
X037326Y004576D01*
X037343Y004572D01*
X037360Y004570D01*
X037960Y004570D01*
X037977Y004572D01*
X037994Y004576D01*
X038010Y004583D01*
X038024Y004593D01*
X038037Y004606D01*
X038047Y004620D01*
X038054Y004636D01*
X038058Y004653D01*
X038060Y004670D01*
X038060Y006270D01*
X038058Y006287D01*
X038054Y006304D01*
X038047Y006320D01*
X038037Y006334D01*
X038024Y006347D01*
X038010Y006357D01*
X037994Y006364D01*
X037977Y006368D01*
X037960Y006370D01*
X037360Y006370D01*
X037343Y006368D01*
X037326Y006364D01*
X037310Y006357D01*
X037296Y006347D01*
X037283Y006334D01*
X037273Y006320D01*
X037266Y006304D01*
X037262Y006287D01*
X037260Y006270D01*
X037410Y005870D02*
X037660Y005470D01*
X037910Y005470D01*
X037660Y005470D02*
X037410Y005470D01*
X037660Y005470D02*
X037660Y005220D01*
X037660Y005470D02*
X037660Y006070D01*
X037410Y005870D02*
X037910Y005870D01*
X037660Y005470D01*
X038310Y006970D02*
X040010Y006970D01*
X040027Y006972D01*
X040044Y006976D01*
X040060Y006983D01*
X040074Y006993D01*
X040087Y007006D01*
X040097Y007020D01*
X040104Y007036D01*
X040108Y007053D01*
X040110Y007070D01*
X040110Y007870D01*
X040108Y007887D01*
X040104Y007904D01*
X040097Y007920D01*
X040087Y007934D01*
X040074Y007947D01*
X040060Y007957D01*
X040044Y007964D01*
X040027Y007968D01*
X040010Y007970D01*
X038310Y007970D01*
X038293Y007968D01*
X038276Y007964D01*
X038260Y007957D01*
X038246Y007947D01*
X038233Y007934D01*
X038223Y007920D01*
X038216Y007904D01*
X038212Y007887D01*
X038210Y007870D01*
X038210Y007070D01*
X038212Y007053D01*
X038216Y007036D01*
X038223Y007020D01*
X038233Y007006D01*
X038246Y006993D01*
X038260Y006983D01*
X038276Y006976D01*
X038293Y006972D01*
X038310Y006970D01*
X039010Y007470D02*
X039060Y007470D01*
X039260Y007470D02*
X039310Y007470D01*
X043210Y007120D02*
X043210Y006970D01*
X043260Y006920D01*
X043260Y005020D01*
X043210Y004970D01*
X043210Y004820D01*
X043212Y004803D01*
X043216Y004786D01*
X043223Y004770D01*
X043233Y004756D01*
X043246Y004743D01*
X043260Y004733D01*
X043276Y004726D01*
X043293Y004722D01*
X043310Y004720D01*
X044010Y004720D01*
X044027Y004722D01*
X044044Y004726D01*
X044060Y004733D01*
X044074Y004743D01*
X044087Y004756D01*
X044097Y004770D01*
X044104Y004786D01*
X044108Y004803D01*
X044110Y004820D01*
X044110Y004970D01*
X044060Y005020D01*
X044060Y006920D01*
X044110Y006970D01*
X044110Y007120D01*
X044108Y007137D01*
X044104Y007154D01*
X044097Y007170D01*
X044087Y007184D01*
X044074Y007197D01*
X044060Y007207D01*
X044044Y007214D01*
X044027Y007218D01*
X044010Y007220D01*
X043310Y007220D01*
X043293Y007218D01*
X043276Y007214D01*
X043260Y007207D01*
X043246Y007197D01*
X043233Y007184D01*
X043223Y007170D01*
X043216Y007154D01*
X043212Y007137D01*
X043210Y007120D01*
X044210Y007120D02*
X044210Y006970D01*
X044260Y006920D01*
X044260Y005020D01*
X044210Y004970D01*
X044210Y004820D01*
X044212Y004803D01*
X044216Y004786D01*
X044223Y004770D01*
X044233Y004756D01*
X044246Y004743D01*
X044260Y004733D01*
X044276Y004726D01*
X044293Y004722D01*
X044310Y004720D01*
X045010Y004720D01*
X045027Y004722D01*
X045044Y004726D01*
X045060Y004733D01*
X045074Y004743D01*
X045087Y004756D01*
X045097Y004770D01*
X045104Y004786D01*
X045108Y004803D01*
X045110Y004820D01*
X045110Y004970D01*
X045060Y005020D01*
X045060Y006920D01*
X045110Y006970D01*
X045110Y007120D01*
X045108Y007137D01*
X045104Y007154D01*
X045097Y007170D01*
X045087Y007184D01*
X045074Y007197D01*
X045060Y007207D01*
X045044Y007214D01*
X045027Y007218D01*
X045010Y007220D01*
X044310Y007220D01*
X044293Y007218D01*
X044276Y007214D01*
X044260Y007207D01*
X044246Y007197D01*
X044233Y007184D01*
X044223Y007170D01*
X044216Y007154D01*
X044212Y007137D01*
X044210Y007120D01*
X045210Y007120D02*
X045210Y006970D01*
X045260Y006920D01*
X045260Y005020D01*
X045210Y004970D01*
X045210Y004820D01*
X045212Y004803D01*
X045216Y004786D01*
X045223Y004770D01*
X045233Y004756D01*
X045246Y004743D01*
X045260Y004733D01*
X045276Y004726D01*
X045293Y004722D01*
X045310Y004720D01*
X046010Y004720D01*
X046027Y004722D01*
X046044Y004726D01*
X046060Y004733D01*
X046074Y004743D01*
X046087Y004756D01*
X046097Y004770D01*
X046104Y004786D01*
X046108Y004803D01*
X046110Y004820D01*
X046110Y004970D01*
X046060Y005020D01*
X046060Y006920D01*
X046110Y006970D01*
X046110Y007120D01*
X046108Y007137D01*
X046104Y007154D01*
X046097Y007170D01*
X046087Y007184D01*
X046074Y007197D01*
X046060Y007207D01*
X046044Y007214D01*
X046027Y007218D01*
X046010Y007220D01*
X045310Y007220D01*
X045293Y007218D01*
X045276Y007214D01*
X045260Y007207D01*
X045246Y007197D01*
X045233Y007184D01*
X045223Y007170D01*
X045216Y007154D01*
X045212Y007137D01*
X045210Y007120D01*
X046210Y007120D02*
X046210Y006970D01*
X046260Y006920D01*
X046260Y005020D01*
X046210Y004970D01*
X046210Y004820D01*
X046212Y004803D01*
X046216Y004786D01*
X046223Y004770D01*
X046233Y004756D01*
X046246Y004743D01*
X046260Y004733D01*
X046276Y004726D01*
X046293Y004722D01*
X046310Y004720D01*
X047010Y004720D01*
X047027Y004722D01*
X047044Y004726D01*
X047060Y004733D01*
X047074Y004743D01*
X047087Y004756D01*
X047097Y004770D01*
X047104Y004786D01*
X047108Y004803D01*
X047110Y004820D01*
X047110Y004970D01*
X047060Y005020D01*
X047060Y006920D01*
X047110Y006970D01*
X047110Y007120D01*
X047108Y007137D01*
X047104Y007154D01*
X047097Y007170D01*
X047087Y007184D01*
X047074Y007197D01*
X047060Y007207D01*
X047044Y007214D01*
X047027Y007218D01*
X047010Y007220D01*
X046310Y007220D01*
X046293Y007218D01*
X046276Y007214D01*
X046260Y007207D01*
X046246Y007197D01*
X046233Y007184D01*
X046223Y007170D01*
X046216Y007154D01*
X046212Y007137D01*
X046210Y007120D01*
X046310Y008720D02*
X044010Y008720D01*
X044010Y012720D01*
X044760Y012720D01*
X044762Y012681D01*
X044768Y012642D01*
X044777Y012604D01*
X044790Y012567D01*
X044807Y012531D01*
X044827Y012498D01*
X044851Y012466D01*
X044877Y012437D01*
X044906Y012411D01*
X044938Y012387D01*
X044971Y012367D01*
X045007Y012350D01*
X045044Y012337D01*
X045082Y012328D01*
X045121Y012322D01*
X045160Y012320D01*
X045199Y012322D01*
X045238Y012328D01*
X045276Y012337D01*
X045313Y012350D01*
X045349Y012367D01*
X045382Y012387D01*
X045414Y012411D01*
X045443Y012437D01*
X045469Y012466D01*
X045493Y012498D01*
X045513Y012531D01*
X045530Y012567D01*
X045543Y012604D01*
X045552Y012642D01*
X045558Y012681D01*
X045560Y012720D01*
X046310Y012720D01*
X046310Y008720D01*
X048560Y008470D02*
X048560Y007970D01*
X048660Y007970D01*
X048660Y005220D01*
X048560Y005220D01*
X048560Y004720D01*
X048660Y004720D01*
X048660Y004220D01*
X052160Y004220D01*
X052160Y005970D01*
X052110Y005970D01*
X052110Y006470D01*
X052160Y006470D01*
X052160Y007420D01*
X051760Y007420D01*
X051660Y007420D01*
X051660Y004720D01*
X049160Y004720D01*
X049160Y011720D01*
X051660Y011720D01*
X051660Y010020D01*
X051660Y009420D01*
X051660Y009020D01*
X051760Y009020D01*
X052160Y009020D01*
X052160Y007420D01*
X051660Y007420D02*
X051360Y007420D01*
X051360Y009020D01*
X051660Y009020D01*
X051960Y009220D02*
X051960Y009420D01*
X051960Y010020D01*
X051760Y010020D01*
X051660Y010020D01*
X051960Y010020D02*
X051960Y010220D01*
X052160Y010370D01*
X052160Y012220D01*
X048660Y012220D01*
X048660Y011720D01*
X048560Y011720D01*
X048560Y011220D01*
X048660Y011220D01*
X048660Y008470D01*
X048560Y008470D01*
X051660Y009420D02*
X051760Y009420D01*
X051960Y009420D01*
X051960Y009220D02*
X052160Y009070D01*
X052160Y009020D01*
X051780Y012968D02*
X052780Y012968D01*
X052780Y013968D01*
X052780Y014968D01*
X052780Y015968D01*
X052780Y016968D01*
X052780Y017968D01*
X052780Y018968D01*
X051780Y018968D01*
X051780Y017968D01*
X051780Y016968D01*
X051780Y015968D01*
X051780Y014968D01*
X051780Y013968D01*
X051780Y012968D01*
X051780Y013968D02*
X052780Y013968D01*
X052780Y014968D02*
X051780Y014968D01*
X051780Y015968D02*
X052780Y015968D01*
X052780Y016968D02*
X051780Y016968D01*
X051780Y017968D02*
X052780Y017968D01*
X052160Y021220D02*
X048660Y021220D01*
X048660Y021720D01*
X048560Y021720D01*
X048560Y022220D01*
X048660Y022220D01*
X048660Y023970D01*
X048560Y023970D01*
X048560Y024470D01*
X048660Y024470D01*
X048660Y026220D01*
X048560Y026220D01*
X048560Y026720D01*
X048660Y026720D01*
X048660Y027220D01*
X052160Y027220D01*
X052160Y025020D01*
X051760Y025020D01*
X051660Y025020D01*
X051660Y026720D01*
X049160Y026720D01*
X049160Y021720D01*
X051660Y021720D01*
X051660Y023420D01*
X051760Y023420D01*
X052160Y023420D01*
X052160Y023220D01*
X052110Y023220D01*
X052110Y022720D01*
X052160Y022720D01*
X052160Y021220D01*
X052160Y023420D02*
X052160Y025020D01*
X051660Y025020D02*
X051360Y025020D01*
X051360Y023420D01*
X051660Y023420D01*
X048360Y023370D02*
X048360Y023220D01*
X048310Y023170D01*
X048310Y021270D01*
X048360Y021220D01*
X048360Y021070D01*
X048358Y021053D01*
X048354Y021036D01*
X048347Y021020D01*
X048337Y021006D01*
X048324Y020993D01*
X048310Y020983D01*
X048294Y020976D01*
X048277Y020972D01*
X048260Y020970D01*
X047560Y020970D01*
X047543Y020972D01*
X047526Y020976D01*
X047510Y020983D01*
X047496Y020993D01*
X047483Y021006D01*
X047473Y021020D01*
X047466Y021036D01*
X047462Y021053D01*
X047460Y021070D01*
X047460Y021220D01*
X047510Y021270D01*
X047510Y023170D01*
X047460Y023220D01*
X047460Y023370D01*
X047462Y023387D01*
X047466Y023404D01*
X047473Y023420D01*
X047483Y023434D01*
X047496Y023447D01*
X047510Y023457D01*
X047526Y023464D01*
X047543Y023468D01*
X047560Y023470D01*
X048260Y023470D01*
X048277Y023468D01*
X048294Y023464D01*
X048310Y023457D01*
X048324Y023447D01*
X048337Y023434D01*
X048347Y023420D01*
X048354Y023404D01*
X048358Y023387D01*
X048360Y023370D01*
X046710Y024783D02*
X046710Y019883D01*
X046360Y019883D01*
X046360Y019283D01*
X046710Y019283D01*
X046710Y018533D01*
X042610Y018533D01*
X042610Y019283D01*
X042960Y019283D01*
X042960Y019883D01*
X042610Y019883D01*
X042610Y024783D01*
X046710Y024783D01*
X046710Y026220D02*
X046710Y026420D01*
X046810Y026320D02*
X046610Y026320D01*
X046260Y026970D02*
X044560Y026970D01*
X044543Y026972D01*
X044526Y026976D01*
X044510Y026983D01*
X044496Y026993D01*
X044483Y027006D01*
X044473Y027020D01*
X044466Y027036D01*
X044462Y027053D01*
X044460Y027070D01*
X044460Y027870D01*
X044462Y027887D01*
X044466Y027904D01*
X044473Y027920D01*
X044483Y027934D01*
X044496Y027947D01*
X044510Y027957D01*
X044526Y027964D01*
X044543Y027968D01*
X044560Y027970D01*
X046260Y027970D01*
X046277Y027968D01*
X046294Y027964D01*
X046310Y027957D01*
X046324Y027947D01*
X046337Y027934D01*
X046347Y027920D01*
X046354Y027904D01*
X046358Y027887D01*
X046360Y027870D01*
X046360Y027070D01*
X046358Y027053D01*
X046354Y027036D01*
X046347Y027020D01*
X046337Y027006D01*
X046324Y026993D01*
X046310Y026983D01*
X046294Y026976D01*
X046277Y026972D01*
X046260Y026970D01*
X045560Y027470D02*
X045510Y027470D01*
X045310Y027470D02*
X045260Y027470D01*
X043946Y028070D02*
X043946Y029010D01*
X043946Y031610D01*
X043946Y031690D01*
X047876Y031690D01*
X047876Y031610D01*
X047876Y029010D01*
X047876Y028070D01*
X043946Y028070D01*
X043946Y029010D02*
X044576Y029010D01*
X045276Y029010D02*
X046546Y029010D01*
X047246Y029010D02*
X047876Y029010D01*
X046696Y031090D02*
X046698Y031118D01*
X046704Y031145D01*
X046713Y031171D01*
X046726Y031196D01*
X046743Y031219D01*
X046762Y031239D01*
X046784Y031256D01*
X046808Y031270D01*
X046834Y031280D01*
X046861Y031287D01*
X046889Y031290D01*
X046917Y031289D01*
X046944Y031284D01*
X046971Y031275D01*
X046996Y031263D01*
X047019Y031248D01*
X047040Y031229D01*
X047058Y031208D01*
X047073Y031184D01*
X047084Y031158D01*
X047092Y031132D01*
X047096Y031104D01*
X047096Y031076D01*
X047092Y031048D01*
X047084Y031022D01*
X047073Y030996D01*
X047058Y030972D01*
X047040Y030951D01*
X047019Y030932D01*
X046996Y030917D01*
X046971Y030905D01*
X046944Y030896D01*
X046917Y030891D01*
X046889Y030890D01*
X046861Y030893D01*
X046834Y030900D01*
X046808Y030910D01*
X046784Y030924D01*
X046762Y030941D01*
X046743Y030961D01*
X046726Y030984D01*
X046713Y031009D01*
X046704Y031035D01*
X046698Y031062D01*
X046696Y031090D01*
X047876Y031610D02*
X043946Y031610D01*
X044726Y031090D02*
X044728Y031118D01*
X044734Y031145D01*
X044743Y031171D01*
X044756Y031196D01*
X044773Y031219D01*
X044792Y031239D01*
X044814Y031256D01*
X044838Y031270D01*
X044864Y031280D01*
X044891Y031287D01*
X044919Y031290D01*
X044947Y031289D01*
X044974Y031284D01*
X045001Y031275D01*
X045026Y031263D01*
X045049Y031248D01*
X045070Y031229D01*
X045088Y031208D01*
X045103Y031184D01*
X045114Y031158D01*
X045122Y031132D01*
X045126Y031104D01*
X045126Y031076D01*
X045122Y031048D01*
X045114Y031022D01*
X045103Y030996D01*
X045088Y030972D01*
X045070Y030951D01*
X045049Y030932D01*
X045026Y030917D01*
X045001Y030905D01*
X044974Y030896D01*
X044947Y030891D01*
X044919Y030890D01*
X044891Y030893D01*
X044864Y030900D01*
X044838Y030910D01*
X044814Y030924D01*
X044792Y030941D01*
X044773Y030961D01*
X044756Y030984D01*
X044743Y031009D01*
X044734Y031035D01*
X044728Y031062D01*
X044726Y031090D01*
X042760Y029470D02*
X042758Y029425D01*
X042753Y029379D01*
X042745Y029335D01*
X042733Y029291D01*
X042717Y029248D01*
X042699Y029206D01*
X042677Y029166D01*
X042653Y029128D01*
X042626Y029092D01*
X042596Y029057D01*
X042563Y029026D01*
X042528Y028996D01*
X041560Y029470D02*
X041562Y029517D01*
X041568Y029565D01*
X041577Y029611D01*
X041590Y029657D01*
X041606Y029701D01*
X041627Y029745D01*
X041650Y029786D01*
X041676Y029825D01*
X041706Y029862D01*
X041739Y029897D01*
X041774Y029929D01*
X041811Y029958D01*
X041560Y029470D02*
X041562Y029424D01*
X041567Y029378D01*
X041576Y029332D01*
X041588Y029287D01*
X041604Y029244D01*
X041623Y029202D01*
X041646Y029161D01*
X041671Y029122D01*
X041699Y029086D01*
X041730Y029051D01*
X041764Y029019D01*
X041800Y028990D01*
X042760Y029470D02*
X042758Y029515D01*
X042753Y029561D01*
X042745Y029605D01*
X042733Y029649D01*
X042717Y029692D01*
X042699Y029734D01*
X042677Y029774D01*
X042653Y029812D01*
X042626Y029848D01*
X042596Y029883D01*
X042563Y029914D01*
X042528Y029944D01*
X042560Y027670D02*
X041760Y027670D01*
X041743Y027668D01*
X041726Y027664D01*
X041710Y027657D01*
X041696Y027647D01*
X041683Y027634D01*
X041673Y027620D01*
X041666Y027604D01*
X041662Y027587D01*
X041660Y027570D01*
X041660Y025870D01*
X041662Y025853D01*
X041666Y025836D01*
X041673Y025820D01*
X041683Y025806D01*
X041696Y025793D01*
X041710Y025783D01*
X041726Y025776D01*
X041743Y025772D01*
X041760Y025770D01*
X042560Y025770D01*
X042577Y025772D01*
X042594Y025776D01*
X042610Y025783D01*
X042624Y025793D01*
X042637Y025806D01*
X042647Y025820D01*
X042654Y025836D01*
X042658Y025853D01*
X042660Y025870D01*
X042660Y027570D01*
X042658Y027587D01*
X042654Y027604D01*
X042647Y027620D01*
X042637Y027634D01*
X042624Y027647D01*
X042610Y027657D01*
X042594Y027664D01*
X042577Y027668D01*
X042560Y027670D01*
X042160Y026870D02*
X042160Y026820D01*
X042160Y026620D02*
X042160Y026570D01*
X046410Y026720D02*
X046412Y026783D01*
X046418Y026845D01*
X046428Y026907D01*
X046441Y026969D01*
X046459Y027029D01*
X046480Y027088D01*
X046505Y027146D01*
X046534Y027202D01*
X046566Y027256D01*
X046601Y027308D01*
X046639Y027357D01*
X046681Y027405D01*
X046725Y027449D01*
X046773Y027491D01*
X046822Y027529D01*
X046874Y027564D01*
X046928Y027596D01*
X046984Y027625D01*
X047042Y027650D01*
X047101Y027671D01*
X047161Y027689D01*
X047223Y027702D01*
X047285Y027712D01*
X047347Y027718D01*
X047410Y027720D01*
X047473Y027718D01*
X047535Y027712D01*
X047597Y027702D01*
X047659Y027689D01*
X047719Y027671D01*
X047778Y027650D01*
X047836Y027625D01*
X047892Y027596D01*
X047946Y027564D01*
X047998Y027529D01*
X048047Y027491D01*
X048095Y027449D01*
X048139Y027405D01*
X048181Y027357D01*
X048219Y027308D01*
X048254Y027256D01*
X048286Y027202D01*
X048315Y027146D01*
X048340Y027088D01*
X048361Y027029D01*
X048379Y026969D01*
X048392Y026907D01*
X048402Y026845D01*
X048408Y026783D01*
X048410Y026720D01*
X048408Y026657D01*
X048402Y026595D01*
X048392Y026533D01*
X048379Y026471D01*
X048361Y026411D01*
X048340Y026352D01*
X048315Y026294D01*
X048286Y026238D01*
X048254Y026184D01*
X048219Y026132D01*
X048181Y026083D01*
X048139Y026035D01*
X048095Y025991D01*
X048047Y025949D01*
X047998Y025911D01*
X047946Y025876D01*
X047892Y025844D01*
X047836Y025815D01*
X047778Y025790D01*
X047719Y025769D01*
X047659Y025751D01*
X047597Y025738D01*
X047535Y025728D01*
X047473Y025722D01*
X047410Y025720D01*
X047347Y025722D01*
X047285Y025728D01*
X047223Y025738D01*
X047161Y025751D01*
X047101Y025769D01*
X047042Y025790D01*
X046984Y025815D01*
X046928Y025844D01*
X046874Y025876D01*
X046822Y025911D01*
X046773Y025949D01*
X046725Y025991D01*
X046681Y026035D01*
X046639Y026083D01*
X046601Y026132D01*
X046566Y026184D01*
X046534Y026238D01*
X046505Y026294D01*
X046480Y026352D01*
X046459Y026411D01*
X046441Y026471D01*
X046428Y026533D01*
X046418Y026595D01*
X046412Y026657D01*
X046410Y026720D01*
X043950Y019883D02*
X043952Y019936D01*
X043958Y019989D01*
X043968Y020041D01*
X043982Y020092D01*
X043999Y020142D01*
X044020Y020191D01*
X044045Y020238D01*
X044073Y020283D01*
X044105Y020326D01*
X044140Y020366D01*
X044177Y020403D01*
X044217Y020438D01*
X044260Y020470D01*
X044305Y020498D01*
X044352Y020523D01*
X044401Y020544D01*
X044451Y020561D01*
X044502Y020575D01*
X044554Y020585D01*
X044607Y020591D01*
X044660Y020593D01*
X044713Y020591D01*
X044766Y020585D01*
X044818Y020575D01*
X044869Y020561D01*
X044919Y020544D01*
X044968Y020523D01*
X045015Y020498D01*
X045060Y020470D01*
X045103Y020438D01*
X045143Y020403D01*
X045180Y020366D01*
X045215Y020326D01*
X045247Y020283D01*
X045275Y020238D01*
X045300Y020191D01*
X045321Y020142D01*
X045338Y020092D01*
X045352Y020041D01*
X045362Y019989D01*
X045368Y019936D01*
X045370Y019883D01*
X045368Y019830D01*
X045362Y019777D01*
X045352Y019725D01*
X045338Y019674D01*
X045321Y019624D01*
X045300Y019575D01*
X045275Y019528D01*
X045247Y019483D01*
X045215Y019440D01*
X045180Y019400D01*
X045143Y019363D01*
X045103Y019328D01*
X045060Y019296D01*
X045015Y019268D01*
X044968Y019243D01*
X044919Y019222D01*
X044869Y019205D01*
X044818Y019191D01*
X044766Y019181D01*
X044713Y019175D01*
X044660Y019173D01*
X044607Y019175D01*
X044554Y019181D01*
X044502Y019191D01*
X044451Y019205D01*
X044401Y019222D01*
X044352Y019243D01*
X044305Y019268D01*
X044260Y019296D01*
X044217Y019328D01*
X044177Y019363D01*
X044140Y019400D01*
X044105Y019440D01*
X044073Y019483D01*
X044045Y019528D01*
X044020Y019575D01*
X043999Y019624D01*
X043982Y019674D01*
X043968Y019725D01*
X043958Y019777D01*
X043952Y019830D01*
X043950Y019883D01*
X043810Y016920D02*
X043010Y016920D01*
X042993Y016918D01*
X042976Y016914D01*
X042960Y016907D01*
X042946Y016897D01*
X042933Y016884D01*
X042923Y016870D01*
X042916Y016854D01*
X042912Y016837D01*
X042910Y016820D01*
X042910Y015120D01*
X042912Y015103D01*
X042916Y015086D01*
X042923Y015070D01*
X042933Y015056D01*
X042946Y015043D01*
X042960Y015033D01*
X042976Y015026D01*
X042993Y015022D01*
X043010Y015020D01*
X043810Y015020D01*
X043827Y015022D01*
X043844Y015026D01*
X043860Y015033D01*
X043874Y015043D01*
X043887Y015056D01*
X043897Y015070D01*
X043904Y015086D01*
X043908Y015103D01*
X043910Y015120D01*
X043910Y016820D01*
X043908Y016837D01*
X043904Y016854D01*
X043897Y016870D01*
X043887Y016884D01*
X043874Y016897D01*
X043860Y016907D01*
X043844Y016914D01*
X043827Y016918D01*
X043810Y016920D01*
X043410Y016120D02*
X043410Y016070D01*
X043410Y015870D02*
X043410Y015820D01*
X042410Y015120D02*
X042410Y016820D01*
X042408Y016837D01*
X042404Y016854D01*
X042397Y016870D01*
X042387Y016884D01*
X042374Y016897D01*
X042360Y016907D01*
X042344Y016914D01*
X042327Y016918D01*
X042310Y016920D01*
X041510Y016920D01*
X041493Y016918D01*
X041476Y016914D01*
X041460Y016907D01*
X041446Y016897D01*
X041433Y016884D01*
X041423Y016870D01*
X041416Y016854D01*
X041412Y016837D01*
X041410Y016820D01*
X041410Y015120D01*
X041412Y015103D01*
X041416Y015086D01*
X041423Y015070D01*
X041433Y015056D01*
X041446Y015043D01*
X041460Y015033D01*
X041476Y015026D01*
X041493Y015022D01*
X041510Y015020D01*
X042310Y015020D01*
X042327Y015022D01*
X042344Y015026D01*
X042360Y015033D01*
X042374Y015043D01*
X042387Y015056D01*
X042397Y015070D01*
X042404Y015086D01*
X042408Y015103D01*
X042410Y015120D01*
X041910Y015820D02*
X041910Y015870D01*
X041910Y016070D02*
X041910Y016120D01*
X044310Y013970D02*
X046010Y013970D01*
X046027Y013968D01*
X046044Y013964D01*
X046060Y013957D01*
X046074Y013947D01*
X046087Y013934D01*
X046097Y013920D01*
X046104Y013904D01*
X046108Y013887D01*
X046110Y013870D01*
X046110Y013070D01*
X046108Y013053D01*
X046104Y013036D01*
X046097Y013020D01*
X046087Y013006D01*
X046074Y012993D01*
X046060Y012983D01*
X046044Y012976D01*
X046027Y012972D01*
X046010Y012970D01*
X044310Y012970D01*
X044293Y012972D01*
X044276Y012976D01*
X044260Y012983D01*
X044246Y012993D01*
X044233Y013006D01*
X044223Y013020D01*
X044216Y013036D01*
X044212Y013053D01*
X044210Y013070D01*
X044210Y013870D01*
X044212Y013887D01*
X044216Y013904D01*
X044223Y013920D01*
X044233Y013934D01*
X044246Y013947D01*
X044260Y013957D01*
X044276Y013964D01*
X044293Y013968D01*
X044310Y013970D01*
X045010Y013470D02*
X045060Y013470D01*
X045260Y013470D02*
X045310Y013470D01*
X036660Y013820D02*
X036660Y012120D01*
X036658Y012103D01*
X036654Y012086D01*
X036647Y012070D01*
X036637Y012056D01*
X036624Y012043D01*
X036610Y012033D01*
X036594Y012026D01*
X036577Y012022D01*
X036560Y012020D01*
X035760Y012020D01*
X035743Y012022D01*
X035726Y012026D01*
X035710Y012033D01*
X035696Y012043D01*
X035683Y012056D01*
X035673Y012070D01*
X035666Y012086D01*
X035662Y012103D01*
X035660Y012120D01*
X035660Y013820D01*
X035662Y013837D01*
X035666Y013854D01*
X035673Y013870D01*
X035683Y013884D01*
X035696Y013897D01*
X035710Y013907D01*
X035726Y013914D01*
X035743Y013918D01*
X035760Y013920D01*
X036560Y013920D01*
X036560Y014020D02*
X035760Y014020D01*
X035743Y014022D01*
X035726Y014026D01*
X035710Y014033D01*
X035696Y014043D01*
X035683Y014056D01*
X035673Y014070D01*
X035666Y014086D01*
X035662Y014103D01*
X035660Y014120D01*
X035660Y015820D01*
X035662Y015837D01*
X035666Y015854D01*
X035673Y015870D01*
X035683Y015884D01*
X035696Y015897D01*
X035710Y015907D01*
X035726Y015914D01*
X035743Y015918D01*
X035760Y015920D01*
X036560Y015920D01*
X036577Y015918D01*
X036594Y015914D01*
X036610Y015907D01*
X036624Y015897D01*
X036637Y015884D01*
X036647Y015870D01*
X036654Y015854D01*
X036658Y015837D01*
X036660Y015820D01*
X036660Y014120D01*
X036658Y014103D01*
X036654Y014086D01*
X036647Y014070D01*
X036637Y014056D01*
X036624Y014043D01*
X036610Y014033D01*
X036594Y014026D01*
X036577Y014022D01*
X036560Y014020D01*
X036560Y013920D02*
X036577Y013918D01*
X036594Y013914D01*
X036610Y013907D01*
X036624Y013897D01*
X036637Y013884D01*
X036647Y013870D01*
X036654Y013854D01*
X036658Y013837D01*
X036660Y013820D01*
X036160Y013120D02*
X036160Y013070D01*
X036160Y012870D02*
X036160Y012820D01*
X034960Y012770D02*
X034960Y015170D01*
X034958Y015226D01*
X034952Y015281D01*
X034943Y015336D01*
X034929Y015391D01*
X034912Y015444D01*
X034891Y015495D01*
X034866Y015546D01*
X034838Y015594D01*
X034807Y015640D01*
X034773Y015684D01*
X034735Y015726D01*
X034695Y015765D01*
X034653Y015800D01*
X034607Y015833D01*
X034560Y015863D01*
X034511Y015889D01*
X034460Y015912D01*
X034407Y015931D01*
X034354Y015946D01*
X034299Y015958D01*
X034244Y015966D01*
X034188Y015970D01*
X034132Y015970D01*
X034076Y015966D01*
X034021Y015958D01*
X033966Y015946D01*
X033913Y015931D01*
X033860Y015912D01*
X033809Y015889D01*
X033760Y015863D01*
X033713Y015833D01*
X033667Y015800D01*
X033625Y015765D01*
X033585Y015726D01*
X033547Y015684D01*
X033513Y015640D01*
X033482Y015594D01*
X033454Y015546D01*
X033429Y015495D01*
X033408Y015444D01*
X033391Y015391D01*
X033377Y015336D01*
X033368Y015281D01*
X033362Y015226D01*
X033360Y015170D01*
X033360Y012770D01*
X033362Y012714D01*
X033368Y012659D01*
X033377Y012604D01*
X033391Y012549D01*
X033408Y012496D01*
X033429Y012445D01*
X033454Y012394D01*
X033482Y012346D01*
X033513Y012300D01*
X033547Y012256D01*
X033585Y012214D01*
X033625Y012175D01*
X033667Y012140D01*
X033713Y012107D01*
X033760Y012077D01*
X033809Y012051D01*
X033860Y012028D01*
X033913Y012009D01*
X033966Y011994D01*
X034021Y011982D01*
X034076Y011974D01*
X034132Y011970D01*
X034188Y011970D01*
X034244Y011974D01*
X034299Y011982D01*
X034354Y011994D01*
X034407Y012009D01*
X034460Y012028D01*
X034511Y012051D01*
X034560Y012077D01*
X034607Y012107D01*
X034653Y012140D01*
X034695Y012175D01*
X034735Y012214D01*
X034773Y012256D01*
X034807Y012300D01*
X034838Y012346D01*
X034866Y012394D01*
X034891Y012445D01*
X034912Y012496D01*
X034929Y012549D01*
X034943Y012604D01*
X034952Y012659D01*
X034958Y012714D01*
X034960Y012770D01*
X034160Y013420D02*
X034160Y013700D01*
X034560Y013700D01*
X034560Y013840D02*
X034560Y014090D01*
X033760Y014090D01*
X033760Y013840D01*
X034560Y013840D01*
X034560Y014240D02*
X034160Y014240D01*
X034160Y014520D01*
X034160Y014240D02*
X033760Y014240D01*
X033760Y013700D02*
X034160Y013700D01*
X036160Y014820D02*
X036160Y014870D01*
X036160Y015070D02*
X036160Y015120D01*
X036560Y016020D02*
X035760Y016020D01*
X035743Y016022D01*
X035726Y016026D01*
X035710Y016033D01*
X035696Y016043D01*
X035683Y016056D01*
X035673Y016070D01*
X035666Y016086D01*
X035662Y016103D01*
X035660Y016120D01*
X035660Y017820D01*
X035662Y017837D01*
X035666Y017854D01*
X035673Y017870D01*
X035683Y017884D01*
X035696Y017897D01*
X035710Y017907D01*
X035726Y017914D01*
X035743Y017918D01*
X035760Y017920D01*
X036560Y017920D01*
X036577Y017918D01*
X036594Y017914D01*
X036610Y017907D01*
X036624Y017897D01*
X036637Y017884D01*
X036647Y017870D01*
X036654Y017854D01*
X036658Y017837D01*
X036660Y017820D01*
X036660Y016120D01*
X036658Y016103D01*
X036654Y016086D01*
X036647Y016070D01*
X036637Y016056D01*
X036624Y016043D01*
X036610Y016033D01*
X036594Y016026D01*
X036577Y016022D01*
X036560Y016020D01*
X036160Y016820D02*
X036160Y016870D01*
X036160Y017070D02*
X036160Y017120D01*
X034660Y017220D02*
X034660Y016720D01*
X034410Y016470D01*
X033910Y016470D01*
X033660Y016720D01*
X033660Y017220D01*
X033910Y017470D01*
X033660Y017720D01*
X033660Y018220D01*
X033910Y018470D01*
X034410Y018470D01*
X034660Y018220D01*
X034660Y017720D01*
X034410Y017470D01*
X034660Y017220D01*
X034410Y017470D02*
X033910Y017470D01*
X039360Y004370D02*
X040960Y004370D01*
X040977Y004368D01*
X040994Y004364D01*
X041010Y004357D01*
X041024Y004347D01*
X041037Y004334D01*
X041047Y004320D01*
X041054Y004304D01*
X041058Y004287D01*
X041060Y004270D01*
X041060Y003670D01*
X041058Y003653D01*
X041054Y003636D01*
X041047Y003620D01*
X041037Y003606D01*
X041024Y003593D01*
X041010Y003583D01*
X040994Y003576D01*
X040977Y003572D01*
X040960Y003570D01*
X039360Y003570D01*
X039343Y003572D01*
X039326Y003576D01*
X039310Y003583D01*
X039296Y003593D01*
X039283Y003606D01*
X039273Y003620D01*
X039266Y003636D01*
X039262Y003653D01*
X039260Y003670D01*
X039260Y004270D01*
X039262Y004287D01*
X039266Y004304D01*
X039273Y004320D01*
X039283Y004334D01*
X039296Y004347D01*
X039310Y004357D01*
X039326Y004364D01*
X039343Y004368D01*
X039360Y004370D01*
X039910Y003970D02*
X040160Y003970D01*
X040160Y003720D01*
X040160Y003970D02*
X040160Y004220D01*
X040160Y003970D02*
X040560Y004220D01*
X040560Y003720D01*
X040160Y003970D01*
X040760Y003970D01*
X041660Y002670D02*
X041810Y002670D01*
X041827Y002668D01*
X041844Y002664D01*
X041860Y002657D01*
X041874Y002647D01*
X041887Y002634D01*
X041897Y002620D01*
X041904Y002604D01*
X041908Y002587D01*
X041910Y002570D01*
X041910Y001870D01*
X041908Y001853D01*
X041904Y001836D01*
X041897Y001820D01*
X041887Y001806D01*
X041874Y001793D01*
X041860Y001783D01*
X041844Y001776D01*
X041827Y001772D01*
X041810Y001770D01*
X041660Y001770D01*
X041610Y001820D01*
X039710Y001820D01*
X039660Y001770D01*
X039510Y001770D01*
X039493Y001772D01*
X039476Y001776D01*
X039460Y001783D01*
X039446Y001793D01*
X039433Y001806D01*
X039423Y001820D01*
X039416Y001836D01*
X039412Y001853D01*
X039410Y001870D01*
X039410Y002570D01*
X039412Y002587D01*
X039416Y002604D01*
X039423Y002620D01*
X039433Y002634D01*
X039446Y002647D01*
X039460Y002657D01*
X039476Y002664D01*
X039493Y002668D01*
X039510Y002670D01*
X039660Y002670D01*
X039710Y002620D01*
X041610Y002620D01*
X041660Y002670D01*
X045009Y001982D02*
X045046Y002011D01*
X045081Y002043D01*
X045114Y002078D01*
X045144Y002115D01*
X045170Y002154D01*
X045193Y002195D01*
X045214Y002239D01*
X045230Y002283D01*
X045243Y002329D01*
X045252Y002375D01*
X045258Y002423D01*
X045260Y002470D01*
X044292Y002944D02*
X044257Y002914D01*
X044224Y002883D01*
X044194Y002848D01*
X044167Y002812D01*
X044143Y002774D01*
X044121Y002734D01*
X044103Y002692D01*
X044087Y002649D01*
X044075Y002605D01*
X044067Y002561D01*
X044062Y002515D01*
X044060Y002470D01*
X045020Y002950D02*
X045056Y002921D01*
X045090Y002889D01*
X045121Y002854D01*
X045149Y002818D01*
X045174Y002779D01*
X045197Y002738D01*
X045216Y002696D01*
X045232Y002653D01*
X045244Y002608D01*
X045253Y002562D01*
X045258Y002516D01*
X045260Y002470D01*
X044292Y001996D02*
X044257Y002026D01*
X044224Y002057D01*
X044194Y002092D01*
X044167Y002128D01*
X044143Y002166D01*
X044121Y002206D01*
X044103Y002248D01*
X044087Y002291D01*
X044075Y002335D01*
X044067Y002379D01*
X044062Y002425D01*
X044060Y002470D01*
X047028Y001996D02*
X047063Y002026D01*
X047096Y002057D01*
X047126Y002092D01*
X047153Y002128D01*
X047177Y002166D01*
X047199Y002206D01*
X047217Y002248D01*
X047233Y002291D01*
X047245Y002335D01*
X047253Y002379D01*
X047258Y002425D01*
X047260Y002470D01*
X046300Y001990D02*
X046264Y002019D01*
X046230Y002051D01*
X046199Y002086D01*
X046171Y002122D01*
X046146Y002161D01*
X046123Y002202D01*
X046104Y002244D01*
X046088Y002287D01*
X046076Y002332D01*
X046067Y002378D01*
X046062Y002424D01*
X046060Y002470D01*
X047028Y002944D02*
X047063Y002914D01*
X047096Y002883D01*
X047126Y002848D01*
X047153Y002812D01*
X047177Y002774D01*
X047199Y002734D01*
X047217Y002692D01*
X047233Y002649D01*
X047245Y002605D01*
X047253Y002561D01*
X047258Y002515D01*
X047260Y002470D01*
X046311Y002958D02*
X046274Y002929D01*
X046239Y002897D01*
X046206Y002862D01*
X046176Y002825D01*
X046150Y002786D01*
X046127Y002745D01*
X046106Y002701D01*
X046090Y002657D01*
X046077Y002611D01*
X046068Y002565D01*
X046062Y002517D01*
X046060Y002470D01*
X038160Y002470D02*
X038160Y001970D01*
X037910Y001720D01*
X037410Y001720D01*
X037160Y001970D01*
X036910Y001720D01*
X036410Y001720D01*
X036160Y001970D01*
X036160Y002470D01*
X036410Y002720D01*
X036910Y002720D01*
X037160Y002470D01*
X037410Y002720D01*
X037910Y002720D01*
X038160Y002470D01*
X037160Y002470D02*
X037160Y001970D01*
X034910Y001870D02*
X034910Y002570D01*
X034908Y002587D01*
X034904Y002604D01*
X034897Y002620D01*
X034887Y002634D01*
X034874Y002647D01*
X034860Y002657D01*
X034844Y002664D01*
X034827Y002668D01*
X034810Y002670D01*
X034660Y002670D01*
X034610Y002620D01*
X032710Y002620D01*
X032660Y002670D01*
X032510Y002670D01*
X032493Y002668D01*
X032476Y002664D01*
X032460Y002657D01*
X032446Y002647D01*
X032433Y002634D01*
X032423Y002620D01*
X032416Y002604D01*
X032412Y002587D01*
X032410Y002570D01*
X032410Y001870D01*
X032412Y001853D01*
X032416Y001836D01*
X032423Y001820D01*
X032433Y001806D01*
X032446Y001793D01*
X032460Y001783D01*
X032476Y001776D01*
X032493Y001772D01*
X032510Y001770D01*
X032660Y001770D01*
X032710Y001820D01*
X034610Y001820D01*
X034660Y001770D01*
X034810Y001770D01*
X034827Y001772D01*
X034844Y001776D01*
X034860Y001783D01*
X034874Y001793D01*
X034887Y001806D01*
X034897Y001820D01*
X034904Y001836D01*
X034908Y001853D01*
X034910Y001870D01*
X031160Y001970D02*
X030910Y001720D01*
X030410Y001720D01*
X030160Y001970D01*
X029910Y001720D01*
X029410Y001720D01*
X029160Y001970D01*
X029160Y002470D01*
X029410Y002720D01*
X029910Y002720D01*
X030160Y002470D01*
X030410Y002720D01*
X030910Y002720D01*
X031160Y002470D01*
X031160Y001970D01*
X030160Y001970D02*
X030160Y002470D01*
X027910Y002570D02*
X027910Y001870D01*
X027908Y001853D01*
X027904Y001836D01*
X027897Y001820D01*
X027887Y001806D01*
X027874Y001793D01*
X027860Y001783D01*
X027844Y001776D01*
X027827Y001772D01*
X027810Y001770D01*
X027660Y001770D01*
X027610Y001820D01*
X025710Y001820D01*
X025660Y001770D01*
X025510Y001770D01*
X025493Y001772D01*
X025476Y001776D01*
X025460Y001783D01*
X025446Y001793D01*
X025433Y001806D01*
X025423Y001820D01*
X025416Y001836D01*
X025412Y001853D01*
X025410Y001870D01*
X025410Y002570D01*
X025412Y002587D01*
X025416Y002604D01*
X025423Y002620D01*
X025433Y002634D01*
X025446Y002647D01*
X025460Y002657D01*
X025476Y002664D01*
X025493Y002668D01*
X025510Y002670D01*
X025660Y002670D01*
X025710Y002620D01*
X027610Y002620D01*
X027660Y002670D01*
X027810Y002670D01*
X027827Y002668D01*
X027844Y002664D01*
X027860Y002657D01*
X027874Y002647D01*
X027887Y002634D01*
X027897Y002620D01*
X027904Y002604D01*
X027908Y002587D01*
X027910Y002570D01*
X024160Y002470D02*
X024160Y001970D01*
X023910Y001720D01*
X023410Y001720D01*
X023160Y001970D01*
X022910Y001720D01*
X022410Y001720D01*
X022160Y001970D01*
X022160Y002470D01*
X022410Y002720D01*
X022910Y002720D01*
X023160Y002470D01*
X023410Y002720D01*
X023910Y002720D01*
X024160Y002470D01*
X023160Y002470D02*
X023160Y001970D01*
D12*
X023134Y001475D02*
X022984Y001475D01*
X023059Y001475D02*
X023059Y001100D01*
X022984Y001025D01*
X022909Y001025D01*
X022834Y001100D01*
X023295Y001025D02*
X023295Y001475D01*
X023520Y001475D01*
X023595Y001400D01*
X023595Y001100D01*
X023520Y001025D01*
X023295Y001025D01*
X023755Y001100D02*
X023830Y001025D01*
X023980Y001025D01*
X024055Y001100D01*
X024055Y001175D01*
X023980Y001250D01*
X023905Y001250D01*
X023980Y001250D02*
X024055Y001325D01*
X024055Y001400D01*
X023980Y001475D01*
X023830Y001475D01*
X023755Y001400D01*
X025985Y001970D02*
X025985Y002420D01*
X026211Y002420D01*
X026286Y002345D01*
X026286Y002195D01*
X026211Y002120D01*
X025985Y002120D01*
X026135Y002120D02*
X026286Y001970D01*
X026446Y001970D02*
X026671Y001970D01*
X026746Y002045D01*
X026746Y002345D01*
X026671Y002420D01*
X026446Y002420D01*
X026446Y001970D01*
X026906Y001970D02*
X026906Y002045D01*
X027206Y002345D01*
X027206Y002420D01*
X026906Y002420D01*
X029834Y001100D02*
X029909Y001025D01*
X029984Y001025D01*
X030059Y001100D01*
X030059Y001475D01*
X029984Y001475D02*
X030134Y001475D01*
X030295Y001475D02*
X030520Y001475D01*
X030595Y001400D01*
X030595Y001100D01*
X030520Y001025D01*
X030295Y001025D01*
X030295Y001475D01*
X030755Y001400D02*
X030830Y001475D01*
X030980Y001475D01*
X031055Y001400D01*
X031055Y001325D01*
X030755Y001025D01*
X031055Y001025D01*
X032985Y001970D02*
X032985Y002420D01*
X033211Y002420D01*
X033286Y002345D01*
X033286Y002195D01*
X033211Y002120D01*
X032985Y002120D01*
X033135Y002120D02*
X033286Y001970D01*
X033446Y001970D02*
X033671Y001970D01*
X033746Y002045D01*
X033746Y002345D01*
X033671Y002420D01*
X033446Y002420D01*
X033446Y001970D01*
X033906Y002045D02*
X033981Y001970D01*
X034131Y001970D01*
X034206Y002045D01*
X034206Y002120D01*
X034131Y002195D01*
X033906Y002195D01*
X033906Y002045D01*
X033906Y002195D02*
X034056Y002345D01*
X034206Y002420D01*
X036834Y001100D02*
X036909Y001025D01*
X036984Y001025D01*
X037059Y001100D01*
X037059Y001475D01*
X036984Y001475D02*
X037134Y001475D01*
X037295Y001475D02*
X037520Y001475D01*
X037595Y001400D01*
X037595Y001100D01*
X037520Y001025D01*
X037295Y001025D01*
X037295Y001475D01*
X037755Y001325D02*
X037905Y001475D01*
X037905Y001025D01*
X037755Y001025D02*
X038055Y001025D01*
X039985Y001970D02*
X039985Y002420D01*
X040211Y002420D01*
X040286Y002345D01*
X040286Y002195D01*
X040211Y002120D01*
X039985Y002120D01*
X040135Y002120D02*
X040286Y001970D01*
X040446Y001970D02*
X040446Y002420D01*
X040671Y002420D01*
X040746Y002345D01*
X040746Y002045D01*
X040671Y001970D01*
X040446Y001970D01*
X040906Y002045D02*
X040981Y001970D01*
X041131Y001970D01*
X041206Y002045D01*
X041206Y002195D01*
X041131Y002270D01*
X041056Y002270D01*
X040906Y002195D01*
X040906Y002420D01*
X041206Y002420D01*
X041231Y004495D02*
X041231Y004945D01*
X041081Y004795D01*
X040921Y004870D02*
X040846Y004945D01*
X040621Y004945D01*
X040621Y004495D01*
X040846Y004495D01*
X040921Y004570D01*
X040921Y004870D01*
X041081Y004495D02*
X041381Y004495D01*
X040461Y004570D02*
X040461Y004870D01*
X040386Y004945D01*
X040160Y004945D01*
X040160Y004495D01*
X040386Y004495D01*
X040461Y004570D01*
X038635Y004720D02*
X038635Y004945D01*
X038560Y005020D01*
X038260Y005020D01*
X038185Y004945D01*
X038185Y004720D01*
X038635Y004720D01*
X038635Y005180D02*
X038635Y005406D01*
X038560Y005481D01*
X038260Y005481D01*
X038185Y005406D01*
X038185Y005180D01*
X038635Y005180D01*
X038635Y005641D02*
X038335Y005941D01*
X038260Y005941D01*
X038185Y005866D01*
X038185Y005716D01*
X038260Y005641D01*
X038635Y005641D02*
X038635Y005941D01*
X036910Y006016D02*
X036910Y005716D01*
X036910Y005866D02*
X036460Y005866D01*
X036610Y005716D01*
X036535Y005556D02*
X036460Y005481D01*
X036460Y005255D01*
X036910Y005255D01*
X036910Y005481D01*
X036835Y005556D01*
X036535Y005556D01*
X036535Y005095D02*
X036685Y005095D01*
X036760Y005020D01*
X036760Y004795D01*
X036760Y004945D02*
X036910Y005095D01*
X036910Y004795D02*
X036460Y004795D01*
X036460Y005020D01*
X036535Y005095D01*
X035910Y005095D02*
X035760Y004945D01*
X035760Y005020D02*
X035760Y004795D01*
X035910Y004795D02*
X035460Y004795D01*
X035460Y005020D01*
X035535Y005095D01*
X035685Y005095D01*
X035760Y005020D01*
X035910Y005255D02*
X035910Y005481D01*
X035835Y005556D01*
X035535Y005556D01*
X035460Y005481D01*
X035460Y005255D01*
X035910Y005255D01*
X035910Y005716D02*
X035610Y006016D01*
X035535Y006016D01*
X035460Y005941D01*
X035460Y005791D01*
X035535Y005716D01*
X035910Y005716D02*
X035910Y006016D01*
X034910Y005941D02*
X034460Y005941D01*
X034685Y005716D01*
X034685Y006016D01*
X034535Y005556D02*
X034460Y005481D01*
X034460Y005255D01*
X034910Y005255D01*
X034910Y005481D01*
X034835Y005556D01*
X034535Y005556D01*
X034535Y005095D02*
X034685Y005095D01*
X034760Y005020D01*
X034760Y004795D01*
X034760Y004945D02*
X034910Y005095D01*
X034910Y004795D02*
X034460Y004795D01*
X034460Y005020D01*
X034535Y005095D01*
X033910Y005095D02*
X033760Y004945D01*
X033760Y005020D02*
X033760Y004795D01*
X033910Y004795D02*
X033460Y004795D01*
X033460Y005020D01*
X033535Y005095D01*
X033685Y005095D01*
X033760Y005020D01*
X033910Y005255D02*
X033910Y005481D01*
X033835Y005556D01*
X033535Y005556D01*
X033460Y005481D01*
X033460Y005255D01*
X033910Y005255D01*
X033835Y005716D02*
X033910Y005791D01*
X033910Y005941D01*
X033835Y006016D01*
X033760Y006016D01*
X033685Y005941D01*
X033685Y005866D01*
X033685Y005941D02*
X033610Y006016D01*
X033535Y006016D01*
X033460Y005941D01*
X033460Y005791D01*
X033535Y005716D01*
X032925Y006395D02*
X032625Y006395D01*
X032925Y006695D01*
X032925Y006770D01*
X032850Y006845D01*
X032700Y006845D01*
X032625Y006770D01*
X032465Y006770D02*
X032390Y006845D01*
X032165Y006845D01*
X032165Y006395D01*
X032390Y006395D01*
X032465Y006470D01*
X032465Y006770D01*
X032004Y006770D02*
X031929Y006845D01*
X031779Y006845D01*
X031704Y006770D01*
X031704Y006470D01*
X031779Y006395D01*
X031929Y006395D01*
X032004Y006470D01*
X036035Y010595D02*
X036335Y010595D01*
X036410Y010670D01*
X036410Y010820D01*
X036335Y010895D01*
X036335Y011055D02*
X036410Y011130D01*
X036410Y011281D01*
X036335Y011356D01*
X036035Y011356D01*
X035960Y011281D01*
X035960Y011130D01*
X036035Y011055D01*
X036335Y011055D01*
X036260Y011206D02*
X036410Y011356D01*
X036410Y011516D02*
X036410Y011816D01*
X036410Y011666D02*
X035960Y011666D01*
X036110Y011516D01*
X036035Y010895D02*
X035960Y010820D01*
X035960Y010670D01*
X036035Y010595D01*
X038285Y008470D02*
X038360Y008545D01*
X038511Y008545D01*
X038586Y008470D01*
X038746Y008545D02*
X038971Y008545D01*
X039046Y008470D01*
X039046Y008170D01*
X038971Y008095D01*
X038746Y008095D01*
X038746Y008545D01*
X038586Y008170D02*
X038511Y008095D01*
X038360Y008095D01*
X038285Y008170D01*
X038285Y008470D01*
X039206Y008395D02*
X039356Y008545D01*
X039356Y008095D01*
X039206Y008095D02*
X039506Y008095D01*
X043460Y006441D02*
X043460Y006291D01*
X043535Y006216D01*
X043610Y006216D01*
X043685Y006291D01*
X043685Y006516D01*
X043535Y006516D02*
X043460Y006441D01*
X043535Y006516D02*
X043835Y006516D01*
X043910Y006441D01*
X043910Y006291D01*
X043835Y006216D01*
X043835Y006056D02*
X043535Y006056D01*
X043460Y005981D01*
X043460Y005755D01*
X043910Y005755D01*
X043910Y005981D01*
X043835Y006056D01*
X043910Y005595D02*
X043760Y005445D01*
X043760Y005520D02*
X043760Y005295D01*
X043910Y005295D02*
X043460Y005295D01*
X043460Y005520D01*
X043535Y005595D01*
X043685Y005595D01*
X043760Y005520D01*
X044460Y005505D02*
X044910Y005505D01*
X044910Y005806D01*
X044910Y005966D02*
X044910Y006191D01*
X044835Y006266D01*
X044535Y006266D01*
X044460Y006191D01*
X044460Y005966D01*
X044910Y005966D01*
X044910Y006426D02*
X044610Y006726D01*
X044535Y006726D01*
X044460Y006651D01*
X044460Y006501D01*
X044535Y006426D01*
X044910Y006426D02*
X044910Y006726D01*
X045460Y006576D02*
X045910Y006576D01*
X045910Y006426D02*
X045910Y006726D01*
X045610Y006426D02*
X045460Y006576D01*
X045535Y006266D02*
X045460Y006191D01*
X045460Y005966D01*
X045910Y005966D01*
X045910Y006191D01*
X045835Y006266D01*
X045535Y006266D01*
X045910Y005806D02*
X045910Y005505D01*
X045460Y005505D01*
X045535Y005345D02*
X045685Y005345D01*
X045760Y005270D01*
X045760Y005045D01*
X045760Y005195D02*
X045910Y005345D01*
X045910Y005045D02*
X045460Y005045D01*
X045460Y005270D01*
X045535Y005345D01*
X044910Y005345D02*
X044760Y005195D01*
X044760Y005270D02*
X044760Y005045D01*
X044910Y005045D02*
X044460Y005045D01*
X044460Y005270D01*
X044535Y005345D01*
X044685Y005345D01*
X044760Y005270D01*
X046460Y005295D02*
X046460Y005520D01*
X046535Y005595D01*
X046685Y005595D01*
X046760Y005520D01*
X046760Y005295D01*
X046760Y005445D02*
X046910Y005595D01*
X046910Y005755D02*
X046910Y005981D01*
X046835Y006056D01*
X046535Y006056D01*
X046460Y005981D01*
X046460Y005755D01*
X046910Y005755D01*
X046910Y005295D02*
X046460Y005295D01*
X046535Y006216D02*
X046610Y006216D01*
X046685Y006291D01*
X046685Y006441D01*
X046760Y006516D01*
X046835Y006516D01*
X046910Y006441D01*
X046910Y006291D01*
X046835Y006216D01*
X046760Y006216D01*
X046685Y006291D01*
X046685Y006441D02*
X046610Y006516D01*
X046535Y006516D01*
X046460Y006441D01*
X046460Y006291D01*
X046535Y006216D01*
X049685Y005470D02*
X049685Y005320D01*
X049760Y005245D01*
X049685Y005470D02*
X049760Y005545D01*
X049835Y005545D01*
X050135Y005245D01*
X050135Y005545D01*
X050685Y005395D02*
X051135Y005395D01*
X051135Y005245D02*
X051135Y005545D01*
X050835Y005245D02*
X050685Y005395D01*
X051685Y007845D02*
X051535Y007995D01*
X051985Y007995D01*
X051985Y007845D02*
X051985Y008145D01*
X051910Y008305D02*
X051610Y008606D01*
X051910Y008606D01*
X051985Y008531D01*
X051985Y008380D01*
X051910Y008305D01*
X051610Y008305D01*
X051535Y008380D01*
X051535Y008531D01*
X051610Y008606D01*
X045885Y010131D02*
X045885Y010281D01*
X045885Y010206D02*
X045435Y010206D01*
X045435Y010131D02*
X045435Y010281D01*
X045510Y010438D02*
X045810Y010438D01*
X045885Y010513D01*
X045885Y010663D01*
X045810Y010738D01*
X045885Y010898D02*
X045435Y010898D01*
X045435Y011124D01*
X045510Y011199D01*
X045810Y011199D01*
X045885Y011124D01*
X045885Y010898D01*
X045510Y010738D02*
X045435Y010663D01*
X045435Y010513D01*
X045510Y010438D01*
X045531Y014220D02*
X045456Y014295D01*
X045531Y014220D02*
X045681Y014220D01*
X045756Y014295D01*
X045756Y014370D01*
X045681Y014445D01*
X045606Y014445D01*
X045681Y014445D02*
X045756Y014520D01*
X045756Y014595D01*
X045681Y014670D01*
X045531Y014670D01*
X045456Y014595D01*
X045296Y014595D02*
X045221Y014670D01*
X044996Y014670D01*
X044996Y014220D01*
X045221Y014220D01*
X045296Y014295D01*
X045296Y014595D01*
X044836Y014595D02*
X044761Y014670D01*
X044610Y014670D01*
X044535Y014595D01*
X044535Y014295D01*
X044610Y014220D01*
X044761Y014220D01*
X044836Y014295D01*
X044460Y015220D02*
X044160Y015220D01*
X044085Y015295D01*
X044085Y015445D01*
X044160Y015520D01*
X044085Y015680D02*
X044235Y015831D01*
X044085Y015981D01*
X044535Y015981D01*
X044535Y016141D02*
X044535Y016441D01*
X044535Y016291D02*
X044085Y016291D01*
X044235Y016141D01*
X044085Y015680D02*
X044535Y015680D01*
X044460Y015520D02*
X044535Y015445D01*
X044535Y015295D01*
X044460Y015220D01*
X041235Y015464D02*
X041235Y015614D01*
X041160Y015689D01*
X041235Y015849D02*
X040785Y015849D01*
X040935Y015999D01*
X040785Y016149D01*
X041235Y016149D01*
X041160Y016310D02*
X041235Y016385D01*
X041235Y016535D01*
X041160Y016610D01*
X041085Y016610D01*
X041010Y016535D01*
X041010Y016460D01*
X041010Y016535D02*
X040935Y016610D01*
X040860Y016610D01*
X040785Y016535D01*
X040785Y016385D01*
X040860Y016310D01*
X040860Y015689D02*
X040785Y015614D01*
X040785Y015464D01*
X040860Y015389D01*
X041160Y015389D01*
X041235Y015464D01*
X037110Y015610D02*
X037110Y015310D01*
X036810Y015610D01*
X036735Y015610D01*
X036660Y015535D01*
X036660Y015385D01*
X036735Y015310D01*
X036735Y015149D02*
X037035Y015149D01*
X037110Y015074D01*
X037110Y014924D01*
X037035Y014849D01*
X036735Y014849D01*
X036660Y014924D01*
X036660Y015074D01*
X036735Y015149D01*
X036960Y014999D02*
X037110Y015149D01*
X037035Y014689D02*
X037110Y014614D01*
X037110Y014464D01*
X037035Y014389D01*
X036735Y014389D01*
X036660Y014464D01*
X036660Y014614D01*
X036735Y014689D01*
X035280Y017144D02*
X035355Y017219D01*
X035355Y017294D01*
X035280Y017369D01*
X034905Y017369D01*
X034905Y017294D02*
X034905Y017444D01*
X034905Y017604D02*
X034905Y017829D01*
X034980Y017904D01*
X035280Y017904D01*
X035355Y017829D01*
X035355Y017604D01*
X034905Y017604D01*
X035130Y018065D02*
X035130Y018365D01*
X034905Y018290D02*
X035130Y018065D01*
X035355Y018290D02*
X034905Y018290D01*
X035960Y018320D02*
X035960Y018170D01*
X036035Y018095D01*
X036335Y018095D01*
X036410Y018170D01*
X036410Y018320D01*
X036335Y018395D01*
X036410Y018555D02*
X035960Y018555D01*
X036110Y018706D01*
X035960Y018856D01*
X036410Y018856D01*
X036410Y019016D02*
X036110Y019316D01*
X036035Y019316D01*
X035960Y019241D01*
X035960Y019091D01*
X036035Y019016D01*
X036410Y019016D02*
X036410Y019316D01*
X036035Y018395D02*
X035960Y018320D01*
X032885Y014381D02*
X032885Y014080D01*
X032885Y014231D02*
X032435Y014231D01*
X032585Y014080D01*
X032510Y013920D02*
X032810Y013920D01*
X032885Y013845D01*
X032885Y013695D01*
X032810Y013620D01*
X032510Y013620D01*
X032435Y013695D01*
X032435Y013845D01*
X032510Y013920D01*
X032735Y013770D02*
X032885Y013920D01*
X028042Y018295D02*
X027967Y018220D01*
X027742Y018220D01*
X027742Y018670D01*
X027967Y018670D01*
X028042Y018595D01*
X028042Y018520D01*
X027967Y018445D01*
X027742Y018445D01*
X027581Y018370D02*
X027581Y018295D01*
X027506Y018220D01*
X027356Y018220D01*
X027281Y018295D01*
X027121Y018220D02*
X026821Y018220D01*
X026821Y018670D01*
X026661Y018595D02*
X026661Y018445D01*
X026586Y018370D01*
X026360Y018370D01*
X026360Y018220D02*
X026360Y018670D01*
X026586Y018670D01*
X026661Y018595D01*
X026510Y018370D02*
X026661Y018220D01*
X027281Y018595D02*
X027356Y018670D01*
X027506Y018670D01*
X027581Y018595D01*
X027581Y018520D01*
X027506Y018445D01*
X027581Y018370D01*
X027506Y018445D02*
X027431Y018445D01*
X027967Y018445D02*
X028042Y018370D01*
X028042Y018295D01*
X027535Y015726D02*
X027385Y015576D01*
X027385Y015651D02*
X027385Y015426D01*
X027535Y015426D02*
X027085Y015426D01*
X027085Y015651D01*
X027160Y015726D01*
X027310Y015726D01*
X027385Y015651D01*
X027385Y015266D02*
X027460Y015266D01*
X027535Y015191D01*
X027535Y015041D01*
X027460Y014966D01*
X027535Y014806D02*
X027535Y014505D01*
X027085Y014505D01*
X027160Y014345D02*
X027085Y014270D01*
X027085Y014045D01*
X027535Y014045D01*
X027385Y014045D02*
X027385Y014270D01*
X027310Y014345D01*
X027160Y014345D01*
X027385Y014195D02*
X027535Y014345D01*
X027160Y014966D02*
X027085Y015041D01*
X027085Y015191D01*
X027160Y015266D01*
X027235Y015266D01*
X027310Y015191D01*
X027385Y015266D01*
X027310Y015191D02*
X027310Y015116D01*
X023917Y013595D02*
X023842Y013670D01*
X023692Y013670D01*
X023617Y013595D01*
X023617Y013295D01*
X023692Y013220D01*
X023842Y013220D01*
X023917Y013295D01*
X023917Y013445D01*
X023767Y013445D01*
X023456Y013370D02*
X023456Y013295D01*
X023381Y013220D01*
X023231Y013220D01*
X023156Y013295D01*
X022996Y013220D02*
X022696Y013220D01*
X022696Y013670D01*
X022536Y013595D02*
X022536Y013445D01*
X022461Y013370D01*
X022235Y013370D01*
X022235Y013220D02*
X022235Y013670D01*
X022461Y013670D01*
X022536Y013595D01*
X022385Y013370D02*
X022536Y013220D01*
X023156Y013595D02*
X023231Y013670D01*
X023381Y013670D01*
X023456Y013595D01*
X023456Y013520D01*
X023381Y013445D01*
X023456Y013370D01*
X023381Y013445D02*
X023306Y013445D01*
X020767Y011420D02*
X020617Y011420D01*
X020692Y011420D02*
X020692Y010970D01*
X020617Y010970D02*
X020767Y010970D01*
X020456Y010970D02*
X020156Y010970D01*
X020306Y010970D02*
X020306Y011420D01*
X020156Y011270D01*
X019996Y010970D02*
X019696Y010970D01*
X019696Y011420D01*
X019536Y011345D02*
X019536Y011195D01*
X019461Y011120D01*
X019235Y011120D01*
X019235Y010970D02*
X019235Y011420D01*
X019461Y011420D01*
X019536Y011345D01*
X019385Y011120D02*
X019536Y010970D01*
X015885Y011085D02*
X015885Y010785D01*
X015585Y011085D01*
X015510Y011085D01*
X015435Y011010D01*
X015435Y010860D01*
X015510Y010785D01*
X014885Y010785D02*
X014885Y011085D01*
X014885Y010935D02*
X014435Y010935D01*
X014585Y010785D01*
X013960Y008485D02*
X013660Y008485D01*
X013960Y008185D01*
X014035Y008260D01*
X014035Y008410D01*
X013960Y008485D01*
X013660Y008485D02*
X013585Y008410D01*
X013585Y008260D01*
X013660Y008185D01*
X013960Y008185D01*
X014035Y008024D02*
X014035Y007724D01*
X014035Y007874D02*
X013585Y007874D01*
X013735Y007724D01*
X014230Y013965D02*
X014305Y013965D01*
X014381Y014040D01*
X014381Y014415D01*
X014456Y014415D02*
X014305Y014415D01*
X014616Y014340D02*
X014691Y014415D01*
X014841Y014415D01*
X014916Y014340D01*
X014916Y014265D01*
X014841Y014190D01*
X014916Y014115D01*
X014916Y014040D01*
X014841Y013965D01*
X014691Y013965D01*
X014616Y014040D01*
X014766Y014190D02*
X014841Y014190D01*
X015076Y014040D02*
X015376Y014340D01*
X015376Y014040D01*
X015301Y013965D01*
X015151Y013965D01*
X015076Y014040D01*
X015076Y014340D01*
X015151Y014415D01*
X015301Y014415D01*
X015376Y014340D01*
X015537Y014265D02*
X015687Y014415D01*
X015687Y013965D01*
X015537Y013965D02*
X015837Y013965D01*
X014230Y013965D02*
X014155Y014040D01*
X019110Y015970D02*
X019110Y016420D01*
X019336Y016420D01*
X019411Y016345D01*
X019411Y016195D01*
X019336Y016120D01*
X019110Y016120D01*
X019260Y016120D02*
X019411Y015970D01*
X019571Y015970D02*
X019871Y015970D01*
X020031Y015970D02*
X020331Y015970D01*
X020181Y015970D02*
X020181Y016420D01*
X020031Y016270D01*
X020492Y016195D02*
X020717Y016195D01*
X020792Y016120D01*
X020792Y016045D01*
X020717Y015970D01*
X020492Y015970D01*
X020492Y016420D01*
X020717Y016420D01*
X020792Y016345D01*
X020792Y016270D01*
X020717Y016195D01*
X020717Y016970D02*
X020792Y017045D01*
X020792Y017195D01*
X020642Y017195D01*
X020792Y017345D02*
X020717Y017420D01*
X020567Y017420D01*
X020492Y017345D01*
X020492Y017045D01*
X020567Y016970D01*
X020717Y016970D01*
X020331Y016970D02*
X020031Y016970D01*
X020181Y016970D02*
X020181Y017420D01*
X020031Y017270D01*
X019871Y016970D02*
X019571Y016970D01*
X019571Y017420D01*
X019411Y017345D02*
X019411Y017195D01*
X019336Y017120D01*
X019110Y017120D01*
X019110Y016970D02*
X019110Y017420D01*
X019336Y017420D01*
X019411Y017345D01*
X019260Y017120D02*
X019411Y016970D01*
X019571Y016420D02*
X019571Y015970D01*
X019571Y017970D02*
X019871Y017970D01*
X020031Y017970D02*
X020331Y017970D01*
X020181Y017970D02*
X020181Y018420D01*
X020031Y018270D01*
X019571Y018420D02*
X019571Y017970D01*
X019411Y017970D02*
X019260Y018120D01*
X019336Y018120D02*
X019110Y018120D01*
X019110Y017970D02*
X019110Y018420D01*
X019336Y018420D01*
X019411Y018345D01*
X019411Y018195D01*
X019336Y018120D01*
X020492Y018120D02*
X020717Y018120D01*
X020792Y018195D01*
X020792Y018345D01*
X020717Y018420D01*
X020492Y018420D01*
X020492Y017970D01*
X020642Y018120D02*
X020792Y017970D01*
X020767Y019970D02*
X020617Y019970D01*
X020692Y019970D02*
X020692Y020420D01*
X020617Y020420D02*
X020767Y020420D01*
X020456Y020345D02*
X020381Y020420D01*
X020231Y020420D01*
X020156Y020345D01*
X020456Y020345D02*
X020456Y020270D01*
X020156Y019970D01*
X020456Y019970D01*
X019996Y019970D02*
X019696Y019970D01*
X019696Y020420D01*
X019536Y020345D02*
X019536Y020195D01*
X019461Y020120D01*
X019235Y020120D01*
X019235Y019970D02*
X019235Y020420D01*
X019461Y020420D01*
X019536Y020345D01*
X019385Y020120D02*
X019536Y019970D01*
X019571Y021970D02*
X019871Y021970D01*
X020031Y021970D02*
X020331Y022270D01*
X020331Y022345D01*
X020256Y022420D01*
X020106Y022420D01*
X020031Y022345D01*
X020031Y021970D02*
X020331Y021970D01*
X020492Y021970D02*
X020717Y021970D01*
X020792Y022045D01*
X020792Y022120D01*
X020717Y022195D01*
X020492Y022195D01*
X020717Y022195D02*
X020792Y022270D01*
X020792Y022345D01*
X020717Y022420D01*
X020492Y022420D01*
X020492Y021970D01*
X019571Y021970D02*
X019571Y022420D01*
X019411Y022345D02*
X019411Y022195D01*
X019336Y022120D01*
X019110Y022120D01*
X019110Y021970D02*
X019110Y022420D01*
X019336Y022420D01*
X019411Y022345D01*
X019260Y022120D02*
X019411Y021970D01*
X019411Y022970D02*
X019260Y023120D01*
X019336Y023120D02*
X019110Y023120D01*
X019110Y022970D02*
X019110Y023420D01*
X019336Y023420D01*
X019411Y023345D01*
X019411Y023195D01*
X019336Y023120D01*
X019571Y022970D02*
X019871Y022970D01*
X020031Y022970D02*
X020331Y023270D01*
X020331Y023345D01*
X020256Y023420D01*
X020106Y023420D01*
X020031Y023345D01*
X020031Y022970D02*
X020331Y022970D01*
X020492Y023045D02*
X020567Y022970D01*
X020717Y022970D01*
X020792Y023045D01*
X020792Y023195D01*
X020642Y023195D01*
X020792Y023345D02*
X020717Y023420D01*
X020567Y023420D01*
X020492Y023345D01*
X020492Y023045D01*
X019571Y022970D02*
X019571Y023420D01*
X019571Y023970D02*
X019871Y023970D01*
X020031Y023970D02*
X020331Y024270D01*
X020331Y024345D01*
X020256Y024420D01*
X020106Y024420D01*
X020031Y024345D01*
X020031Y023970D02*
X020331Y023970D01*
X020492Y023970D02*
X020492Y024420D01*
X020717Y024420D01*
X020792Y024345D01*
X020792Y024195D01*
X020717Y024120D01*
X020492Y024120D01*
X020642Y024120D02*
X020792Y023970D01*
X020456Y024970D02*
X020156Y024970D01*
X020306Y024970D02*
X020306Y025420D01*
X020156Y025270D01*
X019996Y025270D02*
X019921Y025195D01*
X019696Y025195D01*
X019536Y025195D02*
X019461Y025120D01*
X019235Y025120D01*
X019235Y024970D02*
X019235Y025420D01*
X019461Y025420D01*
X019536Y025345D01*
X019536Y025195D01*
X019385Y025120D02*
X019536Y024970D01*
X019696Y024970D02*
X019696Y025420D01*
X019921Y025420D01*
X019996Y025345D01*
X019996Y025270D01*
X019921Y025195D02*
X019996Y025120D01*
X019996Y025045D01*
X019921Y024970D01*
X019696Y024970D01*
X019571Y024420D02*
X019571Y023970D01*
X019411Y023970D02*
X019260Y024120D01*
X019336Y024120D02*
X019110Y024120D01*
X019110Y023970D02*
X019110Y024420D01*
X019336Y024420D01*
X019411Y024345D01*
X019411Y024195D01*
X019336Y024120D01*
X022785Y023470D02*
X022785Y023170D01*
X022860Y023095D01*
X023011Y023095D01*
X023086Y023170D01*
X023246Y023095D02*
X023471Y023095D01*
X023546Y023170D01*
X023546Y023245D01*
X023471Y023320D01*
X023246Y023320D01*
X023086Y023470D02*
X023011Y023545D01*
X022860Y023545D01*
X022785Y023470D01*
X023246Y023545D02*
X023246Y023095D01*
X023471Y023320D02*
X023546Y023395D01*
X023546Y023470D01*
X023471Y023545D01*
X023246Y023545D01*
X023706Y023395D02*
X023856Y023545D01*
X023856Y023095D01*
X023706Y023095D02*
X024006Y023095D01*
X024110Y022123D02*
X024035Y022048D01*
X024035Y021898D01*
X024110Y021823D01*
X024110Y022123D02*
X024185Y022123D01*
X024485Y021823D01*
X024485Y022123D01*
X024485Y021663D02*
X024485Y021362D01*
X024035Y021362D01*
X024110Y021202D02*
X024035Y021127D01*
X024035Y020977D01*
X024110Y020902D01*
X024410Y020902D01*
X024485Y020977D01*
X024485Y021127D01*
X024410Y021202D01*
X024485Y020745D02*
X024485Y020595D01*
X024485Y020670D02*
X024035Y020670D01*
X024035Y020595D02*
X024035Y020745D01*
X025485Y024970D02*
X025485Y025420D01*
X025711Y025420D01*
X025786Y025345D01*
X025786Y025195D01*
X025711Y025120D01*
X025485Y025120D01*
X025635Y025120D02*
X025786Y024970D01*
X025946Y024970D02*
X026171Y024970D01*
X026246Y025045D01*
X026246Y025120D01*
X026171Y025195D01*
X025946Y025195D01*
X026171Y025195D02*
X026246Y025270D01*
X026246Y025345D01*
X026171Y025420D01*
X025946Y025420D01*
X025946Y024970D01*
X026406Y025045D02*
X026481Y024970D01*
X026631Y024970D01*
X026706Y025045D01*
X026706Y025120D01*
X026631Y025195D01*
X026556Y025195D01*
X026631Y025195D02*
X026706Y025270D01*
X026706Y025345D01*
X026631Y025420D01*
X026481Y025420D01*
X026406Y025345D01*
X026401Y027215D02*
X026326Y027290D01*
X026626Y027590D01*
X026626Y027290D01*
X026551Y027215D01*
X026401Y027215D01*
X026326Y027290D02*
X026326Y027590D01*
X026401Y027665D01*
X026551Y027665D01*
X026626Y027590D01*
X026787Y027440D02*
X027087Y027440D01*
X027012Y027215D02*
X027012Y027665D01*
X026787Y027440D01*
X026166Y027365D02*
X026166Y027290D01*
X026091Y027215D01*
X025941Y027215D01*
X025866Y027290D01*
X026016Y027440D02*
X026091Y027440D01*
X026166Y027365D01*
X026091Y027440D02*
X026166Y027515D01*
X026166Y027590D01*
X026091Y027665D01*
X025941Y027665D01*
X025866Y027590D01*
X025706Y027665D02*
X025555Y027665D01*
X025631Y027665D02*
X025631Y027290D01*
X025555Y027215D01*
X025480Y027215D01*
X025405Y027290D01*
X023160Y027231D02*
X023160Y027005D01*
X022710Y027005D01*
X022710Y027231D01*
X022785Y027306D01*
X022860Y027306D01*
X022935Y027231D01*
X022935Y027005D01*
X022935Y026845D02*
X023010Y026770D01*
X023010Y026545D01*
X023010Y026695D02*
X023160Y026845D01*
X022935Y026845D02*
X022785Y026845D01*
X022710Y026770D01*
X022710Y026545D01*
X023160Y026545D01*
X023160Y027231D02*
X023085Y027306D01*
X023010Y027306D01*
X022935Y027231D01*
X022785Y027466D02*
X022710Y027541D01*
X022710Y027691D01*
X022785Y027766D01*
X022860Y027766D01*
X023160Y027466D01*
X023160Y027766D01*
X020837Y027590D02*
X020762Y027665D01*
X020612Y027665D01*
X020537Y027590D01*
X020376Y027590D02*
X020076Y027290D01*
X020151Y027215D01*
X020301Y027215D01*
X020376Y027290D01*
X020376Y027590D01*
X020301Y027665D01*
X020151Y027665D01*
X020076Y027590D01*
X020076Y027290D01*
X019916Y027290D02*
X019841Y027215D01*
X019691Y027215D01*
X019616Y027290D01*
X019766Y027440D02*
X019841Y027440D01*
X019916Y027365D01*
X019916Y027290D01*
X019841Y027440D02*
X019916Y027515D01*
X019916Y027590D01*
X019841Y027665D01*
X019691Y027665D01*
X019616Y027590D01*
X019456Y027665D02*
X019305Y027665D01*
X019381Y027665D02*
X019381Y027290D01*
X019305Y027215D01*
X019230Y027215D01*
X019155Y027290D01*
X020537Y027215D02*
X020837Y027515D01*
X020837Y027590D01*
X020837Y027215D02*
X020537Y027215D01*
X020210Y030670D02*
X019985Y030670D01*
X019910Y030745D01*
X019910Y030820D01*
X019985Y030895D01*
X020210Y030895D01*
X019985Y030895D02*
X019910Y030970D01*
X019910Y031045D01*
X019985Y031120D01*
X020210Y031120D01*
X020210Y030670D01*
X019750Y030820D02*
X019600Y030670D01*
X019600Y031120D01*
X019750Y031120D02*
X019450Y031120D01*
X025825Y031120D02*
X026125Y031120D01*
X025825Y030820D01*
X025825Y030745D01*
X025900Y030670D01*
X026050Y030670D01*
X026125Y030745D01*
X026285Y030745D02*
X026285Y030820D01*
X026360Y030895D01*
X026585Y030895D01*
X026360Y030895D02*
X026285Y030970D01*
X026285Y031045D01*
X026360Y031120D01*
X026585Y031120D01*
X026585Y030670D01*
X026360Y030670D01*
X026285Y030745D01*
X028960Y027691D02*
X029185Y027466D01*
X029185Y027766D01*
X029410Y027691D02*
X028960Y027691D01*
X029035Y027306D02*
X029110Y027306D01*
X029185Y027231D01*
X029185Y027005D01*
X029185Y026845D02*
X029260Y026770D01*
X029260Y026545D01*
X029260Y026695D02*
X029410Y026845D01*
X029410Y027005D02*
X029410Y027231D01*
X029335Y027306D01*
X029260Y027306D01*
X029185Y027231D01*
X029035Y027306D02*
X028960Y027231D01*
X028960Y027005D01*
X029410Y027005D01*
X029185Y026845D02*
X029035Y026845D01*
X028960Y026770D01*
X028960Y026545D01*
X029410Y026545D01*
X031655Y027290D02*
X031730Y027215D01*
X031805Y027215D01*
X031881Y027290D01*
X031881Y027665D01*
X031956Y027665D02*
X031805Y027665D01*
X032116Y027590D02*
X032191Y027665D01*
X032341Y027665D01*
X032416Y027590D01*
X032416Y027515D01*
X032341Y027440D01*
X032416Y027365D01*
X032416Y027290D01*
X032341Y027215D01*
X032191Y027215D01*
X032116Y027290D01*
X032266Y027440D02*
X032341Y027440D01*
X032576Y027290D02*
X032576Y027590D01*
X032651Y027665D01*
X032801Y027665D01*
X032876Y027590D01*
X032576Y027290D01*
X032651Y027215D01*
X032801Y027215D01*
X032876Y027290D01*
X032876Y027590D01*
X033037Y027665D02*
X033037Y027440D01*
X033187Y027515D01*
X033262Y027515D01*
X033337Y027440D01*
X033337Y027290D01*
X033262Y027215D01*
X033112Y027215D01*
X033037Y027290D01*
X033037Y027665D02*
X033337Y027665D01*
X035210Y027766D02*
X035285Y027616D01*
X035435Y027466D01*
X035435Y027691D01*
X035510Y027766D01*
X035585Y027766D01*
X035660Y027691D01*
X035660Y027541D01*
X035585Y027466D01*
X035435Y027466D01*
X035360Y027306D02*
X035435Y027231D01*
X035435Y027005D01*
X035435Y026845D02*
X035510Y026770D01*
X035510Y026545D01*
X035510Y026695D02*
X035660Y026845D01*
X035660Y027005D02*
X035660Y027231D01*
X035585Y027306D01*
X035510Y027306D01*
X035435Y027231D01*
X035360Y027306D02*
X035285Y027306D01*
X035210Y027231D01*
X035210Y027005D01*
X035660Y027005D01*
X035435Y026845D02*
X035285Y026845D01*
X035210Y026770D01*
X035210Y026545D01*
X035660Y026545D01*
X036510Y027270D02*
X036510Y027720D01*
X036736Y027720D01*
X036811Y027645D01*
X036811Y027345D01*
X036736Y027270D01*
X036510Y027270D01*
X036971Y027345D02*
X037046Y027270D01*
X037196Y027270D01*
X037271Y027345D01*
X037271Y027420D01*
X037196Y027495D01*
X037046Y027495D01*
X036971Y027570D01*
X036971Y027645D01*
X037046Y027720D01*
X037196Y027720D01*
X037271Y027645D01*
X037431Y027570D02*
X037581Y027720D01*
X037581Y027270D01*
X037431Y027270D02*
X037731Y027270D01*
X038485Y026670D02*
X038711Y026670D01*
X038786Y026595D01*
X038786Y026445D01*
X038711Y026370D01*
X038485Y026370D01*
X038485Y026220D02*
X038485Y026670D01*
X038635Y026370D02*
X038786Y026220D01*
X038946Y026220D02*
X039246Y026220D01*
X039406Y026295D02*
X039481Y026220D01*
X039631Y026220D01*
X039706Y026295D01*
X039706Y026370D01*
X039631Y026445D01*
X039481Y026445D01*
X039406Y026520D01*
X039406Y026595D01*
X039481Y026670D01*
X039631Y026670D01*
X039706Y026595D01*
X038946Y026670D02*
X038946Y026220D01*
X037916Y025415D02*
X037616Y025415D01*
X037766Y025415D02*
X037766Y024965D01*
X037381Y025040D02*
X037381Y025415D01*
X037456Y025415D02*
X037305Y025415D01*
X037381Y025040D02*
X037305Y024965D01*
X037230Y024965D01*
X037155Y025040D01*
X035675Y023520D02*
X035675Y023445D01*
X035600Y023370D01*
X035675Y023295D01*
X035675Y023220D01*
X035600Y023145D01*
X035450Y023145D01*
X035375Y023220D01*
X035215Y023220D02*
X035140Y023145D01*
X034915Y023145D01*
X034915Y023595D01*
X035140Y023595D01*
X035215Y023520D01*
X035215Y023445D01*
X035140Y023370D01*
X034915Y023370D01*
X034754Y023220D02*
X034679Y023145D01*
X034529Y023145D01*
X034454Y023220D01*
X034454Y023520D01*
X034529Y023595D01*
X034679Y023595D01*
X034754Y023520D01*
X035140Y023370D02*
X035215Y023295D01*
X035215Y023220D01*
X035375Y023520D02*
X035450Y023595D01*
X035600Y023595D01*
X035675Y023520D01*
X035600Y023370D02*
X035525Y023370D01*
X032956Y025045D02*
X032956Y025195D01*
X032881Y025270D01*
X032806Y025270D01*
X032656Y025195D01*
X032656Y025420D01*
X032956Y025420D01*
X032956Y025045D02*
X032881Y024970D01*
X032731Y024970D01*
X032656Y025045D01*
X032496Y025045D02*
X032421Y024970D01*
X032196Y024970D01*
X032196Y025420D01*
X032421Y025420D01*
X032496Y025345D01*
X032496Y025270D01*
X032421Y025195D01*
X032196Y025195D01*
X032036Y025195D02*
X031961Y025120D01*
X031735Y025120D01*
X031735Y024970D02*
X031735Y025420D01*
X031961Y025420D01*
X032036Y025345D01*
X032036Y025195D01*
X031885Y025120D02*
X032036Y024970D01*
X032421Y025195D02*
X032496Y025120D01*
X032496Y025045D01*
X031006Y024345D02*
X030931Y024420D01*
X030781Y024420D01*
X030706Y024345D01*
X030546Y024345D02*
X030546Y024270D01*
X030471Y024195D01*
X030246Y024195D01*
X030086Y024045D02*
X030011Y023970D01*
X029860Y023970D01*
X029785Y024045D01*
X029785Y024345D01*
X029860Y024420D01*
X030011Y024420D01*
X030086Y024345D01*
X030246Y024420D02*
X030471Y024420D01*
X030546Y024345D01*
X030471Y024195D02*
X030546Y024120D01*
X030546Y024045D01*
X030471Y023970D01*
X030246Y023970D01*
X030246Y024420D01*
X030706Y023970D02*
X031006Y024270D01*
X031006Y024345D01*
X031006Y023970D02*
X030706Y023970D01*
X037671Y028350D02*
X037746Y028275D01*
X037821Y028275D01*
X037896Y028350D01*
X037896Y028725D01*
X037821Y028725D02*
X037971Y028725D01*
X038132Y028725D02*
X038132Y028500D01*
X038282Y028575D01*
X038357Y028575D01*
X038432Y028500D01*
X038432Y028350D01*
X038357Y028275D01*
X038207Y028275D01*
X038132Y028350D01*
X038132Y028725D02*
X038432Y028725D01*
X038592Y028650D02*
X038667Y028725D01*
X038817Y028725D01*
X038892Y028650D01*
X038592Y028350D01*
X038667Y028275D01*
X038817Y028275D01*
X038892Y028350D01*
X038892Y028650D01*
X039052Y028575D02*
X039202Y028725D01*
X039202Y028275D01*
X039052Y028275D02*
X039353Y028275D01*
X038592Y028350D02*
X038592Y028650D01*
X038601Y030495D02*
X038901Y030795D01*
X038901Y030870D01*
X038826Y030945D01*
X038676Y030945D01*
X038601Y030870D01*
X038601Y030495D02*
X038901Y030495D01*
X036951Y030495D02*
X036651Y030495D01*
X036801Y030495D02*
X036801Y030945D01*
X036651Y030795D01*
X033710Y030895D02*
X033485Y030895D01*
X033410Y030970D01*
X033410Y031045D01*
X033485Y031120D01*
X033710Y031120D01*
X033710Y030670D01*
X033485Y030670D01*
X033410Y030745D01*
X033410Y030820D01*
X033485Y030895D01*
X033250Y031120D02*
X033250Y030670D01*
X033100Y030820D01*
X032950Y030670D01*
X032950Y031120D01*
X032790Y031045D02*
X032790Y030745D01*
X032715Y030670D01*
X032564Y030670D01*
X032489Y030745D01*
X032489Y031045D01*
X032564Y031120D01*
X032715Y031120D01*
X032790Y031045D01*
X032329Y031120D02*
X032104Y031120D01*
X032029Y031045D01*
X032029Y030745D01*
X032104Y030670D01*
X032329Y030670D01*
X032329Y031120D01*
X031869Y031120D02*
X031869Y030670D01*
X031569Y030670D01*
X031719Y030895D02*
X031869Y030895D01*
X031869Y031120D02*
X031569Y031120D01*
X041750Y030970D02*
X041750Y030895D01*
X041825Y030820D01*
X041975Y030820D01*
X042050Y030745D01*
X042050Y030670D01*
X041975Y030595D01*
X041825Y030595D01*
X041750Y030670D01*
X041750Y030970D02*
X041825Y031045D01*
X041975Y031045D01*
X042050Y030970D01*
X042210Y031045D02*
X042510Y031045D01*
X042510Y030595D01*
X044151Y030495D02*
X044451Y030495D01*
X044301Y030495D02*
X044301Y030945D01*
X044151Y030795D01*
X046101Y030870D02*
X046176Y030945D01*
X046326Y030945D01*
X046401Y030870D01*
X046401Y030795D01*
X046101Y030495D01*
X046401Y030495D01*
X046317Y028725D02*
X046392Y028650D01*
X046092Y028350D01*
X046167Y028275D01*
X046317Y028275D01*
X046392Y028350D01*
X046392Y028650D01*
X046317Y028725D02*
X046167Y028725D01*
X046092Y028650D01*
X046092Y028350D01*
X045932Y028350D02*
X045857Y028275D01*
X045707Y028275D01*
X045632Y028350D01*
X045632Y028500D02*
X045782Y028575D01*
X045857Y028575D01*
X045932Y028500D01*
X045932Y028350D01*
X045632Y028500D02*
X045632Y028725D01*
X045932Y028725D01*
X045471Y028725D02*
X045321Y028725D01*
X045396Y028725D02*
X045396Y028350D01*
X045321Y028275D01*
X045246Y028275D01*
X045171Y028350D01*
X044235Y027735D02*
X044235Y027435D01*
X043935Y027735D01*
X043860Y027735D01*
X043785Y027660D01*
X043785Y027510D01*
X043860Y027435D01*
X043860Y027274D02*
X043785Y027199D01*
X043785Y027049D01*
X043860Y026974D01*
X043935Y026974D01*
X044010Y027049D01*
X044010Y027199D01*
X044085Y027274D01*
X044160Y027274D01*
X044235Y027199D01*
X044235Y027049D01*
X044160Y026974D01*
X044160Y026814D02*
X044235Y026739D01*
X044235Y026589D01*
X044160Y026514D01*
X043860Y026514D01*
X043785Y026589D01*
X043785Y026739D01*
X043860Y026814D01*
X043235Y026799D02*
X043160Y026724D01*
X043235Y026799D02*
X043235Y026949D01*
X043160Y027024D01*
X043085Y027024D01*
X043010Y026949D01*
X043010Y026799D01*
X042935Y026724D01*
X042860Y026724D01*
X042785Y026799D01*
X042785Y026949D01*
X042860Y027024D01*
X042935Y027185D02*
X042785Y027335D01*
X043235Y027335D01*
X043235Y027185D02*
X043235Y027485D01*
X043160Y026564D02*
X043235Y026489D01*
X043235Y026339D01*
X043160Y026264D01*
X042860Y026264D01*
X042785Y026339D01*
X042785Y026489D01*
X042860Y026564D01*
X046552Y028275D02*
X046853Y028575D01*
X046853Y028650D01*
X046777Y028725D01*
X046627Y028725D01*
X046552Y028650D01*
X046552Y028275D02*
X046853Y028275D01*
X048160Y028181D02*
X048160Y028030D01*
X048235Y027955D01*
X048310Y027955D01*
X048385Y028030D01*
X048385Y028181D01*
X048460Y028256D01*
X048535Y028256D01*
X048610Y028181D01*
X048610Y028030D01*
X048535Y027955D01*
X048535Y027795D02*
X048610Y027720D01*
X048610Y027570D01*
X048535Y027495D01*
X048235Y027495D01*
X048160Y027570D01*
X048160Y027720D01*
X048235Y027795D01*
X048160Y028181D02*
X048235Y028256D01*
X048235Y028416D02*
X048160Y028491D01*
X048160Y028641D01*
X048235Y028716D01*
X048310Y028716D01*
X048385Y028641D01*
X048460Y028716D01*
X048535Y028716D01*
X048610Y028641D01*
X048610Y028491D01*
X048535Y028416D01*
X048385Y028566D02*
X048385Y028641D01*
X051535Y024395D02*
X051610Y024245D01*
X051760Y024095D01*
X051760Y024320D01*
X051835Y024395D01*
X051910Y024395D01*
X051985Y024320D01*
X051985Y024170D01*
X051910Y024095D01*
X051760Y024095D01*
X051135Y022545D02*
X051135Y022245D01*
X051135Y022395D02*
X050685Y022395D01*
X050835Y022245D01*
X050135Y022245D02*
X049835Y022545D01*
X049760Y022545D01*
X049685Y022470D01*
X049685Y022320D01*
X049760Y022245D01*
X050135Y022245D02*
X050135Y022545D01*
X048160Y022255D02*
X047710Y022255D01*
X047710Y022481D01*
X047785Y022556D01*
X047935Y022556D01*
X048010Y022481D01*
X048010Y022255D01*
X047935Y022095D02*
X048010Y022020D01*
X048010Y021795D01*
X048010Y021945D02*
X048160Y022095D01*
X047935Y022095D02*
X047785Y022095D01*
X047710Y022020D01*
X047710Y021795D01*
X048160Y021795D01*
X051206Y019693D02*
X051356Y019693D01*
X051281Y019693D02*
X051281Y019318D01*
X051206Y019243D01*
X051131Y019243D01*
X051055Y019318D01*
X051516Y019243D02*
X051516Y019693D01*
X051741Y019693D01*
X051816Y019618D01*
X051816Y019468D01*
X051741Y019393D01*
X051516Y019393D01*
X051976Y019318D02*
X052051Y019243D01*
X052201Y019243D01*
X052276Y019318D01*
X052276Y019393D01*
X052201Y019468D01*
X051976Y019468D01*
X051976Y019318D01*
X051976Y019468D02*
X052126Y019618D01*
X052276Y019693D01*
X047256Y001470D02*
X047256Y001020D01*
X047106Y001020D02*
X047406Y001020D01*
X047106Y001320D02*
X047256Y001470D01*
X046946Y001395D02*
X046871Y001470D01*
X046646Y001470D01*
X046646Y001020D01*
X046871Y001020D01*
X046946Y001095D01*
X046946Y001395D01*
X046486Y001020D02*
X046185Y001020D01*
X046185Y001470D01*
X045281Y001395D02*
X045281Y001320D01*
X044981Y001020D01*
X045281Y001020D01*
X045281Y001395D02*
X045206Y001470D01*
X045056Y001470D01*
X044981Y001395D01*
X044821Y001395D02*
X044746Y001470D01*
X044521Y001470D01*
X044521Y001020D01*
X044746Y001020D01*
X044821Y001095D01*
X044821Y001395D01*
X044361Y001020D02*
X044060Y001020D01*
X044060Y001470D01*
X024485Y009095D02*
X024485Y009245D01*
X024485Y009170D02*
X024035Y009170D01*
X024035Y009095D02*
X024035Y009245D01*
X024110Y009402D02*
X024410Y009402D01*
X024485Y009477D01*
X024485Y009627D01*
X024410Y009702D01*
X024485Y009862D02*
X024485Y010163D01*
X024485Y010323D02*
X024485Y010623D01*
X024485Y010473D02*
X024035Y010473D01*
X024185Y010323D01*
X024035Y009862D02*
X024485Y009862D01*
X024110Y009702D02*
X024035Y009627D01*
X024035Y009477D01*
X024110Y009402D01*
X015762Y020965D02*
X015612Y020965D01*
X015537Y021040D01*
X015376Y021040D02*
X015301Y020965D01*
X015151Y020965D01*
X015076Y021040D01*
X015376Y021340D01*
X015376Y021040D01*
X015076Y021040D02*
X015076Y021340D01*
X015151Y021415D01*
X015301Y021415D01*
X015376Y021340D01*
X015537Y021340D02*
X015612Y021415D01*
X015762Y021415D01*
X015837Y021340D01*
X015837Y021265D01*
X015762Y021190D01*
X015837Y021115D01*
X015837Y021040D01*
X015762Y020965D01*
X015762Y021190D02*
X015687Y021190D01*
X014916Y021115D02*
X014916Y021040D01*
X014841Y020965D01*
X014691Y020965D01*
X014616Y021040D01*
X014766Y021190D02*
X014841Y021190D01*
X014916Y021115D01*
X014841Y021190D02*
X014916Y021265D01*
X014916Y021340D01*
X014841Y021415D01*
X014691Y021415D01*
X014616Y021340D01*
X014456Y021415D02*
X014305Y021415D01*
X014381Y021415D02*
X014381Y021040D01*
X014305Y020965D01*
X014230Y020965D01*
X014155Y021040D01*
D13*
X018075Y009320D02*
X018075Y008900D01*
X018075Y009110D02*
X017445Y009110D01*
X017655Y008900D01*
X017550Y008675D02*
X017970Y008255D01*
X018075Y008360D01*
X018075Y008570D01*
X017970Y008675D01*
X017550Y008675D01*
X017445Y008570D01*
X017445Y008360D01*
X017550Y008255D01*
X017970Y008255D01*
X018075Y008031D02*
X018075Y007610D01*
X017655Y008031D01*
X017550Y008031D01*
X017445Y007926D01*
X017445Y007716D01*
X017550Y007610D01*
X017445Y007386D02*
X017445Y007176D01*
X017445Y007281D02*
X017970Y007281D01*
X018075Y007176D01*
X018075Y007071D01*
X017970Y006966D01*
X038320Y022190D02*
X038531Y022190D01*
X038425Y022190D02*
X038425Y022821D01*
X038320Y022821D02*
X038531Y022821D01*
X038750Y022715D02*
X038750Y022295D01*
X038855Y022190D01*
X039065Y022190D01*
X039170Y022295D01*
X039395Y022190D02*
X039395Y022821D01*
X039605Y022610D01*
X039815Y022821D01*
X039815Y022190D01*
X039170Y022715D02*
X039065Y022821D01*
X038855Y022821D01*
X038750Y022715D01*
X043977Y018373D02*
X044187Y018373D01*
X044082Y018373D02*
X044082Y017743D01*
X043977Y017743D02*
X044187Y017743D01*
X044406Y017848D02*
X044511Y017743D01*
X044722Y017743D01*
X044827Y017848D01*
X045051Y017848D02*
X045156Y017743D01*
X045366Y017743D01*
X045471Y017848D01*
X045471Y017953D01*
X045366Y018058D01*
X045156Y018058D01*
X045051Y018163D01*
X045051Y018268D01*
X045156Y018373D01*
X045366Y018373D01*
X045471Y018268D01*
X044827Y018268D02*
X044722Y018373D01*
X044511Y018373D01*
X044406Y018268D01*
X044406Y017848D01*
X048270Y024485D02*
X048375Y024591D01*
X048375Y024696D01*
X048270Y024801D01*
X047745Y024801D01*
X047745Y024696D02*
X047745Y024906D01*
X047745Y025130D02*
X047745Y025445D01*
X047850Y025550D01*
X048060Y025550D01*
X048165Y025445D01*
X048165Y025130D01*
X048375Y025130D02*
X047745Y025130D01*
X047705Y009320D02*
X047600Y009320D01*
X047495Y009215D01*
X047495Y009005D01*
X047600Y008900D01*
X047600Y008675D02*
X048020Y008255D01*
X048125Y008360D01*
X048125Y008570D01*
X048020Y008675D01*
X047600Y008675D01*
X047495Y008570D01*
X047495Y008360D01*
X047600Y008255D01*
X048020Y008255D01*
X048125Y008031D02*
X048125Y007610D01*
X047705Y008031D01*
X047600Y008031D01*
X047495Y007926D01*
X047495Y007716D01*
X047600Y007610D01*
X047495Y007386D02*
X047495Y007176D01*
X047495Y007281D02*
X048020Y007281D01*
X048125Y007176D01*
X048125Y007071D01*
X048020Y006966D01*
X048125Y008900D02*
X047705Y009320D01*
X048125Y009320D02*
X048125Y008900D01*
D14*
X051760Y009020D02*
X051760Y009420D01*
X051760Y010020D02*
X051760Y011820D01*
X049060Y011820D01*
X049060Y004620D01*
X051760Y004620D01*
X051760Y007420D01*
X046460Y021283D02*
X042860Y021283D01*
X042860Y024533D01*
X046460Y024533D01*
X046460Y021283D01*
X049060Y021620D02*
X051760Y021620D01*
X051760Y023420D01*
X051760Y025020D02*
X051760Y026820D01*
X049060Y026820D01*
X049060Y021620D01*
X032910Y028020D02*
X032910Y028120D01*
X031910Y028120D01*
X031910Y028020D01*
X031960Y030320D02*
X031960Y030420D01*
X031960Y030320D02*
X032910Y030320D01*
X032910Y030420D01*
X026660Y030320D02*
X026660Y030420D01*
X026660Y030320D02*
X025710Y030320D01*
X025710Y030420D01*
X025660Y028120D02*
X025660Y028020D01*
X025660Y028120D02*
X026660Y028120D01*
X026660Y028020D01*
X020410Y028020D02*
X020410Y028120D01*
X019410Y028120D01*
X019410Y028020D01*
X019460Y030320D02*
X019460Y030420D01*
X019460Y030320D02*
X020410Y030320D01*
X020410Y030420D01*
X016510Y011820D02*
X013810Y011820D01*
X013810Y009020D01*
X013810Y007420D02*
X013810Y007020D01*
X013810Y006420D02*
X013810Y004620D01*
X016510Y004620D01*
X016510Y011820D01*
D15*
X015660Y010220D03*
X014660Y010220D03*
X014660Y009220D03*
X014660Y008220D03*
X014660Y007220D03*
X015660Y007220D03*
X015660Y008220D03*
X015660Y009220D03*
X015660Y006220D03*
X014660Y006220D03*
X049910Y006220D03*
X050910Y006220D03*
X050910Y007220D03*
X049910Y007220D03*
X049910Y008220D03*
X049910Y009220D03*
X049910Y010220D03*
X050910Y010220D03*
X050910Y009220D03*
X050910Y008220D03*
X050910Y023220D03*
X049910Y023220D03*
X049910Y024220D03*
X050910Y024220D03*
X050910Y025220D03*
X049910Y025220D03*
D16*
X045587Y021104D02*
X045528Y021163D01*
X045411Y021163D01*
X045353Y021104D01*
X045587Y021104D02*
X045587Y021046D01*
X045353Y020813D01*
X045587Y020813D01*
X045712Y020813D02*
X045712Y021046D01*
X045771Y021046D01*
X045829Y020988D01*
X045887Y021046D01*
X045946Y020988D01*
X045946Y020813D01*
X045829Y020813D02*
X045829Y020988D01*
X046071Y021046D02*
X046130Y021046D01*
X046188Y020988D01*
X046246Y021046D01*
X046305Y020988D01*
X046305Y020813D01*
X046188Y020813D02*
X046188Y020988D01*
X046071Y021046D02*
X046071Y020813D01*
X045230Y020813D02*
X045172Y020813D01*
X045172Y020871D01*
X045230Y020871D01*
X045230Y020813D01*
X045114Y020696D01*
X044988Y020871D02*
X044930Y020813D01*
X044813Y020813D01*
X044755Y020871D01*
X044755Y020988D02*
X044871Y021046D01*
X044930Y021046D01*
X044988Y020988D01*
X044988Y020871D01*
X044755Y020988D02*
X044755Y021163D01*
X044988Y021163D01*
X044512Y021163D02*
X044512Y020813D01*
X044395Y020813D02*
X044629Y020813D01*
X044395Y021046D02*
X044512Y021163D01*
X044270Y021046D02*
X044270Y020813D01*
X044270Y020988D02*
X044036Y020988D01*
X044036Y021046D02*
X044153Y021163D01*
X044270Y021046D01*
X044036Y021046D02*
X044036Y020813D01*
X015160Y018543D02*
X015160Y018425D01*
X015042Y018307D01*
X015082Y018385D02*
X015042Y018425D01*
X015042Y018543D01*
X015042Y018425D02*
X014649Y018425D01*
X014649Y018543D01*
X014649Y018425D02*
X014609Y018385D01*
X014649Y018307D02*
X014530Y018425D01*
X014530Y018307D01*
X014530Y018425D02*
X014530Y018543D01*
X015160Y018425D02*
X015160Y018307D01*
X014016Y017547D02*
X014016Y017393D01*
X014016Y017470D02*
X013632Y017470D01*
X013555Y017547D01*
X013555Y017623D01*
X013632Y017700D01*
X013555Y017240D02*
X013555Y016933D01*
X013555Y016779D02*
X013555Y016472D01*
X013555Y016319D02*
X013555Y016089D01*
X013632Y016012D01*
X013939Y016012D01*
X014016Y016089D01*
X014016Y016319D01*
X013555Y016319D01*
X013786Y016626D02*
X013786Y016779D01*
X014016Y016779D02*
X013555Y016779D01*
X013555Y017240D02*
X014016Y017240D01*
X014016Y016779D02*
X014016Y016472D01*
X013862Y015858D02*
X014016Y015705D01*
X013555Y015705D01*
X013555Y015858D02*
X013555Y015552D01*
X013555Y022552D02*
X013555Y022858D01*
X013862Y022552D01*
X013939Y022552D01*
X014016Y022628D01*
X014016Y022782D01*
X013939Y022858D01*
X013939Y023012D02*
X013632Y023012D01*
X013555Y023089D01*
X013555Y023319D01*
X014016Y023319D01*
X014016Y023089D01*
X013939Y023012D01*
X014016Y023472D02*
X014016Y023779D01*
X013555Y023779D01*
X013555Y023472D01*
X013786Y023626D02*
X013786Y023779D01*
X013555Y023933D02*
X013555Y024240D01*
X014016Y024240D01*
X014016Y024393D02*
X014016Y024547D01*
X014016Y024470D02*
X013632Y024470D01*
X013555Y024547D01*
X013555Y024623D01*
X013632Y024700D01*
X014530Y025307D02*
X014530Y025425D01*
X014649Y025307D01*
X014609Y025385D02*
X014649Y025425D01*
X015042Y025425D01*
X015082Y025385D01*
X015042Y025425D02*
X015042Y025543D01*
X015160Y025543D02*
X015160Y025425D01*
X015042Y025307D01*
X015160Y025307D02*
X015160Y025425D01*
X014649Y025425D02*
X014649Y025543D01*
X014530Y025543D02*
X014530Y025425D01*
D17*
X043660Y024958D03*
X044660Y024958D03*
X045660Y024958D03*
D18*
X044010Y019883D02*
X044012Y019933D01*
X044018Y019983D01*
X044028Y020033D01*
X044041Y020081D01*
X044058Y020129D01*
X044079Y020175D01*
X044103Y020219D01*
X044131Y020261D01*
X044162Y020301D01*
X044196Y020338D01*
X044233Y020373D01*
X044272Y020404D01*
X044313Y020433D01*
X044357Y020458D01*
X044403Y020480D01*
X044450Y020498D01*
X044498Y020512D01*
X044547Y020523D01*
X044597Y020530D01*
X044647Y020533D01*
X044698Y020532D01*
X044748Y020527D01*
X044798Y020518D01*
X044846Y020506D01*
X044894Y020489D01*
X044940Y020469D01*
X044985Y020446D01*
X045028Y020419D01*
X045068Y020389D01*
X045106Y020356D01*
X045141Y020320D01*
X045174Y020281D01*
X045203Y020240D01*
X045229Y020197D01*
X045252Y020152D01*
X045271Y020105D01*
X045286Y020057D01*
X045298Y020008D01*
X045306Y019958D01*
X045310Y019908D01*
X045310Y019858D01*
X045306Y019808D01*
X045298Y019758D01*
X045286Y019709D01*
X045271Y019661D01*
X045252Y019614D01*
X045229Y019569D01*
X045203Y019526D01*
X045174Y019485D01*
X045141Y019446D01*
X045106Y019410D01*
X045068Y019377D01*
X045028Y019347D01*
X044985Y019320D01*
X044940Y019297D01*
X044894Y019277D01*
X044846Y019260D01*
X044798Y019248D01*
X044748Y019239D01*
X044698Y019234D01*
X044647Y019233D01*
X044597Y019236D01*
X044547Y019243D01*
X044498Y019254D01*
X044450Y019268D01*
X044403Y019286D01*
X044357Y019308D01*
X044313Y019333D01*
X044272Y019362D01*
X044233Y019393D01*
X044196Y019428D01*
X044162Y019465D01*
X044131Y019505D01*
X044103Y019547D01*
X044079Y019591D01*
X044058Y019637D01*
X044041Y019685D01*
X044028Y019733D01*
X044018Y019783D01*
X044012Y019833D01*
X044010Y019883D01*
D19*
X043710Y016070D02*
X043410Y016070D01*
X043110Y016070D01*
X043110Y015870D02*
X043410Y015870D01*
X043710Y015870D01*
X042210Y015870D02*
X041910Y015870D01*
X041610Y015870D01*
X041610Y016070D02*
X041910Y016070D01*
X042210Y016070D01*
X045060Y013770D02*
X045060Y013470D01*
X045060Y013170D01*
X045260Y013170D02*
X045260Y013470D01*
X045260Y013770D01*
X039260Y007770D02*
X039260Y007470D01*
X039260Y007170D01*
X039060Y007170D02*
X039060Y007470D01*
X039060Y007770D01*
X036460Y012870D02*
X036160Y012870D01*
X035860Y012870D01*
X035860Y013070D02*
X036160Y013070D01*
X036460Y013070D01*
X036460Y014870D02*
X036160Y014870D01*
X035860Y014870D01*
X035860Y015070D02*
X036160Y015070D01*
X036460Y015070D01*
X036460Y016870D02*
X036160Y016870D01*
X035860Y016870D01*
X035860Y017070D02*
X036160Y017070D01*
X036460Y017070D01*
X035010Y023920D02*
X035010Y024220D01*
X035010Y024520D01*
X034810Y024520D02*
X034810Y024220D01*
X034810Y023920D01*
X028760Y023920D02*
X028760Y024220D01*
X028760Y024520D01*
X028560Y024520D02*
X028560Y024220D01*
X028560Y023920D01*
X023510Y023920D02*
X023510Y024220D01*
X023510Y024520D01*
X023310Y024520D02*
X023310Y024220D01*
X023310Y023920D01*
X041860Y026620D02*
X042160Y026620D01*
X042460Y026620D01*
X042460Y026820D02*
X042160Y026820D01*
X041860Y026820D01*
X042557Y028775D02*
X042605Y028805D01*
X042650Y028838D01*
X042693Y028874D01*
X042734Y028912D01*
X042771Y028954D01*
X042806Y028998D01*
X042837Y029044D01*
X042866Y029093D01*
X042890Y029143D01*
X042911Y029195D01*
X042929Y029249D01*
X042942Y029303D01*
X042952Y029358D01*
X042958Y029414D01*
X042960Y029470D01*
X041784Y028764D02*
X041737Y028791D01*
X041692Y028821D01*
X041649Y028854D01*
X041609Y028890D01*
X041571Y028929D01*
X041536Y028970D01*
X041503Y029013D01*
X041474Y029058D01*
X041448Y029106D01*
X041425Y029155D01*
X041405Y029205D01*
X041389Y029256D01*
X041376Y029309D01*
X041367Y029362D01*
X041362Y029416D01*
X041360Y029470D01*
X042677Y030081D02*
X042716Y030045D01*
X042754Y030006D01*
X042788Y029966D01*
X042820Y029923D01*
X042848Y029878D01*
X042874Y029831D01*
X042897Y029782D01*
X042916Y029732D01*
X042932Y029681D01*
X042944Y029629D01*
X042953Y029577D01*
X042958Y029523D01*
X042960Y029470D01*
X041648Y030085D02*
X041608Y030049D01*
X041570Y030010D01*
X041535Y029969D01*
X041503Y029926D01*
X041473Y029881D01*
X041447Y029834D01*
X041425Y029785D01*
X041405Y029734D01*
X041389Y029683D01*
X041376Y029631D01*
X041367Y029577D01*
X041362Y029524D01*
X041360Y029470D01*
X045310Y027770D02*
X045310Y027470D01*
X045310Y027170D01*
X045510Y027170D02*
X045510Y027470D01*
X045510Y027770D01*
X032260Y007770D02*
X032260Y007470D01*
X032260Y007170D01*
X032060Y007170D02*
X032060Y007470D01*
X032060Y007770D01*
X043860Y002470D02*
X043862Y002526D01*
X043868Y002582D01*
X043878Y002637D01*
X043891Y002691D01*
X043909Y002745D01*
X043930Y002797D01*
X043954Y002847D01*
X043983Y002896D01*
X044014Y002942D01*
X044049Y002986D01*
X044086Y003028D01*
X044127Y003066D01*
X044170Y003102D01*
X044215Y003135D01*
X044263Y003165D01*
X045460Y002470D02*
X045458Y002416D01*
X045453Y002363D01*
X045444Y002309D01*
X045431Y002257D01*
X045415Y002206D01*
X045395Y002155D01*
X045373Y002106D01*
X045347Y002059D01*
X045317Y002014D01*
X045285Y001971D01*
X045250Y001930D01*
X045212Y001891D01*
X045172Y001855D01*
X045460Y002470D02*
X045458Y002524D01*
X045453Y002578D01*
X045444Y002631D01*
X045431Y002684D01*
X045415Y002735D01*
X045395Y002785D01*
X045372Y002834D01*
X045346Y002882D01*
X045317Y002927D01*
X045284Y002970D01*
X045249Y003011D01*
X045211Y003050D01*
X045171Y003086D01*
X045128Y003119D01*
X045083Y003149D01*
X045036Y003176D01*
X043860Y002470D02*
X043862Y002417D01*
X043867Y002363D01*
X043876Y002311D01*
X043888Y002259D01*
X043904Y002208D01*
X043923Y002158D01*
X043946Y002109D01*
X043972Y002062D01*
X044000Y002017D01*
X044032Y001974D01*
X044066Y001934D01*
X044104Y001895D01*
X044143Y001859D01*
X047057Y001775D02*
X047105Y001805D01*
X047150Y001838D01*
X047193Y001874D01*
X047234Y001912D01*
X047271Y001954D01*
X047306Y001998D01*
X047337Y002044D01*
X047366Y002093D01*
X047390Y002143D01*
X047411Y002195D01*
X047429Y002249D01*
X047442Y002303D01*
X047452Y002358D01*
X047458Y002414D01*
X047460Y002470D01*
X046284Y001764D02*
X046237Y001791D01*
X046192Y001821D01*
X046149Y001854D01*
X046109Y001890D01*
X046071Y001929D01*
X046036Y001970D01*
X046003Y002013D01*
X045974Y002058D01*
X045948Y002106D01*
X045925Y002155D01*
X045905Y002205D01*
X045889Y002256D01*
X045876Y002309D01*
X045867Y002362D01*
X045862Y002416D01*
X045860Y002470D01*
X047177Y003081D02*
X047216Y003045D01*
X047254Y003006D01*
X047288Y002966D01*
X047320Y002923D01*
X047348Y002878D01*
X047374Y002831D01*
X047397Y002782D01*
X047416Y002732D01*
X047432Y002681D01*
X047444Y002629D01*
X047453Y002577D01*
X047458Y002523D01*
X047460Y002470D01*
X046148Y003085D02*
X046108Y003049D01*
X046070Y003010D01*
X046035Y002969D01*
X046003Y002926D01*
X045973Y002881D01*
X045947Y002834D01*
X045925Y002785D01*
X045905Y002734D01*
X045889Y002683D01*
X045876Y002631D01*
X045867Y002577D01*
X045862Y002524D01*
X045860Y002470D01*
D20*
X042080Y002220D03*
X039240Y002220D03*
X035080Y002220D03*
X032240Y002220D03*
X028080Y002220D03*
X025240Y002220D03*
X021330Y011220D03*
X018490Y011220D03*
X021740Y013470D03*
X024580Y013470D03*
X021330Y016220D03*
X021330Y017220D03*
X021330Y018220D03*
X018490Y018220D03*
X018490Y017220D03*
X018490Y016220D03*
X018490Y020220D03*
X018490Y022220D03*
X018490Y023220D03*
X018490Y024220D03*
X018490Y025220D03*
X021330Y025220D03*
X021330Y024220D03*
X021330Y023220D03*
X021330Y022220D03*
X021330Y020220D03*
X025740Y018470D03*
X028580Y018470D03*
X027580Y025220D03*
X024740Y025220D03*
X030990Y025220D03*
X033830Y025220D03*
X037740Y026470D03*
X040580Y026470D03*
D21*
X035410Y025800D03*
X035410Y028640D03*
X029160Y028640D03*
X029160Y025800D03*
X022910Y025800D03*
X022910Y028640D03*
X028160Y016640D03*
X028160Y013800D03*
X033660Y006890D03*
X034660Y006890D03*
X035660Y006890D03*
X036660Y006890D03*
X036660Y004050D03*
X035660Y004050D03*
X034660Y004050D03*
X033660Y004050D03*
X043660Y004550D03*
X044660Y004550D03*
X045660Y004550D03*
X046660Y004550D03*
X046660Y007390D03*
X045660Y007390D03*
X044660Y007390D03*
X043660Y007390D03*
X047910Y020800D03*
X047910Y023640D03*
D22*
X016105Y021858D02*
X016105Y025582D01*
X014215Y025582D01*
X014215Y021858D01*
X016105Y021858D01*
X015790Y021818D02*
X015790Y021661D01*
X015633Y021661D01*
X015633Y021818D01*
X015436Y021818D02*
X015436Y021661D01*
X014885Y021661D01*
X014885Y021818D01*
X014688Y021818D02*
X014688Y021661D01*
X014530Y021661D01*
X014530Y021818D01*
X014373Y022173D02*
X014373Y025267D01*
X015948Y025267D01*
X015948Y022173D01*
X014373Y022173D01*
X014530Y018779D02*
X014530Y018622D01*
X014530Y018779D02*
X014688Y018779D01*
X014688Y018622D01*
X014885Y018622D02*
X014885Y018779D01*
X015436Y018779D01*
X015436Y018622D01*
X015633Y018622D02*
X015633Y018779D01*
X015790Y018779D01*
X015790Y018622D01*
X016105Y018582D02*
X016105Y014858D01*
X014215Y014858D01*
X014215Y018582D01*
X016105Y018582D01*
X015948Y018267D02*
X015948Y015173D01*
X014373Y015173D01*
X014373Y018267D01*
X015948Y018267D01*
X015790Y014818D02*
X015790Y014661D01*
X015633Y014661D01*
X015633Y014818D01*
X015436Y014818D02*
X015436Y014661D01*
X014885Y014661D01*
X014885Y014818D01*
X014688Y014818D02*
X014688Y014661D01*
X014530Y014661D01*
X014530Y014818D01*
X014530Y025622D02*
X014530Y025779D01*
X014688Y025779D01*
X014688Y025622D01*
X014885Y025622D02*
X014885Y025779D01*
X015436Y025779D01*
X015436Y025622D01*
X015633Y025622D02*
X015633Y025779D01*
X015790Y025779D01*
X015790Y025622D01*
D23*
X033160Y015170D02*
X033160Y012770D01*
X033162Y012708D01*
X033168Y012647D01*
X033177Y012586D01*
X033190Y012526D01*
X033207Y012467D01*
X033228Y012409D01*
X033252Y012352D01*
X033279Y012297D01*
X033310Y012244D01*
X033344Y012192D01*
X033381Y012143D01*
X033421Y012096D01*
X033464Y012052D01*
X033509Y012011D01*
X033557Y011972D01*
X033608Y011936D01*
X033660Y011904D01*
X033714Y011875D01*
X033770Y011849D01*
X033828Y011827D01*
X033886Y011808D01*
X033946Y011793D01*
X034007Y011782D01*
X034068Y011774D01*
X034129Y011770D01*
X034191Y011770D01*
X034252Y011774D01*
X034313Y011782D01*
X034374Y011793D01*
X034434Y011808D01*
X034492Y011827D01*
X034550Y011849D01*
X034606Y011875D01*
X034660Y011904D01*
X034712Y011936D01*
X034763Y011972D01*
X034811Y012011D01*
X034856Y012052D01*
X034899Y012096D01*
X034939Y012143D01*
X034976Y012192D01*
X035010Y012244D01*
X035041Y012297D01*
X035068Y012352D01*
X035092Y012409D01*
X035113Y012467D01*
X035130Y012526D01*
X035143Y012586D01*
X035152Y012647D01*
X035158Y012708D01*
X035160Y012770D01*
X035160Y015170D01*
X035158Y015232D01*
X035152Y015293D01*
X035143Y015354D01*
X035130Y015414D01*
X035113Y015473D01*
X035092Y015531D01*
X035068Y015588D01*
X035041Y015643D01*
X035010Y015696D01*
X034976Y015748D01*
X034939Y015797D01*
X034899Y015844D01*
X034856Y015888D01*
X034811Y015929D01*
X034763Y015968D01*
X034712Y016004D01*
X034660Y016036D01*
X034606Y016065D01*
X034550Y016091D01*
X034492Y016113D01*
X034434Y016132D01*
X034374Y016147D01*
X034313Y016158D01*
X034252Y016166D01*
X034191Y016170D01*
X034129Y016170D01*
X034068Y016166D01*
X034007Y016158D01*
X033946Y016147D01*
X033886Y016132D01*
X033828Y016113D01*
X033770Y016091D01*
X033714Y016065D01*
X033660Y016036D01*
X033608Y016004D01*
X033557Y015968D01*
X033509Y015929D01*
X033464Y015888D01*
X033421Y015844D01*
X033381Y015797D01*
X033344Y015748D01*
X033310Y015696D01*
X033279Y015643D01*
X033252Y015588D01*
X033228Y015531D01*
X033207Y015473D01*
X033190Y015414D01*
X033177Y015354D01*
X033168Y015293D01*
X033162Y015232D01*
X033160Y015170D01*
D24*
X039510Y003970D03*
D25*
X039135Y003970D03*
X041185Y003970D03*
D26*
X037660Y004820D03*
D27*
X037660Y004445D03*
X037660Y006495D03*
D28*
X040210Y027476D03*
D29*
X040605Y027470D03*
X038716Y027470D03*
D30*
X053030Y018468D02*
X055280Y018468D01*
X055280Y017468D02*
X053030Y017468D01*
X053030Y016468D02*
X055280Y016468D01*
X055280Y015468D02*
X053030Y015468D01*
X053030Y014468D02*
X055280Y014468D01*
X055280Y013468D02*
X053030Y013468D01*
D31*
X052880Y013468D03*
X052880Y014468D03*
X052880Y015468D03*
X052880Y016468D03*
X052880Y017468D03*
X052880Y018468D03*
D32*
X051580Y018468D03*
X051580Y017468D03*
X051580Y016468D03*
X051580Y015468D03*
X051580Y014468D03*
X051580Y013468D03*
M02*
