G75*
%MOIN*%
%OFA0B0*%
%FSLAX24Y24*%
%IPPOS*%
%LPD*%
%AMOC8*
5,1,8,0,0,1.08239X$1,22.5*
%
%ADD10C,0.0120*%
%ADD11R,0.0236X0.1575*%
%ADD12C,0.0000*%
D10*
X013160Y000220D02*
X013160Y031716D01*
X052530Y031716D01*
X052530Y000220D01*
X013160Y000220D01*
D11*
X025160Y014905D03*
X025160Y017031D03*
D12*
X044010Y019883D02*
X044012Y019933D01*
X044018Y019983D01*
X044028Y020033D01*
X044041Y020081D01*
X044058Y020129D01*
X044079Y020175D01*
X044103Y020219D01*
X044131Y020261D01*
X044162Y020301D01*
X044196Y020338D01*
X044233Y020373D01*
X044272Y020404D01*
X044313Y020433D01*
X044357Y020458D01*
X044403Y020480D01*
X044450Y020498D01*
X044498Y020512D01*
X044547Y020523D01*
X044597Y020530D01*
X044647Y020533D01*
X044698Y020532D01*
X044748Y020527D01*
X044798Y020518D01*
X044846Y020506D01*
X044894Y020489D01*
X044940Y020469D01*
X044985Y020446D01*
X045028Y020419D01*
X045068Y020389D01*
X045106Y020356D01*
X045141Y020320D01*
X045174Y020281D01*
X045203Y020240D01*
X045229Y020197D01*
X045252Y020152D01*
X045271Y020105D01*
X045286Y020057D01*
X045298Y020008D01*
X045306Y019958D01*
X045310Y019908D01*
X045310Y019858D01*
X045306Y019808D01*
X045298Y019758D01*
X045286Y019709D01*
X045271Y019661D01*
X045252Y019614D01*
X045229Y019569D01*
X045203Y019526D01*
X045174Y019485D01*
X045141Y019446D01*
X045106Y019410D01*
X045068Y019377D01*
X045028Y019347D01*
X044985Y019320D01*
X044940Y019297D01*
X044894Y019277D01*
X044846Y019260D01*
X044798Y019248D01*
X044748Y019239D01*
X044698Y019234D01*
X044647Y019233D01*
X044597Y019236D01*
X044547Y019243D01*
X044498Y019254D01*
X044450Y019268D01*
X044403Y019286D01*
X044357Y019308D01*
X044313Y019333D01*
X044272Y019362D01*
X044233Y019393D01*
X044196Y019428D01*
X044162Y019465D01*
X044131Y019505D01*
X044103Y019547D01*
X044079Y019591D01*
X044058Y019637D01*
X044041Y019685D01*
X044028Y019733D01*
X044018Y019783D01*
X044012Y019833D01*
X044010Y019883D01*
M02*
