G75*
%MOIN*%
%OFA0B0*%
%FSLAX24Y24*%
%IPPOS*%
%LPD*%
%AMOC8*
5,1,8,0,0,1.08239X$1,22.5*
%
%ADD10C,0.0120*%
%ADD11C,0.0705*%
%ADD12C,0.0480*%
%ADD13R,0.0689X0.0689*%
%ADD14R,0.0236X0.1575*%
%ADD15C,0.0600*%
%ADD16C,0.0000*%
%ADD17C,0.1300*%
%ADD18OC8,0.0480*%
%ADD19OC8,0.0500*%
%ADD20C,0.0500*%
%ADD21C,0.0480*%
%ADD22C,0.0669*%
%ADD23R,0.0591X0.0591*%
%ADD24C,0.2756*%
D10*
X013160Y000220D02*
X013160Y031716D01*
X052530Y031716D01*
X052530Y000220D01*
X013160Y000220D01*
D11*
X037426Y029368D02*
X037426Y030073D01*
X039395Y030073D02*
X039395Y029368D01*
X044926Y029368D02*
X044926Y030073D01*
X046895Y030073D02*
X046895Y029368D01*
D12*
X040900Y022470D02*
X040420Y022470D01*
X040420Y021470D02*
X040900Y021470D01*
X040900Y020470D02*
X040420Y020470D01*
X040420Y019470D02*
X040900Y019470D01*
X040900Y018470D02*
X040420Y018470D01*
X040420Y017470D02*
X040900Y017470D01*
X040900Y016470D02*
X040420Y016470D01*
X040420Y015470D02*
X040900Y015470D01*
X040900Y014470D02*
X040420Y014470D01*
X040420Y013470D02*
X040900Y013470D01*
X040900Y012470D02*
X040420Y012470D01*
X040420Y011470D02*
X040900Y011470D01*
X040900Y010470D02*
X040420Y010470D01*
X040420Y009470D02*
X040900Y009470D01*
X043420Y009220D02*
X043900Y009220D01*
X043900Y010220D02*
X043420Y010220D01*
X043420Y011220D02*
X043900Y011220D01*
X043900Y012220D02*
X043420Y012220D01*
X046420Y012220D02*
X046900Y012220D01*
X046900Y011220D02*
X046420Y011220D01*
X046420Y010220D02*
X046900Y010220D01*
X046900Y009220D02*
X046420Y009220D01*
X041900Y003970D02*
X041420Y003970D01*
X038900Y003970D02*
X038420Y003970D01*
X037660Y003730D02*
X037660Y004210D01*
X037660Y006730D02*
X037660Y007210D01*
X037420Y009470D02*
X037900Y009470D01*
X037900Y010470D02*
X037420Y010470D01*
X037420Y011470D02*
X037900Y011470D01*
X037900Y012470D02*
X037420Y012470D01*
X037420Y013470D02*
X037900Y013470D01*
X037900Y014470D02*
X037420Y014470D01*
X037420Y015470D02*
X037900Y015470D01*
X037900Y016470D02*
X037420Y016470D01*
X037420Y017470D02*
X037900Y017470D01*
X037900Y018470D02*
X037420Y018470D01*
X037420Y019470D02*
X037900Y019470D01*
X037900Y020470D02*
X037420Y020470D01*
X037420Y021470D02*
X037900Y021470D01*
X037900Y022470D02*
X037420Y022470D01*
X032160Y022980D02*
X032160Y023460D01*
X031160Y023460D02*
X031160Y022980D01*
X030160Y022980D02*
X030160Y023460D01*
X029160Y023460D02*
X029160Y022980D01*
X028160Y022980D02*
X028160Y023460D01*
X027160Y023460D02*
X027160Y022980D01*
X026160Y022980D02*
X026160Y023460D01*
X025160Y023460D02*
X025160Y022980D01*
X025160Y020460D02*
X025160Y019980D01*
X026160Y019980D02*
X026160Y020460D01*
X027160Y020460D02*
X027160Y019980D01*
X028160Y019980D02*
X028160Y020460D01*
X029160Y020460D02*
X029160Y019980D01*
X030160Y019980D02*
X030160Y020460D01*
X031160Y020460D02*
X031160Y019980D01*
X032160Y019980D02*
X032160Y020460D01*
X032160Y011960D02*
X032160Y011480D01*
X031160Y011480D02*
X031160Y011960D01*
X030160Y011960D02*
X030160Y011480D01*
X029160Y011480D02*
X029160Y011960D01*
X028160Y011960D02*
X028160Y011480D01*
X027160Y011480D02*
X027160Y011960D01*
X026160Y011960D02*
X026160Y011480D01*
X025160Y011480D02*
X025160Y011960D01*
X025160Y008960D02*
X025160Y008480D01*
X026160Y008480D02*
X026160Y008960D01*
X027160Y008960D02*
X027160Y008480D01*
X028160Y008480D02*
X028160Y008960D01*
X029160Y008960D02*
X029160Y008480D01*
X030160Y008480D02*
X030160Y008960D01*
X031160Y008960D02*
X031160Y008480D01*
X032160Y008480D02*
X032160Y008960D01*
D13*
X015660Y009220D03*
X014660Y009220D03*
X014660Y008220D03*
X014660Y007220D03*
X015660Y007220D03*
X015660Y008220D03*
X015660Y010220D03*
X014660Y010220D03*
X014660Y006220D03*
X015660Y006220D03*
X049910Y006220D03*
X050910Y006220D03*
X050910Y007220D03*
X049910Y007220D03*
X049910Y008220D03*
X049910Y009220D03*
X049910Y010220D03*
X050910Y010220D03*
X050910Y009220D03*
X050910Y008220D03*
X050910Y023220D03*
X049910Y023220D03*
X049910Y024220D03*
X050910Y024220D03*
X050910Y025220D03*
X049910Y025220D03*
D14*
X025160Y017031D03*
X025160Y014905D03*
D15*
X016660Y013520D02*
X016660Y012920D01*
X015660Y012920D02*
X015660Y013520D01*
X014660Y013520D02*
X014660Y012920D01*
X014660Y019920D02*
X014660Y020520D01*
X015660Y020520D02*
X015660Y019920D01*
X016660Y019920D02*
X016660Y020520D01*
X019410Y026170D02*
X019410Y026770D01*
X020410Y026770D02*
X020410Y026170D01*
X020890Y028330D02*
X021490Y028330D01*
X021490Y030110D02*
X020890Y030110D01*
X018930Y030110D02*
X018330Y030110D01*
X018330Y028330D02*
X018930Y028330D01*
X024580Y028330D02*
X025180Y028330D01*
X025660Y026770D02*
X025660Y026170D01*
X026660Y026170D02*
X026660Y026770D01*
X027140Y028330D02*
X027740Y028330D01*
X027740Y030110D02*
X027140Y030110D01*
X025180Y030110D02*
X024580Y030110D01*
X030830Y030110D02*
X031430Y030110D01*
X033390Y030110D02*
X033990Y030110D01*
X033990Y028330D02*
X033390Y028330D01*
X031430Y028330D02*
X030830Y028330D01*
X031910Y026770D02*
X031910Y026170D01*
X032910Y026170D02*
X032910Y026770D01*
X037660Y024520D02*
X037660Y023920D01*
X038660Y023920D02*
X038660Y024520D01*
X039660Y024520D02*
X039660Y023920D01*
X040660Y023920D02*
X040660Y024520D01*
X043660Y025483D02*
X043660Y026083D01*
X044660Y026083D02*
X044660Y025483D01*
X045660Y025483D02*
X045660Y026083D01*
X050730Y018468D02*
X051330Y018468D01*
X051330Y017468D02*
X050730Y017468D01*
X050730Y016468D02*
X051330Y016468D01*
X051330Y015468D02*
X050730Y015468D01*
X050730Y014468D02*
X051330Y014468D01*
X051330Y013468D02*
X050730Y013468D01*
X037660Y002520D02*
X037660Y001920D01*
X036660Y001920D02*
X036660Y002520D01*
X030660Y002520D02*
X030660Y001920D01*
X029660Y001920D02*
X029660Y002520D01*
X023660Y002520D02*
X023660Y001920D01*
X022660Y001920D02*
X022660Y002520D01*
X033860Y016970D02*
X034460Y016970D01*
X034460Y017970D02*
X033860Y017970D01*
D16*
X044010Y019883D02*
X044012Y019933D01*
X044018Y019983D01*
X044028Y020033D01*
X044041Y020081D01*
X044058Y020129D01*
X044079Y020175D01*
X044103Y020219D01*
X044131Y020261D01*
X044162Y020301D01*
X044196Y020338D01*
X044233Y020373D01*
X044272Y020404D01*
X044313Y020433D01*
X044357Y020458D01*
X044403Y020480D01*
X044450Y020498D01*
X044498Y020512D01*
X044547Y020523D01*
X044597Y020530D01*
X044647Y020533D01*
X044698Y020532D01*
X044748Y020527D01*
X044798Y020518D01*
X044846Y020506D01*
X044894Y020489D01*
X044940Y020469D01*
X044985Y020446D01*
X045028Y020419D01*
X045068Y020389D01*
X045106Y020356D01*
X045141Y020320D01*
X045174Y020281D01*
X045203Y020240D01*
X045229Y020197D01*
X045252Y020152D01*
X045271Y020105D01*
X045286Y020057D01*
X045298Y020008D01*
X045306Y019958D01*
X045310Y019908D01*
X045310Y019858D01*
X045306Y019808D01*
X045298Y019758D01*
X045286Y019709D01*
X045271Y019661D01*
X045252Y019614D01*
X045229Y019569D01*
X045203Y019526D01*
X045174Y019485D01*
X045141Y019446D01*
X045106Y019410D01*
X045068Y019377D01*
X045028Y019347D01*
X044985Y019320D01*
X044940Y019297D01*
X044894Y019277D01*
X044846Y019260D01*
X044798Y019248D01*
X044748Y019239D01*
X044698Y019234D01*
X044647Y019233D01*
X044597Y019236D01*
X044547Y019243D01*
X044498Y019254D01*
X044450Y019268D01*
X044403Y019286D01*
X044357Y019308D01*
X044313Y019333D01*
X044272Y019362D01*
X044233Y019393D01*
X044196Y019428D01*
X044162Y019465D01*
X044131Y019505D01*
X044103Y019547D01*
X044079Y019591D01*
X044058Y019637D01*
X044041Y019685D01*
X044028Y019733D01*
X044018Y019783D01*
X044012Y019833D01*
X044010Y019883D01*
D17*
X044660Y019883D03*
D18*
X047910Y020220D03*
X047910Y024220D03*
X045910Y027470D03*
X044910Y027470D03*
X042160Y027220D03*
X042160Y026220D03*
X041160Y026470D03*
X037160Y026470D03*
X035410Y025220D03*
X034410Y025220D03*
X034410Y024220D03*
X035410Y024220D03*
X030410Y025220D03*
X029160Y025220D03*
X028160Y025220D03*
X028160Y024220D03*
X029160Y024220D03*
X024160Y025220D03*
X022910Y025220D03*
X021910Y025220D03*
X021910Y024220D03*
X021910Y023220D03*
X021910Y022220D03*
X021910Y020220D03*
X021910Y018220D03*
X021910Y017220D03*
X021910Y016220D03*
X021160Y013470D03*
X021910Y011220D03*
X025160Y013470D03*
X028160Y013220D03*
X028160Y017220D03*
X029160Y018470D03*
X025160Y018470D03*
X023910Y024220D03*
X022910Y024220D03*
X017910Y024220D03*
X017910Y023220D03*
X017910Y022220D03*
X017910Y020220D03*
X017910Y018220D03*
X017910Y017220D03*
X017910Y016220D03*
X017910Y011220D03*
X024660Y002220D03*
X028660Y002220D03*
X031660Y002220D03*
X033660Y003470D03*
X034660Y003470D03*
X035660Y003470D03*
X036660Y003470D03*
X035660Y002220D03*
X038660Y002220D03*
X042660Y002220D03*
X043660Y003970D03*
X044660Y003970D03*
X045660Y003970D03*
X046660Y003970D03*
X046660Y007970D03*
X045660Y007970D03*
X044660Y007970D03*
X043660Y007970D03*
X039660Y007470D03*
X038660Y007470D03*
X036660Y007470D03*
X035660Y007470D03*
X034660Y007470D03*
X033660Y007470D03*
X032660Y007470D03*
X031660Y007470D03*
X036160Y012470D03*
X036160Y013470D03*
X036160Y014470D03*
X036160Y015470D03*
X036160Y016470D03*
X036160Y017470D03*
X041910Y016470D03*
X041910Y015470D03*
X043410Y015470D03*
X043410Y016470D03*
X044660Y013470D03*
X045660Y013470D03*
X035410Y029220D03*
X029160Y029220D03*
X022910Y029220D03*
X017910Y025220D03*
D19*
X047410Y027120D03*
D20*
X047410Y026320D03*
D21*
X034160Y014920D03*
X034160Y013020D03*
X015660Y015470D03*
X015660Y016470D03*
X015660Y017470D03*
X014660Y017970D03*
X014660Y016970D03*
X014660Y015970D03*
X015660Y022470D03*
X015660Y023470D03*
X015660Y024470D03*
X014660Y023970D03*
X014660Y022970D03*
X014660Y024970D03*
D22*
X038160Y027470D03*
X041160Y027470D03*
D23*
X042160Y028970D03*
X042160Y029970D03*
X044660Y002970D03*
X044660Y001970D03*
X046660Y001970D03*
X046660Y002970D03*
D24*
X050562Y002189D03*
X015129Y002189D03*
X015129Y029748D03*
X050562Y029748D03*
M02*
