%
M48
M72
T01C0.0236
T02C0.0315
T03C0.0320
T04C0.0360
T05C0.0394
T06C0.0400
T07C0.0433
T08C0.0470
T09C0.1260
T10C0.1300
%
T01
X14660Y4970
X16410Y4970
X29160Y6470
X32160Y4720
X39660Y4720
X47910Y5220
X47910Y6470
X49910Y4970
X49160Y10345
X49160Y10970
X49160Y11595
X49910Y13845
X49910Y14470
X49910Y15095
X49160Y15720
X49160Y18345
X49160Y18970
X49910Y19970
X49910Y20595
X46160Y20720
X46160Y21470
X45410Y21470
X44660Y21470
X43910Y21470
X43160Y21470
X43160Y20720
X43160Y19970
X43160Y19220
X42660Y17220
X39910Y15970
X39160Y14970
X35660Y12970
X35660Y18595
X28160Y14970
X43160Y22220
X43160Y22970
X43910Y22970
X44660Y22970
X45410Y22970
X45410Y22220
X44660Y22220
X43910Y22220
X46160Y22220
X46160Y22970
X46160Y19970
X46160Y19220
T02
X42160Y28970
X42160Y29970
X44660Y2970
X44660Y1970
X46660Y1970
X46660Y2970
T03
X46660Y3970
X45660Y3970
X44660Y3970
X43660Y3970
X41660Y3970
X42660Y2220
X38660Y2220
X38660Y3970
X37660Y3970
X36660Y3470
X35660Y3470
X34660Y3470
X33660Y3470
X35660Y2220
X31660Y2220
X28660Y2220
X24660Y2220
X31660Y7470
X32660Y7470
X33660Y7470
X34660Y7470
X35660Y7470
X36660Y7470
X37660Y6970
X38660Y7470
X39660Y7470
X40660Y9470
X40660Y10470
X40660Y11470
X40660Y12470
X40660Y13470
X40660Y14470
X40660Y15470
X40660Y16470
X40660Y17470
X41910Y16470
X41910Y15470
X43410Y15470
X43410Y16470
X40660Y18470
X40660Y19470
X40660Y20470
X40660Y21470
X40660Y22470
X37660Y22470
X37660Y21470
X37660Y20470
X37660Y19470
X37660Y18470
X37660Y17470
X37660Y16470
X37660Y15470
X37660Y14470
X37660Y13470
X37660Y12470
X37660Y11470
X37660Y10470
X37660Y9470
X36160Y12470
X36160Y13470
X36160Y14470
X36160Y15470
X36160Y16470
X36160Y17470
X34160Y14920
X34160Y13020
X32160Y11720
X31160Y11720
X30160Y11720
X29160Y11720
X28160Y11720
X27160Y11720
X26160Y11720
X25160Y11720
X25160Y13470
X28160Y13220
X28160Y17220
X29160Y18470
X29160Y20220
X28160Y20220
X27160Y20220
X26160Y20220
X25160Y20220
X25160Y18470
X21910Y18220
X21910Y17220
X21910Y16220
X21160Y13470
X21910Y11220
X17910Y11220
X15660Y15470
X15660Y16470
X15660Y17470
X14660Y17970
X14660Y16970
X14660Y15970
X17910Y16220
X17910Y17220
X17910Y18220
X17910Y20220
X17910Y22220
X17910Y23220
X17910Y24220
X17910Y25220
X15660Y24470
X15660Y23470
X15660Y22470
X14660Y22970
X14660Y23970
X14660Y24970
X21910Y25220
X22910Y25220
X24160Y25220
X23910Y24220
X22910Y24220
X21910Y24220
X21910Y23220
X21910Y22220
X21910Y20220
X25160Y23220
X26160Y23220
X27160Y23220
X28160Y23220
X28160Y24220
X29160Y24220
X29160Y23220
X30160Y23220
X31160Y23220
X32160Y23220
X34410Y24220
X35410Y24220
X35410Y25220
X34410Y25220
X37160Y26470
X35410Y29220
X30410Y25220
X29160Y25220
X28160Y25220
X29160Y29220
X22910Y29220
X30160Y20220
X31160Y20220
X32160Y20220
X41160Y26470
X42160Y26220
X42160Y27220
X44910Y27470
X45910Y27470
X47410Y27120
X47410Y26320
X47910Y24220
X47910Y20220
X45660Y13470
X44660Y13470
X43660Y12220
X43660Y11220
X43660Y10220
X43660Y9220
X43660Y7970
X44660Y7970
X45660Y7970
X46660Y7970
X46660Y9220
X46660Y10220
X46660Y11220
X46660Y12220
X32160Y8720
X31160Y8720
X30160Y8720
X29160Y8720
X28160Y8720
X27160Y8720
X26160Y8720
X25160Y8720
T04
X14660Y9220
X50910Y7220
T05
X49910Y7220
X49910Y8220
X49910Y9220
X49910Y10220
X50910Y10220
X50910Y9220
X50910Y8220
X50910Y6220
X49910Y6220
X49910Y23220
X49910Y24220
X50910Y24220
X50910Y23220
X50910Y25220
X49910Y25220
X15660Y10220
X14660Y10220
X15660Y9220
X15660Y8220
X14660Y8220
X14660Y7220
X15660Y7220
X15660Y6220
X14660Y6220
T06
X22660Y2220
X23660Y2220
X29660Y2220
X30660Y2220
X36660Y2220
X37660Y2220
X51030Y13468
X51030Y14468
X51030Y15468
X51030Y16468
X51030Y17468
X51030Y18468
X45660Y25783
X44660Y25783
X43660Y25783
X40660Y24220
X39660Y24220
X38660Y24220
X37660Y24220
X32910Y26470
X31910Y26470
X31130Y28330
X31130Y30110
X33690Y30110
X33690Y28330
X27440Y28330
X27440Y30110
X24880Y30110
X24880Y28330
X25660Y26470
X26660Y26470
X21190Y28330
X21190Y30110
X18630Y30110
X18630Y28330
X19410Y26470
X20410Y26470
X16660Y20220
X15660Y20220
X14660Y20220
X14660Y13220
X15660Y13220
X16660Y13220
X34160Y16970
X34160Y17970
T07
X38160Y27470
X41160Y27470
T08
X39395Y29720
X37426Y29720
X44926Y29720
X46895Y29720
T09
X50562Y29748
X15129Y29748
X15129Y2189
X50562Y2189
T10
X44660Y19883
M30
